/* XPM */
static char *result[] = {
/* columns rows colors chars-per-pixel */
"96 96 7 1 ",
"  c #6E5967",
". c #926475",
"X c #AD707B",
"o c #B77F83",
"O c #C39490",
"+ c #D1B1A5",
"@ c #DCCABE",
/* pixels */
"                                                                                                ",
"                                                                                                ",
"                                                                                                ",
"                                                                                                ",
"                                                                                                ",
"                                                                                                ",
"                                                                                                ",
"                                                                                                ",
"                                                                                                ",
"                                                                                                ",
"                                                                                                ",
"                                                                                                ",
"   ...XXXXXXXXXXXXXXXXXXXXXXXXXXXXXXXXXXXXXXXXXXXXXXXXXXXXXXXXXXXXXXXXXXXXX...                  ",
"   ...XXXXXXXXXXXXXXXXXXXXXXXXXXXXXXXXXXXXXXXXXXXXXXXXXXXXXXXXXXXXXXXXXXXXX...                  ",
"   ...XXXXXXXXXXXXXXXXXXXXXXXXXXXXXXXXXXXXXXXXXXXXXXXXXXXXXXXXXXXXXXXXXXXXX...                  ",
"         XXX......XXX...XXXXXXXXXXXXXXXXXXXXXXXXXXXXXXXXXXXXXXXXXXXXXXXXXXXXXX                  ",
"         XXX......XXX...XXXXXXXXXXXXXXXXXXXXXXXXXXXXXXXXXXXXXXXXXXXXXXXXXXXXXX                  ",
"         XXX......XXX...XXXXXXXXXXXXXXXXXXXXXXXXXXXXXXXXXXXXXXXXXXXXXXXXXXXXXX                  ",
"   XXXXXXXXXXXXXXXXXXXXXXXXXXXXXXXXXXXXXXXXXXXXXXXXXXXXXXXXXXXXXXXXXXXXXXXXXXX                  ",
"   XXXXXXXXXXXXXXXXXXXXXXXXXXXXXXXXXXXXXXXXXXXXXXXXXXXXXXXXXXXXXXXXXXXXXXXXXXX                  ",
"   XXXXXXXXXXXXXXXXXXXXXXXXXXXXXXXXXXXXXXXXXXXXXXXXXXXXXXXXXXXXXXXXXXXXXXXXXXX                  ",
"   ...XXXXXXXXXXXXXXXXXXXXXXXXXXXXXXXXXXXXXXXXXXXXXXXXXXXXXXXXXXXXXXXXXXXXX...                  ",
"   ...XXXXXXXXXXXXXXXXXXXXXXXXXXXXXXXXXXXXXXXXXXXXXXXXXXXXXXXXXXXXXXXXXXXXX...                  ",
"   ...XXXXXXXXXXXXXXXXXXXXXXXXXXXXXXXXXXXXXXXXXXXXXXXXXXXXXXXXXXXXXXXXXXXXX...                  ",
"                                                                                                ",
"                                                                                                ",
"                                                                                                ",
"XXXXXXXXXXXXXXXXXXXXXXXXXXXXXXXXXXXXXXXXXX...   ...XXXXXXXXXXXXXXXXXXXXXXXX...                  ",
"XXXXXXXXXXXXXXXXXXXXXXXXXXXXXXXXXXXXXXXXXX...   ...XXXXXXXXXXXXXXXXXXXXXXXX...                  ",
"XXXXXXXXXXXXXXXXXXXXXXXXXXXXXXXXXXXXXXXXXX...   ...XXXXXXXXXXXXXXXXXXXXXXXX...                  ",
"XXXXXXXXXXXXXXXXXXXXXXXXXXXXXXXXXXXXXXXXXXXXX   XXXXXXXXXXXXXXXXXXXXXXXXXXXXXX                  ",
"XXXXXXXXXXXXXXXXXXXXXXXXXXXXXXXXXXXXXXXXXXXXX   XXXXXXXXXXXXXXXXXXXXXXXXXXXXXX                  ",
"XXXXXXXXXXXXXXXXXXXXXXXXXXXXXXXXXXXXXXXXXXXXX   XXXXXXXXXXXXXXXXXXXXXXXXXXXXXX                  ",
"OOOOOOOOOOOOOOOOOOOOOOOOOOOOOOOOOoooXXXXXX...   oooOOOOOOOOOoooXXXXXXXXXXXXXXX                  ",
"OOOOOOOOOOOOOOOOOOOOOOOOOOOOOOOOOoooXXXXXX...   oooOOOOOOOOOoooXXXXXXXXXXXXXXX                  ",
"OOOOOOOOOOOOOOOOOOOOOOOOOOOOOOOOOoooXXXXXX...   oooOOOOOOOOOoooXXXXXXXXXXXXXXX                  ",
"OOOOOOOOOOOOOOOXXXXXXOOOXXXOOOXXXXXXXXX         OOOOOOOOOOOOOOOXXXXXXXXXXXXXXX                  ",
"OOOOOOOOOOOOOOOXXXXXXOOOXXXOOOXXXXXXXXX         OOOOOOOOOOOOOOOXXXXXXXXXXXXXXX                  ",
"OOOOOOOOOOOOOOOXXXXXXOOOXXXOOOXXXXXXXXX         OOOOOOOOOOOOOOOXXXXXXXXXXXXXXX                  ",
"OOOOOO+++OOO+++++++++OOO++++++OOOOOOXXXXXX...         OOOXXXXXX...XXX......XXX                  ",
"OOOOOO+++OOO+++++++++OOO++++++OOOOOOXXXXXX...         OOOXXXXXX...XXX......XXX                  ",
"OOOOOO+++OOO+++++++++OOO++++++OOOOOOXXXXXX...         OOOXXXXXX...XXX......XXX                  ",
"OOOOOOOOOOOOOOOOOOOOOOOOOOOOOOOOOOOOXXXXXXXXX   OOOOOOOOOOOOOOOXXXXXXXXXXXXXXX                  ",
"OOOOOOOOOOOOOOOOOOOOOOOOOOOOOOOOOOOOXXXXXXXXX   OOOOOOOOOOOOOOOXXXXXXXXXXXXXXX                  ",
"OOOOOOOOOOOOOOOOOOOOOOOOOOOOOOOOOOOOXXXXXXXXX   OOOOOOOOOOOOOOOXXXXXXXXXXXXXXX                  ",
"OOOOOOOOOOOOOOOOOOOOOOOOOOOOOOOOOoooXXXXXX...   XXXOOOOOOOOOoooXXXXXXXXXXXX...                  ",
"OOOOOOOOOOOOOOOOOOOOOOOOOOOOOOOOOoooXXXXXX...   XXXOOOOOOOOOoooXXXXXXXXXXXX...                  ",
"OOOOOOOOOOOOOOOOOOOOOOOOOOOOOOOOOoooXXXXXX...   XXXOOOOOOOOOoooXXXXXXXXXXXX...                  ",
"                                                                                                ",
"                                                                                                ",
"                                                                                                ",
"   XXXOOOOOOOOO+++OOO+++@@@@@@++++++OOO++++++OOOOOOOOOOOOOOOoooXXXXXXXXXXXXXXXXXX...            ",
"   XXXOOOOOOOOO+++OOO+++@@@@@@++++++OOO++++++OOOOOOOOOOOOOOOoooXXXXXXXXXXXXXXXXXX...            ",
"   XXXOOOOOOOOO+++OOO+++@@@@@@++++++OOO++++++OOOOOOOOOOOOOOOoooXXXXXXXXXXXXXXXXXX...            ",
"   OOOOOOOOOOOOOOOOOOOOOOOOOOOOOOOOOOOOOOOOOOOOOOOOOOOOOOOOOOOOXXXXXXXXXXXXXXXXXXXXX            ",
"   OOOOOOOOOOOOOOOOOOOOOOOOOOOOOOOOOOOOOOOOOOOOOOOOOOOOOOOOOOOOXXXXXXXXXXXXXXXXXXXXX            ",
"   OOOOOOOOOOOOOOOOOOOOOOOOOOOOOOOOOOOOOOOOOOOOOOOOOOOOOOOOOOOOXXXXXXXXXXXXXXXXXXXXX            ",
"   OOOOOOOOOOOOOOOOOOOOOOOOOOOOOOOOOOOOOOOOOOOOOOOOOOOOOOOOOOOOXXXXXXXXXXXXXXXXXXXXX            ",
"   OOOOOOOOOOOOOOOOOOOOOOOOOOOOOOOOOOOOOOOOOOOOOOOOOOOOOOOOOOOOXXXXXXXXXXXXXXXXXXXXX            ",
"   OOOOOOOOOOOOOOOOOOOOOOOOOOOOOOOOOOOOOOOOOOOOOOOOOOOOOOOOOOOOXXXXXXXXXXXXXXXXXXXXX            ",
"   OOOOOOOOOOOOOOOOOOOOOOOOOOOOOOOOOOOOOOOOOOOOOOOOOOOOOOOOOOOOXXX...XXX...XXX                  ",
"   OOOOOOOOOOOOOOOOOOOOOOOOOOOOOOOOOOOOOOOOOOOOOOOOOOOOOOOOOOOOXXX...XXX...XXX                  ",
"   OOOOOOOOOOOOOOOOOOOOOOOOOOOOOOOOOOOOOOOOOOOOOOOOOOOOOOOOOOOOXXX...XXX...XXX                  ",
"   OOOOOOOOOOOOOOOOOOOOOOOOOOOOOOOOOOOOOOOOOOOOOOOOOOOOOOOOOOOOXXXXXXXXXXXXXXXXXXXXX            ",
"   OOOOOOOOOOOOOOOOOOOOOOOOOOOOOOOOOOOOOOOOOOOOOOOOOOOOOOOOOOOOXXXXXXXXXXXXXXXXXXXXX            ",
"   OOOOOOOOOOOOOOOOOOOOOOOOOOOOOOOOOOOOOOOOOOOOOOOOOOOOOOOOOOOOXXXXXXXXXXXXXXXXXXXXX            ",
"   OOOOOOOOOOOOOOOOOOOOOOOOOOOOOOOOOOOOOOOOOOOOOOOOOOOOOOOOOOOOXXXXXXXXXXXXXXXXXXXXX            ",
"   OOOOOOOOOOOOOOOOOOOOOOOOOOOOOOOOOOOOOOOOOOOOOOOOOOOOOOOOOOOOXXXXXXXXXXXXXXXXXXXXX            ",
"   OOOOOOOOOOOOOOOOOOOOOOOOOOOOOOOOOOOOOOOOOOOOOOOOOOOOOOOOOOOOXXXXXXXXXXXXXXXXXXXXX            ",
"   XXXOOOOOOOOOOOOOOOOOOOOOOOOOOOOOOOOOOOOOOOOOOOOOOOOOOOOOOoooXXXXXXXXXXXXXXXXXX...            ",
"   XXXOOOOOOOOOOOOOOOOOOOOOOOOOOOOOOOOOOOOOOOOOOOOOOOOOOOOOOoooXXXXXXXXXXXXXXXXXX...            ",
"   XXXOOOOOOOOOOOOOOOOOOOOOOOOOOOOOOOOOOOOOOOOOOOOOOOOOOOOOOoooXXXXXXXXXXXXXXXXXX...            ",
"                                                                                                ",
"                                                                                                ",
"                                                                                                ",
"OOOOOOOOOOOOOOOOOOOOOOOOOOOOOOOOOoooXXXXXX...   XXXOOOOOOOOOOOOXXXXXXXXXXXX...                  ",
"OOOOOOOOOOOOOOOOOOOOOOOOOOOOOOOOOoooXXXXXX...   XXXOOOOOOOOOOOOXXXXXXXXXXXX...                  ",
"OOOOOOOOOOOOOOOOOOOOOOOOOOOOOOOOOoooXXXXXX...   XXXOOOOOOOOOOOOXXXXXXXXXXXX...                  ",
"OOOOOOOOOOOOOOOOOOOOOOOOOOOOOOOOOOOOXXXXXXXXX   OOOOOOOOOOOOoooXXXXXXXXXXXXXXX                  ",
"OOOOOOOOOOOOOOOOOOOOOOOOOOOOOOOOOOOOXXXXXXXXX   OOOOOOOOOOOOoooXXXXXXXXXXXXXXX                  ",
"OOOOOOOOOOOOOOOOOOOOOOOOOOOOOOOOOOOOXXXXXXXXX   OOOOOOOOOOOOoooXXXXXXXXXXXXXXX                  ",
"XXXXXXXXXXXXXXXXXXXXX...XXX......XXX            XXXXXXXXXXXXXXXXXXXXXXXXXXXXXX                  ",
"XXXXXXXXXXXXXXXXXXXXX...XXX......XXX            XXXXXXXXXXXXXXXXXXXXXXXXXXXXXX                  ",
"XXXXXXXXXXXXXXXXXXXXX...XXX......XXX            XXXXXXXXXXXXXXXXXXXXXXXXXXXXXX                  ",
"XXXXXXXXXXXXXXXXXXXXXXXXXXXXXXXXXXXXXXXXXXXXX   XXXXXXXXXXXXXXXXXXXXXXXXXXXXXX                  ",
"XXXXXXXXXXXXXXXXXXXXXXXXXXXXXXXXXXXXXXXXXXXXX   XXXXXXXXXXXXXXXXXXXXXXXXXXXXXX                  ",
"XXXXXXXXXXXXXXXXXXXXXXXXXXXXXXXXXXXXXXXXXXXXX   XXXXXXXXXXXXXXXXXXXXXXXXXXXXXX                  ",
"XXXXXXXXXXXXXXXXXXXXXXXXXXXXXXXXXXXXXXXXXX...   ...XXXXXXXXXXXXXXXXXXXXXXXX...                  ",
"XXXXXXXXXXXXXXXXXXXXXXXXXXXXXXXXXXXXXXXXXX...   ...XXXXXXXXXXXXXXXXXXXXXXXX...                  ",
"XXXXXXXXXXXXXXXXXXXXXXXXXXXXXXXXXXXXXXXXXX...   ...XXXXXXXXXXXXXXXXXXXXXXXX...                  ",
"                                                                                                ",
"                                                                                                ",
"                                                                                                ",
"                                                                                                ",
"                                                                                                ",
"                                                                                                "
};
