/* XPM */
static char *result[] = {
/* columns rows colors chars-per-pixel */
"96 96 6 1 ",
"  c #6E5967",
". c #926475",
"X c #AD707B",
"o c #B77F83",
"O c #C39490",
"+ c #D1B1A5",
/* pixels */
"                                                                                                ",
"                                                                                                ",
"                                                                                                ",
"            ...XXXXXXXXXXXXXXXXXXoooOOOOOO+++++++++OOOOOOoooXXXXXXXXXXXXXXXXXXXXX...            ",
"            ...XXXXXXXXXXXXXXXXXXoooOOOOOO+++++++++OOOOOOoooXXXXXXXXXXXXXXXXXXXXX...            ",
"            ...XXXXXXXXXXXXXXXXXXoooOOOOOO+++++++++OOOOOOoooXXXXXXXXXXXXXXXXXXXXX...            ",
"            XXXXXXXXXXXXXXXXXXXXXOOOOOOOOOOOOOOOOOOOOOOOOOOOXXXXXXXXXXXXXXXXXXXXXXXX            ",
"            XXXXXXXXXXXXXXXXXXXXXOOOOOOOOOOOOOOOOOOOOOOOOOOOXXXXXXXXXXXXXXXXXXXXXXXX            ",
"            XXXXXXXXXXXXXXXXXXXXXOOOOOOOOOOOOOOOOOOOOOOOOOOOXXXXXXXXXXXXXXXXXXXXXXXX            ",
"            XXXXXXXXXXXXXXXXXXXXXOOOOOOOOOOOOOOOOOOOOOOOOOOOXXXXXXXXXXXXXXXXXXXXXXXX            ",
"            XXXXXXXXXXXXXXXXXXXXXOOOOOOOOOOOOOOOOOOOOOOOOOOOXXXXXXXXXXXXXXXXXXXXXXXX            ",
"            XXXXXXXXXXXXXXXXXXXXXOOOOOOOOOOOOOOOOOOOOOOOOOOOXXXXXXXXXXXXXXXXXXXXXXXX            ",
"                  XXXXXXXXX......XXXOOOXXXOOOOOOOOOOOOOOOOOOXXXXXXXXXXXXXXXXXXXXXXXX            ",
"                  XXXXXXXXX......XXXOOOXXXOOOOOOOOOOOOOOOOOOXXXXXXXXXXXXXXXXXXXXXXXX            ",
"                  XXXXXXXXX......XXXOOOXXXOOOOOOOOOOOOOOOOOOXXXXXXXXXXXXXXXXXXXXXXXX            ",
"            XXXXXXXXXXXXXXXXXXXXXOOO++++++OOOOOOOOOOOOOOOOOOXXXXXXXXXXXXXXXXXXXXXXXX            ",
"            XXXXXXXXXXXXXXXXXXXXXOOO++++++OOOOOOOOOOOOOOOOOOXXXXXXXXXXXXXXXXXXXXXXXX            ",
"            XXXXXXXXXXXXXXXXXXXXXOOO++++++OOOOOOOOOOOOOOOOOOXXXXXXXXXXXXXXXXXXXXXXXX            ",
"            XXXXXXXXXXXXXXXXXXXXXOOOOOOOOOOOOOOOOOOOOOOOOOOOXXXXXXXXXXXXXXXXXXXXXXXX            ",
"            XXXXXXXXXXXXXXXXXXXXXOOOOOOOOOOOOOOOOOOOOOOOOOOOXXXXXXXXXXXXXXXXXXXXXXXX            ",
"            XXXXXXXXXXXXXXXXXXXXXOOOOOOOOOOOOOOOOOOOOOOOOOOOXXXXXXXXXXXXXXXXXXXXXXXX            ",
"            ...XXXXXXXXXXXXXXXXXXoooOOOOOOOOOOOOOOOOOOOOOoooXXXXXXXXXXXXXXXXXXXXX...            ",
"            ...XXXXXXXXXXXXXXXXXXoooOOOOOOOOOOOOOOOOOOOOOoooXXXXXXXXXXXXXXXXXXXXX...            ",
"            ...XXXXXXXXXXXXXXXXXXoooOOOOOOOOOOOOOOOOOOOOOoooXXXXXXXXXXXXXXXXXXXXX...            ",
"                                                                                                ",
"                                                                                                ",
"                                                                                                ",
"                  ...XXXXXXXXXXXXoooOOOOOOXXX   XXXOOOOOOoooXXXXXXXXXXXXXXX...                  ",
"                  ...XXXXXXXXXXXXoooOOOOOOXXX   XXXOOOOOOoooXXXXXXXXXXXXXXX...                  ",
"                  ...XXXXXXXXXXXXoooOOOOOOXXX   XXXOOOOOOoooXXXXXXXXXXXXXXX...                  ",
"                  XXXXXXXXXXXXXXXOOOOOOOOOOOO   OOOOOOOOOOOOXXXXXXXXXXXXXXXXXX                  ",
"                  XXXXXXXXXXXXXXXOOOOOOOOOOOO   OOOOOOOOOOOOXXXXXXXXXXXXXXXXXX                  ",
"                  XXXXXXXXXXXXXXXOOOOOOOOOOOO   OOOOOOOOOOOOXXXXXXXXXXXXXXXXXX                  ",
"                  XXXXXXXXX......XXXOOO         OOOOOOOOOOOOXXXXXXXXXXXXXXXXXX                  ",
"                  XXXXXXXXX......XXXOOO         OOOOOOOOOOOOXXXXXXXXXXXXXXXXXX                  ",
"                  XXXXXXXXX......XXXOOO         OOOOOOOOOOOOXXXXXXXXXXXXXXXXXX                  ",
"                  XXXXXXXXXXXXXXXOOOOOOOOOooo   oooOOOOOOOOOXXXXXXXXXXXXXXXXXX                  ",
"                  XXXXXXXXXXXXXXXOOOOOOOOOooo   oooOOOOOOOOOXXXXXXXXXXXXXXXXXX                  ",
"                  XXXXXXXXXXXXXXXOOOOOOOOOooo   oooOOOOOOOOOXXXXXXXXXXXXXXXXXX                  ",
"                  XXXXXXXXXXXXXXXOOOOOOOOOOOO         OOOXXX......XXX...XXXXXX                  ",
"                  XXXXXXXXXXXXXXXOOOOOOOOOOOO         OOOXXX......XXX...XXXXXX                  ",
"                  XXXXXXXXXXXXXXXOOOOOOOOOOOO         OOOXXX......XXX...XXXXXX                  ",
"                  XXXXXXXXXXXXXXXOOOOOOOOOOOO   OOOOOOOOOOOOXXXXXXXXXXXXXXXXXX                  ",
"                  XXXXXXXXXXXXXXXOOOOOOOOOOOO   OOOOOOOOOOOOXXXXXXXXXXXXXXXXXX                  ",
"                  XXXXXXXXXXXXXXXOOOOOOOOOOOO   OOOOOOOOOOOOXXXXXXXXXXXXXXXXXX                  ",
"                  ...XXXXXXXXXXXXoooOOOOOOXXX   XXXOOOOOOoooXXXXXXXXXXXXXXX...                  ",
"                  ...XXXXXXXXXXXXoooOOOOOOXXX   XXXOOOOOOoooXXXXXXXXXXXXXXX...                  ",
"                  ...XXXXXXXXXXXXoooOOOOOOXXX   XXXOOOOOOoooXXXXXXXXXXXXXXX...                  ",
"                                                                                                ",
"                                                                                                ",
"                                                                                                ",
"            ...XXXXXXXXXXXXXXXXXXoooOOO+++++++++OOO+++OOOoooXXXXXXXXXXXXXXXXXXXXX...            ",
"            ...XXXXXXXXXXXXXXXXXXoooOOO+++++++++OOO+++OOOoooXXXXXXXXXXXXXXXXXXXXX...            ",
"            ...XXXXXXXXXXXXXXXXXXoooOOO+++++++++OOO+++OOOoooXXXXXXXXXXXXXXXXXXXXX...            ",
"            XXXXXXXXXXXXXXXXXXXXXOOOOOOOOOOOOOOOOOOOOOOOOOOOXXXXXXXXXXXXXXXXXXXXXXXX            ",
"            XXXXXXXXXXXXXXXXXXXXXOOOOOOOOOOOOOOOOOOOOOOOOOOOXXXXXXXXXXXXXXXXXXXXXXXX            ",
"            XXXXXXXXXXXXXXXXXXXXXOOOOOOOOOOOOOOOOOOOOOOOOOOOXXXXXXXXXXXXXXXXXXXXXXXX            ",
"            XXXXXXXXXXXXXXXXXXXXXOOOOOOOOOOOOOOOOOOOOOOOOOOOXXXXXXXXXXXXXXXXXXXXXXXX            ",
"            XXXXXXXXXXXXXXXXXXXXXOOOOOOOOOOOOOOOOOOOOOOOOOOOXXXXXXXXXXXXXXXXXXXXXXXX            ",
"            XXXXXXXXXXXXXXXXXXXXXOOOOOOOOOOOOOOOOOOOOOOOOOOOXXXXXXXXXXXXXXXXXXXXXXXX            ",
"            XXXXXXXXXXXXXXXXXXXXXOOOOOOOOOOOOOOOOOOOOOOOOOOOXXXXXXXXX......XXX                  ",
"            XXXXXXXXXXXXXXXXXXXXXOOOOOOOOOOOOOOOOOOOOOOOOOOOXXXXXXXXX......XXX                  ",
"            XXXXXXXXXXXXXXXXXXXXXOOOOOOOOOOOOOOOOOOOOOOOOOOOXXXXXXXXX......XXX                  ",
"            XXXXXXXXXXXXXXXXXXXXXOOOOOOOOOOOOOOOOOOOOOOOOOOOXXXXXXXXXXXXXXXXXXXXXXXX            ",
"            XXXXXXXXXXXXXXXXXXXXXOOOOOOOOOOOOOOOOOOOOOOOOOOOXXXXXXXXXXXXXXXXXXXXXXXX            ",
"            XXXXXXXXXXXXXXXXXXXXXOOOOOOOOOOOOOOOOOOOOOOOOOOOXXXXXXXXXXXXXXXXXXXXXXXX            ",
"            XXXXXXXXXXXXXXXXXXXXXOOOOOOOOOOOOOOOOOOOOOOOOOOOXXXXXXXXXXXXXXXXXXXXXXXX            ",
"            XXXXXXXXXXXXXXXXXXXXXOOOOOOOOOOOOOOOOOOOOOOOOOOOXXXXXXXXXXXXXXXXXXXXXXXX            ",
"            XXXXXXXXXXXXXXXXXXXXXOOOOOOOOOOOOOOOOOOOOOOOOOOOXXXXXXXXXXXXXXXXXXXXXXXX            ",
"            ...XXXXXXXXXXXXXXXXXXoooOOOOOOOOOOOOOOOOOOOOOoooXXXXXXXXXXXXXXXXXXXXX...            ",
"            ...XXXXXXXXXXXXXXXXXXoooOOOOOOOOOOOOOOOOOOOOOoooXXXXXXXXXXXXXXXXXXXXX...            ",
"            ...XXXXXXXXXXXXXXXXXXoooOOOOOOOOOOOOOOOOOOOOOoooXXXXXXXXXXXXXXXXXXXXX...            ",
"                                                                                                ",
"                                                                                                ",
"                                                                                                ",
"                  ...XXXXXXXXXXXXOOOOOOOOOXXX   XXXOOOOOOOOOXXXXXXXXXXXXXXX...                  ",
"                  ...XXXXXXXXXXXXOOOOOOOOOXXX   XXXOOOOOOOOOXXXXXXXXXXXXXXX...                  ",
"                  ...XXXXXXXXXXXXOOOOOOOOOXXX   XXXOOOOOOOOOXXXXXXXXXXXXXXX...                  ",
"                  XXXXXXXXXXXXXXXoooOOOOOOOOO   OOOOOOOOOoooXXXXXXXXXXXXXXXXXX                  ",
"                  XXXXXXXXXXXXXXXoooOOOOOOOOO   OOOOOOOOOoooXXXXXXXXXXXXXXXXXX                  ",
"                  XXXXXXXXXXXXXXXoooOOOOOOOOO   OOOOOOOOOoooXXXXXXXXXXXXXXXXXX                  ",
"                  XXXXXXXXX......XXX            XXXXXXXXXXXXXXXXXXXXXXXXXXXXXX                  ",
"                  XXXXXXXXX......XXX            XXXXXXXXXXXXXXXXXXXXXXXXXXXXXX                  ",
"                  XXXXXXXXX......XXX            XXXXXXXXXXXXXXXXXXXXXXXXXXXXXX                  ",
"                  XXXXXXXXXXXXXXXXXXXXXXXXXXX   XXXXXXXXXXXXXXXXXXXXXXXXXXXXXX                  ",
"                  XXXXXXXXXXXXXXXXXXXXXXXXXXX   XXXXXXXXXXXXXXXXXXXXXXXXXXXXXX                  ",
"                  XXXXXXXXXXXXXXXXXXXXXXXXXXX   XXXXXXXXXXXXXXXXXXXXXXXXXXXXXX                  ",
"                  ...XXXXXXXXXXXXXXXXXXXXX...   ...XXXXXXXXXXXXXXXXXXXXXXXX...                  ",
"                  ...XXXXXXXXXXXXXXXXXXXXX...   ...XXXXXXXXXXXXXXXXXXXXXXXX...                  ",
"                  ...XXXXXXXXXXXXXXXXXXXXX...   ...XXXXXXXXXXXXXXXXXXXXXXXX...                  ",
"                                                                                                ",
"                                                                                                ",
"                                                                                                ",
"                                                                                                ",
"                                                                                                ",
"                                                                                                "
};
