/* XPM */
static char *result[] = {
/* columns rows colors chars-per-pixel */
"96 96 6 1 ",
"  c #6E5967",
". c #926475",
"X c #AD707B",
"o c #B77F83",
"O c #C39490",
"+ c #D1B1A5",
/* pixels */
"                                                                                                ",
"                                                                                                ",
"                                                                                                ",
"                                                                                                ",
"                                                                                                ",
"                                                                                                ",
"                                                                                                ",
"                                                                                                ",
"                                                                                                ",
"                                                                                                ",
"                                                                                                ",
"                                                                                                ",
"                  ...XXXXXXXXXXXXXXXXXXXXXXXXXXXXXXXXXXXXXXXXXXXXXXXXXXXXXX...                  ",
"                  ...XXXXXXXXXXXXXXXXXXXXXXXXXXXXXXXXXXXXXXXXXXXXXXXXXXXXXX...                  ",
"                  ...XXXXXXXXXXXXXXXXXXXXXXXXXXXXXXXXXXXXXXXXXXXXXXXXXXXXXX...                  ",
"                  XXXXXXXXXXXXXXXXXXXXXXXXXXXXXXXXXXXXXXXXXXXXXXXXXXXXXXXXXXXX                  ",
"                  XXXXXXXXXXXXXXXXXXXXXXXXXXXXXXXXXXXXXXXXXXXXXXXXXXXXXXXXXXXX                  ",
"                  XXXXXXXXXXXXXXXXXXXXXXXXXXXXXXXXXXXXXXXXXXXXXXXXXXXXXXXXXXXX                  ",
"                  XXXXXXXXXXXXXXXXXXXXXXXXXXXXXXXXXXXXXXXXXXXXXXXXXXXXXXXXXXXX                  ",
"                  XXXXXXXXXXXXXXXXXXXXXXXXXXXXXXXXXXXXXXXXXXXXXXXXXXXXXXXXXXXX                  ",
"                  XXXXXXXXXXXXXXXXXXXXXXXXXXXXXXXXXXXXXXXXXXXXXXXXXXXXXXXXXXXX                  ",
"                  ...XXXXXXXXXXXXXXXXXXXXXXXXXXXXXXXXXXXXXXXXXXXXXXXXXXXXXX...                  ",
"                  ...XXXXXXXXXXXXXXXXXXXXXXXXXXXXXXXXXXXXXXXXXXXXXXXXXXXXXX...                  ",
"                  ...XXXXXXXXXXXXXXXXXXXXXXXXXXXXXXXXXXXXXXXXXXXXXXXXXXXXXX...                  ",
"                                                                                                ",
"                                                                                                ",
"                                                                                                ",
"                  ...XXXXXXXXXXXXXXXXXXXXXXXX   ...XXXXXXXXXXXXXXXXXXXXXXXX...                  ",
"                  ...XXXXXXXXXXXXXXXXXXXXXXXX   ...XXXXXXXXXXXXXXXXXXXXXXXX...                  ",
"                  ...XXXXXXXXXXXXXXXXXXXXXXXX   ...XXXXXXXXXXXXXXXXXXXXXXXX...                  ",
"                  XXXXXXXXXXXXXXXXXXXXXXXXXXX   XXXXXXXXXXXXXXXXXXXXXXXXXXXXXX                  ",
"                  XXXXXXXXXXXXXXXXXXXXXXXXXXX   XXXXXXXXXXXXXXXXXXXXXXXXXXXXXX                  ",
"                  XXXXXXXXXXXXXXXXXXXXXXXXXXX   XXXXXXXXXXXXXXXXXXXXXXXXXXXXXX                  ",
"                  XXXXXXXXXXXXXXXoooOOOOOOooo   oooOOOOOOOOOoooXXXXXXXXXXXXXXX                  ",
"                  XXXXXXXXXXXXXXXoooOOOOOOooo   oooOOOOOOOOOoooXXXXXXXXXXXXXXX                  ",
"                  XXXXXXXXXXXXXXXoooOOOOOOooo   oooOOOOOOOOOoooXXXXXXXXXXXXXXX                  ",
"                  XXXXXXXXXXXXXXXOOOOOOOOOOOO   OOOOOOOOOOOOOOOXXXXXXXXXXXXXXX                  ",
"                  XXXXXXXXXXXXXXXOOOOOOOOOOOO   OOOOOOOOOOOOOOOXXXXXXXXXXXXXXX                  ",
"                  XXXXXXXXXXXXXXXOOOOOOOOOOOO   OOOOOOOOOOOOOOOXXXXXXXXXXXXXXX                  ",
"                  XXXXXXXXXXXXXXXOOOOOOOOOOOO         OOOXXXXXX...XXX......XXX                  ",
"                  XXXXXXXXXXXXXXXOOOOOOOOOOOO         OOOXXXXXX...XXX......XXX                  ",
"                  XXXXXXXXXXXXXXXOOOOOOOOOOOO         OOOXXXXXX...XXX......XXX                  ",
"                  XXXXXXXXXXXXXXXOOOOOOOOOOOO   OOOOOOOOOOOOOOOXXXXXXXXXXXXXXX                  ",
"                  XXXXXXXXXXXXXXXOOOOOOOOOOOO   OOOOOOOOOOOOOOOXXXXXXXXXXXXXXX                  ",
"                  XXXXXXXXXXXXXXXOOOOOOOOOOOO   OOOOOOOOOOOOOOOXXXXXXXXXXXXXXX                  ",
"                  ...XXXXXXXXXXXXoooOOOOOOXXX   XXXOOOOOOOOOoooXXXXXXXXXXXX...                  ",
"                  ...XXXXXXXXXXXXoooOOOOOOXXX   XXXOOOOOOOOOoooXXXXXXXXXXXX...                  ",
"                  ...XXXXXXXXXXXXoooOOOOOOXXX   XXXOOOOOOOOOoooXXXXXXXXXXXX...                  ",
"                                                                                                ",
"                                                                                                ",
"                                                                                                ",
"            ...XXXXXXXXXXXXXXXXXXoooOOO++++++OOO+++++++++OOOoooXXXXXXXXXXXXXXXXXX...            ",
"            ...XXXXXXXXXXXXXXXXXXoooOOO++++++OOO+++++++++OOOoooXXXXXXXXXXXXXXXXXX...            ",
"            ...XXXXXXXXXXXXXXXXXXoooOOO++++++OOO+++++++++OOOoooXXXXXXXXXXXXXXXXXX...            ",
"            XXXXXXXXXXXXXXXXXXXXXOOOOOOOOOOOOOOOOOOOOOOOOOOOOOOXXXXXXXXXXXXXXXXXXXXX            ",
"            XXXXXXXXXXXXXXXXXXXXXOOOOOOOOOOOOOOOOOOOOOOOOOOOOOOXXXXXXXXXXXXXXXXXXXXX            ",
"            XXXXXXXXXXXXXXXXXXXXXOOOOOOOOOOOOOOOOOOOOOOOOOOOOOOXXXXXXXXXXXXXXXXXXXXX            ",
"            XXXXXXXXXXXXXXXXXXXXXOOOOOOOOOOOOOOOOOOOOOOOOOOOOOOXXXXXXXXXXXXXXXXXXXXX            ",
"            XXXXXXXXXXXXXXXXXXXXXOOOOOOOOOOOOOOOOOOOOOOOOOOOOOOXXXXXXXXXXXXXXXXXXXXX            ",
"            XXXXXXXXXXXXXXXXXXXXXOOOOOOOOOOOOOOOOOOOOOOOOOOOOOOXXXXXXXXXXXXXXXXXXXXX            ",
"            XXXXXXXXXXXXXXXXXXXXXOOOOOOOOOOOOOOOOOOOOOOOOOOOOOOXXX...XXX...XXX                  ",
"            XXXXXXXXXXXXXXXXXXXXXOOOOOOOOOOOOOOOOOOOOOOOOOOOOOOXXX...XXX...XXX                  ",
"            XXXXXXXXXXXXXXXXXXXXXOOOOOOOOOOOOOOOOOOOOOOOOOOOOOOXXX...XXX...XXX                  ",
"            XXXXXXXXXXXXXXXXXXXXXOOOOOOOOOOOOOOOOOOOOOOOOOOOOOOXXXXXXXXXXXXXXXXXXXXX            ",
"            XXXXXXXXXXXXXXXXXXXXXOOOOOOOOOOOOOOOOOOOOOOOOOOOOOOXXXXXXXXXXXXXXXXXXXXX            ",
"            XXXXXXXXXXXXXXXXXXXXXOOOOOOOOOOOOOOOOOOOOOOOOOOOOOOXXXXXXXXXXXXXXXXXXXXX            ",
"            XXXXXXXXXXXXXXXXXXXXXOOOOOOOOOOOOOOOOOOOOOOOOOOOOOOXXXXXXXXXXXXXXXXXXXXX            ",
"            XXXXXXXXXXXXXXXXXXXXXOOOOOOOOOOOOOOOOOOOOOOOOOOOOOOXXXXXXXXXXXXXXXXXXXXX            ",
"            XXXXXXXXXXXXXXXXXXXXXOOOOOOOOOOOOOOOOOOOOOOOOOOOOOOXXXXXXXXXXXXXXXXXXXXX            ",
"            ...XXXXXXXXXXXXXXXXXXoooOOOOOOOOOOOOOOOOOOOOOOOOoooXXXXXXXXXXXXXXXXXX...            ",
"            ...XXXXXXXXXXXXXXXXXXoooOOOOOOOOOOOOOOOOOOOOOOOOoooXXXXXXXXXXXXXXXXXX...            ",
"            ...XXXXXXXXXXXXXXXXXXoooOOOOOOOOOOOOOOOOOOOOOOOOoooXXXXXXXXXXXXXXXXXX...            ",
"                                                                                                ",
"                                                                                                ",
"                                                                                                ",
"                  ...XXXXXXXXXXXXoooOOOOOOXXX   XXXOOOOOOOOOoooXXXXXXXXXXXX...                  ",
"                  ...XXXXXXXXXXXXoooOOOOOOXXX   XXXOOOOOOOOOoooXXXXXXXXXXXX...                  ",
"                  ...XXXXXXXXXXXXoooOOOOOOXXX   XXXOOOOOOOOOoooXXXXXXXXXXXX...                  ",
"                  XXXXXXXXXXXXXXXOOOOOOOOOOOO   OOOOOOOOOOOOOOOXXXXXXXXXXXXXXX                  ",
"                  XXXXXXXXXXXXXXXOOOOOOOOOOOO   OOOOOOOOOOOOOOOXXXXXXXXXXXXXXX                  ",
"                  XXXXXXXXXXXXXXXOOOOOOOOOOOO   OOOOOOOOOOOOOOOXXXXXXXXXXXXXXX                  ",
"                  XXXXXXXXXXXXXXXOOOOOOOOOooo   OOOOOOOOOOOOOOOXXXXXXXXXXXXXXX                  ",
"                  XXXXXXXXXXXXXXXOOOOOOOOOooo   OOOOOOOOOOOOOOOXXXXXXXXXXXXXXX                  ",
"                  XXXXXXXXXXXXXXXOOOOOOOOOooo   OOOOOOOOOOOOOOOXXXXXXXXXXXXXXX                  ",
"                  XXXXXXXXX......OOO            OOOOOOOOOOOOOOOXXXXXXXXXXXXXXX                  ",
"                  XXXXXXXXX......OOO            OOOOOOOOOOOOOOOXXXXXXXXXXXXXXX                  ",
"                  XXXXXXXXX......OOO            OOOOOOOOOOOOOOOXXXXXXXXXXXXXXX                  ",
"                  XXXXXXXXXXXXXXX++++++OOOooo   OOOOOOOOOOOOOOOXXXXXXXXXXXXXXX                  ",
"                  XXXXXXXXXXXXXXX++++++OOOooo   OOOOOOOOOOOOOOOXXXXXXXXXXXXXXX                  ",
"                  XXXXXXXXXXXXXXX++++++OOOooo   OOOOOOOOOOOOOOOXXXXXXXXXXXXXXX                  ",
"                  XXXXXXXXXXXXXXXOOOOOOOOOOOO   OOOOOOOOOOOOOOOXXXXXXXXXXXXXXX                  ",
"                  XXXXXXXXXXXXXXXOOOOOOOOOOOO   OOOOOOOOOOOOOOOXXXXXXXXXXXXXXX                  ",
"                  XXXXXXXXXXXXXXXOOOOOOOOOOOO   OOOOOOOOOOOOOOOXXXXXXXXXXXXXXX                  ",
"                  ...XXXXXXXXXXXXoooOOOOOOXXX   XXXOOOOOOOOOoooXXXXXXXXXXXX...                  ",
"                  ...XXXXXXXXXXXXoooOOOOOOXXX   XXXOOOOOOOOOoooXXXXXXXXXXXX...                  ",
"                  ...XXXXXXXXXXXXoooOOOOOOXXX   XXXOOOOOOOOOoooXXXXXXXXXXXX...                  "
};
