/* XPM */
static char *result[] = {
/* columns rows colors chars-per-pixel */
"96 96 7 1 ",
"  c #6E5967",
". c #926475",
"X c #AD707B",
"o c #B77F83",
"O c #C39490",
"+ c #D1B1A5",
"@ c #DCCABE",
/* pixels */
"                                                                                                ",
"                                                                                                ",
"                                                                                                ",
"   XXXOOOOOOOOO+++@@@@@@@@@+++OOOOOO++++++OOOOOOOOOOOOOOOOOOoooXXXXXXXXXXXXXXXXXX...            ",
"   XXXOOOOOOOOO+++@@@@@@@@@+++OOOOOO++++++OOOOOOOOOOOOOOOOOOoooXXXXXXXXXXXXXXXXXX...            ",
"   XXXOOOOOOOOO+++@@@@@@@@@+++OOOOOO++++++OOOOOOOOOOOOOOOOOOoooXXXXXXXXXXXXXXXXXX...            ",
"   OOOOOOOOOOOOOOOOOOOOOOOOOOOOOOOOOOOOOOOOOOOOOOOOOOOOOOOOOOOOXXXXXXXXXXXXXXXXXXXXX            ",
"   OOOOOOOOOOOOOOOOOOOOOOOOOOOOOOOOOOOOOOOOOOOOOOOOOOOOOOOOOOOOXXXXXXXXXXXXXXXXXXXXX            ",
"   OOOOOOOOOOOOOOOOOOOOOOOOOOOOOOOOOOOOOOOOOOOOOOOOOOOOOOOOOOOOXXXXXXXXXXXXXXXXXXXXX            ",
"   OOOOOOOOOOOOOOOOOOOOOOOOOOOOOOOOOOOOOOOOOOOOOOOOOOOOOOOOOOOOXXXXXXXXXXXXXXXXXXXXX            ",
"   OOOOOOOOOOOOOOOOOOOOOOOOOOOOOOOOOOOOOOOOOOOOOOOOOOOOOOOOOOOOXXXXXXXXXXXXXXXXXXXXX            ",
"   OOOOOOOOOOOOOOOOOOOOOOOOOOOOOOOOOOOOOOOOOOOOOOOOOOOOOOOOOOOOXXXXXXXXXXXXXXXXXXXXX            ",
"   OOOOOOOOOOOOOOOOOOOOOOOOOOOOOOOOOOOOOOOOOOOOOOOOOOOOOOOOOOOOXXXXXXXXXXXXXXXXXXXXX            ",
"   OOOOOOOOOOOOOOOOOOOOOOOOOOOOOOOOOOOOOOOOOOOOOOOOOOOOOOOOOOOOXXXXXXXXXXXXXXXXXXXXX            ",
"   OOOOOOOOOOOOOOOOOOOOOOOOOOOOOOOOOOOOOOOOOOOOOOOOOOOOOOOOOOOOXXXXXXXXXXXXXXXXXXXXX            ",
"   OOOOOOOOOOOOOOOOOOOOOOOOOOOOOOOOOOOOOOOOOOOOOOOOOOOOOOOOOOOOXXXXXXXXXXXXXXXXXXXXX            ",
"   OOOOOOOOOOOOOOOOOOOOOOOOOOOOOOOOOOOOOOOOOOOOOOOOOOOOOOOOOOOOXXXXXXXXXXXXXXXXXXXXX            ",
"   OOOOOOOOOOOOOOOOOOOOOOOOOOOOOOOOOOOOOOOOOOOOOOOOOOOOOOOOOOOOXXXXXXXXXXXXXXXXXXXXX            ",
"   OOOOOOOOOOOOOOOOOOOOOOOOOOOOOOOOOOOOOOOOOOOOOOOOOOOOOOOOOOOOXXXXXXXXXXXXXXXXXXXXX            ",
"   OOOOOOOOOOOOOOOOOOOOOOOOOOOOOOOOOOOOOOOOOOOOOOOOOOOOOOOOOOOOXXXXXXXXXXXXXXXXXXXXX            ",
"   OOOOOOOOOOOOOOOOOOOOOOOOOOOOOOOOOOOOOOOOOOOOOOOOOOOOOOOOOOOOXXXXXXXXXXXXXXXXXXXXX            ",
"   XXXOOOOOOOOOOOOOOOOOOOOOOOOOOOOOOOOOOOOOOOOOOOOOOOOOOOOOOoooXXXXXXXXXXXXXXXXXX...            ",
"   XXXOOOOOOOOOOOOOOOOOOOOOOOOOOOOOOOOOOOOOOOOOOOOOOOOOOOOOOoooXXXXXXXXXXXXXXXXXX...            ",
"   XXXOOOOOOOOOOOOOOOOOOOOOOOOOOOOOOOOOOOOOOOOOOOOOOOOOOOOOOoooXXXXXXXXXXXXXXXXXX...            ",
"                                                                                                ",
"                                                                                                ",
"                                                                                                ",
"OOOOOOOOOOOOOOOOOOOOOOOOOOOOOOOOOoooXXXXXX...      XXXOOOOOOoooXXXXXXXXXXXX...                  ",
"OOOOOOOOOOOOOOOOOOOOOOOOOOOOOOOOOoooXXXXXX...      XXXOOOOOOoooXXXXXXXXXXXX...                  ",
"OOOOOOOOOOOOOOOOOOOOOOOOOOOOOOOOOoooXXXXXX...      XXXOOOOOOoooXXXXXXXXXXXX...                  ",
"OOOOOOOOOOOOOOOOOOOOOOOOOOOOOOOOOOOOXXXXXXXXX      OOOOOOOOOOOOXXXXXXXXXXXXXXX                  ",
"OOOOOOOOOOOOOOOOOOOOOOOOOOOOOOOOOOOOXXXXXXXXX      OOOOOOOOOOOOXXXXXXXXXXXXXXX                  ",
"OOOOOOOOOOOOOOOOOOOOOOOOOOOOOOOOOOOOXXXXXXXXX      OOOOOOOOOOOOXXXXXXXXXXXXXXX                  ",
"OOOOOOOOOOOOOOOOOOOOOOOOOOOOOOOOOOOOXXXXXXXXX               OOO...XXX...XXXXXX                  ",
"OOOOOOOOOOOOOOOOOOOOOOOOOOOOOOOOOOOOXXXXXXXXX               OOO...XXX...XXXXXX                  ",
"OOOOOOOOOOOOOOOOOOOOOOOOOOOOOOOOOOOOXXXXXXXXX               OOO...XXX...XXXXXX                  ",
"OOOOOOOOOOOOOOOOOOOOOOOOOOOOOOOOOOOOXXXXXXXXX      oooOOOOOOOOOXXXXXXXXXXXXXXX                  ",
"OOOOOOOOOOOOOOOOOOOOOOOOOOOOOOOOOOOOXXXXXXXXX      oooOOOOOOOOOXXXXXXXXXXXXXXX                  ",
"OOOOOOOOOOOOOOOOOOOOOOOOOOOOOOOOOOOOXXXXXXXXX      oooOOOOOOOOOXXXXXXXXXXXXXXX                  ",
"OOOOOOOOOOOOOOOOOOOOOOOOOOOOOOOOOOOOXXXXXXXXX      OOOOOOOOOOOOXXXXXXXXXXXXXXX                  ",
"OOOOOOOOOOOOOOOOOOOOOOOOOOOOOOOOOOOOXXXXXXXXX      OOOOOOOOOOOOXXXXXXXXXXXXXXX                  ",
"OOOOOOOOOOOOOOOOOOOOOOOOOOOOOOOOOOOOXXXXXXXXX      OOOOOOOOOOOOXXXXXXXXXXXXXXX                  ",
"OOOOOOOOOOOOOOOOOOOOOOOOOOOOOOOOOOOOXXXXXXXXX      OOOOOOOOOOOOXXXXXXXXXXXXXXX                  ",
"OOOOOOOOOOOOOOOOOOOOOOOOOOOOOOOOOOOOXXXXXXXXX      OOOOOOOOOOOOXXXXXXXXXXXXXXX                  ",
"OOOOOOOOOOOOOOOOOOOOOOOOOOOOOOOOOOOOXXXXXXXXX      OOOOOOOOOOOOXXXXXXXXXXXXXXX                  ",
"OOOOOOOOOOOOOOOOOOOOOOOOOOOOOOOOOoooXXXXXX...      XXXOOOOOOoooXXXXXXXXXXXX...                  ",
"OOOOOOOOOOOOOOOOOOOOOOOOOOOOOOOOOoooXXXXXX...      XXXOOOOOOoooXXXXXXXXXXXX...                  ",
"OOOOOOOOOOOOOOOOOOOOOOOOOOOOOOOOOoooXXXXXX...      XXXOOOOOOoooXXXXXXXXXXXX...                  ",
"                                                                                                ",
"                                                                                                ",
"                                                                                                ",
"   XXXOOOOOO+++OOO+++@@@@@@@@@@@@+++OOO++++++OOOOOOOOOOOOOOOoooXXXXXXXXXXXXXXXXXX...            ",
"   XXXOOOOOO+++OOO+++@@@@@@@@@@@@+++OOO++++++OOOOOOOOOOOOOOOoooXXXXXXXXXXXXXXXXXX...            ",
"   XXXOOOOOO+++OOO+++@@@@@@@@@@@@+++OOO++++++OOOOOOOOOOOOOOOoooXXXXXXXXXXXXXXXXXX...            ",
"   OOOOOOOOOOOOOOOOOOOOOOOOOOOOOOOOOOOOOOOOOOOOOOOOOOOOOOOOOOOOXXXXXXXXXXXXXXXXXXXXX            ",
"   OOOOOOOOOOOOOOOOOOOOOOOOOOOOOOOOOOOOOOOOOOOOOOOOOOOOOOOOOOOOXXXXXXXXXXXXXXXXXXXXX            ",
"   OOOOOOOOOOOOOOOOOOOOOOOOOOOOOOOOOOOOOOOOOOOOOOOOOOOOOOOOOOOOXXXXXXXXXXXXXXXXXXXXX            ",
"   OOOOOOOOOOOOOOOOOOOOOOOOOOOOOOOOOOOOOOOOOOOOOOOOOOOOOOOOOOOOXXXXXXXXXXXXXXXXXXXXX            ",
"   OOOOOOOOOOOOOOOOOOOOOOOOOOOOOOOOOOOOOOOOOOOOOOOOOOOOOOOOOOOOXXXXXXXXXXXXXXXXXXXXX            ",
"   OOOOOOOOOOOOOOOOOOOOOOOOOOOOOOOOOOOOOOOOOOOOOOOOOOOOOOOOOOOOXXXXXXXXXXXXXXXXXXXXX            ",
"   OOOOOOOOOOOOOOOOOOOOOOOOOOOOOOOOOOOOOOOOOOOOOOOOOOOOOOOOOOOOXXXXXX......XXX                  ",
"   OOOOOOOOOOOOOOOOOOOOOOOOOOOOOOOOOOOOOOOOOOOOOOOOOOOOOOOOOOOOXXXXXX......XXX                  ",
"   OOOOOOOOOOOOOOOOOOOOOOOOOOOOOOOOOOOOOOOOOOOOOOOOOOOOOOOOOOOOXXXXXX......XXX                  ",
"   OOOOOOOOOOOOOOOOOOOOOOOOOOOOOOOOOOOOOOOOOOOOOOOOOOOOOOOOOOOOXXXXXXXXXXXXXXXXXXXXX            ",
"   OOOOOOOOOOOOOOOOOOOOOOOOOOOOOOOOOOOOOOOOOOOOOOOOOOOOOOOOOOOOXXXXXXXXXXXXXXXXXXXXX            ",
"   OOOOOOOOOOOOOOOOOOOOOOOOOOOOOOOOOOOOOOOOOOOOOOOOOOOOOOOOOOOOXXXXXXXXXXXXXXXXXXXXX            ",
"   OOOOOOOOOOOOOOOOOOOOOOOOOOOOOOOOOOOOOOOOOOOOOOOOOOOOOOOOOOOOXXXXXXXXXXXXXXXXXXXXX            ",
"   OOOOOOOOOOOOOOOOOOOOOOOOOOOOOOOOOOOOOOOOOOOOOOOOOOOOOOOOOOOOXXXXXXXXXXXXXXXXXXXXX            ",
"   OOOOOOOOOOOOOOOOOOOOOOOOOOOOOOOOOOOOOOOOOOOOOOOOOOOOOOOOOOOOXXXXXXXXXXXXXXXXXXXXX            ",
"   XXXOOOOOOOOOOOOOOOOOOOOOOOOOOOOOOOOOOOOOOOOOOOOOOOOOOOOOOoooXXXXXXXXXXXXXXXXXX...            ",
"   XXXOOOOOOOOOOOOOOOOOOOOOOOOOOOOOOOOOOOOOOOOOOOOOOOOOOOOOOoooXXXXXXXXXXXXXXXXXX...            ",
"   XXXOOOOOOOOOOOOOOOOOOOOOOOOOOOOOOOOOOOOOOOOOOOOOOOOOOOOOOoooXXXXXXXXXXXXXXXXXX...            ",
"                                                                                                ",
"                                                                                                ",
"                                                                                                ",
"OOOOOOOOOOOOOOOOOOOOOOOOOOOOOOOOOoooXXXXXX...      XXXOOOOOOOOOXXXXXXXXXXXX...                  ",
"OOOOOOOOOOOOOOOOOOOOOOOOOOOOOOOOOoooXXXXXX...      XXXOOOOOOOOOXXXXXXXXXXXX...                  ",
"OOOOOOOOOOOOOOOOOOOOOOOOOOOOOOOOOoooXXXXXX...      XXXOOOOOOOOOXXXXXXXXXXXX...                  ",
"OOOOOOOOOOOOOOOOOOOOOOOOOOOOOOOOOOOOXXXXXXXXX      OOOOOOOOOoooXXXXXXXXXXXXXXX                  ",
"OOOOOOOOOOOOOOOOOOOOOOOOOOOOOOOOOOOOXXXXXXXXX      OOOOOOOOOoooXXXXXXXXXXXXXXX                  ",
"OOOOOOOOOOOOOOOOOOOOOOOOOOOOOOOOOOOOXXXXXXXXX      OOOOOOOOOoooXXXXXXXXXXXXXXX                  ",
"XXXXXXXXXXXXXXXXXXXXX...XXX......XXX               XXXXXXXXXXXXXXXXXXXXXXXXXXX                  ",
"XXXXXXXXXXXXXXXXXXXXX...XXX......XXX               XXXXXXXXXXXXXXXXXXXXXXXXXXX                  ",
"XXXXXXXXXXXXXXXXXXXXX...XXX......XXX               XXXXXXXXXXXXXXXXXXXXXXXXXXX                  ",
"XXXXXXXXXXXXXXXXXXXXXXXXXXXXXXXXXXXXXXXXXXXXX      XXXXXXXXXXXXXXXXXXXXXXXXXXX                  ",
"XXXXXXXXXXXXXXXXXXXXXXXXXXXXXXXXXXXXXXXXXXXXX      XXXXXXXXXXXXXXXXXXXXXXXXXXX                  ",
"XXXXXXXXXXXXXXXXXXXXXXXXXXXXXXXXXXXXXXXXXXXXX      XXXXXXXXXXXXXXXXXXXXXXXXXXX                  ",
"XXXXXXXXXXXXXXXXXXXXXXXXXXXXXXXXXXXXXXXXXX...      ...XXXXXXXXXXXXXXXXXXXXX...                  ",
"XXXXXXXXXXXXXXXXXXXXXXXXXXXXXXXXXXXXXXXXXX...      ...XXXXXXXXXXXXXXXXXXXXX...                  ",
"XXXXXXXXXXXXXXXXXXXXXXXXXXXXXXXXXXXXXXXXXX...      ...XXXXXXXXXXXXXXXXXXXXX...                  ",
"                                                                                                ",
"                                                                                                ",
"                                                                                                ",
"                                                                                                ",
"                                                                                                ",
"                                                                                                "
};
