/* XPM */
static char *result[] = {
/* columns rows colors chars-per-pixel */
"96 96 7 1 ",
"  c #6E5967",
". c #926475",
"X c #AD707B",
"o c #B77F83",
"O c #C39490",
"+ c #D1B1A5",
"@ c #DCCABE",
/* pixels */
"                                                                                                ",
"                                                                                                ",
"                                                                                                ",
"            ...XXXXXXXXXXXXXXXXXXoooOOOOOOOOOOOOOOOOOO+++@@@+++OOOOOOOOO++++++OOOOOOOOOXXX      ",
"            ...XXXXXXXXXXXXXXXXXXoooOOOOOOOOOOOOOOOOOO+++@@@+++OOOOOOOOO++++++OOOOOOOOOXXX      ",
"            ...XXXXXXXXXXXXXXXXXXoooOOOOOOOOOOOOOOOOOO+++@@@+++OOOOOOOOO++++++OOOOOOOOOXXX      ",
"            XXXXXXXXXXXXXXXXXXXXXOOOOOOOOOOOOOOOOOOOOOOOOOOOOOOOOOOOOOOOOOOOOOOOOOOOOOOOOO      ",
"            XXXXXXXXXXXXXXXXXXXXXOOOOOOOOOOOOOOOOOOOOOOOOOOOOOOOOOOOOOOOOOOOOOOOOOOOOOOOOO      ",
"            XXXXXXXXXXXXXXXXXXXXXOOOOOOOOOOOOOOOOOOOOOOOOOOOOOOOOOOOOOOOOOOOOOOOOOOOOOOOOO      ",
"            XXXXXXXXXXXXXXXXXXXXXOOOOOOOOOOOOOOOOOOOOOOOOOOOOOOOOOOOOOOOOOOOOOOOOOOOOOOOOO      ",
"            XXXXXXXXXXXXXXXXXXXXXOOOOOOOOOOOOOOOOOOOOOOOOOOOOOOOOOOOOOOOOOOOOOOOOOOOOOOOOO      ",
"            XXXXXXXXXXXXXXXXXXXXXOOOOOOOOOOOOOOOOOOOOOOOOOOOOOOOOOOOOOOOOOOOOOOOOOOOOOOOOO      ",
"                  XXX...XXX......XXXOOOXXXOOOOOOOOOOOOOOOOOOOOOOOOOOOOOOOOOOOOOOOOOOOOOOOO      ",
"                  XXX...XXX......XXXOOOXXXOOOOOOOOOOOOOOOOOOOOOOOOOOOOOOOOOOOOOOOOOOOOOOOO      ",
"                  XXX...XXX......XXXOOOXXXOOOOOOOOOOOOOOOOOOOOOOOOOOOOOOOOOOOOOOOOOOOOOOOO      ",
"            XXXXXXXXXXXXXXXXXXXXXOOOOOOOOOOOOOOOOOOOOOOOOOOOOOOOOOOOOOOOOOOOOOOOOOOOOOOOOO      ",
"            XXXXXXXXXXXXXXXXXXXXXOOOOOOOOOOOOOOOOOOOOOOOOOOOOOOOOOOOOOOOOOOOOOOOOOOOOOOOOO      ",
"            XXXXXXXXXXXXXXXXXXXXXOOOOOOOOOOOOOOOOOOOOOOOOOOOOOOOOOOOOOOOOOOOOOOOOOOOOOOOOO      ",
"            XXXXXXXXXXXXXXXXXXXXXOOOOOOOOOOOOOOOOOOOOOOOOOOOOOOOOOOOOOOOOOOOOOOOOOOOOOOOOO      ",
"            XXXXXXXXXXXXXXXXXXXXXOOOOOOOOOOOOOOOOOOOOOOOOOOOOOOOOOOOOOOOOOOOOOOOOOOOOOOOOO      ",
"            XXXXXXXXXXXXXXXXXXXXXOOOOOOOOOOOOOOOOOOOOOOOOOOOOOOOOOOOOOOOOOOOOOOOOOOOOOOOOO      ",
"            ...XXXXXXXXXXXXXXXXXXoooOOOOOOOOOOOOOOOOOOOOOOOOOOOOOOOOOOOOOOOOOOOOOOOOOOOXXX      ",
"            ...XXXXXXXXXXXXXXXXXXoooOOOOOOOOOOOOOOOOOOOOOOOOOOOOOOOOOOOOOOOOOOOOOOOOOOOXXX      ",
"            ...XXXXXXXXXXXXXXXXXXoooOOOOOOOOOOOOOOOOOOOOOOOOOOOOOOOOOOOOOOOOOOOOOOOOOOOXXX      ",
"                                                                                                ",
"                                                                                                ",
"                                                                                                ",
"                  ...XXXXXXXXXXXXoooOOOOOOXXX      ...XXXXXXoooOOOOOO++++++@@@@@@@@@@@@+++OOOOOO",
"                  ...XXXXXXXXXXXXoooOOOOOOXXX      ...XXXXXXoooOOOOOO++++++@@@@@@@@@@@@+++OOOOOO",
"                  ...XXXXXXXXXXXXoooOOOOOOXXX      ...XXXXXXoooOOOOOO++++++@@@@@@@@@@@@+++OOOOOO",
"                  XXXXXXXXXXXXXXXOOOOOOOOOOOO      XXXXXXXXXOOOOOOOOOOOOOOOOOOOOOOOOOOOOOOOOOOOO",
"                  XXXXXXXXXXXXXXXOOOOOOOOOOOO      XXXXXXXXXOOOOOOOOOOOOOOOOOOOOOOOOOOOOOOOOOOOO",
"                  XXXXXXXXXXXXXXXOOOOOOOOOOOO      XXXXXXXXXOOOOOOOOOOOOOOOOOOOOOOOOOOOOOOOOOOOO",
"                  XXXXXXXXXXXXXXXOOOOOOOOOOOO      XXXXXXXXXOOOOOOOOOOOOOOOOOOOOOOOOOOOOOOOOOOOO",
"                  XXXXXXXXXXXXXXXOOOOOOOOOOOO      XXXXXXXXXOOOOOOOOOOOOOOOOOOOOOOOOOOOOOOOOOOOO",
"                  XXXXXXXXXXXXXXXOOOOOOOOOOOO      XXXXXXXXXOOOOOOOOOOOOOOOOOOOOOOOOOOOOOOOOOOOO",
"                  XXXXXXXXXXXXXXXOOOOOOOOOOOO      XXXXXXXXXOOOOOOOOOOOOOOOOOOOOOOOOOOOOOOOOOOOO",
"                  XXXXXXXXXXXXXXXOOOOOOOOOOOO      XXXXXXXXXOOOOOOOOOOOOOOOOOOOOOOOOOOOOOOOOOOOO",
"                  XXXXXXXXXXXXXXXOOOOOOOOOOOO      XXXXXXXXXOOOOOOOOOOOOOOOOOOOOOOOOOOOOOOOOOOOO",
"                  XXXXXXXXXXXXXXXOOOOOOOOOOOO      XXXXXXXXXOOOOOOOOOOOOOOOOOOOOOOOOOOOOOOOOOOOO",
"                  XXXXXXXXXXXXXXXOOOOOOOOOOOO      XXXXXXXXXOOOOOOOOOOOOOOOOOOOOOOOOOOOOOOOOOOOO",
"                  XXXXXXXXXXXXXXXOOOOOOOOOOOO      XXXXXXXXXOOOOOOOOOOOOOOOOOOOOOOOOOOOOOOOOOOOO",
"                  XXXXXXXXXXXXXXXOOOOOOOOOOOO      XXXXXXXXXOOOOOOOOOOOOOOOOOOOOOOOOOOOOOOOOOOOO",
"                  XXXXXXXXXXXXXXXOOOOOOOOOOOO      XXXXXXXXXOOOOOOOOOOOOOOOOOOOOOOOOOOOOOOOOOOOO",
"                  XXXXXXXXXXXXXXXOOOOOOOOOOOO      XXXXXXXXXOOOOOOOOOOOOOOOOOOOOOOOOOOOOOOOOOOOO",
"                  ...XXXXXXXXXXXXoooOOOOOOXXX      ...XXXXXXoooOOOOOOOOOOOOOOOOOOOOOOOOOOOOOOOOO",
"                  ...XXXXXXXXXXXXoooOOOOOOXXX      ...XXXXXXoooOOOOOOOOOOOOOOOOOOOOOOOOOOOOOOOOO",
"                  ...XXXXXXXXXXXXoooOOOOOOXXX      ...XXXXXXoooOOOOOOOOOOOOOOOOOOOOOOOOOOOOOOOOO",
"                                                                                                ",
"                                                                                                ",
"                                                                                                ",
"            ...XXXXXXXXXXXXXXXXXXoooOOOOOOOOOOOO++++++@@@@@@@@@@@@++++++OOO+++OOOOOOOOOXXX      ",
"            ...XXXXXXXXXXXXXXXXXXoooOOOOOOOOOOOO++++++@@@@@@@@@@@@++++++OOO+++OOOOOOOOOXXX      ",
"            ...XXXXXXXXXXXXXXXXXXoooOOOOOOOOOOOO++++++@@@@@@@@@@@@++++++OOO+++OOOOOOOOOXXX      ",
"            XXXXXXXXXXXXXXXXXXXXXOOOOOOOOOOOOOOOOOOOOOOOOOOOOOOOOOOOOOOOOOOOOOOOOOOOOOOOOO      ",
"            XXXXXXXXXXXXXXXXXXXXXOOOOOOOOOOOOOOOOOOOOOOOOOOOOOOOOOOOOOOOOOOOOOOOOOOOOOOOOO      ",
"            XXXXXXXXXXXXXXXXXXXXXOOOOOOOOOOOOOOOOOOOOOOOOOOOOOOOOOOOOOOOOOOOOOOOOOOOOOOOOO      ",
"            XXXXXXXXXXXXXXXXXXXXXOOOOOOOOOOOOOOOOOOOOOOOOOOOOOOOOOOOOOOOOOOOOOOOOOOOOOOOOO      ",
"            XXXXXXXXXXXXXXXXXXXXXOOOOOOOOOOOOOOOOOOOOOOOOOOOOOOOOOOOOOOOOOOOOOOOOOOOOOOOOO      ",
"            XXXXXXXXXXXXXXXXXXXXXOOOOOOOOOOOOOOOOOOOOOOOOOOOOOOOOOOOOOOOOOOOOOOOOOOOOOOOOO      ",
"            XXXXXXXXXXXXXXXXXXXXXOOOOOOOOOOOOOOOOOOOOOOOOOOOOOOOOOOOOOOOOOOOOOOOOOOOOOOOOO      ",
"            XXXXXXXXXXXXXXXXXXXXXOOOOOOOOOOOOOOOOOOOOOOOOOOOOOOOOOOOOOOOOOOOOOOOOOOOOOOOOO      ",
"            XXXXXXXXXXXXXXXXXXXXXOOOOOOOOOOOOOOOOOOOOOOOOOOOOOOOOOOOOOOOOOOOOOOOOOOOOOOOOO      ",
"            XXXXXXXXXXXXXXXXXXXXXOOOOOOOOOOOOOOOOOOOOOOOOOOOOOOOOOOOOOOOOOOOOOOOOOOOOOOOOO      ",
"            XXXXXXXXXXXXXXXXXXXXXOOOOOOOOOOOOOOOOOOOOOOOOOOOOOOOOOOOOOOOOOOOOOOOOOOOOOOOOO      ",
"            XXXXXXXXXXXXXXXXXXXXXOOOOOOOOOOOOOOOOOOOOOOOOOOOOOOOOOOOOOOOOOOOOOOOOOOOOOOOOO      ",
"            XXXXXXXXXXXXXXXXXXXXXOOOOOOOOOOOOOOOOOOOOOOOOOOOOOOOOOOOOOOOOOOOOOOOOOOOOOOOOO      ",
"            XXXXXXXXXXXXXXXXXXXXXOOOOOOOOOOOOOOOOOOOOOOOOOOOOOOOOOOOOOOOOOOOOOOOOOOOOOOOOO      ",
"            XXXXXXXXXXXXXXXXXXXXXOOOOOOOOOOOOOOOOOOOOOOOOOOOOOOOOOOOOOOOOOOOOOOOOOOOOOOOOO      ",
"            ...XXXXXXXXXXXXXXXXXXoooOOOOOOOOOOOOOOOOOOOOOOOOOOOOOOOOOOOOOOOOOOOOOOOOOOOXXX      ",
"            ...XXXXXXXXXXXXXXXXXXoooOOOOOOOOOOOOOOOOOOOOOOOOOOOOOOOOOOOOOOOOOOOOOOOOOOOXXX      ",
"            ...XXXXXXXXXXXXXXXXXXoooOOOOOOOOOOOOOOOOOOOOOOOOOOOOOOOOOOOOOOOOOOOOOOOOOOOXXX      ",
"                                                                                                ",
"                                                                                                ",
"                                                                                                ",
"                  ...XXXXXXXXXXXXoooOOOOOOXXX      XXXOOOOOOOOOOOOOOO+++@@@@@@@@@+++OOO+++OOOOOO",
"                  ...XXXXXXXXXXXXoooOOOOOOXXX      XXXOOOOOOOOOOOOOOO+++@@@@@@@@@+++OOO+++OOOOOO",
"                  ...XXXXXXXXXXXXoooOOOOOOXXX      XXXOOOOOOOOOOOOOOO+++@@@@@@@@@+++OOO+++OOOOOO",
"                  XXXXXXXXXXXXXXXOOOOOOOOOOOO      OOOOOOOOOOOOOOOOOOOOOOOOOOOOOOOOOOOOOOOOOOOOO",
"                  XXXXXXXXXXXXXXXOOOOOOOOOOOO      OOOOOOOOOOOOOOOOOOOOOOOOOOOOOOOOOOOOOOOOOOOOO",
"                  XXXXXXXXXXXXXXXOOOOOOOOOOOO      OOOOOOOOOOOOOOOOOOOOOOOOOOOOOOOOOOOOOOOOOOOOO",
"                  XXXXXXXXXXXXXXXOOOOOOOOOOOO      OOOOOOOOOOOOOOOoooXXXXXXXXXXXXXXXXXXXXXXXXXXX",
"                  XXXXXXXXXXXXXXXOOOOOOOOOOOO      OOOOOOOOOOOOOOOoooXXXXXXXXXXXXXXXXXXXXXXXXXXX",
"                  XXXXXXXXXXXXXXXOOOOOOOOOOOO      OOOOOOOOOOOOOOOoooXXXXXXXXXXXXXXXXXXXXXXXXXXX",
"                  XXXXXXXXXXXXXXXOOOOOOOOOooo      OOOOOOOOOOOOoooXXXXXXXXXXXXXXXXXXXXXXXXXXXXXX",
"                  XXXXXXXXXXXXXXXOOOOOOOOOooo      OOOOOOOOOOOOoooXXXXXXXXXXXXXXXXXXXXXXXXXXXXXX",
"                  XXXXXXXXXXXXXXXOOOOOOOOOooo      OOOOOOOOOOOOoooXXXXXXXXXXXXXXXXXXXXXXXXXXXXXX",
"                  XXXXXXXXX......XXXOOO            OOOOOOOOOOOOXXXXXXXXXXXXXXXXXXXXXXXXXXXXXXXXX",
"                  XXXXXXXXX......XXXOOO            OOOOOOOOOOOOXXXXXXXXXXXXXXXXXXXXXXXXXXXXXXXXX",
"                  XXXXXXXXX......XXXOOO            OOOOOOOOOOOOXXXXXXXXXXXXXXXXXXXXXXXXXXXXXXXXX",
"                  XXXXXXXXXXXXXXXOOOOOOOOOOOO      OOOOOOOOOOOOXXXXXXXXXXXXXXXXXXXXX...         ",
"                  XXXXXXXXXXXXXXXOOOOOOOOOOOO      OOOOOOOOOOOOXXXXXXXXXXXXXXXXXXXXX...         ",
"                  XXXXXXXXXXXXXXXOOOOOOOOOOOO      OOOOOOOOOOOOXXXXXXXXXXXXXXXXXXXXX...         ",
"                  ...XXXXXXXXXXXXoooOOOOOOXXX      XXXOOOOOOoooXXXXXXXXXXXXXXXXXXXXX            ",
"                  ...XXXXXXXXXXXXoooOOOOOOXXX      XXXOOOOOOoooXXXXXXXXXXXXXXXXXXXXX            ",
"                  ...XXXXXXXXXXXXoooOOOOOOXXX      XXXOOOOOOoooXXXXXXXXXXXXXXXXXXXXX            "
};
