/* XPM */
static char *result[] = {
/* columns rows colors chars-per-pixel */
"96 96 7 1 ",
"  c #6E5967",
". c #926475",
"X c #AD707B",
"o c #B77F83",
"O c #C39490",
"+ c #D1B1A5",
"@ c #DCCABE",
/* pixels */
"                                                                                                ",
"                                                                                                ",
"                                                                                                ",
"            ...XXXXXXXXXXXXXXXXXXoooOOOOOOOOOOOO+++++++++@@@@@@@@@+++OOO+++OOOOOOOOOOOOXXX      ",
"            ...XXXXXXXXXXXXXXXXXXoooOOOOOOOOOOOO+++++++++@@@@@@@@@+++OOO+++OOOOOOOOOOOOXXX      ",
"            ...XXXXXXXXXXXXXXXXXXoooOOOOOOOOOOOO+++++++++@@@@@@@@@+++OOO+++OOOOOOOOOOOOXXX      ",
"            XXXXXXXXXXXXXXXXXXXXXOOOOOOOOOOOOOOOOOOOOOOOOOOOOOOOOOOOOOOOOOOOOOOOOOOOOOOOOO      ",
"            XXXXXXXXXXXXXXXXXXXXXOOOOOOOOOOOOOOOOOOOOOOOOOOOOOOOOOOOOOOOOOOOOOOOOOOOOOOOOO      ",
"            XXXXXXXXXXXXXXXXXXXXXOOOOOOOOOOOOOOOOOOOOOOOOOOOOOOOOOOOOOOOOOOOOOOOOOOOOOOOOO      ",
"            XXXXXXXXXXXXXXXXXXXXXOOOOOOOOOOOOOOOOOOOOOOOOOOOOOOOOOOOOOOOOOOOOOOOOOOOOOOOOO      ",
"            XXXXXXXXXXXXXXXXXXXXXOOOOOOOOOOOOOOOOOOOOOOOOOOOOOOOOOOOOOOOOOOOOOOOOOOOOOOOOO      ",
"            XXXXXXXXXXXXXXXXXXXXXOOOOOOOOOOOOOOOOOOOOOOOOOOOOOOOOOOOOOOOOOOOOOOOOOOOOOOOOO      ",
"                  XXXXXXXXX......XXXOOOXXXOOOOOOOOOOOOOOOOOOOOOOOOOOOOOOOOOOOOOOOOOOOOOOOO      ",
"                  XXXXXXXXX......XXXOOOXXXOOOOOOOOOOOOOOOOOOOOOOOOOOOOOOOOOOOOOOOOOOOOOOOO      ",
"                  XXXXXXXXX......XXXOOOXXXOOOOOOOOOOOOOOOOOOOOOOOOOOOOOOOOOOOOOOOOOOOOOOOO      ",
"            XXXXXXXXXXXXXXXXXXXXXOOOOOOOOOOOOOOOOOOOOOOOOOOOOOOOOOOOOOOOOOOOOOOOOOOOOOOOOO      ",
"            XXXXXXXXXXXXXXXXXXXXXOOOOOOOOOOOOOOOOOOOOOOOOOOOOOOOOOOOOOOOOOOOOOOOOOOOOOOOOO      ",
"            XXXXXXXXXXXXXXXXXXXXXOOOOOOOOOOOOOOOOOOOOOOOOOOOOOOOOOOOOOOOOOOOOOOOOOOOOOOOOO      ",
"            XXXXXXXXXXXXXXXXXXXXXOOOOOOOOOOOOOOOOOOOOOOOOOOOOOOOOOOOOOOOOOOOOOOOOOOOOOOOOO      ",
"            XXXXXXXXXXXXXXXXXXXXXOOOOOOOOOOOOOOOOOOOOOOOOOOOOOOOOOOOOOOOOOOOOOOOOOOOOOOOOO      ",
"            XXXXXXXXXXXXXXXXXXXXXOOOOOOOOOOOOOOOOOOOOOOOOOOOOOOOOOOOOOOOOOOOOOOOOOOOOOOOOO      ",
"            ...XXXXXXXXXXXXXXXXXXoooOOOOOOOOOOOOOOOOOOOOOOOOOOOOOOOOOOOOOOOOOOOOOOOOOOOXXX      ",
"            ...XXXXXXXXXXXXXXXXXXoooOOOOOOOOOOOOOOOOOOOOOOOOOOOOOOOOOOOOOOOOOOOOOOOOOOOXXX      ",
"            ...XXXXXXXXXXXXXXXXXXoooOOOOOOOOOOOOOOOOOOOOOOOOOOOOOOOOOOOOOOOOOOOOOOOOOOOXXX      ",
"                                                                                                ",
"                                                                                                ",
"                                                                                                ",
"                  ...XXXXXXXXXXXXoooOOOOOOXXX      ...XXXXXXoooOOOOOO@@@@@@@@@+++OOOOOOOOO+++OOO",
"                  ...XXXXXXXXXXXXoooOOOOOOXXX      ...XXXXXXoooOOOOOO@@@@@@@@@+++OOOOOOOOO+++OOO",
"                  ...XXXXXXXXXXXXoooOOOOOOXXX      ...XXXXXXoooOOOOOO@@@@@@@@@+++OOOOOOOOO+++OOO",
"                  XXXXXXXXXXXXXXXOOOOOOOOOOOO      XXXXXXXXXOOOOOOOOOOOOOOOOOOOOOOOOOOOOOOOOOOOO",
"                  XXXXXXXXXXXXXXXOOOOOOOOOOOO      XXXXXXXXXOOOOOOOOOOOOOOOOOOOOOOOOOOOOOOOOOOOO",
"                  XXXXXXXXXXXXXXXOOOOOOOOOOOO      XXXXXXXXXOOOOOOOOOOOOOOOOOOOOOOOOOOOOOOOOOOOO",
"                  XXXXXXXXX......XXXOOO            XXXXXXXXXOOOOOOOOOOOOOOOOOOOOOOOOOOOOOOOOOOOO",
"                  XXXXXXXXX......XXXOOO            XXXXXXXXXOOOOOOOOOOOOOOOOOOOOOOOOOOOOOOOOOOOO",
"                  XXXXXXXXX......XXXOOO            XXXXXXXXXOOOOOOOOOOOOOOOOOOOOOOOOOOOOOOOOOOOO",
"                  XXXXXXXXXXXXXXXOOOOOOOOOooo               OOOXXXXXXOOOXXXOOOOOOOOOOOOOOOOOOOOO",
"                  XXXXXXXXXXXXXXXOOOOOOOOOooo               OOOXXXXXXOOOXXXOOOOOOOOOOOOOOOOOOOOO",
"                  XXXXXXXXXXXXXXXOOOOOOOOOooo               OOOXXXXXXOOOXXXOOOOOOOOOOOOOOOOOOOOO",
"                  XXXXXXXXXXXXXXXOOOOOOOOOOOO      XXXXXXXXXOOOOOO+++++++++OOO++++++OOOOOOOOOOOO",
"                  XXXXXXXXXXXXXXXOOOOOOOOOOOO      XXXXXXXXXOOOOOO+++++++++OOO++++++OOOOOOOOOOOO",
"                  XXXXXXXXXXXXXXXOOOOOOOOOOOO      XXXXXXXXXOOOOOO+++++++++OOO++++++OOOOOOOOOOOO",
"                  XXXXXXXXXXXXXXXOOOOOOOOOOOO      XXXXXXXXXOOOOOOOOOOOOOOOOOOOOOOOOOOOOOOOOOOOO",
"                  XXXXXXXXXXXXXXXOOOOOOOOOOOO      XXXXXXXXXOOOOOOOOOOOOOOOOOOOOOOOOOOOOOOOOOOOO",
"                  XXXXXXXXXXXXXXXOOOOOOOOOOOO      XXXXXXXXXOOOOOOOOOOOOOOOOOOOOOOOOOOOOOOOOOOOO",
"                  ...XXXXXXXXXXXXoooOOOOOOXXX      ...XXXXXXoooOOOOOOOOOOOOOOOOOOOOOOOOOOOOOOOOO",
"                  ...XXXXXXXXXXXXoooOOOOOOXXX      ...XXXXXXoooOOOOOOOOOOOOOOOOOOOOOOOOOOOOOOOOO",
"                  ...XXXXXXXXXXXXoooOOOOOOXXX      ...XXXXXXoooOOOOOOOOOOOOOOOOOOOOOOOOOOOOOOOOO",
"                                                                                                ",
"                                                                                                ",
"                                                                                                ",
"            ...XXXXXXXXXXXXXXXXXXoooOOO++++++@@@@@@++++++OOO+++OOOOOOOOOOOOOOOOOOOOOOOOXXX      ",
"            ...XXXXXXXXXXXXXXXXXXoooOOO++++++@@@@@@++++++OOO+++OOOOOOOOOOOOOOOOOOOOOOOOXXX      ",
"            ...XXXXXXXXXXXXXXXXXXoooOOO++++++@@@@@@++++++OOO+++OOOOOOOOOOOOOOOOOOOOOOOOXXX      ",
"            XXXXXXXXXXXXXXXXXXXXXOOOOOOOOOOOOOOOOOOOOOOOOOOOOOOOOOOOOOOOOOOOOOOOOOOOOOOOOO      ",
"            XXXXXXXXXXXXXXXXXXXXXOOOOOOOOOOOOOOOOOOOOOOOOOOOOOOOOOOOOOOOOOOOOOOOOOOOOOOOOO      ",
"            XXXXXXXXXXXXXXXXXXXXXOOOOOOOOOOOOOOOOOOOOOOOOOOOOOOOOOOOOOOOOOOOOOOOOOOOOOOOOO      ",
"            XXXXXXXXXXXXXXXXXXXXXOOOOOOOOOOOOOOOOOOOOOOOOOOOOOOOOOOOOOOOOOOOOOOOOOOOOOOOOO      ",
"            XXXXXXXXXXXXXXXXXXXXXOOOOOOOOOOOOOOOOOOOOOOOOOOOOOOOOOOOOOOOOOOOOOOOOOOOOOOOOO      ",
"            XXXXXXXXXXXXXXXXXXXXXOOOOOOOOOOOOOOOOOOOOOOOOOOOOOOOOOOOOOOOOOOOOOOOOOOOOOOOOO      ",
"            XXXXXXXXXXXXXXXXXXXXXOOOOOOOOOOOOOOOOOOOOOOOOOOOOOOOOOOOOOOOOOOOOOOOOOOOOOOooo      ",
"            XXXXXXXXXXXXXXXXXXXXXOOOOOOOOOOOOOOOOOOOOOOOOOOOOOOOOOOOOOOOOOOOOOOOOOOOOOOooo      ",
"            XXXXXXXXXXXXXXXXXXXXXOOOOOOOOOOOOOOOOOOOOOOOOOOOOOOOOOOOOOOOOOOOOOOOOOOOOOOooo      ",
"            XXXXXXXXXXXXXXXXXXXXXOOOOOOOOOOOOOOOOOOOOOOOOOOOOOOXXXOOOXXXXXXOOO                  ",
"            XXXXXXXXXXXXXXXXXXXXXOOOOOOOOOOOOOOOOOOOOOOOOOOOOOOXXXOOOXXXXXXOOO                  ",
"            XXXXXXXXXXXXXXXXXXXXXOOOOOOOOOOOOOOOOOOOOOOOOOOOOOOXXXOOOXXXXXXOOO                  ",
"            XXXXXXXXXXXXXXXXXXXXXOOOOOOOOOOOOOOOOOOOOOOOOOOOOOOOOOOOO+++OOO++++++OOOOOOOOO      ",
"            XXXXXXXXXXXXXXXXXXXXXOOOOOOOOOOOOOOOOOOOOOOOOOOOOOOOOOOOO+++OOO++++++OOOOOOOOO      ",
"            XXXXXXXXXXXXXXXXXXXXXOOOOOOOOOOOOOOOOOOOOOOOOOOOOOOOOOOOO+++OOO++++++OOOOOOOOO      ",
"            ...XXXXXXXXXXXXXXXXXXoooOOOOOOOOOOOOOOOOOOOOOOOOOOOOOOOOOOOOOOOOOOOOOOOOOOOXXX      ",
"            ...XXXXXXXXXXXXXXXXXXoooOOOOOOOOOOOOOOOOOOOOOOOOOOOOOOOOOOOOOOOOOOOOOOOOOOOXXX      ",
"            ...XXXXXXXXXXXXXXXXXXoooOOOOOOOOOOOOOOOOOOOOOOOOOOOOOOOOOOOOOOOOOOOOOOOOOOOXXX      ",
"                                                                                                ",
"                                                                                                ",
"                                                                                                ",
"                  ...XXXXXXXXXXXXOOOOOOOOOXXX      ...XXXXXXOOOOOOOOO+++@@@@@@++++++OOOOOOOOOOOO",
"                  ...XXXXXXXXXXXXOOOOOOOOOXXX      ...XXXXXXOOOOOOOOO+++@@@@@@++++++OOOOOOOOOOOO",
"                  ...XXXXXXXXXXXXOOOOOOOOOXXX      ...XXXXXXOOOOOOOOO+++@@@@@@++++++OOOOOOOOOOOO",
"                  XXXXXXXXXXXXXXXoooOOOOOOOOO      XXXXXXXXXoooOOOOOOOOOOOOOOOOOOOOOOOOOOOOOOOOO",
"                  XXXXXXXXXXXXXXXoooOOOOOOOOO      XXXXXXXXXoooOOOOOOOOOOOOOOOOOOOOOOOOOOOOOOOOO",
"                  XXXXXXXXXXXXXXXoooOOOOOOOOO      XXXXXXXXXoooOOOOOOOOOOOOOOOOOOOOOOOOOOOOOOOOO",
"                  XXXXXXXXX......XXX               XXXXXXXXXXXXXXXXXXXXXXXXXXXXXXXXXXXXXXXXXXXXX",
"                  XXXXXXXXX......XXX               XXXXXXXXXXXXXXXXXXXXXXXXXXXXXXXXXXXXXXXXXXXXX",
"                  XXXXXXXXX......XXX               XXXXXXXXXXXXXXXXXXXXXXXXXXXXXXXXXXXXXXXXXXXXX",
"                  XXXXXXXXXXXXXXXXXXXXXXXXXXX      XXXXXXXXXXXXXXXXXXXXXXXXXXXXXXXXXXXXXXXXXXXXX",
"                  XXXXXXXXXXXXXXXXXXXXXXXXXXX      XXXXXXXXXXXXXXXXXXXXXXXXXXXXXXXXXXXXXXXXXXXXX",
"                  XXXXXXXXXXXXXXXXXXXXXXXXXXX      XXXXXXXXXXXXXXXXXXXXXXXXXXXXXXXXXXXXXXXXXXXXX",
"                  ...XXXXXXXXXXXXXXXXXXXXX...      ...XXXXXXXXXXXXXXXXXXXXXXXXXXXXXXXXXXXXXXXXXX",
"                  ...XXXXXXXXXXXXXXXXXXXXX...      ...XXXXXXXXXXXXXXXXXXXXXXXXXXXXXXXXXXXXXXXXXX",
"                  ...XXXXXXXXXXXXXXXXXXXXX...      ...XXXXXXXXXXXXXXXXXXXXXXXXXXXXXXXXXXXXXXXXXX",
"                                                                                                ",
"                                                                                                ",
"                                                                                                ",
"                                                                                                ",
"                                                                                                ",
"                                                                                                "
};
