/* XPM */
static char *result[] = {
/* columns rows colors chars-per-pixel */
"96 96 6 1 ",
"  c #6E5967",
". c #AD707B",
"X c #B77F83",
"o c #C39490",
"O c #D1B1A5",
"+ c #DCCABE",
/* pixels */
"                                                                                                ",
"                                                                                                ",
"                                                                                                ",
"...ooooooooooooOOOOOOOOOOOOOOOooooooOOOooooooooooooooooooooooooooooooooooooooooooooooooooo...   ",
"...ooooooooooooOOOOOOOOOOOOOOOooooooOOOooooooooooooooooooooooooooooooooooooooooooooooooooo...   ",
"...ooooooooooooOOOOOOOOOOOOOOOooooooOOOooooooooooooooooooooooooooooooooooooooooooooooooooo...   ",
"ooooooooooooooooooooooooooooooooooooooooooooooooooooooooooooooooooooooooooooooooooooooooooooo   ",
"ooooooooooooooooooooooooooooooooooooooooooooooooooooooooooooooooooooooooooooooooooooooooooooo   ",
"ooooooooooooooooooooooooooooooooooooooooooooooooooooooooooooooooooooooooooooooooooooooooooooo   ",
"oooooooooooooooooooooooooooooooooooooooooooooooooooooooooooo...ooo...............oooooo         ",
"oooooooooooooooooooooooooooooooooooooooooooooooooooooooooooo...ooo...............oooooo         ",
"oooooooooooooooooooooooooooooooooooooooooooooooooooooooooooo...ooo...............oooooo         ",
"oooooooooooooooooooooooooooooooooooooooooooooooooooooooooooooooOOOoooOOOOOOOOOooooooooooooXXX   ",
"oooooooooooooooooooooooooooooooooooooooooooooooooooooooooooooooOOOoooOOOOOOOOOooooooooooooXXX   ",
"oooooooooooooooooooooooooooooooooooooooooooooooooooooooooooooooOOOoooOOOOOOOOOooooooooooooXXX   ",
"ooooooooooooooooooooooooooooooooooooooooooooooooooooooooooooooooooooooooooooooooooooooooooooo   ",
"ooooooooooooooooooooooooooooooooooooooooooooooooooooooooooooooooooooooooooooooooooooooooooooo   ",
"ooooooooooooooooooooooooooooooooooooooooooooooooooooooooooooooooooooooooooooooooooooooooooooo   ",
"ooooooooooooooooooooooooooooooooooooooooooooooooooooooooooooooooooooooooooooooooooooooooooooo   ",
"ooooooooooooooooooooooooooooooooooooooooooooooooooooooooooooooooooooooooooooooooooooooooooooo   ",
"ooooooooooooooooooooooooooooooooooooooooooooooooooooooooooooooooooooooooooooooooooooooooooooo   ",
"...ooooooooooooooooooooooooooooooooooooooooooooooooooooooooooooooooooooooooooooooooooooooo...   ",
"...ooooooooooooooooooooooooooooooooooooooooooooooooooooooooooooooooooooooooooooooooooooooo...   ",
"...ooooooooooooooooooooooooooooooooooooooooooooooooooooooooooooooooooooooooooooooooooooooo...   ",
"                                                                                                ",
"                                                                                                ",
"                                                                                                ",
"OOOOOOOOOooooooooooooooooooooooooooooooooo...   ...oooooooooOOOoooOOOOOOOOOOOOOOOooooooooooooooo",
"OOOOOOOOOooooooooooooooooooooooooooooooooo...   ...oooooooooOOOoooOOOOOOOOOOOOOOOooooooooooooooo",
"OOOOOOOOOooooooooooooooooooooooooooooooooo...   ...oooooooooOOOoooOOOOOOOOOOOOOOOooooooooooooooo",
"ooooooooooooooooooooooooooooooooooooooooooooo   oooooooooooooooooooooooooooooooooooooooooooooooo",
"ooooooooooooooooooooooooooooooooooooooooooooo   oooooooooooooooooooooooooooooooooooooooooooooooo",
"ooooooooooooooooooooooooooooooooooooooooooooo   oooooooooooooooooooooooooooooooooooooooooooooooo",
"ooooooooooooooooooooo......ooo...oooooo         oooooooooooooooooooooooooooooooooooooooooooooooo",
"ooooooooooooooooooooo......ooo...oooooo         oooooooooooooooooooooooooooooooooooooooooooooooo",
"ooooooooooooooooooooo......ooo...oooooo         oooooooooooooooooooooooooooooooooooooooooooooooo",
"ooooooooooooooooooOOOoooOOOOOOooooooooooooXXX   oooooooooooooooooooooooooooooooooooooooooooooooo",
"ooooooooooooooooooOOOoooOOOOOOooooooooooooXXX   oooooooooooooooooooooooooooooooooooooooooooooooo",
"ooooooooooooooooooOOOoooOOOOOOooooooooooooXXX   oooooooooooooooooooooooooooooooooooooooooooooooo",
"ooooooooooooooooooooooooooooooooooooooooooooo   oooooooooooooooooooooooooooooooooooooooooooooooo",
"ooooooooooooooooooooooooooooooooooooooooooooo   oooooooooooooooooooooooooooooooooooooooooooooooo",
"ooooooooooooooooooooooooooooooooooooooooooooo   oooooooooooooooooooooooooooooooooooooooooooooooo",
"ooooooooooooooooooooooooooooooooooooooooooooo   oooooooooooooooooooooooooooooooooooooooooooooooo",
"ooooooooooooooooooooooooooooooooooooooooooooo   oooooooooooooooooooooooooooooooooooooooooooooooo",
"ooooooooooooooooooooooooooooooooooooooooooooo   oooooooooooooooooooooooooooooooooooooooooooooooo",
"oooooooooooooooooooooooooooooooooooooooooo...   ...ooooooooooooooooooooooooooooooooooooooooooooo",
"oooooooooooooooooooooooooooooooooooooooooo...   ...ooooooooooooooooooooooooooooooooooooooooooooo",
"oooooooooooooooooooooooooooooooooooooooooo...   ...ooooooooooooooooooooooooooooooooooooooooooooo",
"                                                                                                ",
"                                                                                                ",
"                                                                                                ",
"...oooooooooOOOoooOOOOOO+++++++++OOOoooOOOOOOooooooooooooooooooooooooooooooooooooooooooooo...   ",
"...oooooooooOOOoooOOOOOO+++++++++OOOoooOOOOOOooooooooooooooooooooooooooooooooooooooooooooo...   ",
"...oooooooooOOOoooOOOOOO+++++++++OOOoooOOOOOOooooooooooooooooooooooooooooooooooooooooooooo...   ",
"ooooooooooooooooooooooooooooooooooooooooooooooooooooooooooooooooooooooooooooooooooooooooooooo   ",
"ooooooooooooooooooooooooooooooooooooooooooooooooooooooooooooooooooooooooooooooooooooooooooooo   ",
"ooooooooooooooooooooooooooooooooooooooooooooooooooooooooooooooooooooooooooooooooooooooooooooo   ",
"ooooooooooooooooooooooooooooooooooooooooooooooooooooooooooooooooooooooooooooooooooooooooooooo   ",
"ooooooooooooooooooooooooooooooooooooooooooooooooooooooooooooooooooooooooooooooooooooooooooooo   ",
"ooooooooooooooooooooooooooooooooooooooooooooooooooooooooooooooooooooooooooooooooooooooooooooo   ",
"ooooooooooooooooooooooooooooooooooooooooooooooooooooooooooooooooooooooooooooooooooooooooooXXX   ",
"ooooooooooooooooooooooooooooooooooooooooooooooooooooooooooooooooooooooooooooooooooooooooooXXX   ",
"ooooooooooooooooooooooooooooooooooooooooooooooooooooooooooooooooooooooooooooooooooooooooooXXX   ",
"oooooooooooooooooooooooooooooooooooooooooooooooooooooooooooooooooo......ooo...ooo               ",
"oooooooooooooooooooooooooooooooooooooooooooooooooooooooooooooooooo......ooo...ooo               ",
"oooooooooooooooooooooooooooooooooooooooooooooooooooooooooooooooooo......ooo...ooo               ",
"ooooooooooooooooooooooooooooooooooooooooooooooooooooooooooooooooooooooooOOOoooOOOOOOooooooooo   ",
"ooooooooooooooooooooooooooooooooooooooooooooooooooooooooooooooooooooooooOOOoooOOOOOOooooooooo   ",
"ooooooooooooooooooooooooooooooooooooooooooooooooooooooooooooooooooooooooOOOoooOOOOOOooooooooo   ",
"...ooooooooooooooooooooooooooooooooooooooooooooooooooooooooooooooooooooooooooooooooooooooo...   ",
"...ooooooooooooooooooooooooooooooooooooooooooooooooooooooooooooooooooooooooooooooooooooooo...   ",
"...ooooooooooooooooooooooooooooooooooooooooooooooooooooooooooooooooooooooooooooooooooooooo...   ",
"                                                                                                ",
"                                                                                                ",
"                                                                                                ",
"oooooooooooooooooooooooooooooooooooooooooo...   ...oooooooooOOOoooOOOOOOOOO+++++++++OOOOOOoooooo",
"oooooooooooooooooooooooooooooooooooooooooo...   ...oooooooooOOOoooOOOOOOOOO+++++++++OOOOOOoooooo",
"oooooooooooooooooooooooooooooooooooooooooo...   ...oooooooooOOOoooOOOOOOOOO+++++++++OOOOOOoooooo",
"ooooooooooooooooooooooooooooooooooooooooooooo   oooooooooooooooooooooooooooooooooooooooooooooooo",
"ooooooooooooooooooooooooooooooooooooooooooooo   oooooooooooooooooooooooooooooooooooooooooooooooo",
"ooooooooooooooooooooooooooooooooooooooooooooo   oooooooooooooooooooooooooooooooooooooooooooooooo",
"oooooooooooo.........oooooo...oooooo            oooooooooooooooooooooooooooooooooooooooooooooooo",
"oooooooooooo.........oooooo...oooooo            oooooooooooooooooooooooooooooooooooooooooooooooo",
"oooooooooooo.........oooooo...oooooo            oooooooooooooooooooooooooooooooooooooooooooooooo",
"oooooooooooooooOOOoooooooooOOOOOOoooOOOoooXXX   oooooooooooooooooooooooooooooooooooooooooooooooo",
"oooooooooooooooOOOoooooooooOOOOOOoooOOOoooXXX   oooooooooooooooooooooooooooooooooooooooooooooooo",
"oooooooooooooooOOOoooooooooOOOOOOoooOOOoooXXX   oooooooooooooooooooooooooooooooooooooooooooooooo",
"ooooooooooooooooooooooooooooooooooooooooooooo   oooooooooooooooooooooooooooooooooooooooooooooooo",
"ooooooooooooooooooooooooooooooooooooooooooooo   oooooooooooooooooooooooooooooooooooooooooooooooo",
"ooooooooooooooooooooooooooooooooooooooooooooo   oooooooooooooooooooooooooooooooooooooooooooooooo",
"ooooooooooooooooooooooooooooooooooooooooooooo   oooooooooooooooooooooooooooooooooooooooooooooooo",
"ooooooooooooooooooooooooooooooooooooooooooooo   oooooooooooooooooooooooooooooooooooooooooooooooo",
"ooooooooooooooooooooooooooooooooooooooooooooo   oooooooooooooooooooooooooooooooooooooooooooooooo",
"oooooooooooooooooooooooooooooooooooooooooo...   ...ooooooooooooooooooooooooooooooooooooooooooooo",
"oooooooooooooooooooooooooooooooooooooooooo...   ...ooooooooooooooooooooooooooooooooooooooooooooo",
"oooooooooooooooooooooooooooooooooooooooooo...   ...ooooooooooooooooooooooooooooooooooooooooooooo"
};
