/* XPM */
static char *result[] = {
/* columns rows colors chars-per-pixel */
"96 96 7 1 ",
"  c #6E5967",
". c #926475",
"X c #AD707B",
"o c #B77F83",
"O c #C39490",
"+ c #D1B1A5",
"@ c #DCCABE",
/* pixels */
"                                                                                                ",
"                                                                                                ",
"                                                                                                ",
"                                                                                                ",
"                                                                                                ",
"                                                                                                ",
"                                                                                                ",
"                                                                                                ",
"                                                                                                ",
"                                                                                                ",
"                                                                                                ",
"                                                                                                ",
"                  ...XXXXXXXXXXXXXXXXXXXXXXXXXXXXXXXXXXXXXXXXXXXXXXXXXXXXXXXXXXXXXXXXXX...      ",
"                  ...XXXXXXXXXXXXXXXXXXXXXXXXXXXXXXXXXXXXXXXXXXXXXXXXXXXXXXXXXXXXXXXXXX...      ",
"                  ...XXXXXXXXXXXXXXXXXXXXXXXXXXXXXXXXXXXXXXXXXXXXXXXXXXXXXXXXXXXXXXXXXX...      ",
"                  XXXXXXXXXXXXXXXXXXXXXXXXXXXXXXXXXXXXXXXXXXXXXXXXXXXXXXXXXXXXXXXXXXXXXXXX      ",
"                  XXXXXXXXXXXXXXXXXXXXXXXXXXXXXXXXXXXXXXXXXXXXXXXXXXXXXXXXXXXXXXXXXXXXXXXX      ",
"                  XXXXXXXXXXXXXXXXXXXXXXXXXXXXXXXXXXXXXXXXXXXXXXXXXXXXXXXXXXXXXXXXXXXXXXXX      ",
"                  XXXXXXXXXXXXXXXXXXXXXXXXXXXXXXXXXXXXXXXXXXXXXXXXXXXXXXXXXXXXXXXXXXXXXXXX      ",
"                  XXXXXXXXXXXXXXXXXXXXXXXXXXXXXXXXXXXXXXXXXXXXXXXXXXXXXXXXXXXXXXXXXXXXXXXX      ",
"                  XXXXXXXXXXXXXXXXXXXXXXXXXXXXXXXXXXXXXXXXXXXXXXXXXXXXXXXXXXXXXXXXXXXXXXXX      ",
"                  ...XXXXXXXXXXXXXXXXXXXXXXXXXXXXXXXXXXXXXXXXXXXXXXXXXXXXXXXXXXXXXXXXXX...      ",
"                  ...XXXXXXXXXXXXXXXXXXXXXXXXXXXXXXXXXXXXXXXXXXXXXXXXXXXXXXXXXXXXXXXXXX...      ",
"                  ...XXXXXXXXXXXXXXXXXXXXXXXXXXXXXXXXXXXXXXXXXXXXXXXXXXXXXXXXXXXXXXXXXX...      ",
"                                                                                                ",
"                                                                                                ",
"                                                                                                ",
"                  ...XXXXXXXXXXXXXXXXXXXXXXXX      ...XXXXXXXXXXXXXXXXXXXXXXXXXXXXXXXXXXXXXXXXXX",
"                  ...XXXXXXXXXXXXXXXXXXXXXXXX      ...XXXXXXXXXXXXXXXXXXXXXXXXXXXXXXXXXXXXXXXXXX",
"                  ...XXXXXXXXXXXXXXXXXXXXXXXX      ...XXXXXXXXXXXXXXXXXXXXXXXXXXXXXXXXXXXXXXXXXX",
"                  XXXXXXXXXXXXXXXXXXXXXXXXXXX      XXXXXXXXXXXXXXXXXXXXXXXXXXXXXXXXXXXXXXXXXXXXX",
"                  XXXXXXXXXXXXXXXXXXXXXXXXXXX      XXXXXXXXXXXXXXXXXXXXXXXXXXXXXXXXXXXXXXXXXXXXX",
"                  XXXXXXXXXXXXXXXXXXXXXXXXXXX      XXXXXXXXXXXXXXXXXXXXXXXXXXXXXXXXXXXXXXXXXXXXX",
"                  XXXXXXXXXXXXXXXoooOOOOOOooo      XXXXXXXXXoooOOOOOOOOOOOOOOOOOOOOOOOOOOOOOOOOO",
"                  XXXXXXXXXXXXXXXoooOOOOOOooo      XXXXXXXXXoooOOOOOOOOOOOOOOOOOOOOOOOOOOOOOOOOO",
"                  XXXXXXXXXXXXXXXoooOOOOOOooo      XXXXXXXXXoooOOOOOOOOOOOOOOOOOOOOOOOOOOOOOOOOO",
"                  XXXXXXXXXXXXXXXOOOOOOOOOOOO      ...XXXXXXOOOOOOOOOOOOOOOOOOOOOOOOOOOOOOOOOOOO",
"                  XXXXXXXXXXXXXXXOOOOOOOOOOOO      ...XXXXXXOOOOOOOOOOOOOOOOOOOOOOOOOOOOOOOOOOOO",
"                  XXXXXXXXXXXXXXXOOOOOOOOOOOO      ...XXXXXXOOOOOOOOOOOOOOOOOOOOOOOOOOOOOOOOOOOO",
"                  XXXXXXXXXXXXXXXOOOOOOOOOOOO            XXXooooooOOOooooooOOOOOOOOOOOOOOOOOOOOO",
"                  XXXXXXXXXXXXXXXOOOOOOOOOOOO            XXXooooooOOOooooooOOOOOOOOOOOOOOOOOOOOO",
"                  XXXXXXXXXXXXXXXOOOOOOOOOOOO            XXXooooooOOOooooooOOOOOOOOOOOOOOOOOOOOO",
"                  XXXXXXXXXXXXXXXOOOOOOOOOOOO      XXXXXXXXXOOOOOO++++++OOO+++OOOOOOOOOOOOOOOOOO",
"                  XXXXXXXXXXXXXXXOOOOOOOOOOOO      XXXXXXXXXOOOOOO++++++OOO+++OOOOOOOOOOOOOOOOOO",
"                  XXXXXXXXXXXXXXXOOOOOOOOOOOO      XXXXXXXXXOOOOOO++++++OOO+++OOOOOOOOOOOOOOOOOO",
"                  ...XXXXXXXXXXXXoooOOOOOOXXX      ...XXXXXXoooOOOOOOOOOOOOOOOOOOOOOOOOOOOOOOOOO",
"                  ...XXXXXXXXXXXXoooOOOOOOXXX      ...XXXXXXoooOOOOOOOOOOOOOOOOOOOOOOOOOOOOOOOOO",
"                  ...XXXXXXXXXXXXoooOOOOOOXXX      ...XXXXXXoooOOOOOOOOOOOOOOOOOOOOOOOOOOOOOOOOO",
"                                                                                                ",
"                                                                                                ",
"                                                                                                ",
"            ...XXXXXXXXXXXXXXXXXXoooOOO++++++OOOOOOOOOOOO@@@@@@@@@+++OOO++++++OOOOOOOOOXXX      ",
"            ...XXXXXXXXXXXXXXXXXXoooOOO++++++OOOOOOOOOOOO@@@@@@@@@+++OOO++++++OOOOOOOOOXXX      ",
"            ...XXXXXXXXXXXXXXXXXXoooOOO++++++OOOOOOOOOOOO@@@@@@@@@+++OOO++++++OOOOOOOOOXXX      ",
"            XXXXXXXXXXXXXXXXXXXXXOOOOOOOOOOOOOOOOOOOOOOOOOOOOOOOOOOOOOOOOOOOOOOOOOOOOOOOOO      ",
"            XXXXXXXXXXXXXXXXXXXXXOOOOOOOOOOOOOOOOOOOOOOOOOOOOOOOOOOOOOOOOOOOOOOOOOOOOOOOOO      ",
"            XXXXXXXXXXXXXXXXXXXXXOOOOOOOOOOOOOOOOOOOOOOOOOOOOOOOOOOOOOOOOOOOOOOOOOOOOOOOOO      ",
"            XXXXXXXXXXXXXXXXXXXXXOOOOOOOOOOOOOOOOOOOOOOOOOOOOOOOOOOOOOOOOOOOOOOOOOOOOOOOOO      ",
"            XXXXXXXXXXXXXXXXXXXXXOOOOOOOOOOOOOOOOOOOOOOOOOOOOOOOOOOOOOOOOOOOOOOOOOOOOOOOOO      ",
"            XXXXXXXXXXXXXXXXXXXXXOOOOOOOOOOOOOOOOOOOOOOOOOOOOOOOOOOOOOOOOOOOOOOOOOOOOOOOOO      ",
"            XXXXXXXXXXXXXXXXXXXXXOOOOOOOOOOOOOOOOOOOOOOOOOOOOOOOOOOOOOOOOOOOOOOOOOOOOOOooo      ",
"            XXXXXXXXXXXXXXXXXXXXXOOOOOOOOOOOOOOOOOOOOOOOOOOOOOOOOOOOOOOOOOOOOOOOOOOOOOOooo      ",
"            XXXXXXXXXXXXXXXXXXXXXOOOOOOOOOOOOOOOOOOOOOOOOOOOOOOOOOOOOOOOOOOOOOOOOOOOOOOooo      ",
"            XXXXXXXXXXXXXXXXXXXXXOOOOOOOOOOOOOOOOOOOOOOOOOOOOOOXXXOOOXXXXXXOOO                  ",
"            XXXXXXXXXXXXXXXXXXXXXOOOOOOOOOOOOOOOOOOOOOOOOOOOOOOXXXOOOXXXXXXOOO                  ",
"            XXXXXXXXXXXXXXXXXXXXXOOOOOOOOOOOOOOOOOOOOOOOOOOOOOOXXXOOOXXXXXXOOO                  ",
"            XXXXXXXXXXXXXXXXXXXXXOOOOOOOOOOOOOOOOOOOOOOOOOOOOOOOOOOOO+++OOO++++++OOOOOOOOO      ",
"            XXXXXXXXXXXXXXXXXXXXXOOOOOOOOOOOOOOOOOOOOOOOOOOOOOOOOOOOO+++OOO++++++OOOOOOOOO      ",
"            XXXXXXXXXXXXXXXXXXXXXOOOOOOOOOOOOOOOOOOOOOOOOOOOOOOOOOOOO+++OOO++++++OOOOOOOOO      ",
"            ...XXXXXXXXXXXXXXXXXXoooOOOOOOOOOOOOOOOOOOOOOOOOOOOOOOOOOOOOOOOOOOOOOOOOOOOXXX      ",
"            ...XXXXXXXXXXXXXXXXXXoooOOOOOOOOOOOOOOOOOOOOOOOOOOOOOOOOOOOOOOOOOOOOOOOOOOOXXX      ",
"            ...XXXXXXXXXXXXXXXXXXoooOOOOOOOOOOOOOOOOOOOOOOOOOOOOOOOOOOOOOOOOOOOOOOOOOOOXXX      ",
"                                                                                                ",
"                                                                                                ",
"                                                                                                ",
"                  ...XXXXXXXXXXXXoooOOOOOOXXX      ...XXXXXXoooOOOOOOOOO++++++OOO+++OOOOOOOOO@@@",
"                  ...XXXXXXXXXXXXoooOOOOOOXXX      ...XXXXXXoooOOOOOOOOO++++++OOO+++OOOOOOOOO@@@",
"                  ...XXXXXXXXXXXXoooOOOOOOXXX      ...XXXXXXoooOOOOOOOOO++++++OOO+++OOOOOOOOO@@@",
"                  XXXXXXXXXXXXXXXOOOOOOOOOOOO      XXXXXXXXXOOOOOOOOOOOOOOOOOOOOOOOOOOOOOOOOOOOO",
"                  XXXXXXXXXXXXXXXOOOOOOOOOOOO      XXXXXXXXXOOOOOOOOOOOOOOOOOOOOOOOOOOOOOOOOOOOO",
"                  XXXXXXXXXXXXXXXOOOOOOOOOOOO      XXXXXXXXXOOOOOOOOOOOOOOOOOOOOOOOOOOOOOOOOOOOO",
"                  XXXXXXXXXXXXXXXOOOOOOOOOOOO      XXXXXXXXXOOOOOOOOOOOOOOOOOOOOOOOOOOOOOOOOOOOO",
"                  XXXXXXXXXXXXXXXOOOOOOOOOOOO      XXXXXXXXXOOOOOOOOOOOOOOOOOOOOOOOOOOOOOOOOOOOO",
"                  XXXXXXXXXXXXXXXOOOOOOOOOOOO      XXXXXXXXXOOOOOOOOOOOOOOOOOOOOOOOOOOOOOOOOOOOO",
"                  XXX...XXX......OOO               ...XXXXXXOOOOOOOOOOOOOOOOOOOOOOOOOOOOOOOOOOOO",
"                  XXX...XXX......OOO               ...XXXXXXOOOOOOOOOOOOOOOOOOOOOOOOOOOOOOOOOOOO",
"                  XXX...XXX......OOO               ...XXXXXXOOOOOOOOOOOOOOOOOOOOOOOOOOOOOOOOOOOO",
"                  XXXXXXXXXXXXXXXOOOOOOOOOooo            XXXooooooOOOoooOOOOOOOOOOOOOOOOOOOOOOOO",
"                  XXXXXXXXXXXXXXXOOOOOOOOOooo            XXXooooooOOOoooOOOOOOOOOOOOOOOOOOOOOOOO",
"                  XXXXXXXXXXXXXXXOOOOOOOOOooo            XXXooooooOOOoooOOOOOOOOOOOOOOOOOOOOOOOO",
"                  XXXXXXXXXXXXXXXOOOOOOOOOOOO      XXXXXXXXXOOOOOO+++OOO++++++OOOOOOOOOOOOOOOOOO",
"                  XXXXXXXXXXXXXXXOOOOOOOOOOOO      XXXXXXXXXOOOOOO+++OOO++++++OOOOOOOOOOOOOOOOOO",
"                  XXXXXXXXXXXXXXXOOOOOOOOOOOO      XXXXXXXXXOOOOOO+++OOO++++++OOOOOOOOOOOOOOOOOO",
"                  ...XXXXXXXXXXXXoooOOOOOOXXX      ...XXXXXXoooOOOOOOOOOOOOOOOOOOOOOOOOOOOOOOOOO",
"                  ...XXXXXXXXXXXXoooOOOOOOXXX      ...XXXXXXoooOOOOOOOOOOOOOOOOOOOOOOOOOOOOOOOOO",
"                  ...XXXXXXXXXXXXoooOOOOOOXXX      ...XXXXXXoooOOOOOOOOOOOOOOOOOOOOOOOOOOOOOOOOO"
};
