/* XPM */
static char *result[] = {
/* columns rows colors chars-per-pixel */
"96 96 7 1 ",
"  c #6E5967",
". c #926475",
"X c #AD707B",
"o c #B77F83",
"O c #C39490",
"+ c #D1B1A5",
"@ c #DCCABE",
/* pixels */
"                                                                                                ",
"                                                                                                ",
"                                                                                                ",
"            ...XXXXXXXXXXXXXXXXXXoooOOOOOOOOOOOOOOOOOOOOOOOOoooXXXXXXXXXXXX...                  ",
"            ...XXXXXXXXXXXXXXXXXXoooOOOOOOOOOOOOOOOOOOOOOOOOoooXXXXXXXXXXXX...                  ",
"            ...XXXXXXXXXXXXXXXXXXoooOOOOOOOOOOOOOOOOOOOOOOOOoooXXXXXXXXXXXX...                  ",
"            XXXXXXXXXXXXXXXXXXXXXOOOOOOOOOOOOOOOOOOOOOOOOOOOOOOXXXXXXXXXXXXXXX                  ",
"            XXXXXXXXXXXXXXXXXXXXXOOOOOOOOOOOOOOOOOOOOOOOOOOOOOOXXXXXXXXXXXXXXX                  ",
"            XXXXXXXXXXXXXXXXXXXXXOOOOOOOOOOOOOOOOOOOOOOOOOOOOOOXXXXXXXXXXXXXXX                  ",
"            XXXXXXXXXXXXXXXXXXXXXOOOOOOOOOOOOOOOOOOOOOOOOOOOOOOXXXXXXXXXXXXXXX...               ",
"            XXXXXXXXXXXXXXXXXXXXXOOOOOOOOOOOOOOOOOOOOOOOOOOOOOOXXXXXXXXXXXXXXX...               ",
"            XXXXXXXXXXXXXXXXXXXXXOOOOOOOOOOOOOOOOOOOOOOOOOOOOOOXXXXXXXXXXXXXXX...               ",
"                  XXXXXXXXX......XXXOOOXXXOOOOOOOOOOOOOOOOOOOOOXXXXXXXXXXXXXXXXXXXXXXXXXXX...   ",
"                  XXXXXXXXX......XXXOOOXXXOOOOOOOOOOOOOOOOOOOOOXXXXXXXXXXXXXXXXXXXXXXXXXXX...   ",
"                  XXXXXXXXX......XXXOOOXXXOOOOOOOOOOOOOOOOOOOOOXXXXXXXXXXXXXXXXXXXXXXXXXXX...   ",
"            XXXXXXXXXXXXXXXXXXXXXOOOOOOOOOOOOOOOOOOOOOOOOOOOOOOXXXXXXXXXXXXXXXXXXXXXXXXXXXXXX   ",
"            XXXXXXXXXXXXXXXXXXXXXOOOOOOOOOOOOOOOOOOOOOOOOOOOOOOXXXXXXXXXXXXXXXXXXXXXXXXXXXXXX   ",
"            XXXXXXXXXXXXXXXXXXXXXOOOOOOOOOOOOOOOOOOOOOOOOOOOOOOXXXXXXXXXXXXXXXXXXXXXXXXXXXXXX   ",
"            XXXXXXXXXXXXXXXXXXXXXOOOOOOOOOOOOOOOOOOOOOOOOOOOOOOXXXXXXXXXXXXXXXXXXXXXXXXXXXXXX   ",
"            XXXXXXXXXXXXXXXXXXXXXOOOOOOOOOOOOOOOOOOOOOOOOOOOOOOXXXXXXXXXXXXXXXXXXXXXXXXXXXXXX   ",
"            XXXXXXXXXXXXXXXXXXXXXOOOOOOOOOOOOOOOOOOOOOOOOOOOOOOXXXXXXXXXXXXXXXXXXXXXXXXXXXXXX   ",
"            ...XXXXXXXXXXXXXXXXXXoooOOOOOOOOOOOOOOOOOOOOOOOOoooXXXXXXXXXXXXXXXXXXXXXXXXXXX...   ",
"            ...XXXXXXXXXXXXXXXXXXoooOOOOOOOOOOOOOOOOOOOOOOOOoooXXXXXXXXXXXXXXXXXXXXXXXXXXX...   ",
"            ...XXXXXXXXXXXXXXXXXXoooOOOOOOOOOOOOOOOOOOOOOOOOoooXXXXXXXXXXXXXXXXXXXXXXXXXXX...   ",
"                                                                                                ",
"                                                                                                ",
"                                                                                                ",
"                  ...XXXXXXXXXXXXoooOOOOOOXXX      XXXOOOOOOOOOoooXXXXXXXXXXXXXXXXXXXXXXXXXXXXXX",
"                  ...XXXXXXXXXXXXoooOOOOOOXXX      XXXOOOOOOOOOoooXXXXXXXXXXXXXXXXXXXXXXXXXXXXXX",
"                  ...XXXXXXXXXXXXoooOOOOOOXXX      XXXOOOOOOOOOoooXXXXXXXXXXXXXXXXXXXXXXXXXXXXXX",
"                  XXXXXXXXXXXXXXXOOOOOOOOOOOO      OOOOOOOOOOOOOOOoooXXXXXXXXXXXXXXXXXXXXXXXXXXX",
"                  XXXXXXXXXXXXXXXOOOOOOOOOOOO      OOOOOOOOOOOOOOOoooXXXXXXXXXXXXXXXXXXXXXXXXXXX",
"                  XXXXXXXXXXXXXXXOOOOOOOOOOOO      OOOOOOOOOOOOOOOoooXXXXXXXXXXXXXXXXXXXXXXXXXXX",
"                  XXXXXXXXX......XXXOOO            OOOOOOOOOOOOOOOOOOOOOOOOOOOOOOOOOOOOOOOOOOOOO",
"                  XXXXXXXXX......XXXOOO            OOOOOOOOOOOOOOOOOOOOOOOOOOOOOOOOOOOOOOOOOOOOO",
"                  XXXXXXXXX......XXXOOO            OOOOOOOOOOOOOOOOOOOOOOOOOOOOOOOOOOOOOOOOOOOOO",
"                  XXXXXXXXXXXXXXXOOOOOOOOOooo      OOOOOOOOOOOOOOOOOOOOOOOOOOOOOOOOOOOOOOOOOOOOO",
"                  XXXXXXXXXXXXXXXOOOOOOOOOooo      OOOOOOOOOOOOOOOOOOOOOOOOOOOOOOOOOOOOOOOOOOOOO",
"                  XXXXXXXXXXXXXXXOOOOOOOOOooo      OOOOOOOOOOOOOOOOOOOOOOOOOOOOOOOOOOOOOOOOOOOOO",
"                  XXXXXXXXXXXXXXXOOOOOOOOOOOO      OOOOOOOOOOOOOOOOOOOOOOOOOOOOOOOOOOOOOOOOOOOOO",
"                  XXXXXXXXXXXXXXXOOOOOOOOOOOO      OOOOOOOOOOOOOOOOOOOOOOOOOOOOOOOOOOOOOOOOOOOOO",
"                  XXXXXXXXXXXXXXXOOOOOOOOOOOO      OOOOOOOOOOOOOOOOOOOOOOOOOOOOOOOOOOOOOOOOOOOOO",
"                  XXXXXXXXXXXXXXXOOOOOOOOOOOO      OOOOOOOOOOOOOOOOOOOOOOOOOOOOOOOOOOOOOOOOOOOOO",
"                  XXXXXXXXXXXXXXXOOOOOOOOOOOO      OOOOOOOOOOOOOOOOOOOOOOOOOOOOOOOOOOOOOOOOOOOOO",
"                  XXXXXXXXXXXXXXXOOOOOOOOOOOO      OOOOOOOOOOOOOOOOOOOOOOOOOOOOOOOOOOOOOOOOOOOOO",
"                  ...XXXXXXXXXXXXoooOOOOOOXXX      XXXOOOOOOOOOOOOOOOOOOOOOOOOOOOOOOOOOOOOOOOOOO",
"                  ...XXXXXXXXXXXXoooOOOOOOXXX      XXXOOOOOOOOOOOOOOOOOOOOOOOOOOOOOOOOOOOOOOOOOO",
"                  ...XXXXXXXXXXXXoooOOOOOOXXX      XXXOOOOOOOOOOOOOOOOOOOOOOOOOOOOOOOOOOOOOOOOOO",
"                                                                                                ",
"                                                                                                ",
"                                                                                                ",
"            ...XXXXXXXXXXXXXXXXXXoooOOO++++++@@@@@@++++++OOO+++OOOOOOOOOOOOOOOOOOOOOOOOXXX      ",
"            ...XXXXXXXXXXXXXXXXXXoooOOO++++++@@@@@@++++++OOO+++OOOOOOOOOOOOOOOOOOOOOOOOXXX      ",
"            ...XXXXXXXXXXXXXXXXXXoooOOO++++++@@@@@@++++++OOO+++OOOOOOOOOOOOOOOOOOOOOOOOXXX      ",
"            XXXXXXXXXXXXXXXXXXXXXOOOOOOOOOOOOOOOOOOOOOOOOOOOOOOOOOOOOOOOOOOOOOOOOOOOOOOOOO      ",
"            XXXXXXXXXXXXXXXXXXXXXOOOOOOOOOOOOOOOOOOOOOOOOOOOOOOOOOOOOOOOOOOOOOOOOOOOOOOOOO      ",
"            XXXXXXXXXXXXXXXXXXXXXOOOOOOOOOOOOOOOOOOOOOOOOOOOOOOOOOOOOOOOOOOOOOOOOOOOOOOOOO      ",
"            XXXXXXXXXXXXXXXXXXXXXOOOOOOOOOOOOOOOOOOOOOOOOOOOOOOOOOOOOOOOOOOOOOOOOOOOOOOOOO      ",
"            XXXXXXXXXXXXXXXXXXXXXOOOOOOOOOOOOOOOOOOOOOOOOOOOOOOOOOOOOOOOOOOOOOOOOOOOOOOOOO      ",
"            XXXXXXXXXXXXXXXXXXXXXOOOOOOOOOOOOOOOOOOOOOOOOOOOOOOOOOOOOOOOOOOOOOOOOOOOOOOOOO      ",
"            XXXXXXXXXXXXXXXXXXXXXOOOOOOOOOOOOOOOOOOOOOOOOOOOOOOOOOOOOOOOOOOOOOOOOOOOOOOooo      ",
"            XXXXXXXXXXXXXXXXXXXXXOOOOOOOOOOOOOOOOOOOOOOOOOOOOOOOOOOOOOOOOOOOOOOOOOOOOOOooo      ",
"            XXXXXXXXXXXXXXXXXXXXXOOOOOOOOOOOOOOOOOOOOOOOOOOOOOOOOOOOOOOOOOOOOOOOOOOOOOOooo      ",
"            XXXXXXXXXXXXXXXXXXXXXOOOOOOOOOOOOOOOOOOOOOOOOOOOOOOXXXOOOXXXXXXOOO                  ",
"            XXXXXXXXXXXXXXXXXXXXXOOOOOOOOOOOOOOOOOOOOOOOOOOOOOOXXXOOOXXXXXXOOO                  ",
"            XXXXXXXXXXXXXXXXXXXXXOOOOOOOOOOOOOOOOOOOOOOOOOOOOOOXXXOOOXXXXXXOOO                  ",
"            XXXXXXXXXXXXXXXXXXXXXOOOOOOOOOOOOOOOOOOOOOOOOOOOOOOOOOOOO+++OOO++++++OOOOOOOOO      ",
"            XXXXXXXXXXXXXXXXXXXXXOOOOOOOOOOOOOOOOOOOOOOOOOOOOOOOOOOOO+++OOO++++++OOOOOOOOO      ",
"            XXXXXXXXXXXXXXXXXXXXXOOOOOOOOOOOOOOOOOOOOOOOOOOOOOOOOOOOO+++OOO++++++OOOOOOOOO      ",
"            ...XXXXXXXXXXXXXXXXXXoooOOOOOOOOOOOOOOOOOOOOOOOOOOOOOOOOOOOOOOOOOOOOOOOOOOOXXX      ",
"            ...XXXXXXXXXXXXXXXXXXoooOOOOOOOOOOOOOOOOOOOOOOOOOOOOOOOOOOOOOOOOOOOOOOOOOOOXXX      ",
"            ...XXXXXXXXXXXXXXXXXXoooOOOOOOOOOOOOOOOOOOOOOOOOOOOOOOOOOOOOOOOOOOOOOOOOOOOXXX      ",
"                                                                                                ",
"                                                                                                ",
"                                                                                                ",
"                  ...XXXXXXXXXXXXOOOOOOOOOXXX      ...XXXXXXOOOOOOOOO+++@@@@@@++++++OOOOOOOOOOOO",
"                  ...XXXXXXXXXXXXOOOOOOOOOXXX      ...XXXXXXOOOOOOOOO+++@@@@@@++++++OOOOOOOOOOOO",
"                  ...XXXXXXXXXXXXOOOOOOOOOXXX      ...XXXXXXOOOOOOOOO+++@@@@@@++++++OOOOOOOOOOOO",
"                  XXXXXXXXXXXXXXXoooOOOOOOOOO      XXXXXXXXXoooOOOOOOOOOOOOOOOOOOOOOOOOOOOOOOOOO",
"                  XXXXXXXXXXXXXXXoooOOOOOOOOO      XXXXXXXXXoooOOOOOOOOOOOOOOOOOOOOOOOOOOOOOOOOO",
"                  XXXXXXXXXXXXXXXoooOOOOOOOOO      XXXXXXXXXoooOOOOOOOOOOOOOOOOOOOOOOOOOOOOOOOOO",
"                  XXXXXXXXX......XXX               XXXXXXXXXXXXXXXXXXXXXXXXXXXXXXXXXXXXXXXXXXXXX",
"                  XXXXXXXXX......XXX               XXXXXXXXXXXXXXXXXXXXXXXXXXXXXXXXXXXXXXXXXXXXX",
"                  XXXXXXXXX......XXX               XXXXXXXXXXXXXXXXXXXXXXXXXXXXXXXXXXXXXXXXXXXXX",
"                  XXXXXXXXXXXXXXXXXXXXXXXXXXX      XXXXXXXXXXXXXXXXXXXXXXXXXXXXXXXXXXXXXXXXXXXXX",
"                  XXXXXXXXXXXXXXXXXXXXXXXXXXX      XXXXXXXXXXXXXXXXXXXXXXXXXXXXXXXXXXXXXXXXXXXXX",
"                  XXXXXXXXXXXXXXXXXXXXXXXXXXX      XXXXXXXXXXXXXXXXXXXXXXXXXXXXXXXXXXXXXXXXXXXXX",
"                  ...XXXXXXXXXXXXXXXXXXXXX...      ...XXXXXXXXXXXXXXXXXXXXXXXXXXXXXXXXXXXXXXXXXX",
"                  ...XXXXXXXXXXXXXXXXXXXXX...      ...XXXXXXXXXXXXXXXXXXXXXXXXXXXXXXXXXXXXXXXXXX",
"                  ...XXXXXXXXXXXXXXXXXXXXX...      ...XXXXXXXXXXXXXXXXXXXXXXXXXXXXXXXXXXXXXXXXXX",
"                                                                                                ",
"                                                                                                ",
"                                                                                                ",
"                                                                                                ",
"                                                                                                ",
"                                                                                                "
};
