/* XPM */
static char *result[] = {
/* columns rows colors chars-per-pixel */
"96 96 7 1 ",
"  c #6E5967",
". c #926475",
"X c #AD707B",
"o c #B77F83",
"O c #C39490",
"+ c #D1B1A5",
"@ c #DCCABE",
/* pixels */
"                                                                                                ",
"                                                                                                ",
"                                                                                                ",
"                  ...XXXXXXXXXXXXoooOOOOOOOOOOOOOOOOOOOOOOOOOOOOOOOOOOOOOOOOOOOOOOOOOOOOOOXXX   ",
"                  ...XXXXXXXXXXXXoooOOOOOOOOOOOOOOOOOOOOOOOOOOOOOOOOOOOOOOOOOOOOOOOOOOOOOOXXX   ",
"                  ...XXXXXXXXXXXXoooOOOOOOOOOOOOOOOOOOOOOOOOOOOOOOOOOOOOOOOOOOOOOOOOOOOOOOXXX   ",
"                  XXXXXXXXXXXXXXXOOOOOOOOOOOOOOOOOOOOOOOOOOOOOOOOOOOOOOOOOOOOOOOOOOOOOOOOOOOO   ",
"                  XXXXXXXXXXXXXXXOOOOOOOOOOOOOOOOOOOOOOOOOOOOOOOOOOOOOOOOOOOOOOOOOOOOOOOOOOOO   ",
"                  XXXXXXXXXXXXXXXOOOOOOOOOOOOOOOOOOOOOOOOOOOOOOOOOOOOOOOOOOOOOOOOOOOOOOOOOOOO   ",
"               ...XXXXXXXXXXXXXXXOOOOOOOOOOOOOOOOOOOOOOOOOOOXXXOOOXXXXXXXXXXXXXXXOOOOOO         ",
"               ...XXXXXXXXXXXXXXXOOOOOOOOOOOOOOOOOOOOOOOOOOOXXXOOOXXXXXXXXXXXXXXXOOOOOO         ",
"               ...XXXXXXXXXXXXXXXOOOOOOOOOOOOOOOOOOOOOOOOOOOXXXOOOXXXXXXXXXXXXXXXOOOOOO         ",
"...XXXXXXXXXXXXXXXXXXXXXXXXXXXXXXOOOOOOOOOOOOOOOOOOOOOOOOOOOOOO+++OOO+++++++++OOOOOOOOOOOOooo   ",
"...XXXXXXXXXXXXXXXXXXXXXXXXXXXXXXOOOOOOOOOOOOOOOOOOOOOOOOOOOOOO+++OOO+++++++++OOOOOOOOOOOOooo   ",
"...XXXXXXXXXXXXXXXXXXXXXXXXXXXXXXOOOOOOOOOOOOOOOOOOOOOOOOOOOOOO+++OOO+++++++++OOOOOOOOOOOOooo   ",
"XXXXXXXXXXXXXXXXXXXXXXXXXXXXXXXXXOOOOOOOOOOOOOOOOOOOOOOOOOOOOOOOOOOOOOOOOOOOOOOOOOOOOOOOOOOOO   ",
"XXXXXXXXXXXXXXXXXXXXXXXXXXXXXXXXXOOOOOOOOOOOOOOOOOOOOOOOOOOOOOOOOOOOOOOOOOOOOOOOOOOOOOOOOOOOO   ",
"XXXXXXXXXXXXXXXXXXXXXXXXXXXXXXXXXOOOOOOOOOOOOOOOOOOOOOOOOOOOOOOOOOOOOOOOOOOOOOOOOOOOOOOOOOOOO   ",
"XXXXXXXXXXXXXXXXXXXXXXXXXXXXXXXXXOOOOOOOOOOOOOOOOOOOOOOOOOOOOOOOOOOOOOOOOOOOOOOOOOOOOOOOOOOOO   ",
"XXXXXXXXXXXXXXXXXXXXXXXXXXXXXXXXXOOOOOOOOOOOOOOOOOOOOOOOOOOOOOOOOOOOOOOOOOOOOOOOOOOOOOOOOOOOO   ",
"XXXXXXXXXXXXXXXXXXXXXXXXXXXXXXXXXOOOOOOOOOOOOOOOOOOOOOOOOOOOOOOOOOOOOOOOOOOOOOOOOOOOOOOOOOOOO   ",
"...XXXXXXXXXXXXXXXXXXXXXXXXXXXXXXoooOOOOOOOOOOOOOOOOOOOOOOOOOOOOOOOOOOOOOOOOOOOOOOOOOOOOOOXXX   ",
"...XXXXXXXXXXXXXXXXXXXXXXXXXXXXXXoooOOOOOOOOOOOOOOOOOOOOOOOOOOOOOOOOOOOOOOOOOOOOOOOOOOOOOOXXX   ",
"...XXXXXXXXXXXXXXXXXXXXXXXXXXXXXXoooOOOOOOOOOOOOOOOOOOOOOOOOOOOOOOOOOOOOOOOOOOOOOOOOOOOOOOXXX   ",
"                                                                                                ",
"                                                                                                ",
"                                                                                                ",
"XXXXXXXXXXXXXXXXXXXXXXXXXXXXXXoooOOOOOOOOOXXX   XXXOOOOOOOOO+++OOO+++@@@@@@@@@+++OOOOOOOOOOOOOOO",
"XXXXXXXXXXXXXXXXXXXXXXXXXXXXXXoooOOOOOOOOOXXX   XXXOOOOOOOOO+++OOO+++@@@@@@@@@+++OOOOOOOOOOOOOOO",
"XXXXXXXXXXXXXXXXXXXXXXXXXXXXXXoooOOOOOOOOOXXX   XXXOOOOOOOOO+++OOO+++@@@@@@@@@+++OOOOOOOOOOOOOOO",
"XXXXXXXXXXXXXXXXXXXXXXXXXXXoooOOOOOOOOOOOOOOO   OOOOOOOOOOOOOOOOOOOOOOOOOOOOOOOOOOOOOOOOOOOOOOOO",
"XXXXXXXXXXXXXXXXXXXXXXXXXXXoooOOOOOOOOOOOOOOO   OOOOOOOOOOOOOOOOOOOOOOOOOOOOOOOOOOOOOOOOOOOOOOOO",
"XXXXXXXXXXXXXXXXXXXXXXXXXXXoooOOOOOOOOOOOOOOO   OOOOOOOOOOOOOOOOOOOOOOOOOOOOOOOOOOOOOOOOOOOOOOOO",
"OOOOOOOOOOOOOOOOOOOOOOOOOOOOOOOOOOOOOOOOOOOOO   OOOOOOOOOOOOOOOOOOOOOOOOOOOOOOOOOOOOOOOOOOOOOOOO",
"OOOOOOOOOOOOOOOOOOOOOOOOOOOOOOOOOOOOOOOOOOOOO   OOOOOOOOOOOOOOOOOOOOOOOOOOOOOOOOOOOOOOOOOOOOOOOO",
"OOOOOOOOOOOOOOOOOOOOOOOOOOOOOOOOOOOOOOOOOOOOO   OOOOOOOOOOOOOOOOOOOOOOOOOOOOOOOOOOOOOOOOOOOOOOOO",
"OOOOOOOOOOOOOOOOOOOOOOOOOOOOOOOOOOOOOOOOOOOOO   oooOOOOOOOOOOOOOOOOOOOOOOOOOOOOOOOOOOOOOOOOOOOOO",
"OOOOOOOOOOOOOOOOOOOOOOOOOOOOOOOOOOOOOOOOOOOOO   oooOOOOOOOOOOOOOOOOOOOOOOOOOOOOOOOOOOOOOOOOOOOOO",
"OOOOOOOOOOOOOOOOOOOOOOOOOOOOOOOOOOOOOOOOOOOOO   oooOOOOOOOOOOOOOOOOOOOOOOOOOOOOOOOOOOOOOOOOOOOOO",
"OOOOOOOOOOOOOOOOOOOOOOOOOOOOOOOOOOOOOOOOOOOOO               OOOXXXXXXOOOXXXOOOOOOOOOOOOOOOOOOOOO",
"OOOOOOOOOOOOOOOOOOOOOOOOOOOOOOOOOOOOOOOOOOOOO               OOOXXXXXXOOOXXXOOOOOOOOOOOOOOOOOOOOO",
"OOOOOOOOOOOOOOOOOOOOOOOOOOOOOOOOOOOOOOOOOOOOO               OOOXXXXXXOOOXXXOOOOOOOOOOOOOOOOOOOOO",
"OOOOOOOOOOOOOOOOOOOOOOOOOOOOOOOOOOOOOOOOOOOOO   OOOOOOOOOOOOOOOOOO+++++++++OOO+++OOOOOOOOOOOOOOO",
"OOOOOOOOOOOOOOOOOOOOOOOOOOOOOOOOOOOOOOOOOOOOO   OOOOOOOOOOOOOOOOOO+++++++++OOO+++OOOOOOOOOOOOOOO",
"OOOOOOOOOOOOOOOOOOOOOOOOOOOOOOOOOOOOOOOOOOOOO   OOOOOOOOOOOOOOOOOO+++++++++OOO+++OOOOOOOOOOOOOOO",
"OOOOOOOOOOOOOOOOOOOOOOOOOOOOOOOOOOOOOOOOOOXXX   XXXOOOOOOOOOOOOOOOOOOOOOOOOOOOOOOOOOOOOOOOOOOOOO",
"OOOOOOOOOOOOOOOOOOOOOOOOOOOOOOOOOOOOOOOOOOXXX   XXXOOOOOOOOOOOOOOOOOOOOOOOOOOOOOOOOOOOOOOOOOOOOO",
"OOOOOOOOOOOOOOOOOOOOOOOOOOOOOOOOOOOOOOOOOOXXX   XXXOOOOOOOOOOOOOOOOOOOOOOOOOOOOOOOOOOOOOOOOOOOOO",
"                                                                                                ",
"                                                                                                ",
"                                                                                                ",
"XXXOOOOOOOOO+++OOO++++++@@@@@@@@@+++OOO++++++OOOOOOOOOOOOOOOOOOOOOOOOOOOOOOOOOOOOOOOOOOOOOXXX   ",
"XXXOOOOOOOOO+++OOO++++++@@@@@@@@@+++OOO++++++OOOOOOOOOOOOOOOOOOOOOOOOOOOOOOOOOOOOOOOOOOOOOXXX   ",
"XXXOOOOOOOOO+++OOO++++++@@@@@@@@@+++OOO++++++OOOOOOOOOOOOOOOOOOOOOOOOOOOOOOOOOOOOOOOOOOOOOXXX   ",
"OOOOOOOOOOOOOOOOOOOOOOOOOOOOOOOOOOOOOOOOOOOOOOOOOOOOOOOOOOOOOOOOOOOOOOOOOOOOOOOOOOOOOOOOOOOOO   ",
"OOOOOOOOOOOOOOOOOOOOOOOOOOOOOOOOOOOOOOOOOOOOOOOOOOOOOOOOOOOOOOOOOOOOOOOOOOOOOOOOOOOOOOOOOOOOO   ",
"OOOOOOOOOOOOOOOOOOOOOOOOOOOOOOOOOOOOOOOOOOOOOOOOOOOOOOOOOOOOOOOOOOOOOOOOOOOOOOOOOOOOOOOOOOOOO   ",
"oooOOOOOOOOOOOOOOOOOOOOOOOOOOOOOOOOOOOOOOOOOOOOOOOOOOOOOOOOOOOOOOOOOOOOOOOOOOOOOOOOOOOOOOOOOO   ",
"oooOOOOOOOOOOOOOOOOOOOOOOOOOOOOOOOOOOOOOOOOOOOOOOOOOOOOOOOOOOOOOOOOOOOOOOOOOOOOOOOOOOOOOOOOOO   ",
"oooOOOOOOOOOOOOOOOOOOOOOOOOOOOOOOOOOOOOOOOOOOOOOOOOOOOOOOOOOOOOOOOOOOOOOOOOOOOOOOOOOOOOOOOOOO   ",
"      OOOXXXXXXOOOXXXOOOOOOOOOOOOOOOOOOOOOOOOOOOOOOOOOOOOOOOOOOOOOOOOOOOOOOOOOOOOOOOOOOOOOOOO   ",
"      OOOXXXXXXOOOXXXOOOOOOOOOOOOOOOOOOOOOOOOOOOOOOOOOOOOOOOOOOOOOOOOOOOOOOOOOOOOOOOOOOOOOOOO   ",
"      OOOXXXXXXOOOXXXOOOOOOOOOOOOOOOOOOOOOOOOOOOOOOOOOOOOOOOOOOOOOOOOOOOOOOOOOOOOOOOOOOOOOOOO   ",
"oooOOOOOO++++++OOO++++++OOOOOOOOOOOOOOOOOOOOOOOOOOOOOOOOOOOOOOOOOOOOOOOOOOOOOOOOOOOOOOOOOOOOO   ",
"oooOOOOOO++++++OOO++++++OOOOOOOOOOOOOOOOOOOOOOOOOOOOOOOOOOOOOOOOOOOOOOOOOOOOOOOOOOOOOOOOOOOOO   ",
"oooOOOOOO++++++OOO++++++OOOOOOOOOOOOOOOOOOOOOOOOOOOOOOOOOOOOOOOOOOOOOOOOOOOOOOOOOOOOOOOOOOOOO   ",
"OOOOOOOOOOOOOOOOOOOOOOOOOOOOOOOOOOOOOOOOOOOOOOOOOOOOOOOOOOOOOOOOOOOOOOOOOOOOOOOOOOOOOOOOOOOOO   ",
"OOOOOOOOOOOOOOOOOOOOOOOOOOOOOOOOOOOOOOOOOOOOOOOOOOOOOOOOOOOOOOOOOOOOOOOOOOOOOOOOOOOOOOOOOOOOO   ",
"OOOOOOOOOOOOOOOOOOOOOOOOOOOOOOOOOOOOOOOOOOOOOOOOOOOOOOOOOOOOOOOOOOOOOOOOOOOOOOOOOOOOOOOOOOOOO   ",
"XXXOOOOOOOOOOOOOOOOOOOOOOOOOOOOOOOOOOOOOOOOOOOOOOOOOOOOOOOOOOOOOOOOOOOOOOOOOOOOOOOOOOOOOOOXXX   ",
"XXXOOOOOOOOOOOOOOOOOOOOOOOOOOOOOOOOOOOOOOOOOOOOOOOOOOOOOOOOOOOOOOOOOOOOOOOOOOOOOOOOOOOOOOOXXX   ",
"XXXOOOOOOOOOOOOOOOOOOOOOOOOOOOOOOOOOOOOOOOOOOOOOOOOOOOOOOOOOOOOOOOOOOOOOOOOOOOOOOOOOOOOOOOXXX   ",
"                                                                                                ",
"                                                                                                ",
"                                                                                                ",
"OOOOOO++++++OOO+++OOOOOOOOOOOOOOOOOOOOOOOOXXX   XXXOOOOOOOOO+++OOO+++@@@@@@@@@++++++OOOOOOOOOOOO",
"OOOOOO++++++OOO+++OOOOOOOOOOOOOOOOOOOOOOOOXXX   XXXOOOOOOOOO+++OOO+++@@@@@@@@@++++++OOOOOOOOOOOO",
"OOOOOO++++++OOO+++OOOOOOOOOOOOOOOOOOOOOOOOXXX   XXXOOOOOOOOO+++OOO+++@@@@@@@@@++++++OOOOOOOOOOOO",
"OOOOOOOOOOOOOOOOOOOOOOOOOOOOOOOOOOOOOOOOOOOOO   OOOOOOOOOOOOOOOOOOOOOOOOOOOOOOOOOOOOOOOOOOOOOOOO",
"OOOOOOOOOOOOOOOOOOOOOOOOOOOOOOOOOOOOOOOOOOOOO   OOOOOOOOOOOOOOOOOOOOOOOOOOOOOOOOOOOOOOOOOOOOOOOO",
"OOOOOOOOOOOOOOOOOOOOOOOOOOOOOOOOOOOOOOOOOOOOO   OOOOOOOOOOOOOOOOOOOOOOOOOOOOOOOOOOOOOOOOOOOOOOOO",
"XXXXXXXXXXXXXXXXXXXXXXXXXXX......XXX            XXXXXXXXXXXXXXXXXXXXXXXXXXXXXXXXXXXXXXXXXXXXXXXX",
"XXXXXXXXXXXXXXXXXXXXXXXXXXX......XXX            XXXXXXXXXXXXXXXXXXXXXXXXXXXXXXXXXXXXXXXXXXXXXXXX",
"XXXXXXXXXXXXXXXXXXXXXXXXXXX......XXX            XXXXXXXXXXXXXXXXXXXXXXXXXXXXXXXXXXXXXXXXXXXXXXXX",
"XXXXXXXXXXXXXXXXXXXXXXXXXXXXXXXXXXXXXXXXXXXXX   XXXXXXXXXXXXXXXXXXXXXXXXXXXXXXXXXXXXXXXXXXXXXXXX",
"XXXXXXXXXXXXXXXXXXXXXXXXXXXXXXXXXXXXXXXXXXXXX   XXXXXXXXXXXXXXXXXXXXXXXXXXXXXXXXXXXXXXXXXXXXXXXX",
"XXXXXXXXXXXXXXXXXXXXXXXXXXXXXXXXXXXXXXXXXXXXX   XXXXXXXXXXXXXXXXXXXXXXXXXXXXXXXXXXXXXXXXXXXXXXXX",
"XXXXXXXXXXXXXXXXXXXXXXXXXXXXXXXXXXXXXXXXXX...   ...XXXXXXXXXXXXXXXXXXXXXXXXXXXXXXXXXXXXXXXXXXXXX",
"XXXXXXXXXXXXXXXXXXXXXXXXXXXXXXXXXXXXXXXXXX...   ...XXXXXXXXXXXXXXXXXXXXXXXXXXXXXXXXXXXXXXXXXXXXX",
"XXXXXXXXXXXXXXXXXXXXXXXXXXXXXXXXXXXXXXXXXX...   ...XXXXXXXXXXXXXXXXXXXXXXXXXXXXXXXXXXXXXXXXXXXXX",
"                                                                                                ",
"                                                                                                ",
"                                                                                                ",
"                                                                                                ",
"                                                                                                ",
"                                                                                                "
};
