/* XPM */
static char *result[] = {
/* columns rows colors chars-per-pixel */
"96 96 7 1 ",
"  c #6E5967",
". c #926475",
"X c #AD707B",
"o c #B77F83",
"O c #C39490",
"+ c #D1B1A5",
"@ c #DCCABE",
/* pixels */
"                                                                                                ",
"                                                                                                ",
"                                                                                                ",
"            ...XXXXXXXXXXXXXXXXXXoooOOOOOOOOOOOOOOOOOO+++@@@+++OOOOOOOOO++++++OOOOOOOOOXXX      ",
"            ...XXXXXXXXXXXXXXXXXXoooOOOOOOOOOOOOOOOOOO+++@@@+++OOOOOOOOO++++++OOOOOOOOOXXX      ",
"            ...XXXXXXXXXXXXXXXXXXoooOOOOOOOOOOOOOOOOOO+++@@@+++OOOOOOOOO++++++OOOOOOOOOXXX      ",
"            XXXXXXXXXXXXXXXXXXXXXOOOOOOOOOOOOOOOOOOOOOOOOOOOOOOOOOOOOOOOOOOOOOOOOOOOOOOOOO      ",
"            XXXXXXXXXXXXXXXXXXXXXOOOOOOOOOOOOOOOOOOOOOOOOOOOOOOOOOOOOOOOOOOOOOOOOOOOOOOOOO      ",
"            XXXXXXXXXXXXXXXXXXXXXOOOOOOOOOOOOOOOOOOOOOOOOOOOOOOOOOOOOOOOOOOOOOOOOOOOOOOOOO      ",
"            XXXXXXXXXXXXXXXXXXXXXOOOOOOOOOOOOOOOOOOOOOOOOOOOOOOOOOOOOOOOOOOOOOOOOOOOOOOOOO      ",
"            XXXXXXXXXXXXXXXXXXXXXOOOOOOOOOOOOOOOOOOOOOOOOOOOOOOOOOOOOOOOOOOOOOOOOOOOOOOOOO      ",
"            XXXXXXXXXXXXXXXXXXXXXOOOOOOOOOOOOOOOOOOOOOOOOOOOOOOOOOOOOOOOOOOOOOOOOOOOOOOOOO      ",
"                  XXX...XXX......XXXOOOXXXOOOOOOOOOOOOOOOOOOOOOOOOOOOOOOOOOOOOOOOOOOOOOOOO      ",
"                  XXX...XXX......XXXOOOXXXOOOOOOOOOOOOOOOOOOOOOOOOOOOOOOOOOOOOOOOOOOOOOOOO      ",
"                  XXX...XXX......XXXOOOXXXOOOOOOOOOOOOOOOOOOOOOOOOOOOOOOOOOOOOOOOOOOOOOOOO      ",
"            XXXXXXXXXXXXXXXXXXXXXOOOOOOOOOOOOOOOOOOOOOOOOOOOOOOOOOOOOOOOOOOOOOOOOOOOOOOOOO      ",
"            XXXXXXXXXXXXXXXXXXXXXOOOOOOOOOOOOOOOOOOOOOOOOOOOOOOOOOOOOOOOOOOOOOOOOOOOOOOOOO      ",
"            XXXXXXXXXXXXXXXXXXXXXOOOOOOOOOOOOOOOOOOOOOOOOOOOOOOOOOOOOOOOOOOOOOOOOOOOOOOOOO      ",
"            XXXXXXXXXXXXXXXXXXXXXOOOOOOOOOOOOOOOOOOOOOOOOOOOOOOOOOOOOOOOOOOOOOOOOOOOOOOOOO      ",
"            XXXXXXXXXXXXXXXXXXXXXOOOOOOOOOOOOOOOOOOOOOOOOOOOOOOOOOOOOOOOOOOOOOOOOOOOOOOOOO      ",
"            XXXXXXXXXXXXXXXXXXXXXOOOOOOOOOOOOOOOOOOOOOOOOOOOOOOOOOOOOOOOOOOOOOOOOOOOOOOOOO      ",
"            ...XXXXXXXXXXXXXXXXXXoooOOOOOOOOOOOOOOOOOOOOOOOOOOOOOOOOOOOOOOOOOOOOOOOOOOOXXX      ",
"            ...XXXXXXXXXXXXXXXXXXoooOOOOOOOOOOOOOOOOOOOOOOOOOOOOOOOOOOOOOOOOOOOOOOOOOOOXXX      ",
"            ...XXXXXXXXXXXXXXXXXXoooOOOOOOOOOOOOOOOOOOOOOOOOOOOOOOOOOOOOOOOOOOOOOOOOOOOXXX      ",
"                                                                                                ",
"                                                                                                ",
"                                                                                                ",
"                  ...XXXXXXXXXXXXoooOOOOOOXXX      ...XXXXXXoooOOOOOO++++++@@@@@@@@@@@@+++OOOOOO",
"                  ...XXXXXXXXXXXXoooOOOOOOXXX      ...XXXXXXoooOOOOOO++++++@@@@@@@@@@@@+++OOOOOO",
"                  ...XXXXXXXXXXXXoooOOOOOOXXX      ...XXXXXXoooOOOOOO++++++@@@@@@@@@@@@+++OOOOOO",
"                  XXXXXXXXXXXXXXXOOOOOOOOOOOO      XXXXXXXXXOOOOOOOOOOOOOOOOOOOOOOOOOOOOOOOOOOOO",
"                  XXXXXXXXXXXXXXXOOOOOOOOOOOO      XXXXXXXXXOOOOOOOOOOOOOOOOOOOOOOOOOOOOOOOOOOOO",
"                  XXXXXXXXXXXXXXXOOOOOOOOOOOO      XXXXXXXXXOOOOOOOOOOOOOOOOOOOOOOOOOOOOOOOOOOOO",
"                  XXXXXXXXXXXXXXXOOOOOOOOOOOO      XXXXXXXXXOOOOOOOOOOOOOOOOOOOOOOOOOOOOOOOOOOOO",
"                  XXXXXXXXXXXXXXXOOOOOOOOOOOO      XXXXXXXXXOOOOOOOOOOOOOOOOOOOOOOOOOOOOOOOOOOOO",
"                  XXXXXXXXXXXXXXXOOOOOOOOOOOO      XXXXXXXXXOOOOOOOOOOOOOOOOOOOOOOOOOOOOOOOOOOOO",
"                  XXXXXXXXXXXXXXXOOOOOOOOOOOO      XXXXXXXXXOOOOOOOOOOOOOOOOOOOOOOOOOOOOOOOOOOOO",
"                  XXXXXXXXXXXXXXXOOOOOOOOOOOO      XXXXXXXXXOOOOOOOOOOOOOOOOOOOOOOOOOOOOOOOOOOOO",
"                  XXXXXXXXXXXXXXXOOOOOOOOOOOO      XXXXXXXXXOOOOOOOOOOOOOOOOOOOOOOOOOOOOOOOOOOOO",
"                  XXXXXXXXXXXXXXXOOOOOOOOOOOO      XXXXXXXXXOOOOOOOOOOOOOOOOOOOOOOOOOOOOOOOOOOOO",
"                  XXXXXXXXXXXXXXXOOOOOOOOOOOO      XXXXXXXXXOOOOOOOOOOOOOOOOOOOOOOOOOOOOOOOOOOOO",
"                  XXXXXXXXXXXXXXXOOOOOOOOOOOO      XXXXXXXXXOOOOOOOOOOOOOOOOOOOOOOOOOOOOOOOOOOOO",
"                  XXXXXXXXXXXXXXXOOOOOOOOOOOO      XXXXXXXXXOOOOOOOOOOOOOOOOOOOOOOOOOOOOOOOOOOOO",
"                  XXXXXXXXXXXXXXXOOOOOOOOOOOO      XXXXXXXXXOOOOOOOOOOOOOOOOOOOOOOOOOOOOOOOOOOOO",
"                  XXXXXXXXXXXXXXXOOOOOOOOOOOO      XXXXXXXXXOOOOOOOOOOOOOOOOOOOOOOOOOOOOOOOOOOOO",
"                  ...XXXXXXXXXXXXoooOOOOOOXXX      ...XXXXXXoooOOOOOOOOOOOOOOOOOOOOOOOOOOOOOOOOO",
"                  ...XXXXXXXXXXXXoooOOOOOOXXX      ...XXXXXXoooOOOOOOOOOOOOOOOOOOOOOOOOOOOOOOOOO",
"                  ...XXXXXXXXXXXXoooOOOOOOXXX      ...XXXXXXoooOOOOOOOOOOOOOOOOOOOOOOOOOOOOOOOOO",
"                                                                                                ",
"                                                                                                ",
"                                                                                                ",
"            ...XXXXXXXXXXXXXXXXXXoooOOOOOOOOOOOO++++++@@@@@@@@@@@@++++++OOO+++OOOOOOOOOXXX      ",
"            ...XXXXXXXXXXXXXXXXXXoooOOOOOOOOOOOO++++++@@@@@@@@@@@@++++++OOO+++OOOOOOOOOXXX      ",
"            ...XXXXXXXXXXXXXXXXXXoooOOOOOOOOOOOO++++++@@@@@@@@@@@@++++++OOO+++OOOOOOOOOXXX      ",
"            XXXXXXXXXXXXXXXXXXXXXOOOOOOOOOOOOOOOOOOOOOOOOOOOOOOOOOOOOOOOOOOOOOOOOOOOOOOOOO      ",
"            XXXXXXXXXXXXXXXXXXXXXOOOOOOOOOOOOOOOOOOOOOOOOOOOOOOOOOOOOOOOOOOOOOOOOOOOOOOOOO      ",
"            XXXXXXXXXXXXXXXXXXXXXOOOOOOOOOOOOOOOOOOOOOOOOOOOOOOOOOOOOOOOOOOOOOOOOOOOOOOOOO      ",
"            XXXXXXXXXXXXXXXXXXXXXOOOOOOOOOOOOOOOOOOOOOOOOOOOOOOOOOOOOOOOOOOOOOOOOOOOOOOOOO      ",
"            XXXXXXXXXXXXXXXXXXXXXOOOOOOOOOOOOOOOOOOOOOOOOOOOOOOOOOOOOOOOOOOOOOOOOOOOOOOOOO      ",
"            XXXXXXXXXXXXXXXXXXXXXOOOOOOOOOOOOOOOOOOOOOOOOOOOOOOOOOOOOOOOOOOOOOOOOOOOOOOOOO      ",
"            XXXXXXXXXXXXXXXXXXXXXOOOOOOOOOOOOOOOOOOOOOOOOOOOOOOOOOOOOOOOOOOOOOOOOOOOOOOooo      ",
"            XXXXXXXXXXXXXXXXXXXXXOOOOOOOOOOOOOOOOOOOOOOOOOOOOOOOOOOOOOOOOOOOOOOOOOOOOOOooo      ",
"            XXXXXXXXXXXXXXXXXXXXXOOOOOOOOOOOOOOOOOOOOOOOOOOOOOOOOOOOOOOOOOOOOOOOOOOOOOOooo      ",
"            XXXXXXXXXXXXXXXXXXXXXOOOOOOOOOOOOOOOOOOOOOOOOOOOOOOOOOXXXOOOXXXXXXOOO               ",
"            XXXXXXXXXXXXXXXXXXXXXOOOOOOOOOOOOOOOOOOOOOOOOOOOOOOOOOXXXOOOXXXXXXOOO               ",
"            XXXXXXXXXXXXXXXXXXXXXOOOOOOOOOOOOOOOOOOOOOOOOOOOOOOOOOXXXOOOXXXXXXOOO               ",
"            XXXXXXXXXXXXXXXXXXXXXOOOOOOOOOOOOOOOOOOOOOOOOOOOOOOOOOOOO+++OOO++++++OOOOOOOOO      ",
"            XXXXXXXXXXXXXXXXXXXXXOOOOOOOOOOOOOOOOOOOOOOOOOOOOOOOOOOOO+++OOO++++++OOOOOOOOO      ",
"            XXXXXXXXXXXXXXXXXXXXXOOOOOOOOOOOOOOOOOOOOOOOOOOOOOOOOOOOO+++OOO++++++OOOOOOOOO      ",
"            ...XXXXXXXXXXXXXXXXXXoooOOOOOOOOOOOOOOOOOOOOOOOOOOOOOOOOOOOOOOOOOOOOOOOOOOOXXX      ",
"            ...XXXXXXXXXXXXXXXXXXoooOOOOOOOOOOOOOOOOOOOOOOOOOOOOOOOOOOOOOOOOOOOOOOOOOOOXXX      ",
"            ...XXXXXXXXXXXXXXXXXXoooOOOOOOOOOOOOOOOOOOOOOOOOOOOOOOOOOOOOOOOOOOOOOOOOOOOXXX      ",
"                                                                                                ",
"                                                                                                ",
"                                                                                                ",
"                  ...XXXXXXXXXXXXoooOOOOOOXXX      ...XXXXXXoooOOOOOO+++@@@@@@@@@+++OOO+++OOOOOO",
"                  ...XXXXXXXXXXXXoooOOOOOOXXX      ...XXXXXXoooOOOOOO+++@@@@@@@@@+++OOO+++OOOOOO",
"                  ...XXXXXXXXXXXXoooOOOOOOXXX      ...XXXXXXoooOOOOOO+++@@@@@@@@@+++OOO+++OOOOOO",
"                  XXXXXXXXXXXXXXXOOOOOOOOOOOO      XXXXXXXXXOOOOOOOOOOOOOOOOOOOOOOOOOOOOOOOOOOOO",
"                  XXXXXXXXXXXXXXXOOOOOOOOOOOO      XXXXXXXXXOOOOOOOOOOOOOOOOOOOOOOOOOOOOOOOOOOOO",
"                  XXXXXXXXXXXXXXXOOOOOOOOOOOO      XXXXXXXXXOOOOOOOOOOOOOOOOOOOOOOOOOOOOOOOOOOOO",
"                  XXXXXXXXXXXXXXXOOOOOOOOOOOO      XXXXXXXXXOOOOOOOOOOOOOOOOOOOOOOOOOOOOOOOOOOOO",
"                  XXXXXXXXXXXXXXXOOOOOOOOOOOO      XXXXXXXXXOOOOOOOOOOOOOOOOOOOOOOOOOOOOOOOOOOOO",
"                  XXXXXXXXXXXXXXXOOOOOOOOOOOO      XXXXXXXXXOOOOOOOOOOOOOOOOOOOOOOOOOOOOOOOOOOOO",
"                  XXXXXXXXXXXXXXXOOOOOOOOOooo      XXXXXXXXXOOOOOOOOOOOOOOOOOOOOOOOOOOOOOOOOOOOO",
"                  XXXXXXXXXXXXXXXOOOOOOOOOooo      XXXXXXXXXOOOOOOOOOOOOOOOOOOOOOOOOOOOOOOOOOOOO",
"                  XXXXXXXXXXXXXXXOOOOOOOOOooo      XXXXXXXXXOOOOOOOOOOOOOOOOOOOOOOOOOOOOOOOOOOOO",
"                  XXXXXXXXX......XXXOOO            XXXXXXXXXOOOOOOOOOOOOOOOOOOOOOOOOOOOOOOOOOOOO",
"                  XXXXXXXXX......XXXOOO            XXXXXXXXXOOOOOOOOOOOOOOOOOOOOOOOOOOOOOOOOOOOO",
"                  XXXXXXXXX......XXXOOO            XXXXXXXXXOOOOOOOOOOOOOOOOOOOOOOOOOOOOOOOOOOOO",
"                  XXXXXXXXXXXXXXXOOOOOOOOOOOO      XXXXXXXXXOOOOOOOOOOOOOOOOOOOOOOOOOOOOOOOOOOOO",
"                  XXXXXXXXXXXXXXXOOOOOOOOOOOO      XXXXXXXXXOOOOOOOOOOOOOOOOOOOOOOOOOOOOOOOOOOOO",
"                  XXXXXXXXXXXXXXXOOOOOOOOOOOO      XXXXXXXXXOOOOOOOOOOOOOOOOOOOOOOOOOOOOOOOOOOOO",
"                  ...XXXXXXXXXXXXoooOOOOOOXXX      ...XXXXXXoooOOOOOOOOOOOOOOOOOOOOOOOOOOOOOOOOO",
"                  ...XXXXXXXXXXXXoooOOOOOOXXX      ...XXXXXXoooOOOOOOOOOOOOOOOOOOOOOOOOOOOOOOOOO",
"                  ...XXXXXXXXXXXXoooOOOOOOXXX      ...XXXXXXoooOOOOOOOOOOOOOOOOOOOOOOOOOOOOOOOOO"
};
