/* XPM */
static char *result[] = {
/* columns rows colors chars-per-pixel */
"96 96 6 1 ",
"  c #6E5967",
". c #926475",
"X c #AD707B",
"o c #B77F83",
"O c #C39490",
"+ c #D1B1A5",
/* pixels */
"                                                                                                ",
"                                                                                                ",
"                                                                                                ",
"            ...XXXXXXXXXXXXXXXXXXoooOOOOOOOOOOOOOOOOOOOOOOOOoooXXXXXXXXXXXXXXXXXX...            ",
"            ...XXXXXXXXXXXXXXXXXXoooOOOOOOOOOOOOOOOOOOOOOOOOoooXXXXXXXXXXXXXXXXXX...            ",
"            ...XXXXXXXXXXXXXXXXXXoooOOOOOOOOOOOOOOOOOOOOOOOOoooXXXXXXXXXXXXXXXXXX...            ",
"            XXXXXXXXXXXXXXXXXXXXXOOOOOOOOOOOOOOOOOOOOOOOOOOOOOOXXXXXXXXXXXXXXXXXXXXX            ",
"            XXXXXXXXXXXXXXXXXXXXXOOOOOOOOOOOOOOOOOOOOOOOOOOOOOOXXXXXXXXXXXXXXXXXXXXX            ",
"            XXXXXXXXXXXXXXXXXXXXXOOOOOOOOOOOOOOOOOOOOOOOOOOOOOOXXXXXXXXXXXXXXXXXXXXX            ",
"            XXXXXXXXXXXXXXXXXXXXXOOOOOOOOOOOOOOOOOOOOOOOOOOOOOOXXXXXXXXXXXXXXXXXXXXX            ",
"            XXXXXXXXXXXXXXXXXXXXXOOOOOOOOOOOOOOOOOOOOOOOOOOOOOOXXXXXXXXXXXXXXXXXXXXX            ",
"            XXXXXXXXXXXXXXXXXXXXXOOOOOOOOOOOOOOOOOOOOOOOOOOOOOOXXXXXXXXXXXXXXXXXXXXX            ",
"                  XXX...XXX......XXXOOOXXXOOOOOOOOOOOOOOOOOOOOOXXXXXXXXXXXXXXXXXXXXX            ",
"                  XXX...XXX......XXXOOOXXXOOOOOOOOOOOOOOOOOOOOOXXXXXXXXXXXXXXXXXXXXX            ",
"                  XXX...XXX......XXXOOOXXXOOOOOOOOOOOOOOOOOOOOOXXXXXXXXXXXXXXXXXXXXX            ",
"            XXXXXXXXXXXXXXXXXXXXXOOO++++++OOOOOOOOOOOOOOOOOOOOOXXXXXXXXXXXXXXXXXXXXX            ",
"            XXXXXXXXXXXXXXXXXXXXXOOO++++++OOOOOOOOOOOOOOOOOOOOOXXXXXXXXXXXXXXXXXXXXX            ",
"            XXXXXXXXXXXXXXXXXXXXXOOO++++++OOOOOOOOOOOOOOOOOOOOOXXXXXXXXXXXXXXXXXXXXX            ",
"            XXXXXXXXXXXXXXXXXXXXXOOOOOOOOOOOOOOOOOOOOOOOOOOOOOOXXXXXXXXXXXXXXXXXXXXX            ",
"            XXXXXXXXXXXXXXXXXXXXXOOOOOOOOOOOOOOOOOOOOOOOOOOOOOOXXXXXXXXXXXXXXXXXXXXX            ",
"            XXXXXXXXXXXXXXXXXXXXXOOOOOOOOOOOOOOOOOOOOOOOOOOOOOOXXXXXXXXXXXXXXXXXXXXX            ",
"            ...XXXXXXXXXXXXXXXXXXoooOOOOOOOOOOOOOOOOOOOOOOOOoooXXXXXXXXXXXXXXXXXX...            ",
"            ...XXXXXXXXXXXXXXXXXXoooOOOOOOOOOOOOOOOOOOOOOOOOoooXXXXXXXXXXXXXXXXXX...            ",
"            ...XXXXXXXXXXXXXXXXXXoooOOOOOOOOOOOOOOOOOOOOOOOOoooXXXXXXXXXXXXXXXXXX...            ",
"                                                                                                ",
"                                                                                                ",
"                                                                                                ",
"                  ...XXXXXXXXXXXXoooOOOOOOXXX   XXXOOOOOOOOOoooXXXXXXXXXXXX...                  ",
"                  ...XXXXXXXXXXXXoooOOOOOOXXX   XXXOOOOOOOOOoooXXXXXXXXXXXX...                  ",
"                  ...XXXXXXXXXXXXoooOOOOOOXXX   XXXOOOOOOOOOoooXXXXXXXXXXXX...                  ",
"                  XXXXXXXXXXXXXXXOOOOOOOOOOOO   OOOOOOOOOOOOOOOXXXXXXXXXXXXXXX                  ",
"                  XXXXXXXXXXXXXXXOOOOOOOOOOOO   OOOOOOOOOOOOOOOXXXXXXXXXXXXXXX                  ",
"                  XXXXXXXXXXXXXXXOOOOOOOOOOOO   OOOOOOOOOOOOOOOXXXXXXXXXXXXXXX                  ",
"                  XXXXXXXXXXXXXXXOOOOOOOOOOOO   OOOOOOOOOOOOOOOXXXXXXXXXXXXXXX                  ",
"                  XXXXXXXXXXXXXXXOOOOOOOOOOOO   OOOOOOOOOOOOOOOXXXXXXXXXXXXXXX                  ",
"                  XXXXXXXXXXXXXXXOOOOOOOOOOOO   OOOOOOOOOOOOOOOXXXXXXXXXXXXXXX                  ",
"                  XXXXXXXXXXXXXXXOOOOOOOOOOOO   oooOOOOOOOOOOOOXXXXXXXXXXXXXXX                  ",
"                  XXXXXXXXXXXXXXXOOOOOOOOOOOO   oooOOOOOOOOOOOOXXXXXXXXXXXXXXX                  ",
"                  XXXXXXXXXXXXXXXOOOOOOOOOOOO   oooOOOOOOOOOOOOXXXXXXXXXXXXXXX                  ",
"                  XXXXXXXXXXXXXXXOOOOOOOOOOOO         OOOXXXXXX...XXX...XXXXXX                  ",
"                  XXXXXXXXXXXXXXXOOOOOOOOOOOO         OOOXXXXXX...XXX...XXXXXX                  ",
"                  XXXXXXXXXXXXXXXOOOOOOOOOOOO         OOOXXXXXX...XXX...XXXXXX                  ",
"                  XXXXXXXXXXXXXXXOOOOOOOOOOOO   OOOOOOOOOOOOOOOXXXXXXXXXXXXXXX                  ",
"                  XXXXXXXXXXXXXXXOOOOOOOOOOOO   OOOOOOOOOOOOOOOXXXXXXXXXXXXXXX                  ",
"                  XXXXXXXXXXXXXXXOOOOOOOOOOOO   OOOOOOOOOOOOOOOXXXXXXXXXXXXXXX                  ",
"                  ...XXXXXXXXXXXXoooOOOOOOXXX   XXXOOOOOOOOOoooXXXXXXXXXXXX...                  ",
"                  ...XXXXXXXXXXXXoooOOOOOOXXX   XXXOOOOOOOOOoooXXXXXXXXXXXX...                  ",
"                  ...XXXXXXXXXXXXoooOOOOOOXXX   XXXOOOOOOOOOoooXXXXXXXXXXXX...                  ",
"                                                                                                ",
"                                                                                                ",
"                                                                                                ",
"            ...XXXXXXXXXXXXXXXXXXoooOOOOOO+++++++++OOO+++OOOoooXXXXXXXXXXXXXXXXXX...            ",
"            ...XXXXXXXXXXXXXXXXXXoooOOOOOO+++++++++OOO+++OOOoooXXXXXXXXXXXXXXXXXX...            ",
"            ...XXXXXXXXXXXXXXXXXXoooOOOOOO+++++++++OOO+++OOOoooXXXXXXXXXXXXXXXXXX...            ",
"            XXXXXXXXXXXXXXXXXXXXXOOOOOOOOOOOOOOOOOOOOOOOOOOOOOOXXXXXXXXXXXXXXXXXXXXX            ",
"            XXXXXXXXXXXXXXXXXXXXXOOOOOOOOOOOOOOOOOOOOOOOOOOOOOOXXXXXXXXXXXXXXXXXXXXX            ",
"            XXXXXXXXXXXXXXXXXXXXXOOOOOOOOOOOOOOOOOOOOOOOOOOOOOOXXXXXXXXXXXXXXXXXXXXX            ",
"            XXXXXXXXXXXXXXXXXXXXXOOOOOOOOOOOOOOOOOOOOOOOOOOOOOOXXXXXXXXXXXXXXXXXXXXX            ",
"            XXXXXXXXXXXXXXXXXXXXXOOOOOOOOOOOOOOOOOOOOOOOOOOOOOOXXXXXXXXXXXXXXXXXXXXX            ",
"            XXXXXXXXXXXXXXXXXXXXXOOOOOOOOOOOOOOOOOOOOOOOOOOOOOOXXXXXXXXXXXXXXXXXXXXX            ",
"            XXXXXXXXXXXXXXXXXXXXXOOOOOOOOOOOOOOOOOOOOOOOOOOOOOOXXX......XXXXXX                  ",
"            XXXXXXXXXXXXXXXXXXXXXOOOOOOOOOOOOOOOOOOOOOOOOOOOOOOXXX......XXXXXX                  ",
"            XXXXXXXXXXXXXXXXXXXXXOOOOOOOOOOOOOOOOOOOOOOOOOOOOOOXXX......XXXXXX                  ",
"            XXXXXXXXXXXXXXXXXXXXXOOOOOOOOOOOOOOOOOOOOOOOOOOOOOOXXXXXXXXXXXXXXXXXXXXX            ",
"            XXXXXXXXXXXXXXXXXXXXXOOOOOOOOOOOOOOOOOOOOOOOOOOOOOOXXXXXXXXXXXXXXXXXXXXX            ",
"            XXXXXXXXXXXXXXXXXXXXXOOOOOOOOOOOOOOOOOOOOOOOOOOOOOOXXXXXXXXXXXXXXXXXXXXX            ",
"            XXXXXXXXXXXXXXXXXXXXXOOOOOOOOOOOOOOOOOOOOOOOOOOOOOOXXXXXXXXXXXXXXXXXXXXX            ",
"            XXXXXXXXXXXXXXXXXXXXXOOOOOOOOOOOOOOOOOOOOOOOOOOOOOOXXXXXXXXXXXXXXXXXXXXX            ",
"            XXXXXXXXXXXXXXXXXXXXXOOOOOOOOOOOOOOOOOOOOOOOOOOOOOOXXXXXXXXXXXXXXXXXXXXX            ",
"            ...XXXXXXXXXXXXXXXXXXoooOOOOOOOOOOOOOOOOOOOOOOOOoooXXXXXXXXXXXXXXXXXX...            ",
"            ...XXXXXXXXXXXXXXXXXXoooOOOOOOOOOOOOOOOOOOOOOOOOoooXXXXXXXXXXXXXXXXXX...            ",
"            ...XXXXXXXXXXXXXXXXXXoooOOOOOOOOOOOOOOOOOOOOOOOOoooXXXXXXXXXXXXXXXXXX...            ",
"                                                                                                ",
"                                                                                                ",
"                                                                                                ",
"                  ...XXXXXXXXXXXXoooOOOOOOXXX   XXXOOOOOOOOOoooXXXXXXXXXXXX...                  ",
"                  ...XXXXXXXXXXXXoooOOOOOOXXX   XXXOOOOOOOOOoooXXXXXXXXXXXX...                  ",
"                  ...XXXXXXXXXXXXoooOOOOOOXXX   XXXOOOOOOOOOoooXXXXXXXXXXXX...                  ",
"                  XXXXXXXXXXXXXXXOOOOOOOOOOOO   OOOOOOOOOOOOOOOXXXXXXXXXXXXXXX                  ",
"                  XXXXXXXXXXXXXXXOOOOOOOOOOOO   OOOOOOOOOOOOOOOXXXXXXXXXXXXXXX                  ",
"                  XXXXXXXXXXXXXXXOOOOOOOOOOOO   OOOOOOOOOOOOOOOXXXXXXXXXXXXXXX                  ",
"                  XXXXXXXXXXXXXXXOOOOOOOOOOOO   OOOOOOOOOOOOOOOXXXXXXXXXXXXXXX                  ",
"                  XXXXXXXXXXXXXXXOOOOOOOOOOOO   OOOOOOOOOOOOOOOXXXXXXXXXXXXXXX                  ",
"                  XXXXXXXXXXXXXXXOOOOOOOOOOOO   OOOOOOOOOOOOOOOXXXXXXXXXXXXXXX                  ",
"                  XXXXXXXXXXXXXXXOOOOOOOOOooo   OOOOOOOOOOOOOOOXXXXXXXXXXXXXXX                  ",
"                  XXXXXXXXXXXXXXXOOOOOOOOOooo   OOOOOOOOOOOOOOOXXXXXXXXXXXXXXX                  ",
"                  XXXXXXXXXXXXXXXOOOOOOOOOooo   OOOOOOOOOOOOOOOXXXXXXXXXXXXXXX                  ",
"                  XXXXXXXXX......XXXOOO         OOOOOOOOOOOOOOOXXXXXXXXXXXXXXX                  ",
"                  XXXXXXXXX......XXXOOO         OOOOOOOOOOOOOOOXXXXXXXXXXXXXXX                  ",
"                  XXXXXXXXX......XXXOOO         OOOOOOOOOOOOOOOXXXXXXXXXXXXXXX                  ",
"                  XXXXXXXXXXXXXXXOOOOOOOOOOOO   OOOOOOOOOOOOOOOXXXXXXXXXXXXXXX                  ",
"                  XXXXXXXXXXXXXXXOOOOOOOOOOOO   OOOOOOOOOOOOOOOXXXXXXXXXXXXXXX                  ",
"                  XXXXXXXXXXXXXXXOOOOOOOOOOOO   OOOOOOOOOOOOOOOXXXXXXXXXXXXXXX                  ",
"                  ...XXXXXXXXXXXXoooOOOOOOXXX   XXXOOOOOOOOOoooXXXXXXXXXXXX...                  ",
"                  ...XXXXXXXXXXXXoooOOOOOOXXX   XXXOOOOOOOOOoooXXXXXXXXXXXX...                  ",
"                  ...XXXXXXXXXXXXoooOOOOOOXXX   XXXOOOOOOOOOoooXXXXXXXXXXXX...                  "
};
