/* XPM */
static char *result[] = {
/* columns rows colors chars-per-pixel */
"128 128 16 1 ",
"  c black",
". c #303838",
"X c #683038",
"o c #586060",
"O c #901020",
"+ c #E82840",
"@ c #805840",
"# c #B05870",
"$ c #B09000",
"% c #F8D000",
"& c #A88850",
"* c #E8B090",
"= c #A0B0C0",
"- c #F080C0",
"; c #F8F8F8",
": c None",
/* pixels */
"::::::::::::::::::::::::::::::::::::::::::::::::::::::::::::::::::::::::::::::::::::::::::::::::::::::::::::::::::::::::::::::::",
"::::::::::::::::::::::::::::::::::::::::::::::::::::::::::::::::::::::::::::::::::::::::::::::::::::::::::::::::::::::::::::::::",
"::::::::::::::::::::::::::::::::::::::::::::::::::::::::::::::::::::::::::::::::::::::::::::::::::::::::::::::::::::::::::::::::",
"::::::::::::::::::::::::::::::::::::::::::::::::::::::::::::::::::::::::::::::::::::::::::::::::::::::::::::::::::::::::::::::::",
"::::::::::::::::::::::::::::::::::::::::::::::::::::::::::::::::::::::::::::::::::::::::::::::::::::::::::::::::::::::::::::::::",
"::::::::::::::::::::::::::::::::::::::::::::::::::::::::::::::::::::::::::::::::::::::::::::::::::::::::::::::::::::::::::::::::",
"::::::::::::::::::::::::::::::::::::::::::::::::::::::::::::::::::::::::::::::::::::::::::::::::::::::::::::::::::::::::::::::::",
"::::::::::::::::::::::::::::::::::::::::::::::::::::::::::::::::::::::::::::::::::::::::::::::::::::::::::::::::::::::::::::::::",
"::::::::::::::::::::::::::::::::::::::::::::::::::::::::XXXXXXXXXXXXXXXXXXXX::::::::::::::::::::::::::::::::::::::::::::::::::::",
"::::::::::::::::::::::::::::::::::::::::::::::::::::::::XXXXXXXXXXXXXXXXXXXX::::::::::::::::::::::::::::::::::::::::::::::::::::",
"::::::::::::::::::::::::::::::::::::::::::::::::::::::::XXXXXXXXXXXXXXXXXXXX::::::::::::::::::::::::::::::::::::::::::::::::::::",
"::::::::::::::::::::::::::::::::::::::::::::::::::::::::XXXXXXXXXXXXXXXXXXXX::::::::::::::::::::::::::::::::::::::::::::::::::::",
"::::::::::::::::::::::::::::::::::::::::::::::::::::XXXX####------------####XXXX::::::::::::::::::::::::::::::::::::::::::::::::",
"::::::::::::::::::::::::::::::::::::::::::::::::::::XXXX####------------####XXXX::::::::::::::::::::::::::::::::::::::::::::::::",
"::::::::::::::::::::::::::::::::::::::::::::::::::::XXXX####------------####XXXX::::::::::::::::::::::::::::::::::::::::::::::::",
"::::::::::::::::::::::::::::::::::::::::::::::::::::XXXX####------------####XXXX::::::::::::::::::::::::::::::::::::::::::::::::",
"::::::::::::::::::::::::::::::::::::::::::::::::XXXX$$$$%%%%OOOOOOOOOOOO%%%%$$$$XXXX::::::::::::::::::::::::::::::::::::::::::::",
"::::::::::::::::::::::::::::::::::::::::::::::::XXXX$$$$%%%%OOOOOOOOOOOO%%%%$$$$XXXX::::::::::::::::::::::::::::::::::::::::::::",
"::::::::::::::::::::::::::::::::::::::::::::::::XXXX$$$$%%%%OOOOOOOOOOOO%%%%$$$$XXXX::::::::::::::::::::::::::::::::::::::::::::",
"::::::::::::::::::::::::::::::::::::::::::::::::XXXX$$$$%%%%OOOOOOOOOOOO%%%%$$$$XXXX::::::::::::::::::::::::::::::::::::::::::::",
"::::::::::::::::::::::::::::::::::::::::::::::::OOOO%%%%OOOOOOOOOOOOOOOOOOOO%%%%OOOO::::::::::::::::::::::::::::::::::::::::::::",
"::::::::::::::::::::::::::::::::::::::::::::::::OOOO%%%%OOOOOOOOOOOOOOOOOOOO%%%%OOOO::::::::::::::::::::::::::::::::::::::::::::",
"::::::::::::::::::::::::::::::::::::::::::::::::OOOO%%%%OOOOOOOOOOOOOOOOOOOO%%%%OOOO::::::::::::::::::::::::::::::::::::::::::::",
"::::::::::::::::::::::::::::::::::::::::::::::::OOOO%%%%OOOOOOOOOOOOOOOOOOOO%%%%OOOO::::::::::::::::::::::::::::::::::::::::::::",
"::::::::::::::::::::::::::::::::::::::::::::    OOOOOOOO####------------####OOOOOOOO    ::::::::::::::::::::::::::::::::::::::::",
"::::::::::::::::::::::::::::::::::::::::::::    OOOOOOOO####------------####OOOOOOOO    ::::::::::::::::::::::::::::::::::::::::",
"::::::::::::::::::::::::::::::::::::::::::::    OOOOOOOO####------------####OOOOOOOO    ::::::::::::::::::::::::::::::::::::::::",
"::::::::::::::::::::::::::::::::::::::::::::    OOOOOOOO####------------####OOOOOOOO    ::::::::::::::::::::::::::::::::::::::::",
"::::::::::::::::::::::::::::::::::::::::::::    ####----------------------------####    ::::::::::::::::::::::::::::::::::::::::",
"::::::::::::::::::::::::::::::::::::::::::::    ####----------------------------####    ::::::::::::::::::::::::::::::::::::::::",
"::::::::::::::::::::::::::::::::::::::::::::    ####----------------------------####    ::::::::::::::::::::::::::::::::::::::::",
"::::::::::::::::::::::::::::::::::::::::::::    ####----------------------------####    ::::::::::::::::::::::::::::::::::::::::",
"::::::::::::::::::::::::::::::::::::::::::::    ------------------------------------    ::::::::::::::::::::::::::::::::::::::::",
"::::::::::::::::::::::::::::::::::::::::::::    ------------------------------------    ::::::::::::::::::::::::::::::::::::::::",
"::::::::::::::::::::::::::::::::::::::::::::    ------------------------------------    ::::::::::::::::::::::::::::::::::::::::",
"::::::::::::::::::::::::::::::::::::::::::::    ------------------------------------    ::::::::::::::::::::::::::::::::::::::::",
"::::::::::::::::::::::::::::::::::::::::    ----########--------------------########----    ::::::::::::::::::::::::::::::::::::",
"::::::::::::::::::::::::::::::::::::::::    ----########--------------------########----    ::::::::::::::::::::::::::::::::::::",
"::::::::::::::::::::::::::::::::::::::::    ----########--------------------########----    ::::::::::::::::::::::::::::::::::::",
"::::::::::::::::::::::::::::::::::::::::    ----########--------------------########----    ::::::::::::::::::::::::::::::::::::",
"::::::::::::::::::::::::::::::::::::    ----####XXXX########------------########XXXX####----    ::::::::::::::::::::::::::::::::",
"::::::::::::::::::::::::::::::::::::    ----####XXXX########------------########XXXX####----    ::::::::::::::::::::::::::::::::",
"::::::::::::::::::::::::::::::::::::    ----####XXXX########------------########XXXX####----    ::::::::::::::::::::::::::::::::",
"::::::::::::::::::::::::::::::::::::    ----####XXXX########------------########XXXX####----    ::::::::::::::::::::::::::::::::",
"::::::::::::::::::::::::::::::::::::::::    XXXX----############################----XXXX    ::::::::::::::::::::::::::::::::::::",
"::::::::::::::::::::::::::::::::::::::::    XXXX----############################----XXXX    ::::::::::::::::::::::::::::::::::::",
"::::::::::::::::::::::::::::::::::::::::    XXXX----############################----XXXX    ::::::::::::::::::::::::::::::::::::",
"::::::::::::::::::::::::::::::::::::::::    XXXX----############################----XXXX    ::::::::::::::::::::::::::::::::::::",
"::::::::::::::::::::::::::::::::::::    --------####    XXXX####XXXX####XXXX    ####--------    ::::::::::::::::::::::::::::::::",
"::::::::::::::::::::::::::::::::::::    --------####    XXXX####XXXX####XXXX    ####--------    ::::::::::::::::::::::::::::::::",
"::::::::::::::::::::::::::::::::::::    --------####    XXXX####XXXX####XXXX    ####--------    ::::::::::::::::::::::::::::::::",
"::::::::::::::::::::::::::::::::::::    --------####    XXXX####XXXX####XXXX    ####--------    ::::::::::::::::::::::::::::::::",
"::::::::::::::::::::::::::::::::::::::::            OOOO    XXXX    XXXX    OOOO            ::::::::::::::::::::::::::::::::::::",
"::::::::::::::::::::::::::::::::::::::::            OOOO    XXXX    XXXX    OOOO            ::::::::::::::::::::::::::::::::::::",
"::::::::::::::::::::::::::::::::::::::::            OOOO    XXXX    XXXX    OOOO            ::::::::::::::::::::::::::::::::::::",
"::::::::::::::::::::::::::::::::::::::::            OOOO    XXXX    XXXX    OOOO            ::::::::::::::::::::::::::::::::::::",
"::::::::::::::::::::::::::::::::::::::::::::::::OOOO++++++++    ++++    ++++++++OOOO::::::::::::::::::::::::::::::::::::::::::::",
"::::::::::::::::::::::::::::::::::::::::::::::::OOOO++++++++    ++++    ++++++++OOOO::::::::::::::::::::::::::::::::::::::::::::",
"::::::::::::::::::::::::::::::::::::::::::::::::OOOO++++++++    ++++    ++++++++OOOO::::::::::::::::::::::::::::::::::::::::::::",
"::::::::::::::::::::::::::::::::::::::::::::::::OOOO++++++++    ++++    ++++++++OOOO::::::::::::::::::::::::::::::::::::::::::::",
"::::::::::::::::::::::::::::::::::::::::::::oooo++++OOOO++++OOOOOOOOOOOO++++OOOO++++oooo::::::::::::::::::::::::::::::::::::::::",
"::::::::::::::::::::::::::::::::::::::::::::oooo++++OOOO++++OOOOOOOOOOOO++++OOOO++++oooo::::::::::::::::::::::::::::::::::::::::",
"::::::::::::::::::::::::::::::::::::::::::::oooo++++OOOO++++OOOOOOOOOOOO++++OOOO++++oooo::::::::::::::::::::::::::::::::::::::::",
"::::::::::::::::::::::::::::::::::::::::::::oooo++++OOOO++++OOOOOOOOOOOO++++OOOO++++oooo::::::::::::::::::::::::::::::::::::::::",
"::::::::::::::::::::::::::::::::::::::::oooo;;;;++++    OOOOOOOOOOOOOOOOOOOO    ++++;;;;oooo::::::::::::::::::::::::::::::::::::",
"::::::::::::::::::::::::::::::::::::::::oooo;;;;++++    OOOOOOOOOOOOOOOOOOOO    ++++;;;;oooo::::::::::::::::::::::::::::::::::::",
"::::::::::::::::::::::::::::::::::::::::oooo;;;;++++    OOOOOOOOOOOOOOOOOOOO    ++++;;;;oooo::::::::::::::::::::::::::::::::::::",
"::::::::::::::::::::::::::::::::::::::::oooo;;;;++++    OOOOOOOOOOOOOOOOOOOO    ++++;;;;oooo::::::::::::::::::::::::::::::::::::",
"::::::::::::::::::::::::::::::::::::::::    ====;;;;oooo$$$$%%%%%%%%%%%%$$$$oooo;;;;====    ::::::::::::::::::::::::::::::::::::",
"::::::::::::::::::::::::::::::::::::::::    ====;;;;oooo$$$$%%%%%%%%%%%%$$$$oooo;;;;====    ::::::::::::::::::::::::::::::::::::",
"::::::::::::::::::::::::::::::::::::::::    ====;;;;oooo$$$$%%%%%%%%%%%%$$$$oooo;;;;====    ::::::::::::::::::::::::::::::::::::",
"::::::::::::::::::::::::::::::::::::::::    ====;;;;oooo$$$$%%%%%%%%%%%%$$$$oooo;;;;====    ::::::::::::::::::::::::::::::::::::",
"::::::::::::::::::::::::::::::::::::@@@@&&&&@@@@====    ....................    ====@@@@&&&&@@@@::::::::::::::::::::::::::::::::",
"::::::::::::::::::::::::::::::::::::@@@@&&&&@@@@====    ....................    ====@@@@&&&&@@@@::::::::::::::::::::::::::::::::",
"::::::::::::::::::::::::::::::::::::@@@@&&&&@@@@====    ....................    ====@@@@&&&&@@@@::::::::::::::::::::::::::::::::",
"::::::::::::::::::::::::::::::::::::@@@@&&&&@@@@====    ....................    ====@@@@&&&&@@@@::::::::::::::::::::::::::::::::",
"::::::::::::::::::::::::::::::::::::....;;;;****    ....OOOO++++++++++++OOOO....    ****;;;;....::::::::::::::::::::::::::::::::",
"::::::::::::::::::::::::::::::::::::....;;;;****    ....OOOO++++++++++++OOOO....    ****;;;;....::::::::::::::::::::::::::::::::",
"::::::::::::::::::::::::::::::::::::....;;;;****    ....OOOO++++++++++++OOOO....    ****;;;;....::::::::::::::::::::::::::::::::",
"::::::::::::::::::::::::::::::::::::....;;;;****    ....OOOO++++++++++++OOOO....    ****;;;;....::::::::::::::::::::::::::::::::",
"::::::::::::::::::::::::::::::::::::    ....====    ....oooooooooooooooooooo....    ====....    ::::::::::::::::::::::::::::::::",
"::::::::::::::::::::::::::::::::::::    ....====    ....oooooooooooooooooooo....    ====....    ::::::::::::::::::::::::::::::::",
"::::::::::::::::::::::::::::::::::::    ....====    ....oooooooooooooooooooo....    ====....    ::::::::::::::::::::::::::::::::",
"::::::::::::::::::::::::::::::::::::    ....====    ....oooooooooooooooooooo....    ====....    ::::::::::::::::::::::::::::::::",
"::::::::::::::::::::::::::::::::::::    oooo....$$$$............................@@@@....oooo    ::::::::::::::::::::::::::::::::",
"::::::::::::::::::::::::::::::::::::    oooo....$$$$............................@@@@....oooo    ::::::::::::::::::::::::::::::::",
"::::::::::::::::::::::::::::::::::::    oooo....$$$$............................@@@@....oooo    ::::::::::::::::::::::::::::::::",
"::::::::::::::::::::::::::::::::::::    oooo....$$$$............................@@@@....oooo    ::::::::::::::::::::::::::::::::",
"::::::::::::::::::::::::::::::::::::::::            %%%%%%%%$$$$    $$$$%%%%%%%%            ::::::::::::::::::::::::::::::::::::",
"::::::::::::::::::::::::::::::::::::::::            %%%%%%%%$$$$    $$$$%%%%%%%%            ::::::::::::::::::::::::::::::::::::",
"::::::::::::::::::::::::::::::::::::::::            %%%%%%%%$$$$    $$$$%%%%%%%%            ::::::::::::::::::::::::::::::::::::",
"::::::::::::::::::::::::::::::::::::::::            %%%%%%%%$$$$    $$$$%%%%%%%%            ::::::::::::::::::::::::::::::::::::",
"::::::::::::::::::::::::::::::::::::::::::::::::    ............    ............    ::::::::::::::::::::::::::::::::::::::::::::",
"::::::::::::::::::::::::::::::::::::::::::::::::    ............    ............    ::::::::::::::::::::::::::::::::::::::::::::",
"::::::::::::::::::::::::::::::::::::::::::::::::    ............    ............    ::::::::::::::::::::::::::::::::::::::::::::",
"::::::::::::::::::::::::::::::::::::::::::::::::    ............    ............    ::::::::::::::::::::::::::::::::::::::::::::",
"::::::::::::::::::::::::::::::::::::::::::::::::....oooooooo@@@@    @@@@****&&&&    ::::::::::::::::::::::::::::::::::::::::::::",
"::::::::::::::::::::::::::::::::::::::::::::::::....oooooooo@@@@    @@@@****&&&&    ::::::::::::::::::::::::::::::::::::::::::::",
"::::::::::::::::::::::::::::::::::::::::::::::::....oooooooo@@@@    @@@@****&&&&    ::::::::::::::::::::::::::::::::::::::::::::",
"::::::::::::::::::::::::::::::::::::::::::::::::....oooooooo@@@@    @@@@****&&&&    ::::::::::::::::::::::::::::::::::::::::::::",
"::::::::::::::::::::::::::::::::::::::::::::....oooo++++++++oooo    &&&&****    ::::::::::::::::::::::::::::::::::::::::::::::::",
"::::::::::::::::::::::::::::::::::::::::::::....oooo++++++++oooo    &&&&****    ::::::::::::::::::::::::::::::::::::::::::::::::",
"::::::::::::::::::::::::::::::::::::::::::::....oooo++++++++oooo    &&&&****    ::::::::::::::::::::::::::::::::::::::::::::::::",
"::::::::::::::::::::::::::::::::::::::::::::....oooo++++++++oooo    &&&&****    ::::::::::::::::::::::::::::::::::::::::::::::::",
"::::::::::::::::::::::::::::::::::::::::::::    OOOO;;;;;;;;OOOO....&&&&&&&&oooo....::::::::::::::::::::::::::::::::::::::::::::",
"::::::::::::::::::::::::::::::::::::::::::::    OOOO;;;;;;;;OOOO....&&&&&&&&oooo....::::::::::::::::::::::::::::::::::::::::::::",
"::::::::::::::::::::::::::::::::::::::::::::    OOOO;;;;;;;;OOOO....&&&&&&&&oooo....::::::::::::::::::::::::::::::::::::::::::::",
"::::::::::::::::::::::::::::::::::::::::::::    OOOO;;;;;;;;OOOO....&&&&&&&&oooo....::::::::::::::::::::::::::::::::::::::::::::",
"::::::::::::::::::::::::::::::::::::::::::::    ====oooooooo====    oooooooo....    ::::::::::::::::::::::::::::::::::::::::::::",
"::::::::::::::::::::::::::::::::::::::::::::    ====oooooooo====    oooooooo....    ::::::::::::::::::::::::::::::::::::::::::::",
"::::::::::::::::::::::::::::::::::::::::::::    ====oooooooo====    oooooooo....    ::::::::::::::::::::::::::::::::::::::::::::",
"::::::::::::::::::::::::::::::::::::::::::::    ====oooooooo====    oooooooo....    ::::::::::::::::::::::::::::::::::::::::::::",
"::::::::::::::::::::::::::::::::::::::::::::::::    oooooooooooo    ........OOOO    ::::::::::::::::::::::::::::::::::::::::::::",
"::::::::::::::::::::::::::::::::::::::::::::::::    oooooooooooo    ........OOOO    ::::::::::::::::::::::::::::::::::::::::::::",
"::::::::::::::::::::::::::::::::::::::::::::::::    oooooooooooo    ........OOOO    ::::::::::::::::::::::::::::::::::::::::::::",
"::::::::::::::::::::::::::::::::::::::::::::::::    oooooooooooo    ........OOOO    ::::::::::::::::::::::::::::::::::::::::::::",
"::::::::::::::::::::::::::::::::::::::::::::::::::::                OOOO++++OOOO    ::::::::::::::::::::::::::::::::::::::::::::",
"::::::::::::::::::::::::::::::::::::::::::::::::::::                OOOO++++OOOO    ::::::::::::::::::::::::::::::::::::::::::::",
"::::::::::::::::::::::::::::::::::::::::::::::::::::                OOOO++++OOOO    ::::::::::::::::::::::::::::::::::::::::::::",
"::::::::::::::::::::::::::::::::::::::::::::::::::::                OOOO++++OOOO    ::::::::::::::::::::::::::::::::::::::::::::",
"::::::::::::::::::::::::::::::::::::::::::::::::::::::::::::::::    ====;;;;====    ::::::::::::::::::::::::::::::::::::::::::::",
"::::::::::::::::::::::::::::::::::::::::::::::::::::::::::::::::    ====;;;;====    ::::::::::::::::::::::::::::::::::::::::::::",
"::::::::::::::::::::::::::::::::::::::::::::::::::::::::::::::::    ====;;;;====    ::::::::::::::::::::::::::::::::::::::::::::",
"::::::::::::::::::::::::::::::::::::::::::::::::::::::::::::::::    ====;;;;====    ::::::::::::::::::::::::::::::::::::::::::::",
"::::::::::::::::::::::::::::::::::::::::::::::::::::::::::::::::::::            ::::::::::::::::::::::::::::::::::::::::::::::::",
"::::::::::::::::::::::::::::::::::::::::::::::::::::::::::::::::::::            ::::::::::::::::::::::::::::::::::::::::::::::::",
"::::::::::::::::::::::::::::::::::::::::::::::::::::::::::::::::::::            ::::::::::::::::::::::::::::::::::::::::::::::::",
"::::::::::::::::::::::::::::::::::::::::::::::::::::::::::::::::::::            ::::::::::::::::::::::::::::::::::::::::::::::::"
};
