/* XPM */
static char *result[] = {
/* columns rows colors chars-per-pixel */
"96 96 12 1 ",
"  c #3F3851",
". c #89365C",
"X c #9E3B57",
"o c #AE444E",
"O c #BF5753",
"+ c #D25654",
"@ c #CD7363",
"# c #E27F6D",
"$ c #EDA27F",
"% c #FBCA97",
"& c #FFEAB7",
"* c #FFFAD6",
/* pixels */
"                                                                        ######%%%%%%%%%%%%%%%   ",
"                                                                        ######%%%%%%%%%%%%%%%   ",
"                                                                        ######%%%%%%%%%%%%%%%   ",
"   &&&***&&&%%%%%%###+++      ...oooooooooOOOooo   OOOooooooooo...      ######%%%%%%%%%%%%&&&   ",
"   &&&***&&&%%%%%%###+++      ...oooooooooOOOooo   OOOooooooooo...      ######%%%%%%%%%%%%&&&   ",
"   &&&***&&&%%%%%%###+++      ...oooooooooOOOooo   OOOooooooooo...      ######%%%%%%%%%%%%&&&   ",
"   %%%%%%%%%%%%%%%######      oooooooooooo@@@@@@   @@@oooooooooooo      ######%%%%%%%%%%%%***   ",
"   %%%%%%%%%%%%%%%######      oooooooooooo@@@@@@   @@@oooooooooooo      ######%%%%%%%%%%%%***   ",
"   %%%%%%%%%%%%%%%######      oooooooooooo@@@@@@   @@@oooooooooooo      ######%%%%%%%%%%%%***   ",
"   %%%%%%%%%%%%%%%######      ...oooooooooOOOooo   OOOooooooooo...      ######%%%%%%%%%%%%***   ",
"   %%%%%%%%%%%%%%%######      ...oooooooooOOOooo   OOOooooooooo...      ######%%%%%%%%%%%%***   ",
"   %%%%%%%%%%%%%%%######      ...oooooooooOOOooo   OOOooooooooo...      ######%%%%%%%%%%%%***   ",
"   %%%%%%%%%%%%$$$######                                                ######%%%%%%%%%%%%&&&   ",
"   %%%%%%%%%%%%$$$######                                                ######%%%%%%%%%%%%&&&   ",
"   %%%%%%%%%%%%$$$######                                                ######%%%%%%%%%%%%&&&   ",
"   %%%%%%%%%$$$#########            ...OOO@@@@@@@@@@@@OOO...            ######%%%%%%%%%%%%***   ",
"   %%%%%%%%%$$$#########            ...OOO@@@@@@@@@@@@OOO...            ######%%%%%%%%%%%%***   ",
"   %%%%%%%%%$$$#########            ...OOO@@@@@@@@@@@@OOO...            ######%%%%%%%%%%%%***   ",
"   #####################            ooo@@@@@@@@@@@@@@@@@@ooo            ######%%%%%%%%%%%%&&&   ",
"   #####################            ooo@@@@@@@@@@@@@@@@@@ooo            ######%%%%%%%%%%%%&&&   ",
"   #####################            ooo@@@@@@@@@@@@@@@@@@ooo            ######%%%%%%%%%%%%&&&   ",
"   +++###############+++            ...OOO@@@@@@@@@@@@OOO...            ######%%%%%%%%%%%%%%%   ",
"   +++###############+++            ...OOO@@@@@@@@@@@@OOO...            ######%%%%%%%%%%%%%%%   ",
"   +++###############+++            ...OOO@@@@@@@@@@@@OOO...            ######%%%%%%%%%%%%%%%   ",
"                                                                        ######%%%%%%%%%%%%&&&   ",
"                                                                        ######%%%%%%%%%%%%&&&   ",
"                                                                        ######%%%%%%%%%%%%&&&   ",
"                              ...ooooooooo@@@ooo   OOOooooooooo...      ######%%%%%%%%%%%%&&&   ",
"                              ...ooooooooo@@@ooo   OOOooooooooo...      ######%%%%%%%%%%%%&&&   ",
"                              ...ooooooooo@@@ooo   OOOooooooooo...      ######%%%%%%%%%%%%&&&   ",
"   ...XXXooooooooooooXXX...   oooooooooooo@@@@@@   @@@oooooooooooo      ######$$$%%%%%%%%%%%%   ",
"   ...XXXooooooooooooXXX...   oooooooooooo@@@@@@   @@@oooooooooooo      ######$$$%%%%%%%%%%%%   ",
"   ...XXXooooooooooooXXX...   oooooooooooo@@@@@@   @@@oooooooooooo      ######$$$%%%%%%%%%%%%   ",
"   XXXooooooooooooooooooXXX   ...ooooooooo@@@ooo   OOOooooooooo...      #########$$$%%%%%%$$$   ",
"   XXXooooooooooooooooooXXX   ...ooooooooo@@@ooo   OOOooooooooo...      #########$$$%%%%%%$$$   ",
"   XXXooooooooooooooooooXXX   ...ooooooooo@@@ooo   OOOooooooooo...      #########$$$%%%%%%$$$   ",
"                                                                        +++##################   ",
"                                                                        +++##################   ",
"                                                                        +++##################   ",
"@@@@@@@@@@@@ooo   ooo@@@@@@@@@@@@ooo   ooo@@@@@@@@@@@@OOO...                                    ",
"@@@@@@@@@@@@ooo   ooo@@@@@@@@@@@@ooo   ooo@@@@@@@@@@@@OOO...                                    ",
"@@@@@@@@@@@@ooo   ooo@@@@@@@@@@@@ooo   ooo@@@@@@@@@@@@OOO...                                    ",
"@@@@@@@@@@@@@@@   @@@@@@@@@@@@@@@@@@   @@@@@@@@@@@@@@@@@@ooo            +++##################   ",
"@@@@@@@@@@@@@@@   @@@@@@@@@@@@@@@@@@   @@@@@@@@@@@@@@@@@@ooo            +++##################   ",
"@@@@@@@@@@@@@@@   @@@@@@@@@@@@@@@@@@   @@@@@@@@@@@@@@@@@@ooo            +++##################   ",
"@@@@@@@@@@@@ooo   ooo@@@@@@@@@@@@ooo   ooo@@@@@@@@@@@@OOO...            #########$$$%%%%%%$$$   ",
"@@@@@@@@@@@@ooo   ooo@@@@@@@@@@@@ooo   ooo@@@@@@@@@@@@OOO...            #########$$$%%%%%%$$$   ",
"@@@@@@@@@@@@ooo   ooo@@@@@@@@@@@@ooo   ooo@@@@@@@@@@@@OOO...            #########$$$%%%%%%$$$   ",
"                                                                        ######$$$%%%%%%%%%%%%   ",
"                                                                        ######$$$%%%%%%%%%%%%   ",
"                                                                        ######$$$%%%%%%%%%%%%   ",
"   ooo@@@@@@@@@@@@@@@ooo   ooo@@@@@@@@@@@@@@@ooo   OOOooooooooo...      ######%%%%%%%%%%%%%%%   ",
"   ooo@@@@@@@@@@@@@@@ooo   ooo@@@@@@@@@@@@@@@ooo   OOOooooooooo...      ######%%%%%%%%%%%%%%%   ",
"   ooo@@@@@@@@@@@@@@@ooo   ooo@@@@@@@@@@@@@@@ooo   OOOooooooooo...      ######%%%%%%%%%%%%%%%   ",
"   @@@@@@@@@@@@@@@@@@@@@   @@@@@@@@@@@@@@@@@@@@@   @@@oooooooooooo      ######%%%%%%%%%%%%&&&   ",
"   @@@@@@@@@@@@@@@@@@@@@   @@@@@@@@@@@@@@@@@@@@@   @@@oooooooooooo      ######%%%%%%%%%%%%&&&   ",
"   @@@@@@@@@@@@@@@@@@@@@   @@@@@@@@@@@@@@@@@@@@@   @@@oooooooooooo      ######%%%%%%%%%%%%&&&   ",
"   ooo@@@@@@@@@@@@@@@ooo   ooo@@@@@@@@@@@@@@@ooo   OOOooooooooo...      ######%%%%%%%%%%%%&&&   ",
"   ooo@@@@@@@@@@@@@@@ooo   ooo@@@@@@@@@@@@@@@ooo   OOOooooooooo...      ######%%%%%%%%%%%%&&&   ",
"   ooo@@@@@@@@@@@@@@@ooo   ooo@@@@@@@@@@@@@@@ooo   OOOooooooooo...      ######%%%%%%%%%%%%&&&   ",
"                                                                        ######%%%%%%%%%%%%***   ",
"                                                                        ######%%%%%%%%%%%%***   ",
"                                                                        ######%%%%%%%%%%%%***   ",
"ooooooooo...                        ...OOO@@@@@@@@@@@@OOO...            ######%%%%%%%%%%%%&&&   ",
"ooooooooo...                        ...OOO@@@@@@@@@@@@OOO...            ######%%%%%%%%%%%%&&&   ",
"ooooooooo...                        ...OOO@@@@@@@@@@@@OOO...            ######%%%%%%%%%%%%&&&   ",
"                                    ooo@@@@@@@@@@@@@@@@@@ooo            ######%%%%%%%%%%%%%%%   ",
"                                    ooo@@@@@@@@@@@@@@@@@@ooo            ######%%%%%%%%%%%%%%%   ",
"                                    ooo@@@@@@@@@@@@@@@@@@ooo            ######%%%%%%%%%%%%%%%   ",
"                                    ...OOO@@@@@@@@@@@@OOO...            ######$$$%%%%%%%%%%%%   ",
"                                    ...OOO@@@@@@@@@@@@OOO...            ######$$$%%%%%%%%%%%%   ",
"                                    ...OOO@@@@@@@@@@@@OOO...            ######$$$%%%%%%%%%%%%   ",
"   +++###############+++                                                #########$$$%%%%%%$$$   ",
"   +++###############+++                                                #########$$$%%%%%%$$$   ",
"   +++###############+++                                                #########$$$%%%%%%$$$   ",
"   #####################      ...oooooooooOOOooo   OOOooooooooo...      +++##################   ",
"   #####################      ...oooooooooOOOooo   OOOooooooooo...      +++##################   ",
"   #####################      ...oooooooooOOOooo   OOOooooooooo...      +++##################   ",
"   %%%%%%%%%$$$#########      oooooooooooo@@@@@@   @@@oooooooooooo                              ",
"   %%%%%%%%%$$$#########      oooooooooooo@@@@@@   @@@oooooooooooo                              ",
"   %%%%%%%%%$$$#########      oooooooooooo@@@@@@   @@@oooooooooooo                              ",
"   %%%%%%%%%%%%$$$######      ...oooooooooOOOooo   OOOooooooooo...      +++##################   ",
"   %%%%%%%%%%%%$$$######      ...oooooooooOOOooo   OOOooooooooo...      +++##################   ",
"   %%%%%%%%%%%%$$$######      ...oooooooooOOOooo   OOOooooooooo...      +++##################   ",
"   %%%%%%%%%%%%%%%######                                                #########$$$%%%%%%$$$   ",
"   %%%%%%%%%%%%%%%######                                                #########$$$%%%%%%$$$   ",
"   %%%%%%%%%%%%%%%######                                                #########$$$%%%%%%$$$   ",
"   %%%%%%%%%%%%%%%######            ...OOO@@@@@@@@@@@@OOO...            ######$$$%%%%%%%%%%%%   ",
"   %%%%%%%%%%%%%%%######            ...OOO@@@@@@@@@@@@OOO...            ######$$$%%%%%%%%%%%%   ",
"   %%%%%%%%%%%%%%%######            ...OOO@@@@@@@@@@@@OOO...            ######$$$%%%%%%%%%%%%   ",
"   &&&***&&&%%%%%%###+++            ooo@@@@@@@@@@@@@@@@@@ooo            ######%%%%%%%%%%%%%%%   ",
"   &&&***&&&%%%%%%###+++            ooo@@@@@@@@@@@@@@@@@@ooo            ######%%%%%%%%%%%%%%%   ",
"   &&&***&&&%%%%%%###+++            ooo@@@@@@@@@@@@@@@@@@ooo            ######%%%%%%%%%%%%%%%   ",
"                                    ...OOO@@@@@@@@@@@@OOO...            ######%%%%%%%%%%%%&&&   ",
"                                    ...OOO@@@@@@@@@@@@OOO...            ######%%%%%%%%%%%%&&&   ",
"                                    ...OOO@@@@@@@@@@@@OOO...            ######%%%%%%%%%%%%&&&   "
};
