/* XPM */
static char *result[] = {
/* columns rows colors chars-per-pixel */
"96 96 13 1 ",
"  c #3F3851",
". c #584B57",
"X c #89365C",
"o c #9E3B57",
"O c #AE444E",
"+ c #BF5753",
"@ c #D25654",
"# c #CD7363",
"$ c #E27F6D",
"% c #EDA27F",
"& c #FBCA97",
"* c #FFEAB7",
"= c #FFFAD6",
/* pixels */
"   ***&&&&&&&&&&&&$$$$$$         XXX   OOO############OOO   XXX         $$$$$$&&&&&&&&&&&&&&&   ",
"   ***&&&&&&&&&&&&$$$$$$         XXX   OOO############OOO   XXX         $$$$$$&&&&&&&&&&&&&&&   ",
"   ***&&&&&&&&&&&&$$$$$$         XXX   OOO############OOO   XXX         $$$$$$&&&&&&&&&&&&&&&   ",
"   ***&&&&&&&&&&&&$$$$$$         OOO   ##################   OOO         $$$$$$&&&&&&&&&&&&***   ",
"   ***&&&&&&&&&&&&$$$$$$         OOO   ##################   OOO         $$$$$$&&&&&&&&&&&&***   ",
"   ***&&&&&&&&&&&&$$$$$$         OOO   ##################   OOO         $$$$$$&&&&&&&&&&&&***   ",
"   &&&&&&&&&&&&&&&$$$$$$         XXX   OOO############OOO   XXX         $$$$$$&&&&&&&&&&&&===   ",
"   &&&&&&&&&&&&&&&$$$$$$         XXX   OOO############OOO   XXX         $$$$$$&&&&&&&&&&&&===   ",
"   &&&&&&&&&&&&&&&$$$$$$         XXX   OOO############OOO   XXX         $$$$$$&&&&&&&&&&&&===   ",
"   ***&&&&&&&&&&&&$$$$$$                                                $$$$$$&&&&&&&&&&&&===   ",
"   ***&&&&&&&&&&&&$$$$$$                                                $$$$$$&&&&&&&&&&&&===   ",
"   ***&&&&&&&&&&&&$$$$$$                                                $$$$$$&&&&&&&&&&&&===   ",
"   &&&&&&&&&&&&&&&$$$$$$      XXXOOOOOO+++###OOO   OOO+++OOOOOOXXX      $$$$$$&&&&&&&&&&&&***   ",
"   &&&&&&&&&&&&&&&$$$$$$      XXXOOOOOO+++###OOO   OOO+++OOOOOOXXX      $$$$$$&&&&&&&&&&&&***   ",
"   &&&&&&&&&&&&&&&$$$$$$      XXXOOOOOO+++###OOO   OOO+++OOOOOOXXX      $$$$$$&&&&&&&&&&&&***   ",
"   &&&&&&&&&&&&%%%$$$$$$      OOOOOOOOO#########   ######OOOOOOOOO      $$$$$$%%%&&&&&&&&&&&&   ",
"   &&&&&&&&&&&&%%%$$$$$$      OOOOOOOOO#########   ######OOOOOOOOO      $$$$$$%%%&&&&&&&&&&&&   ",
"   &&&&&&&&&&&&%%%$$$$$$      OOOOOOOOO#########   ######OOOOOOOOO      $$$$$$%%%&&&&&&&&&&&&   ",
"   %%%&&&&&&%%%$$$$$$$$$      XXXOOOOOO+++###OOO   OOO+++OOOOOOXXX      $$$$$$$$$%%%&&&&&&%%%   ",
"   %%%&&&&&&%%%$$$$$$$$$      XXXOOOOOO+++###OOO   OOO+++OOOOOOXXX      $$$$$$$$$%%%&&&&&&%%%   ",
"   %%%&&&&&&%%%$$$$$$$$$      XXXOOOOOO+++###OOO   OOO+++OOOOOOXXX      $$$$$$$$$%%%&&&&&&%%%   ",
"   $$$$$$$$$$$$$$$$$$@@@                                                @@@$$$$$$$$$$$$$$$$$$   ",
"   $$$$$$$$$$$$$$$$$$@@@                                                @@@$$$$$$$$$$$$$$$$$$   ",
"   $$$$$$$$$$$$$$$$$$@@@                                                @@@$$$$$$$$$$$$$$$$$$   ",
"                                 XXX   OOO############OOO                                       ",
"                                 XXX   OOO############OOO                                       ",
"                                 XXX   OOO############OOO                                       ",
"   $$$$$$$$$$$$$$$$$$@@@         OOO   ##################               @@@$$$$$$$$$$$$$$$$$$   ",
"   $$$$$$$$$$$$$$$$$$@@@         OOO   ##################               @@@$$$$$$$$$$$$$$$$$$   ",
"   $$$$$$$$$$$$$$$$$$@@@         OOO   ##################               @@@$$$$$$$$$$$$$$$$$$   ",
"   %%%&&&&&&%%%$$$$$$$$$         XXX   OOO############OOO               $$$$$$$$$%%%&&&&&&%%%   ",
"   %%%&&&&&&%%%$$$$$$$$$         XXX   OOO############OOO               $$$$$$$$$%%%&&&&&&%%%   ",
"   %%%&&&&&&%%%$$$$$$$$$         XXX   OOO############OOO               $$$$$$$$$%%%&&&&&&%%%   ",
"   &&&&&&&&&&&&%%%$$$$$$                                                $$$$$$%%%&&&&&&&&&&&&   ",
"   &&&&&&&&&&&&%%%$$$$$$                                                $$$$$$%%%&&&&&&&&&&&&   ",
"   &&&&&&&&&&&&%%%$$$$$$                                                $$$$$$%%%&&&&&&&&&&&&   ",
"   &&&&&&&&&&&&&&&$$$$$$            XXX+++###OOO   OOO+++OOOOOOXXX      $$$$$$&&&&&&&&&&&&&&&   ",
"   &&&&&&&&&&&&&&&$$$$$$            XXX+++###OOO   OOO+++OOOOOOXXX      $$$$$$&&&&&&&&&&&&&&&   ",
"   &&&&&&&&&&&&&&&$$$$$$            XXX+++###OOO   OOO+++OOOOOOXXX      $$$$$$&&&&&&&&&&&&&&&   ",
"   ***&&&&&&&&&&&&$$$$$$            OOO#########   ######OOOOOOOOO      $$$$$$&&&&&&&&&&&&***   ",
"   ***&&&&&&&&&&&&$$$$$$            OOO#########   ######OOOOOOOOO      $$$$$$&&&&&&&&&&&&***   ",
"   ***&&&&&&&&&&&&$$$$$$            OOO#########   ######OOOOOOOOO      $$$$$$&&&&&&&&&&&&***   ",
"   ===&&&&&&&&&&&&$$$$$$            XXX+++###OOO   OOO+++OOOOOOXXX      $$$$$$&&&&&&&&&&&&===   ",
"   ===&&&&&&&&&&&&$$$$$$            XXX+++###OOO   OOO+++OOOOOOXXX      $$$$$$&&&&&&&&&&&&===   ",
"   ===&&&&&&&&&&&&$$$$$$            XXX+++###OOO   OOO+++OOOOOOXXX      $$$$$$&&&&&&&&&&&&===   ",
"   ===&&&&&&&&&&&&$$$$$$                                                $$$$$$&&&&&&&&&&&&***   ",
"   ===&&&&&&&&&&&&$$$$$$                                                $$$$$$&&&&&&&&&&&&***   ",
"   ===&&&&&&&&&&&&$$$$$$                                                $$$$$$&&&&&&&&&&&&***   ",
"   ***&&&&&&&&&&&&$$$$$$         XXX   OOO############OOO   XXX         $$$$$$&&&&&&&&&&&&&&&   ",
"   ***&&&&&&&&&&&&$$$$$$         XXX   OOO############OOO   XXX         $$$$$$&&&&&&&&&&&&&&&   ",
"   ***&&&&&&&&&&&&$$$$$$         XXX   OOO############OOO   XXX         $$$$$$&&&&&&&&&&&&&&&   ",
"   ***&&&&&&&&&&&&$$$$$$         OOO   ##################   OOO         $$$$$$&&&&&&&&&&&&***   ",
"   ***&&&&&&&&&&&&$$$$$$         OOO   ##################   OOO         $$$$$$&&&&&&&&&&&&***   ",
"   ***&&&&&&&&&&&&$$$$$$         OOO   ##################   OOO         $$$$$$&&&&&&&&&&&&***   ",
"   &&&&&&&&&&&&&&&$$$$$$         XXX   OOO############OOO   XXX         $$$$$$&&&&&&&&&&&&&&&   ",
"   &&&&&&&&&&&&&&&$$$$$$         XXX   OOO############OOO   XXX         $$$$$$&&&&&&&&&&&&&&&   ",
"   &&&&&&&&&&&&&&&$$$$$$         XXX   OOO############OOO   XXX         $$$$$$&&&&&&&&&&&&&&&   ",
"   &&&&&&&&&&&&%%%$$$$$$                                                $$$$$$%%%&&&&&&&&&&&&   ",
"   &&&&&&&&&&&&%%%$$$$$$                                                $$$$$$%%%&&&&&&&&&&&&   ",
"   &&&&&&&&&&&&%%%$$$$$$                                                $$$$$$%%%&&&&&&&&&&&&   ",
"   %%%&&&&&&%%%$$$$$$$$$      oooOOOOOOOOOOOOooo   XXXOOOOOOOOOXXX      $$$$$$$$$%%%&&&&&&%%%   ",
"   %%%&&&&&&%%%$$$$$$$$$      oooOOOOOOOOOOOOooo   XXXOOOOOOOOOXXX      $$$$$$$$$%%%&&&&&&%%%   ",
"   %%%&&&&&&%%%$$$$$$$$$      oooOOOOOOOOOOOOooo   XXXOOOOOOOOOXXX      $$$$$$$$$%%%&&&&&&%%%   ",
"   $$$$$$$$$$$$$$$$$$@@@      XXXoooOOOOOOoooXXX                        @@@$$$$$$$$$$$$$$$$$$   ",
"   $$$$$$$$$$$$$$$$$$@@@      XXXoooOOOOOOoooXXX                        @@@$$$$$$$$$$$$$$$$$$   ",
"   $$$$$$$$$$$$$$$$$$@@@      XXXoooOOOOOOoooXXX                        @@@$$$$$$$$$$$$$$$$$$   ",
"                                                                                                ",
"                                                                                                ",
"                                                                                                ",
"   @@@$$$$$$$$$$$$$$$$$$@@@                                          @@@$$$$$$$$$$$$$$$$$$@@@   ",
"   @@@$$$$$$$$$$$$$$$$$$@@@                                          @@@$$$$$$$$$$$$$$$$$$@@@   ",
"   @@@$$$$$$$$$$$$$$$$$$@@@                                          @@@$$$$$$$$$$$$$$$$$$@@@   ",
"   $$$$$$$$$$$$$$$$$$$$$$$$   @@@$$$$$$$$$$$$$$$$$$$$$$$$$$$$$$@@@   $$$$$$$$$$$$$$$$$$$$$$$$   ",
"   $$$$$$$$$$$$$$$$$$$$$$$$   @@@$$$$$$$$$$$$$$$$$$$$$$$$$$$$$$@@@   $$$$$$$$$$$$$$$$$$$$$$$$   ",
"   $$$$$$$$$$$$$$$$$$$$$$$$   @@@$$$$$$$$$$$$$$$$$$$$$$$$$$$$$$@@@   $$$$$$$$$$$$$$$$$$$$$$$$   ",
"   $$$%%%&&&&&&&&&&&&%%%$$$   $$$$$$$$$$$$$$$$$$$$$$$$$$$$$$$$$$$$   $$$%%%&&&&&&&&&&&&%%%$$$   ",
"   $$$%%%&&&&&&&&&&&&%%%$$$   $$$$$$$$$$$$$$$$$$$$$$$$$$$$$$$$$$$$   $$$%%%&&&&&&&&&&&&%%%$$$   ",
"   $$$%%%&&&&&&&&&&&&%%%$$$   $$$$$$$$$$$$$$$$$$$$$$$$$$$$$$$$$$$$   $$$%%%&&&&&&&&&&&&%%%$$$   ",
"   %%%&&&&&&&&&&&&&&&&&&%%%   $$$$$$%%%%%%&&&&&&&&&&&&%%%%%%$$$$$$   %%%&&&&&&&&&&&&&&&&&&%%%   ",
"   %%%&&&&&&&&&&&&&&&&&&%%%   $$$$$$%%%%%%&&&&&&&&&&&&%%%%%%$$$$$$   %%%&&&&&&&&&&&&&&&&&&%%%   ",
"   %%%&&&&&&&&&&&&&&&&&&%%%   $$$$$$%%%%%%&&&&&&&&&&&&%%%%%%$$$$$$   %%%&&&&&&&&&&&&&&&&&&%%%   ",
"   &&&&&&&&&&&&&&&&&&&&&&&&   $$$%%%&&&&&&&&&&&&&&&&&&&&&&&&%%%$$$   &&&&&&&&&&&&&&&&&&&&&&&&   ",
"   &&&&&&&&&&&&&&&&&&&&&&&&   $$$%%%&&&&&&&&&&&&&&&&&&&&&&&&%%%$$$   &&&&&&&&&&&&&&&&&&&&&&&&   ",
"   &&&&&&&&&&&&&&&&&&&&&&&&   $$$%%%&&&&&&&&&&&&&&&&&&&&&&&&%%%$$$   &&&&&&&&&&&&&&&&&&&&&&&&   ",
"   &&&&&&&&&&&&&&&&&&&&&&&&   $$$&&&&&&&&&&&&&&&&&&&&&&&&&&&&&&$$$   &&&&&&&&&&&&&&&&&&&&&&&&   ",
"   &&&&&&&&&&&&&&&&&&&&&&&&   $$$&&&&&&&&&&&&&&&&&&&&&&&&&&&&&&$$$   &&&&&&&&&&&&&&&&&&&&&&&&   ",
"   &&&&&&&&&&&&&&&&&&&&&&&&   $$$&&&&&&&&&&&&&&&&&&&&&&&&&&&&&&$$$   &&&&&&&&&&&&&&&&&&&&&&&&   ",
"   &&&&&&&&&&&&&&&&&&&&&&&&   $$$&&&&&&&&&&&&&&&&&&&&&&&&&&&&&&$$$   &&&&&&&&&&&&&&&&&&&&&&&&   ",
"   &&&&&&&&&&&&&&&&&&&&&&&&   $$$&&&&&&&&&&&&&&&&&&&&&&&&&&&&&&$$$   &&&&&&&&&&&&&&&&&&&&&&&&   ",
"   &&&&&&&&&&&&&&&&&&&&&&&&   $$$&&&&&&&&&&&&&&&&&&&&&&&&&&&&&&$$$   &&&&&&&&&&&&&&&&&&&&&&&&   ",
"   %%%&&&***===******&&&%%%   $$$%%%&&&&&&===***&&&***&&&&&&%%%$$$   %%%&&&******===***&&&%%%   ",
"   %%%&&&***===******&&&%%%   $$$%%%&&&&&&===***&&&***&&&&&&%%%$$$   %%%&&&******===***&&&%%%   ",
"   %%%&&&***===******&&&%%%   $$$%%%&&&&&&===***&&&***&&&&&&%%%$$$   %%%&&&******===***&&&%%%   ",
"...                                                                                          ...",
"...                                                                                          ...",
"...                                                                                          ..."
};
