/* XPM */
static char *result[] = {
/* columns rows colors chars-per-pixel */
"96 96 11 1 ",
"  c #3F3851",
". c #89365C",
"X c #AE444E",
"o c #BF5753",
"O c #D25654",
"+ c #CD7363",
"@ c #E27F6D",
"# c #EDA27F",
"$ c #FBCA97",
"% c #FFEAB7",
"& c #FFFAD6",
/* pixels */
"                                                                                                ",
"                                                                                                ",
"                                                                                                ",
"                           XXX+++++++++++++++XXX   oooXXXXXXXXX...      OOO@@@$$$$$$%%%&&&%%%   ",
"                           XXX+++++++++++++++XXX   oooXXXXXXXXX...      OOO@@@$$$$$$%%%&&&%%%   ",
"                           XXX+++++++++++++++XXX   oooXXXXXXXXX...      OOO@@@$$$$$$%%%&&&%%%   ",
"                           +++++++++++++++++++++   +++XXXXXXXXXXXX      @@@@@@$$$$$$$$$$$$$$$   ",
"                           +++++++++++++++++++++   +++XXXXXXXXXXXX      @@@@@@$$$$$$$$$$$$$$$   ",
"                           +++++++++++++++++++++   +++XXXXXXXXXXXX      @@@@@@$$$$$$$$$$$$$$$   ",
"                           XXX+++++++++++++++XXX   oooXXXXXXXXX...      @@@@@@$$$$$$$$$$$$$$$   ",
"                           XXX+++++++++++++++XXX   oooXXXXXXXXX...      @@@@@@$$$$$$$$$$$$$$$   ",
"                           XXX+++++++++++++++XXX   oooXXXXXXXXX...      @@@@@@$$$$$$$$$$$$$$$   ",
"                                                                        @@@@@@###$$$$$$$$$$$$   ",
"                                                                        @@@@@@###$$$$$$$$$$$$   ",
"                                                                        @@@@@@###$$$$$$$$$$$$   ",
"                                    XXX+++++++++++++++ooo...            @@@@@@@@@###$$$$$$$$$   ",
"                                    XXX+++++++++++++++ooo...            @@@@@@@@@###$$$$$$$$$   ",
"                                    XXX+++++++++++++++ooo...            @@@@@@@@@###$$$$$$$$$   ",
"                                    +++++++++++++++++++++XXX            @@@@@@@@@@@@@@@@@@@@@   ",
"                                    +++++++++++++++++++++XXX            @@@@@@@@@@@@@@@@@@@@@   ",
"                                    +++++++++++++++++++++XXX            @@@@@@@@@@@@@@@@@@@@@   ",
"                                    XXX+++++++++++++++ooo...            OOO@@@@@@@@@@@@@@@OOO   ",
"                                    XXX+++++++++++++++ooo...            OOO@@@@@@@@@@@@@@@OOO   ",
"                                    XXX+++++++++++++++ooo...            OOO@@@@@@@@@@@@@@@OOO   ",
"                                                                                                ",
"                                                                                                ",
"                                                                                                ",
"                              XXX+++++++++++++++XXX                                             ",
"                              XXX+++++++++++++++XXX                                             ",
"                              XXX+++++++++++++++XXX                                             ",
"                              +++++++++++++++++++++                                             ",
"                              +++++++++++++++++++++                                             ",
"                              +++++++++++++++++++++                                             ",
"                              XXX+++++++++++++++XXX                           ...XXXXXXXXXXXX...",
"                              XXX+++++++++++++++XXX                           ...XXXXXXXXXXXX...",
"                              XXX+++++++++++++++XXX                           ...XXXXXXXXXXXX...",
"                                                                                                ",
"                                                                                                ",
"                                                                                                ",
"                                       XXX++++++++++++++++++XXX   XXX++++++++++++XXX   XXX++++++",
"                                       XXX++++++++++++++++++XXX   XXX++++++++++++XXX   XXX++++++",
"                                       XXX++++++++++++++++++XXX   XXX++++++++++++XXX   XXX++++++",
"                                       ++++++++++++++++++++++++   ++++++++++++++++++   +++++++++",
"                                       ++++++++++++++++++++++++   ++++++++++++++++++   +++++++++",
"                                       ++++++++++++++++++++++++   ++++++++++++++++++   +++++++++",
"                                       XXX++++++++++++++++++XXX   XXX++++++++++++XXX   XXX++++++",
"                                       XXX++++++++++++++++++XXX   XXX++++++++++++XXX   XXX++++++",
"                                       XXX++++++++++++++++++XXX   XXX++++++++++++XXX   XXX++++++",
"                                                                                                ",
"                                                                                                ",
"                                                                                                ",
"                                                      XXX+++++++++++++++XXX   XXX++++++++++++XXX",
"                                                      XXX+++++++++++++++XXX   XXX++++++++++++XXX",
"                                                      XXX+++++++++++++++XXX   XXX++++++++++++XXX",
"                                                      +++++++++++++++++++++   ++++++++++++++++++",
"                                                      +++++++++++++++++++++   ++++++++++++++++++",
"                                                      +++++++++++++++++++++   ++++++++++++++++++",
"                                                      XXX+++++++++++++++XXX   XXX++++++++++++XXX",
"                                                      XXX+++++++++++++++XXX   XXX++++++++++++XXX",
"                                                      XXX+++++++++++++++XXX   XXX++++++++++++XXX",
"                                                                                                ",
"                                                                                                ",
"                                                                                                ",
"                                    XXX+++++++++++++++ooo...      ...XXXXXXXXX...      ...XXXXXX",
"                                    XXX+++++++++++++++ooo...      ...XXXXXXXXX...      ...XXXXXX",
"                                    XXX+++++++++++++++ooo...      ...XXXXXXXXX...      ...XXXXXX",
"                                    +++++++++++++++++++++XXX                                    ",
"                                    +++++++++++++++++++++XXX                                    ",
"                                    +++++++++++++++++++++XXX                                    ",
"                                    XXX+++++++++++++++ooo...                                    ",
"                                    XXX+++++++++++++++ooo...                                    ",
"                                    XXX+++++++++++++++ooo...                                    ",
"                                                                        OOO@@@@@@@@@@@@@@@OOO   ",
"                                                                        OOO@@@@@@@@@@@@@@@OOO   ",
"                                                                        OOO@@@@@@@@@@@@@@@OOO   ",
"                           XXX+++++++++++++++XXX   oooXXXXXXXXX...      @@@@@@@@@@@@@@@@@@@@@   ",
"                           XXX+++++++++++++++XXX   oooXXXXXXXXX...      @@@@@@@@@@@@@@@@@@@@@   ",
"                           XXX+++++++++++++++XXX   oooXXXXXXXXX...      @@@@@@@@@@@@@@@@@@@@@   ",
"                           +++++++++++++++++++++   +++XXXXXXXXXXXX      @@@@@@@@@###$$$$$$$$$   ",
"                           +++++++++++++++++++++   +++XXXXXXXXXXXX      @@@@@@@@@###$$$$$$$$$   ",
"                           +++++++++++++++++++++   +++XXXXXXXXXXXX      @@@@@@@@@###$$$$$$$$$   ",
"                           XXX+++++++++++++++XXX   oooXXXXXXXXX...      @@@@@@###$$$$$$$$$$$$   ",
"                           XXX+++++++++++++++XXX   oooXXXXXXXXX...      @@@@@@###$$$$$$$$$$$$   ",
"                           XXX+++++++++++++++XXX   oooXXXXXXXXX...      @@@@@@###$$$$$$$$$$$$   ",
"                                                                        @@@@@@$$$$$$$$$$$$$$$   ",
"                                                                        @@@@@@$$$$$$$$$$$$$$$   ",
"                                                                        @@@@@@$$$$$$$$$$$$$$$   ",
"                                    XXX+++++++++++++++ooo...            @@@@@@$$$$$$$$$$$$$$$   ",
"                                    XXX+++++++++++++++ooo...            @@@@@@$$$$$$$$$$$$$$$   ",
"                                    XXX+++++++++++++++ooo...            @@@@@@$$$$$$$$$$$$$$$   ",
"                                    +++++++++++++++++++++XXX            OOO@@@$$$$$$%%%&&&%%%   ",
"                                    +++++++++++++++++++++XXX            OOO@@@$$$$$$%%%&&&%%%   ",
"                                    +++++++++++++++++++++XXX            OOO@@@$$$$$$%%%&&&%%%   ",
"                                    XXX+++++++++++++++ooo...                                    ",
"                                    XXX+++++++++++++++ooo...                                    ",
"                                    XXX+++++++++++++++ooo...                                    "
};
