/* XPM */
static char *result[] = {
/* columns rows colors chars-per-pixel */
"96 96 13 1 ",
"  c #3F3851",
". c #584B57",
"X c #89365C",
"o c #9E3B57",
"O c #AE444E",
"+ c #BF5753",
"@ c #D25654",
"# c #CD7363",
"$ c #E27F6D",
"% c #EDA27F",
"& c #FBCA97",
"* c #FFEAB7",
"= c #FFFAD6",
/* pixels */
"...                                                                                          ...",
"...                                                                                          ...",
"...                                                                                          ...",
"   %%%&&&***===******&&&%%%   $$$%%%&&&******===******&&&&&&%%%$$$   %%%&&&******===***&&&%%%   ",
"   %%%&&&***===******&&&%%%   $$$%%%&&&******===******&&&&&&%%%$$$   %%%&&&******===***&&&%%%   ",
"   %%%&&&***===******&&&%%%   $$$%%%&&&******===******&&&&&&%%%$$$   %%%&&&******===***&&&%%%   ",
"   &&&&&&&&&&&&&&&&&&&&&&&&   $$$&&&&&&&&&&&&&&&&&&&&&&&&&&&&&&$$$   &&&&&&&&&&&&&&&&&&&&&&&&   ",
"   &&&&&&&&&&&&&&&&&&&&&&&&   $$$&&&&&&&&&&&&&&&&&&&&&&&&&&&&&&$$$   &&&&&&&&&&&&&&&&&&&&&&&&   ",
"   &&&&&&&&&&&&&&&&&&&&&&&&   $$$&&&&&&&&&&&&&&&&&&&&&&&&&&&&&&$$$   &&&&&&&&&&&&&&&&&&&&&&&&   ",
"   &&&&&&&&&&&&&&&&&&&&&&&&   $$$&&&&&&&&&&&&&&&&&&&&&&&&&&&&&&$$$   &&&&&&&&&&&&&&&&&&&&&&&&   ",
"   &&&&&&&&&&&&&&&&&&&&&&&&   $$$&&&&&&&&&&&&&&&&&&&&&&&&&&&&&&$$$   &&&&&&&&&&&&&&&&&&&&&&&&   ",
"   &&&&&&&&&&&&&&&&&&&&&&&&   $$$&&&&&&&&&&&&&&&&&&&&&&&&&&&&&&$$$   &&&&&&&&&&&&&&&&&&&&&&&&   ",
"   &&&&&&&&&&&&&&&&&&&&&&&&   $$$%%%&&&&&&&&&&&&&&&&&&&&&&&&%%%$$$   &&&&&&&&&&&&&&&&&&&&&&&&   ",
"   &&&&&&&&&&&&&&&&&&&&&&&&   $$$%%%&&&&&&&&&&&&&&&&&&&&&&&&%%%$$$   &&&&&&&&&&&&&&&&&&&&&&&&   ",
"   &&&&&&&&&&&&&&&&&&&&&&&&   $$$%%%&&&&&&&&&&&&&&&&&&&&&&&&%%%$$$   &&&&&&&&&&&&&&&&&&&&&&&&   ",
"   %%%&&&&&&&&&&&&&&&&&&%%%   $$$$$$%%%&&&&&&&&&&&&&&&&&&%%%$$$$$$   %%%&&&&&&&&&&&&&&&&&&%%%   ",
"   %%%&&&&&&&&&&&&&&&&&&%%%   $$$$$$%%%&&&&&&&&&&&&&&&&&&%%%$$$$$$   %%%&&&&&&&&&&&&&&&&&&%%%   ",
"   %%%&&&&&&&&&&&&&&&&&&%%%   $$$$$$%%%&&&&&&&&&&&&&&&&&&%%%$$$$$$   %%%&&&&&&&&&&&&&&&&&&%%%   ",
"   $$$%%%&&&&&&&&&&&&%%%$$$   $$$$$$$$$$$$$$$$$$$$$$$$$$$$$$$$$$$$   $$$%%%&&&&&&&&&&&&%%%$$$   ",
"   $$$%%%&&&&&&&&&&&&%%%$$$   $$$$$$$$$$$$$$$$$$$$$$$$$$$$$$$$$$$$   $$$%%%&&&&&&&&&&&&%%%$$$   ",
"   $$$%%%&&&&&&&&&&&&%%%$$$   $$$$$$$$$$$$$$$$$$$$$$$$$$$$$$$$$$$$   $$$%%%&&&&&&&&&&&&%%%$$$   ",
"   $$$$$$$$$$$$$$$$$$$$$$$$   @@@$$$$$$$$$$$$$$$$$$$$$$$$$$$$$$@@@   $$$$$$$$$$$$$$$$$$$$$$$$   ",
"   $$$$$$$$$$$$$$$$$$$$$$$$   @@@$$$$$$$$$$$$$$$$$$$$$$$$$$$$$$@@@   $$$$$$$$$$$$$$$$$$$$$$$$   ",
"   $$$$$$$$$$$$$$$$$$$$$$$$   @@@$$$$$$$$$$$$$$$$$$$$$$$$$$$$$$@@@   $$$$$$$$$$$$$$$$$$$$$$$$   ",
"   @@@$$$$$$$$$$$$$$$$$$@@@                                          @@@$$$$$$$$$$$$$$$$$$@@@   ",
"   @@@$$$$$$$$$$$$$$$$$$@@@                                          @@@$$$$$$$$$$$$$$$$$$@@@   ",
"   @@@$$$$$$$$$$$$$$$$$$@@@                                          @@@$$$$$$$$$$$$$$$$$$@@@   ",
"                                                                                                ",
"                                                                                                ",
"                                                                                                ",
"   $$$$$$$$$$$$$$$$$$@@@         XXXoooOOOoooXXX   XXXoooOOOoooXXX      @@@$$$$$$$$$$$$$$$###   ",
"   $$$$$$$$$$$$$$$$$$@@@         XXXoooOOOoooXXX   XXXoooOOOoooXXX      @@@$$$$$$$$$$$$$$$###   ",
"   $$$$$$$$$$$$$$$$$$@@@         XXXoooOOOoooXXX   XXXoooOOOoooXXX      @@@$$$$$$$$$$$$$$$###   ",
"   %%%&&&&&&%%%$$$$$$$$$         oooOOOOOOOOOooo   oooOOOOOOOOOooo      $$$$$$$$$%%%&&&&&&%%%   ",
"   %%%&&&&&&%%%$$$$$$$$$         oooOOOOOOOOOooo   oooOOOOOOOOOooo      $$$$$$$$$%%%&&&&&&%%%   ",
"   %%%&&&&&&%%%$$$$$$$$$         oooOOOOOOOOOooo   oooOOOOOOOOOooo      $$$$$$$$$%%%&&&&&&%%%   ",
"   &&&&&&&&&&&&%%%$$$$$$                                                $$$$$$%%%&&&&&&&&&&&&   ",
"   &&&&&&&&&&&&%%%$$$$$$                                                $$$$$$%%%&&&&&&&&&&&&   ",
"   &&&&&&&&&&&&%%%$$$$$$                                                $$$$$$%%%&&&&&&&&&&&&   ",
"   &&&&&&&&&&&&%%%$$$$$$            XXXOOO+++######+++OOOXXX            $$$$$$%%%&&&&&&&&&&&&   ",
"   &&&&&&&&&&&&%%%$$$$$$            XXXOOO+++######+++OOOXXX            $$$$$$%%%&&&&&&&&&&&&   ",
"   &&&&&&&&&&&&%%%$$$$$$            XXXOOO+++######+++OOOXXX            $$$$$$%%%&&&&&&&&&&&&   ",
"   ===&&&&&&&&&&&&$$$$$$            OOOOOO############OOOOOO            $$$$$$&&&&&&&&&&&&===   ",
"   ===&&&&&&&&&&&&$$$$$$            OOOOOO############OOOOOO            $$$$$$&&&&&&&&&&&&===   ",
"   ===&&&&&&&&&&&&$$$$$$            OOOOOO############OOOOOO            $$$$$$&&&&&&&&&&&&===   ",
"   ***&&&&&&&&&&&&$$$$$$            XXXOOO+++######+++OOOXXX            $$$$$$&&&&&&&&&&&&***   ",
"   ***&&&&&&&&&&&&$$$$$$            XXXOOO+++######+++OOOXXX            $$$$$$&&&&&&&&&&&&***   ",
"   ***&&&&&&&&&&&&$$$$$$            XXXOOO+++######+++OOOXXX            $$$$$$&&&&&&&&&&&&***   ",
"   &&&&&&&&&&&&&&&$$$$$$                                                $$$$$$&&&&&&&&&&&&&&&   ",
"   &&&&&&&&&&&&&&&$$$$$$                                                $$$$$$&&&&&&&&&&&&&&&   ",
"   &&&&&&&&&&&&&&&$$$$$$                                                $$$$$$&&&&&&&&&&&&&&&   ",
"   ***&&&&&&&&&&&&$$$$$$      XXXOOOOOOOOO+++OOO   +++OOOOOOOOOXXX      $$$$$$&&&&&&&&&&&&***   ",
"   ***&&&&&&&&&&&&$$$$$$      XXXOOOOOOOOO+++OOO   +++OOOOOOOOOXXX      $$$$$$&&&&&&&&&&&&***   ",
"   ***&&&&&&&&&&&&$$$$$$      XXXOOOOOOOOO+++OOO   +++OOOOOOOOOXXX      $$$$$$&&&&&&&&&&&&***   ",
"   &&&&&&&&&&&&%%%$$$$$$      OOOOOOOOOOOO######   ###OOOOOOOOOOOO      $$$$$$%%%&&&&&&&&&&&&   ",
"   &&&&&&&&&&&&%%%$$$$$$      OOOOOOOOOOOO######   ###OOOOOOOOOOOO      $$$$$$%%%&&&&&&&&&&&&   ",
"   &&&&&&&&&&&&%%%$$$$$$      OOOOOOOOOOOO######   ###OOOOOOOOOOOO      $$$$$$%%%&&&&&&&&&&&&   ",
"   &&&&&&&&&&&&%%%$$$$$$      XXXOOOOOOOOO+++OOO   +++OOOOOOOOOXXX      $$$$$$%%%&&&&&&&&&&&&   ",
"   &&&&&&&&&&&&%%%$$$$$$      XXXOOOOOOOOO+++OOO   +++OOOOOOOOOXXX      $$$$$$%%%&&&&&&&&&&&&   ",
"   &&&&&&&&&&&&%%%$$$$$$      XXXOOOOOOOOO+++OOO   +++OOOOOOOOOXXX      $$$$$$%%%&&&&&&&&&&&&   ",
"   %%%&&&&&&%%%$$$$$$$$$                                                $$$$$$$$$%%%&&&&&&%%%   ",
"   %%%&&&&&&%%%$$$$$$$$$                                                $$$$$$$$$%%%&&&&&&%%%   ",
"   %%%&&&&&&%%%$$$$$$$$$                                                $$$$$$$$$%%%&&&&&&%%%   ",
"   $$$$$$$$$$$$$$$$$$@@@            XXXOOOOOOOOOOOOOOOOOOXXX            @@@$$$$$$$$$$$$$$$###   ",
"   $$$$$$$$$$$$$$$$$$@@@            XXXOOOOOOOOOOOOOOOOOOXXX            @@@$$$$$$$$$$$$$$$###   ",
"   $$$$$$$$$$$$$$$$$$@@@            XXXOOOOOOOOOOOOOOOOOOXXX            @@@$$$$$$$$$$$$$$$###   ",
"                                                                                                ",
"                                                                                                ",
"                                                                                                ",
"   @@@$$$$$$$$$$$$$$$$$$@@@                                          @@@$$$$$$$$$$$$$$$$$$@@@   ",
"   @@@$$$$$$$$$$$$$$$$$$@@@                                          @@@$$$$$$$$$$$$$$$$$$@@@   ",
"   @@@$$$$$$$$$$$$$$$$$$@@@                                          @@@$$$$$$$$$$$$$$$$$$@@@   ",
"   $$$$$$$$$$$$$$$$$$$$$$$$   @@@$$$$$$$$$$$$$$$$$$$$$$$$$$$$$$@@@   $$$$$$$$$$$$$$$$$$$$$$$$   ",
"   $$$$$$$$$$$$$$$$$$$$$$$$   @@@$$$$$$$$$$$$$$$$$$$$$$$$$$$$$$@@@   $$$$$$$$$$$$$$$$$$$$$$$$   ",
"   $$$$$$$$$$$$$$$$$$$$$$$$   @@@$$$$$$$$$$$$$$$$$$$$$$$$$$$$$$@@@   $$$$$$$$$$$$$$$$$$$$$$$$   ",
"   $$$%%%&&&&&&&&&&&&%%%$$$   $$$$$$$$$$$$$$$$$$$$$$$$$$$$$$$$$$$$   $$$%%%&&&&&&&&&&&&%%%$$$   ",
"   $$$%%%&&&&&&&&&&&&%%%$$$   $$$$$$$$$$$$$$$$$$$$$$$$$$$$$$$$$$$$   $$$%%%&&&&&&&&&&&&%%%$$$   ",
"   $$$%%%&&&&&&&&&&&&%%%$$$   $$$$$$$$$$$$$$$$$$$$$$$$$$$$$$$$$$$$   $$$%%%&&&&&&&&&&&&%%%$$$   ",
"   %%%&&&&&&&&&&&&&&&&&&%%%   $$$$$$%%%&&&&&&&&&&&&&&&&&&%%%$$$$$$   %%%&&&&&&&&&&&&&&&&&&%%%   ",
"   %%%&&&&&&&&&&&&&&&&&&%%%   $$$$$$%%%&&&&&&&&&&&&&&&&&&%%%$$$$$$   %%%&&&&&&&&&&&&&&&&&&%%%   ",
"   %%%&&&&&&&&&&&&&&&&&&%%%   $$$$$$%%%&&&&&&&&&&&&&&&&&&%%%$$$$$$   %%%&&&&&&&&&&&&&&&&&&%%%   ",
"   &&&&&&&&&&&&&&&&&&&&&&&&   $$$%%%&&&&&&&&&&&&&&&&&&&&&&&&%%%$$$   &&&&&&&&&&&&&&&&&&&&&&&&   ",
"   &&&&&&&&&&&&&&&&&&&&&&&&   $$$%%%&&&&&&&&&&&&&&&&&&&&&&&&%%%$$$   &&&&&&&&&&&&&&&&&&&&&&&&   ",
"   &&&&&&&&&&&&&&&&&&&&&&&&   $$$%%%&&&&&&&&&&&&&&&&&&&&&&&&%%%$$$   &&&&&&&&&&&&&&&&&&&&&&&&   ",
"   &&&&&&&&&&&&&&&&&&&&&&&&   $$$&&&&&&&&&&&&&&&&&&&&&&&&&&&&&&$$$   &&&&&&&&&&&&&&&&&&&&&&&&   ",
"   &&&&&&&&&&&&&&&&&&&&&&&&   $$$&&&&&&&&&&&&&&&&&&&&&&&&&&&&&&$$$   &&&&&&&&&&&&&&&&&&&&&&&&   ",
"   &&&&&&&&&&&&&&&&&&&&&&&&   $$$&&&&&&&&&&&&&&&&&&&&&&&&&&&&&&$$$   &&&&&&&&&&&&&&&&&&&&&&&&   ",
"   &&&&&&&&&&&&&&&&&&&&&&&&   $$$&&&&&&&&&&&&&&&&&&&&&&&&&&&&&&$$$   &&&&&&&&&&&&&&&&&&&&&&&&   ",
"   &&&&&&&&&&&&&&&&&&&&&&&&   $$$&&&&&&&&&&&&&&&&&&&&&&&&&&&&&&$$$   &&&&&&&&&&&&&&&&&&&&&&&&   ",
"   &&&&&&&&&&&&&&&&&&&&&&&&   $$$&&&&&&&&&&&&&&&&&&&&&&&&&&&&&&$$$   &&&&&&&&&&&&&&&&&&&&&&&&   ",
"   %%%&&&***===******&&&%%%   $$$%%%&&&***&&&***===******&&&%%%$$$   %%%&&&******===***&&&%%%   ",
"   %%%&&&***===******&&&%%%   $$$%%%&&&***&&&***===******&&&%%%$$$   %%%&&&******===***&&&%%%   ",
"   %%%&&&***===******&&&%%%   $$$%%%&&&***&&&***===******&&&%%%$$$   %%%&&&******===***&&&%%%   ",
"...                                                                                          ...",
"...                                                                                          ...",
"...                                                                                          ..."
};
