/* XPM */
static char *result[] = {
/* columns rows colors chars-per-pixel */
"96 96 11 1 ",
"  c #3F3851",
". c #89365C",
"X c #AE444E",
"o c #BF5753",
"O c #D25654",
"+ c #CD7363",
"@ c #E27F6D",
"# c #EDA27F",
"$ c #FBCA97",
"% c #FFEAB7",
"& c #FFFAD6",
/* pixels */
"                                                                                                ",
"                                                                                                ",
"                                                                                                ",
"                           XXX+++++++++++++++XXX   oooXXXXXXXXX...      OOO@@@$$$$$$%%%&&&%%%   ",
"                           XXX+++++++++++++++XXX   oooXXXXXXXXX...      OOO@@@$$$$$$%%%&&&%%%   ",
"                           XXX+++++++++++++++XXX   oooXXXXXXXXX...      OOO@@@$$$$$$%%%&&&%%%   ",
"                           +++++++++++++++++++++   +++XXXXXXXXXXXX      @@@@@@$$$$$$$$$$$$$$$   ",
"                           +++++++++++++++++++++   +++XXXXXXXXXXXX      @@@@@@$$$$$$$$$$$$$$$   ",
"                           +++++++++++++++++++++   +++XXXXXXXXXXXX      @@@@@@$$$$$$$$$$$$$$$   ",
"                           XXX+++++++++++++++XXX   oooXXXXXXXXX...      @@@@@@$$$$$$$$$$$$$$$   ",
"                           XXX+++++++++++++++XXX   oooXXXXXXXXX...      @@@@@@$$$$$$$$$$$$$$$   ",
"                           XXX+++++++++++++++XXX   oooXXXXXXXXX...      @@@@@@$$$$$$$$$$$$$$$   ",
"                                                                        @@@@@@###$$$$$$$$$$$$   ",
"                                                                        @@@@@@###$$$$$$$$$$$$   ",
"                                                                        @@@@@@###$$$$$$$$$$$$   ",
"                        ooo+++XXX   XXX+++++++++++++++ooo...            @@@@@@@@@###$$$$$$$$$   ",
"                        ooo+++XXX   XXX+++++++++++++++ooo...            @@@@@@@@@###$$$$$$$$$   ",
"                        ooo+++XXX   XXX+++++++++++++++ooo...            @@@@@@@@@###$$$$$$$$$   ",
"                        +++++++++   +++++++++++++++++++++XXX            @@@@@@@@@@@@@@@@@@@@@   ",
"                        +++++++++   +++++++++++++++++++++XXX            @@@@@@@@@@@@@@@@@@@@@   ",
"                        +++++++++   +++++++++++++++++++++XXX            @@@@@@@@@@@@@@@@@@@@@   ",
"                        XXX+++ooo   XXX+++++++++++++++ooo...            OOO@@@@@@@@@@@@@@@OOO   ",
"                        XXX+++ooo   XXX+++++++++++++++ooo...            OOO@@@@@@@@@@@@@@@OOO   ",
"                        XXX+++ooo   XXX+++++++++++++++ooo...            OOO@@@@@@@@@@@@@@@OOO   ",
"                                                                                                ",
"                                                                                                ",
"                                                                                                ",
"                              XXX+++++++++++++++XXX                                             ",
"                              XXX+++++++++++++++XXX                                             ",
"                              XXX+++++++++++++++XXX                                             ",
"                              +++++++++++++++++++++                                             ",
"                              +++++++++++++++++++++                                             ",
"                              +++++++++++++++++++++                                             ",
"                              XXX+++++++++++++++XXX                           ...XXXXXXXXXXXX...",
"                              XXX+++++++++++++++XXX                           ...XXXXXXXXXXXX...",
"                              XXX+++++++++++++++XXX                           ...XXXXXXXXXXXX...",
"                                                                                                ",
"                                                                                                ",
"                                                                                                ",
"                                       XXX++++++++++++++++++XXX   ...XXXXXXXXXXXX...   ...XXXXXX",
"                                       XXX++++++++++++++++++XXX   ...XXXXXXXXXXXX...   ...XXXXXX",
"                                       XXX++++++++++++++++++XXX   ...XXXXXXXXXXXX...   ...XXXXXX",
"                                       ++++++++++++++++++++++++   ooo++++++++++++ooo   ooo++++++",
"                                       ++++++++++++++++++++++++   ooo++++++++++++ooo   ooo++++++",
"                                       ++++++++++++++++++++++++   ooo++++++++++++ooo   ooo++++++",
"                                       XXX++++++++++++++++++XXX   XXX++++++++++++XXX   XXX++++++",
"                                       XXX++++++++++++++++++XXX   XXX++++++++++++XXX   XXX++++++",
"                                       XXX++++++++++++++++++XXX   XXX++++++++++++XXX   XXX++++++",
"                                                                                                ",
"                                                                                                ",
"                                                                                                ",
"                              XXX+++++++++++++++XXX   XXX+++++++++++++++XXX   XXX+++++++++++++++",
"                              XXX+++++++++++++++XXX   XXX+++++++++++++++XXX   XXX+++++++++++++++",
"                              XXX+++++++++++++++XXX   XXX+++++++++++++++XXX   XXX+++++++++++++++",
"                              +++++++++++++++++++++   +++++++++++++++++++++   ++++++++++++++++++",
"                              +++++++++++++++++++++   +++++++++++++++++++++   ++++++++++++++++++",
"                              +++++++++++++++++++++   +++++++++++++++++++++   ++++++++++++++++++",
"                              XXX+++++++++++++++XXX   XXX+++++++++++++++XXX   XXX+++++++++++++++",
"                              XXX+++++++++++++++XXX   XXX+++++++++++++++XXX   XXX+++++++++++++++",
"                              XXX+++++++++++++++XXX   XXX+++++++++++++++XXX   XXX+++++++++++++++",
"                                                                                                ",
"                                                                                                ",
"                                                                                                ",
"                                             ooo++++++++++++ooo                        XXX++++++",
"                                             ooo++++++++++++ooo                        XXX++++++",
"                                             ooo++++++++++++ooo                        XXX++++++",
"                                             XXXooo++++++oooXXX                        +++++++++",
"                                             XXXooo++++++oooXXX                        +++++++++",
"                                             XXXooo++++++oooXXX                        +++++++++",
"                                                                                       XXX++++++",
"                                                                                       XXX++++++",
"                                                                                       XXX++++++",
"                                                                                                ",
"                                                                                                ",
"                                                                                                ",
"                                                                                                ",
"                                                                                                ",
"                                                                                                ",
"                                                                                                ",
"                                                                                                ",
"                                                                                                ",
"                                                                                                ",
"                                                                                                ",
"                                                                                                ",
"                                                                                                ",
"                                                                                                ",
"                                                                                                ",
"                                                                                                ",
"                                                                                                ",
"                                                                                                ",
"                                                                                                ",
"                                                                                                ",
"                                                                                                ",
"                                                                                                ",
"                                                                                                ",
"                                                                                                "
};
