/* XPM */
static char *result[] = {
/* columns rows colors chars-per-pixel */
"96 96 12 1 ",
"  c #3F3851",
". c #584B57",
"X c #89365C",
"o c #AE444E",
"O c #BF5753",
"+ c #D25654",
"@ c #CD7363",
"# c #E27F6D",
"$ c #EDA27F",
"% c #FBCA97",
"& c #FFEAB7",
"* c #FFFAD6",
/* pixels */
"                                                                        ######%%%%%%%%%%%%&&&   ",
"                                                                        ######%%%%%%%%%%%%&&&   ",
"                                                                        ######%%%%%%%%%%%%&&&   ",
"                           ooo@@@@@@@@@@@@@@@ooo   OOOoooooooooXXX      ######%%%%%%%%%%%%&&&   ",
"                           ooo@@@@@@@@@@@@@@@ooo   OOOoooooooooXXX      ######%%%%%%%%%%%%&&&   ",
"                           ooo@@@@@@@@@@@@@@@ooo   OOOoooooooooXXX      ######%%%%%%%%%%%%&&&   ",
"                           @@@@@@@@@@@@@@@@@@@@@   @@@oooooooooooo      ######%%%%%%%%%%%%%%%   ",
"                           @@@@@@@@@@@@@@@@@@@@@   @@@oooooooooooo      ######%%%%%%%%%%%%%%%   ",
"                           @@@@@@@@@@@@@@@@@@@@@   @@@oooooooooooo      ######%%%%%%%%%%%%%%%   ",
"                           ooo@@@@@@@@@@@@@@@ooo   OOOoooooooooXXX      ######%%%%%%%%%%%%&&&   ",
"                           ooo@@@@@@@@@@@@@@@ooo   OOOoooooooooXXX      ######%%%%%%%%%%%%&&&   ",
"                           ooo@@@@@@@@@@@@@@@ooo   OOOoooooooooXXX      ######%%%%%%%%%%%%&&&   ",
"                                                                        ######%%%%%%%%%%%%%%%   ",
"                                                                        ######%%%%%%%%%%%%%%%   ",
"                                                                        ######%%%%%%%%%%%%%%%   ",
"                                    ooo@@@@@@@@@@@@@@@OOOXXX            ######$$$%%%%%%%%%%%%   ",
"                                    ooo@@@@@@@@@@@@@@@OOOXXX            ######$$$%%%%%%%%%%%%   ",
"                                    ooo@@@@@@@@@@@@@@@OOOXXX            ######$$$%%%%%%%%%%%%   ",
"                                    @@@@@@@@@@@@@@@@@@@@@ooo            #########$$$%%%%%%$$$   ",
"                                    @@@@@@@@@@@@@@@@@@@@@ooo            #########$$$%%%%%%$$$   ",
"                                    @@@@@@@@@@@@@@@@@@@@@ooo            #########$$$%%%%%%$$$   ",
"                                    ooo@@@@@@@@@@@@@@@OOOXXX            +++##################   ",
"                                    ooo@@@@@@@@@@@@@@@OOOXXX            +++##################   ",
"                                    ooo@@@@@@@@@@@@@@@OOOXXX            +++##################   ",
"                                                                                                ",
"                                                                                                ",
"                                                                                                ",
"                           ooo@@@@@@@@@@@@@@@ooo   OOOoooooooooXXX      +++##################   ",
"                           ooo@@@@@@@@@@@@@@@ooo   OOOoooooooooXXX      +++##################   ",
"                           ooo@@@@@@@@@@@@@@@ooo   OOOoooooooooXXX      +++##################   ",
"   oooOOO@@@@@@@@@OOOooo   @@@@@@@@@@@@@@@@@@@@@   @@@oooooooooooo      #########$$$%%%%%%$$$   ",
"   oooOOO@@@@@@@@@OOOooo   @@@@@@@@@@@@@@@@@@@@@   @@@oooooooooooo      #########$$$%%%%%%$$$   ",
"   oooOOO@@@@@@@@@OOOooo   @@@@@@@@@@@@@@@@@@@@@   @@@oooooooooooo      #########$$$%%%%%%$$$   ",
"   OOO@@@@@@@@@@@@@@@OOO   ooo@@@@@@@@@@@@@@@ooo   OOOoooooooooXXX      ######$$$%%%%%%%%%%%%   ",
"   OOO@@@@@@@@@@@@@@@OOO   ooo@@@@@@@@@@@@@@@ooo   OOOoooooooooXXX      ######$$$%%%%%%%%%%%%   ",
"   OOO@@@@@@@@@@@@@@@OOO   ooo@@@@@@@@@@@@@@@ooo   OOOoooooooooXXX      ######$$$%%%%%%%%%%%%   ",
"                                                                        ######%%%%%%%%%%%%%%%   ",
"                                                                        ######%%%%%%%%%%%%%%%   ",
"                                                                        ######%%%%%%%%%%%%%%%   ",
"@@@@@@@@@ooo   ooo@@@@@@@@@@@@ooo   ooo@@@@@@@@@@@@@@@OOOXXX            ######%%%%%%%%%%%%&&&   ",
"@@@@@@@@@ooo   ooo@@@@@@@@@@@@ooo   ooo@@@@@@@@@@@@@@@OOOXXX            ######%%%%%%%%%%%%&&&   ",
"@@@@@@@@@ooo   ooo@@@@@@@@@@@@ooo   ooo@@@@@@@@@@@@@@@OOOXXX            ######%%%%%%%%%%%%&&&   ",
"@@@@@@@@@@@@   @@@@@@@@@@@@@@@@@@   @@@@@@@@@@@@@@@@@@@@@ooo            ######%%%%%%%%%%%%***   ",
"@@@@@@@@@@@@   @@@@@@@@@@@@@@@@@@   @@@@@@@@@@@@@@@@@@@@@ooo            ######%%%%%%%%%%%%***   ",
"@@@@@@@@@@@@   @@@@@@@@@@@@@@@@@@   @@@@@@@@@@@@@@@@@@@@@ooo            ######%%%%%%%%%%%%***   ",
"@@@@@@@@@ooo   ooo@@@@@@@@@@@@ooo   ooo@@@@@@@@@@@@@@@OOOXXX            ######%%%%%%%%%%%%&&&   ",
"@@@@@@@@@ooo   ooo@@@@@@@@@@@@ooo   ooo@@@@@@@@@@@@@@@OOOXXX            ######%%%%%%%%%%%%&&&   ",
"@@@@@@@@@ooo   ooo@@@@@@@@@@@@ooo   ooo@@@@@@@@@@@@@@@OOOXXX            ######%%%%%%%%%%%%&&&   ",
"                                                                        ######%%%%%%%%%%%%%%%   ",
"                                                                        ######%%%%%%%%%%%%%%%   ",
"                                                                        ######%%%%%%%%%%%%%%%   ",
"   ooo@@@@@@@@@@@@@@@ooo   ooo@@@@@@@@@@@@@@@ooo   @@@oooooooooXXX      ######%%%%%%%%%%%%&&&   ",
"   ooo@@@@@@@@@@@@@@@ooo   ooo@@@@@@@@@@@@@@@ooo   @@@oooooooooXXX      ######%%%%%%%%%%%%&&&   ",
"   ooo@@@@@@@@@@@@@@@ooo   ooo@@@@@@@@@@@@@@@ooo   @@@oooooooooXXX      ######%%%%%%%%%%%%&&&   ",
"   OOO@@@@@@@@@@@@@@@OOO   OOO@@@@@@@@@@@@@@@OOO   OOOoooooooooooo      ######%%%%%%%%%%%%%%%   ",
"   OOO@@@@@@@@@@@@@@@OOO   OOO@@@@@@@@@@@@@@@OOO   OOOoooooooooooo      ######%%%%%%%%%%%%%%%   ",
"   OOO@@@@@@@@@@@@@@@OOO   OOO@@@@@@@@@@@@@@@OOO   OOOoooooooooooo      ######%%%%%%%%%%%%%%%   ",
"   XXXoooooooooooooooXXX   XXXoooooooooooooooXXX   XXXoooooooooXXX      ######$$$%%%%%%%%%%%%   ",
"   XXXoooooooooooooooXXX   XXXoooooooooooooooXXX   XXXoooooooooXXX      ######$$$%%%%%%%%%%%%   ",
"   XXXoooooooooooooooXXX   XXXoooooooooooooooXXX   XXXoooooooooXXX      ######$$$%%%%%%%%%%%%   ",
"                                                                        #########$$$%%%%%%$$$   ",
"                                                                        #########$$$%%%%%%$$$   ",
"                                                                        #########$$$%%%%%%$$$   ",
"oooooooooXXX                        XXXooooooooooooooooooXXX            +++##################   ",
"oooooooooXXX                        XXXooooooooooooooooooXXX            +++##################   ",
"oooooooooXXX                        XXXooooooooooooooooooXXX            +++##################   ",
"                                                                                                ",
"                                                                                                ",
"                                                                                                ",
"                                                                     +++##################+++   ",
"                                                                     +++##################+++   ",
"                                                                     +++##################+++   ",
"######+++   +++################################################+++   ########################   ",
"######+++   +++################################################+++   ########################   ",
"######+++   +++################################################+++   ########################   ",
"#########   ######################################################   ###$$$%%%%%%%%%%%%$$$###   ",
"#########   ######################################################   ###$$$%%%%%%%%%%%%$$$###   ",
"#########   ######################################################   ###$$$%%%%%%%%%%%%$$$###   ",
"$$$######   ######$$$%%%%%%%%%%%%%%%%%%%%%%%%%%%%%%%%%%%%$$$######   $$$%%%%%%%%%%%%%%%%%%$$$   ",
"$$$######   ######$$$%%%%%%%%%%%%%%%%%%%%%%%%%%%%%%%%%%%%$$$######   $$$%%%%%%%%%%%%%%%%%%$$$   ",
"$$$######   ######$$$%%%%%%%%%%%%%%%%%%%%%%%%%%%%%%%%%%%%$$$######   $$$%%%%%%%%%%%%%%%%%%$$$   ",
"%%%$$$###   ###$$$%%%%%%%%%%%%%%%%%%%%%%%%%%%%%%%%%%%%%%%%%%$$$###   %%%%%%%%%%%%%%%%%%%%%%%%   ",
"%%%$$$###   ###$$$%%%%%%%%%%%%%%%%%%%%%%%%%%%%%%%%%%%%%%%%%%$$$###   %%%%%%%%%%%%%%%%%%%%%%%%   ",
"%%%$$$###   ###$$$%%%%%%%%%%%%%%%%%%%%%%%%%%%%%%%%%%%%%%%%%%$$$###   %%%%%%%%%%%%%%%%%%%%%%%%   ",
"%%%%%%###   ###%%%%%%%%%%%%%%%%%%%%%%%%%%%%%%%%%%%%%%%%%%%%%%%%###   %%%%%%%%%%%%%%%%%%%%%%%%   ",
"%%%%%%###   ###%%%%%%%%%%%%%%%%%%%%%%%%%%%%%%%%%%%%%%%%%%%%%%%%###   %%%%%%%%%%%%%%%%%%%%%%%%   ",
"%%%%%%###   ###%%%%%%%%%%%%%%%%%%%%%%%%%%%%%%%%%%%%%%%%%%%%%%%%###   %%%%%%%%%%%%%%%%%%%%%%%%   ",
"%%%%%%###   ###%%%%%%%%%%%%%%%%%%%%%%%%%%%%%%%%%%%%%%%%%%%%%%%%###   %%%%%%%%%%%%%%%%%%%%%%%%   ",
"%%%%%%###   ###%%%%%%%%%%%%%%%%%%%%%%%%%%%%%%%%%%%%%%%%%%%%%%%%###   %%%%%%%%%%%%%%%%%%%%%%%%   ",
"%%%%%%###   ###%%%%%%%%%%%%%%%%%%%%%%%%%%%%%%%%%%%%%%%%%%%%%%%%###   %%%%%%%%%%%%%%%%%%%%%%%%   ",
"%%%$$$###   ###$$$%%%%%%&&&%%%&&&***&&&%%%&&&&&&***&&&%%%%%%$$$###   $$$%%%&&&&&&***&&&%%%$$$   ",
"%%%$$$###   ###$$$%%%%%%&&&%%%&&&***&&&%%%&&&&&&***&&&%%%%%%$$$###   $$$%%%&&&&&&***&&&%%%$$$   ",
"%%%$$$###   ###$$$%%%%%%&&&%%%&&&***&&&%%%&&&&&&***&&&%%%%%%$$$###   $$$%%%&&&&&&***&&&%%%$$$   ",
"                                                                                             ...",
"                                                                                             ...",
"                                                                                             ..."
};
