/* XPM */
static char *result[] = {
/* columns rows colors chars-per-pixel */
"96 96 12 1 ",
"  c #3F3851",
". c #89365C",
"X c #9E3B57",
"o c #AE444E",
"O c #BF5753",
"+ c #D25654",
"@ c #CD7363",
"# c #E27F6D",
"$ c #EDA27F",
"% c #FBCA97",
"& c #FFEAB7",
"* c #FFFAD6",
/* pixels */
"                                                                                                ",
"                                                                                                ",
"                                                                                                ",
"   &&&***&&&%%%%%%###+++      ...oooooooooOOOooo   ooo@@@@@@@@@@@@ooo                           ",
"   &&&***&&&%%%%%%###+++      ...oooooooooOOOooo   ooo@@@@@@@@@@@@ooo                           ",
"   &&&***&&&%%%%%%###+++      ...oooooooooOOOooo   ooo@@@@@@@@@@@@ooo                           ",
"   %%%%%%%%%%%%%%%######      oooooooooooo@@@@@@   @@@@@@@@@@@@@@@@@@                           ",
"   %%%%%%%%%%%%%%%######      oooooooooooo@@@@@@   @@@@@@@@@@@@@@@@@@                           ",
"   %%%%%%%%%%%%%%%######      oooooooooooo@@@@@@   @@@@@@@@@@@@@@@@@@                           ",
"   %%%%%%%%%%%%%%%######      ...oooooooooOOOooo   ooo@@@@@@@@@@@@ooo                           ",
"   %%%%%%%%%%%%%%%######      ...oooooooooOOOooo   ooo@@@@@@@@@@@@ooo                           ",
"   %%%%%%%%%%%%%%%######      ...oooooooooOOOooo   ooo@@@@@@@@@@@@ooo                           ",
"   %%%%%%%%%%%%$$$######                                                                        ",
"   %%%%%%%%%%%%$$$######                                                                        ",
"   %%%%%%%%%%%%$$$######                                                                        ",
"   %%%%%%%%%$$$#########            ...OOO@@@@@@@@@@@@@@@ooo                                    ",
"   %%%%%%%%%$$$#########            ...OOO@@@@@@@@@@@@@@@ooo                                    ",
"   %%%%%%%%%$$$#########            ...OOO@@@@@@@@@@@@@@@ooo                                    ",
"   #####################            ooo@@@@@@@@@@@@@@@@@@@@@                                    ",
"   #####################            ooo@@@@@@@@@@@@@@@@@@@@@                                    ",
"   #####################            ooo@@@@@@@@@@@@@@@@@@@@@                                    ",
"   +++###############+++            ...OOO@@@@@@@@@@@@@@@ooo                                    ",
"   +++###############+++            ...OOO@@@@@@@@@@@@@@@ooo                                    ",
"   +++###############+++            ...OOO@@@@@@@@@@@@@@@ooo                                    ",
"                                                                                                ",
"                                                                                                ",
"                                                                                                ",
"                              ...ooooooooo@@@ooo                                                ",
"                              ...ooooooooo@@@ooo                                                ",
"                              ...ooooooooo@@@ooo                                                ",
"   ...XXXooooooooooooXXX...   oooooooooooo@@@@@@                                                ",
"   ...XXXooooooooooooXXX...   oooooooooooo@@@@@@                                                ",
"   ...XXXooooooooooooXXX...   oooooooooooo@@@@@@                                                ",
"   XXXooooooooooooooooooXXX   ...ooooooooo@@@ooo                                                ",
"   XXXooooooooooooooooooXXX   ...ooooooooo@@@ooo                                                ",
"   XXXooooooooooooooooooXXX   ...ooooooooo@@@ooo                                                ",
"                                                                                                ",
"                                                                                                ",
"                                                                                                ",
"@@@@@@@@@@@@ooo   ooo@@@@@@@@@@@@ooo   ooo@@@@@@@@@@@@@@@@@@ooo                                 ",
"@@@@@@@@@@@@ooo   ooo@@@@@@@@@@@@ooo   ooo@@@@@@@@@@@@@@@@@@ooo                                 ",
"@@@@@@@@@@@@ooo   ooo@@@@@@@@@@@@ooo   ooo@@@@@@@@@@@@@@@@@@ooo                                 ",
"@@@@@@@@@@@@@@@   @@@@@@@@@@@@@@@@@@   @@@@@@@@@@@@@@@@@@@@@@@@                                 ",
"@@@@@@@@@@@@@@@   @@@@@@@@@@@@@@@@@@   @@@@@@@@@@@@@@@@@@@@@@@@                                 ",
"@@@@@@@@@@@@@@@   @@@@@@@@@@@@@@@@@@   @@@@@@@@@@@@@@@@@@@@@@@@                                 ",
"@@@@@@@@@@@@ooo   ooo@@@@@@@@@@@@ooo   ooo@@@@@@@@@@@@@@@@@@ooo                                 ",
"@@@@@@@@@@@@ooo   ooo@@@@@@@@@@@@ooo   ooo@@@@@@@@@@@@@@@@@@ooo                                 ",
"@@@@@@@@@@@@ooo   ooo@@@@@@@@@@@@ooo   ooo@@@@@@@@@@@@@@@@@@ooo                                 ",
"                                                                                                ",
"                                                                                                ",
"                                                                                                ",
"   ooo@@@@@@@@@@@@@@@ooo   ooo@@@@@@@@@@@@@@@ooo   ooo@@@@@@@@@@@@@@@@@@ooo                     ",
"   ooo@@@@@@@@@@@@@@@ooo   ooo@@@@@@@@@@@@@@@ooo   ooo@@@@@@@@@@@@@@@@@@ooo                     ",
"   ooo@@@@@@@@@@@@@@@ooo   ooo@@@@@@@@@@@@@@@ooo   ooo@@@@@@@@@@@@@@@@@@ooo                     ",
"   @@@@@@@@@@@@@@@@@@@@@   @@@@@@@@@@@@@@@@@@@@@   @@@@@@@@@@@@@@@@@@@@@OOO   OOO@@@@@@@@@@@@OOO",
"   @@@@@@@@@@@@@@@@@@@@@   @@@@@@@@@@@@@@@@@@@@@   @@@@@@@@@@@@@@@@@@@@@OOO   OOO@@@@@@@@@@@@OOO",
"   @@@@@@@@@@@@@@@@@@@@@   @@@@@@@@@@@@@@@@@@@@@   @@@@@@@@@@@@@@@@@@@@@OOO   OOO@@@@@@@@@@@@OOO",
"   ooo@@@@@@@@@@@@@@@ooo   ooo@@@@@@@@@@@@@@@ooo   oooOOOooooooooooooooo...   ...oooooooooooo...",
"   ooo@@@@@@@@@@@@@@@ooo   ooo@@@@@@@@@@@@@@@ooo   oooOOOooooooooooooooo...   ...oooooooooooo...",
"   ooo@@@@@@@@@@@@@@@ooo   ooo@@@@@@@@@@@@@@@ooo   oooOOOooooooooooooooo...   ...oooooooooooo...",
"                                                                                                ",
"                                                                                                ",
"                                                                                                ",
"ooooooooo...                        ...OOO@@@@@@@@@@@@OOO...      ...ooooooooo...      ...oooooo",
"ooooooooo...                        ...OOO@@@@@@@@@@@@OOO...      ...ooooooooo...      ...oooooo",
"ooooooooo...                        ...OOO@@@@@@@@@@@@OOO...      ...ooooooooo...      ...oooooo",
"                                    ooo@@@@@@@@@@@@@@@@@@ooo                                    ",
"                                    ooo@@@@@@@@@@@@@@@@@@ooo                                    ",
"                                    ooo@@@@@@@@@@@@@@@@@@ooo                                    ",
"                                    ...OOO@@@@@@@@@@@@OOO...                                    ",
"                                    ...OOO@@@@@@@@@@@@OOO...                                    ",
"                                    ...OOO@@@@@@@@@@@@OOO...                                    ",
"   +++###############+++                                                +++###############+++   ",
"   +++###############+++                                                +++###############+++   ",
"   +++###############+++                                                +++###############+++   ",
"   #####################      ...oooooooooOOOooo   OOOooooooooo...      #####################   ",
"   #####################      ...oooooooooOOOooo   OOOooooooooo...      #####################   ",
"   #####################      ...oooooooooOOOooo   OOOooooooooo...      #####################   ",
"   %%%%%%%%%$$$#########      oooooooooooo@@@@@@   @@@oooooooooooo      #########$$$%%%%%%%%%   ",
"   %%%%%%%%%$$$#########      oooooooooooo@@@@@@   @@@oooooooooooo      #########$$$%%%%%%%%%   ",
"   %%%%%%%%%$$$#########      oooooooooooo@@@@@@   @@@oooooooooooo      #########$$$%%%%%%%%%   ",
"   %%%%%%%%%%%%$$$######      ...oooooooooOOOooo   OOOooooooooo...      ######$$$%%%%%%%%%%%%   ",
"   %%%%%%%%%%%%$$$######      ...oooooooooOOOooo   OOOooooooooo...      ######$$$%%%%%%%%%%%%   ",
"   %%%%%%%%%%%%$$$######      ...oooooooooOOOooo   OOOooooooooo...      ######$$$%%%%%%%%%%%%   ",
"   %%%%%%%%%%%%%%%######                                                ######%%%%%%%%%%%%%%%   ",
"   %%%%%%%%%%%%%%%######                                                ######%%%%%%%%%%%%%%%   ",
"   %%%%%%%%%%%%%%%######                                                ######%%%%%%%%%%%%%%%   ",
"   %%%%%%%%%%%%%%%######            ...OOO@@@@@@@@@@@@OOO...            ######%%%%%%%%%%%%%%%   ",
"   %%%%%%%%%%%%%%%######            ...OOO@@@@@@@@@@@@OOO...            ######%%%%%%%%%%%%%%%   ",
"   %%%%%%%%%%%%%%%######            ...OOO@@@@@@@@@@@@OOO...            ######%%%%%%%%%%%%%%%   ",
"   &&&***&&&%%%%%%###+++            ooo@@@@@@@@@@@@@@@@@@ooo            +++###%%%%%%&&&***&&&   ",
"   &&&***&&&%%%%%%###+++            ooo@@@@@@@@@@@@@@@@@@ooo            +++###%%%%%%&&&***&&&   ",
"   &&&***&&&%%%%%%###+++            ooo@@@@@@@@@@@@@@@@@@ooo            +++###%%%%%%&&&***&&&   ",
"                                    ...OOO@@@@@@@@@@@@OOO...                                    ",
"                                    ...OOO@@@@@@@@@@@@OOO...                                    ",
"                                    ...OOO@@@@@@@@@@@@OOO...                                    "
};
