/* XPM */
static char *result[] = {
/* columns rows colors chars-per-pixel */
"96 96 12 1 ",
"  c #3F3851",
". c #89365C",
"X c #9E3B57",
"o c #AE444E",
"O c #BF5753",
"+ c #D25654",
"@ c #CD7363",
"# c #E27F6D",
"$ c #EDA27F",
"% c #FBCA97",
"& c #FFEAB7",
"* c #FFFAD6",
/* pixels */
"                                                                                                ",
"                                                                                                ",
"                                                                                                ",
"   &&&***&&&%%%%%%###+++      ...ooooooOOO@@@ooo   OOOooooooooo...      +++###%%%%%%&&&***&&&   ",
"   &&&***&&&%%%%%%###+++      ...ooooooOOO@@@ooo   OOOooooooooo...      +++###%%%%%%&&&***&&&   ",
"   &&&***&&&%%%%%%###+++      ...ooooooOOO@@@ooo   OOOooooooooo...      +++###%%%%%%&&&***&&&   ",
"   %%%%%%%%%%%%%%%######      ooooooooo@@@@@@@@@   @@@oooooooooooo      ######%%%%%%%%%%%%%%%   ",
"   %%%%%%%%%%%%%%%######      ooooooooo@@@@@@@@@   @@@oooooooooooo      ######%%%%%%%%%%%%%%%   ",
"   %%%%%%%%%%%%%%%######      ooooooooo@@@@@@@@@   @@@oooooooooooo      ######%%%%%%%%%%%%%%%   ",
"   %%%%%%%%%%%%%%%######      ...ooooooOOO@@@ooo   OOOooooooooo...      ######%%%%%%%%%%%%%%%   ",
"   %%%%%%%%%%%%%%%######      ...ooooooOOO@@@ooo   OOOooooooooo...      ######%%%%%%%%%%%%%%%   ",
"   %%%%%%%%%%%%%%%######      ...ooooooOOO@@@ooo   OOOooooooooo...      ######%%%%%%%%%%%%%%%   ",
"   %%%%%%%%%%%%$$$######                                                ######$$$%%%%%%%%%%%%   ",
"   %%%%%%%%%%%%$$$######                                                ######$$$%%%%%%%%%%%%   ",
"   %%%%%%%%%%%%$$$######                                                ######$$$%%%%%%%%%%%%   ",
"   %%%%%%%%%$$$#########            ...OOO@@@@@@@@@@@@OOO...            #########$$$%%%%%%%%%   ",
"   %%%%%%%%%$$$#########            ...OOO@@@@@@@@@@@@OOO...            #########$$$%%%%%%%%%   ",
"   %%%%%%%%%$$$#########            ...OOO@@@@@@@@@@@@OOO...            #########$$$%%%%%%%%%   ",
"   #####################            ooo@@@@@@@@@@@@@@@@@@ooo            #####################   ",
"   #####################            ooo@@@@@@@@@@@@@@@@@@ooo            #####################   ",
"   #####################            ooo@@@@@@@@@@@@@@@@@@ooo            #####################   ",
"   +++###############+++            ...OOO@@@@@@@@@@@@OOO...            +++###############+++   ",
"   +++###############+++            ...OOO@@@@@@@@@@@@OOO...            +++###############+++   ",
"   +++###############+++            ...OOO@@@@@@@@@@@@OOO...            +++###############+++   ",
"                                                                                                ",
"                                                                                                ",
"                                                                                                ",
"                              ...ooooooOOO@@@ooo                                                ",
"                              ...ooooooOOO@@@ooo                                                ",
"                              ...ooooooOOO@@@ooo                                                ",
"   ...XXXooooooooooooXXX...   ooooooooo@@@@@@@@@                                                ",
"   ...XXXooooooooooooXXX...   ooooooooo@@@@@@@@@                                                ",
"   ...XXXooooooooooooXXX...   ooooooooo@@@@@@@@@                                                ",
"   XXXooooooooooooooooooXXX   ...ooooooOOO@@@ooo                              ...oooooooooooo...",
"   XXXooooooooooooooooooXXX   ...ooooooOOO@@@ooo                              ...oooooooooooo...",
"   XXXooooooooooooooooooXXX   ...ooooooOOO@@@ooo                              ...oooooooooooo...",
"                                                                                                ",
"                                                                                                ",
"                                                                                                ",
"@@@@@@@@@@@@ooo   ooo@@@@@@@@@@@@ooo   ooo@@@@@@@@@@@@@@@@@@ooo   ...oooooooooooo...   ...oooooo",
"@@@@@@@@@@@@ooo   ooo@@@@@@@@@@@@ooo   ooo@@@@@@@@@@@@@@@@@@ooo   ...oooooooooooo...   ...oooooo",
"@@@@@@@@@@@@ooo   ooo@@@@@@@@@@@@ooo   ooo@@@@@@@@@@@@@@@@@@ooo   ...oooooooooooo...   ...oooooo",
"@@@@@@@@@@@@@@@   @@@@@@@@@@@@@@@@@@   @@@@@@@@@@@@@@@@@@@@@@@@   OOO@@@@@@@@@@@@OOO   OOO@@@@@@",
"@@@@@@@@@@@@@@@   @@@@@@@@@@@@@@@@@@   @@@@@@@@@@@@@@@@@@@@@@@@   OOO@@@@@@@@@@@@OOO   OOO@@@@@@",
"@@@@@@@@@@@@@@@   @@@@@@@@@@@@@@@@@@   @@@@@@@@@@@@@@@@@@@@@@@@   OOO@@@@@@@@@@@@OOO   OOO@@@@@@",
"@@@@@@@@@@@@ooo   ooo@@@@@@@@@@@@ooo   ooo@@@@@@@@@@@@@@@@@@ooo   ooo@@@@@@@@@@@@ooo   ooo@@@@@@",
"@@@@@@@@@@@@ooo   ooo@@@@@@@@@@@@ooo   ooo@@@@@@@@@@@@@@@@@@ooo   ooo@@@@@@@@@@@@ooo   ooo@@@@@@",
"@@@@@@@@@@@@ooo   ooo@@@@@@@@@@@@ooo   ooo@@@@@@@@@@@@@@@@@@ooo   ooo@@@@@@@@@@@@ooo   ooo@@@@@@",
"                                                                                                ",
"                                                                                                ",
"                                                                                                ",
"   ooo@@@@@@@@@@@@@@@ooo   ooo@@@@@@@@@@@@@@@ooo   ooo@@@@@@@@@@@@@@@@@@ooo   ooo@@@@@@@@@@@@ooo",
"   ooo@@@@@@@@@@@@@@@ooo   ooo@@@@@@@@@@@@@@@ooo   ooo@@@@@@@@@@@@@@@@@@ooo   ooo@@@@@@@@@@@@ooo",
"   ooo@@@@@@@@@@@@@@@ooo   ooo@@@@@@@@@@@@@@@ooo   ooo@@@@@@@@@@@@@@@@@@ooo   ooo@@@@@@@@@@@@ooo",
"   OOO@@@@@@@@@@@@@@@OOO   OOO@@@@@@@@@@@@@@@@@@   @@@@@@@@@@@@@@@@@@@@@OOO   OOO@@@@@@@@@@@@OOO",
"   OOO@@@@@@@@@@@@@@@OOO   OOO@@@@@@@@@@@@@@@@@@   @@@@@@@@@@@@@@@@@@@@@OOO   OOO@@@@@@@@@@@@OOO",
"   OOO@@@@@@@@@@@@@@@OOO   OOO@@@@@@@@@@@@@@@@@@   @@@@@@@@@@@@@@@@@@@@@OOO   OOO@@@@@@@@@@@@OOO",
"   ...ooooooooooooooo...   ...oooooooooOOO@@@ooo   oooOOOooooooooooooooo...   ...oooooooooooo...",
"   ...ooooooooooooooo...   ...oooooooooOOO@@@ooo   oooOOOooooooooooooooo...   ...oooooooooooo...",
"   ...ooooooooooooooo...   ...oooooooooOOO@@@ooo   oooOOOooooooooooooooo...   ...oooooooooooo...",
"                                                                                                ",
"                                                                                                ",
"                                                                                                ",
"ooooooooo...                        ...OOO@@@@@@@@@@@@OOO...      ...ooooooooo...      ...oooooo",
"ooooooooo...                        ...OOO@@@@@@@@@@@@OOO...      ...ooooooooo...      ...oooooo",
"ooooooooo...                        ...OOO@@@@@@@@@@@@OOO...      ...ooooooooo...      ...oooooo",
"                                    ooo@@@@@@@@@@@@@@@@@@ooo                                    ",
"                                    ooo@@@@@@@@@@@@@@@@@@ooo                                    ",
"                                    ooo@@@@@@@@@@@@@@@@@@ooo                                    ",
"                                    ...OOO@@@@@@@@@@@@OOO...                                    ",
"                                    ...OOO@@@@@@@@@@@@OOO...                                    ",
"                                    ...OOO@@@@@@@@@@@@OOO...                                    ",
"   +++###############+++                                                +++###############+++   ",
"   +++###############+++                                                +++###############+++   ",
"   +++###############+++                                                +++###############+++   ",
"   #####################      ...oooooooooOOOooo   OOOooooooooo...      #####################   ",
"   #####################      ...oooooooooOOOooo   OOOooooooooo...      #####################   ",
"   #####################      ...oooooooooOOOooo   OOOooooooooo...      #####################   ",
"   %%%%%%%%%$$$#########      oooooooooooo@@@@@@   @@@oooooooooooo      #########$$$%%%%%%%%%   ",
"   %%%%%%%%%$$$#########      oooooooooooo@@@@@@   @@@oooooooooooo      #########$$$%%%%%%%%%   ",
"   %%%%%%%%%$$$#########      oooooooooooo@@@@@@   @@@oooooooooooo      #########$$$%%%%%%%%%   ",
"   %%%%%%%%%%%%$$$######      ...oooooooooOOOooo   OOOooooooooo...      ######$$$%%%%%%%%%%%%   ",
"   %%%%%%%%%%%%$$$######      ...oooooooooOOOooo   OOOooooooooo...      ######$$$%%%%%%%%%%%%   ",
"   %%%%%%%%%%%%$$$######      ...oooooooooOOOooo   OOOooooooooo...      ######$$$%%%%%%%%%%%%   ",
"   %%%%%%%%%%%%%%%######                                                ######%%%%%%%%%%%%%%%   ",
"   %%%%%%%%%%%%%%%######                                                ######%%%%%%%%%%%%%%%   ",
"   %%%%%%%%%%%%%%%######                                                ######%%%%%%%%%%%%%%%   ",
"   %%%%%%%%%%%%%%%######            ...OOO@@@@@@@@@@@@OOO...            ######%%%%%%%%%%%%%%%   ",
"   %%%%%%%%%%%%%%%######            ...OOO@@@@@@@@@@@@OOO...            ######%%%%%%%%%%%%%%%   ",
"   %%%%%%%%%%%%%%%######            ...OOO@@@@@@@@@@@@OOO...            ######%%%%%%%%%%%%%%%   ",
"   &&&***&&&%%%%%%###+++            ooo@@@@@@@@@@@@@@@@@@ooo            +++###%%%%%%&&&***&&&   ",
"   &&&***&&&%%%%%%###+++            ooo@@@@@@@@@@@@@@@@@@ooo            +++###%%%%%%&&&***&&&   ",
"   &&&***&&&%%%%%%###+++            ooo@@@@@@@@@@@@@@@@@@ooo            +++###%%%%%%&&&***&&&   ",
"                                    ...OOO@@@@@@@@@@@@OOO...                                    ",
"                                    ...OOO@@@@@@@@@@@@OOO...                                    ",
"                                    ...OOO@@@@@@@@@@@@OOO...                                    "
};
