/* XPM */
static char *result[] = {
/* columns rows colors chars-per-pixel */
"96 96 11 1 ",
"  c #3F3851",
". c #89365C",
"X c #AE444E",
"o c #BF5753",
"O c #D25654",
"+ c #CD7363",
"@ c #E27F6D",
"# c #EDA27F",
"$ c #FBCA97",
"% c #FFEAB7",
"& c #FFFAD6",
/* pixels */
"   %%%$$$$$$$$$$$$@@@@@@                                                                        ",
"   %%%$$$$$$$$$$$$@@@@@@                                                                        ",
"   %%%$$$$$$$$$$$$@@@@@@                                                                        ",
"   $$$$$$$$$$$$$$$@@@@@@      ...XXXXXXXXX+++XXX   oooXXXXXXXXX...      OOO@@@$$$$$$%%%&&&%%%   ",
"   $$$$$$$$$$$$$$$@@@@@@      ...XXXXXXXXX+++XXX   oooXXXXXXXXX...      OOO@@@$$$$$$%%%&&&%%%   ",
"   $$$$$$$$$$$$$$$@@@@@@      ...XXXXXXXXX+++XXX   oooXXXXXXXXX...      OOO@@@$$$$$$%%%&&&%%%   ",
"   $$$$$$$$$$$$###@@@@@@      XXXXXXXXXXXX++++++   +++XXXXXXXXXXXX      @@@@@@$$$$$$$$$$$$$$$   ",
"   $$$$$$$$$$$$###@@@@@@      XXXXXXXXXXXX++++++   +++XXXXXXXXXXXX      @@@@@@$$$$$$$$$$$$$$$   ",
"   $$$$$$$$$$$$###@@@@@@      XXXXXXXXXXXX++++++   +++XXXXXXXXXXXX      @@@@@@$$$$$$$$$$$$$$$   ",
"   ###$$$$$$###@@@@@@@@@      ...XXXXXXXXX+++XXX   oooXXXXXXXXX...      @@@@@@$$$$$$$$$$$$$$$   ",
"   ###$$$$$$###@@@@@@@@@      ...XXXXXXXXX+++XXX   oooXXXXXXXXX...      @@@@@@$$$$$$$$$$$$$$$   ",
"   ###$$$$$$###@@@@@@@@@      ...XXXXXXXXX+++XXX   oooXXXXXXXXX...      @@@@@@$$$$$$$$$$$$$$$   ",
"   @@@@@@@@@@@@@@@@@@OOO                                                @@@@@@###$$$$$$$$$$$$   ",
"   @@@@@@@@@@@@@@@@@@OOO                                                @@@@@@###$$$$$$$$$$$$   ",
"   @@@@@@@@@@@@@@@@@@OOO                                                @@@@@@###$$$$$$$$$$$$   ",
"                                    ...ooo++++++++++++ooo...            @@@@@@@@@###$$$$$$$$$   ",
"                                    ...ooo++++++++++++ooo...            @@@@@@@@@###$$$$$$$$$   ",
"                                    ...ooo++++++++++++ooo...            @@@@@@@@@###$$$$$$$$$   ",
"   @@@@@@@@@@@@@@@@@@OOO            XXX++++++++++++++++++XXX            @@@@@@@@@@@@@@@@@@@@@   ",
"   @@@@@@@@@@@@@@@@@@OOO            XXX++++++++++++++++++XXX            @@@@@@@@@@@@@@@@@@@@@   ",
"   @@@@@@@@@@@@@@@@@@OOO            XXX++++++++++++++++++XXX            @@@@@@@@@@@@@@@@@@@@@   ",
"   ###$$$$$$###@@@@@@@@@            ...ooo++++++++++++ooo...            OOO@@@@@@@@@@@@@@@OOO   ",
"   ###$$$$$$###@@@@@@@@@            ...ooo++++++++++++ooo...            OOO@@@@@@@@@@@@@@@OOO   ",
"   ###$$$$$$###@@@@@@@@@            ...ooo++++++++++++ooo...            OOO@@@@@@@@@@@@@@@OOO   ",
"   $$$$$$$$$$$$###@@@@@@                                                                        ",
"   $$$$$$$$$$$$###@@@@@@                                                                        ",
"   $$$$$$$$$$$$###@@@@@@                                                                        ",
"   $$$$$$$$$$$$$$$@@@@@@      ...XXXXXXXXX++++++XXX                                             ",
"   $$$$$$$$$$$$$$$@@@@@@      ...XXXXXXXXX++++++XXX                                             ",
"   $$$$$$$$$$$$$$$@@@@@@      ...XXXXXXXXX++++++XXX                                             ",
"   %%%$$$$$$$$$$$$@@@@@@      XXXXXXXXXXXX+++++++++                                             ",
"   %%%$$$$$$$$$$$$@@@@@@      XXXXXXXXXXXX+++++++++                                             ",
"   %%%$$$$$$$$$$$$@@@@@@      XXXXXXXXXXXX+++++++++                                             ",
"   &&&$$$$$$$$$$$$@@@@@@      ...XXXXXXXXX++++++XXX                           ...XXXXXXXXXXXX...",
"   &&&$$$$$$$$$$$$@@@@@@      ...XXXXXXXXX++++++XXX                           ...XXXXXXXXXXXX...",
"   &&&$$$$$$$$$$$$@@@@@@      ...XXXXXXXXX++++++XXX                           ...XXXXXXXXXXXX...",
"   %%%$$$$$$$$$$$$@@@@@@                                                                        ",
"   %%%$$$$$$$$$$$$@@@@@@                                                                        ",
"   %%%$$$$$$$$$$$$@@@@@@                                                                        ",
"   %%%$$$$$$$$$$$$@@@@@@            ...ooo++++++++++++++++++XXX   XXX++++++++++++XXX   XXX++++++",
"   %%%$$$$$$$$$$$$@@@@@@            ...ooo++++++++++++++++++XXX   XXX++++++++++++XXX   XXX++++++",
"   %%%$$$$$$$$$$$$@@@@@@            ...ooo++++++++++++++++++XXX   XXX++++++++++++XXX   XXX++++++",
"   $$$$$$$$$$$$$$$@@@@@@            XXX++++++++++++++++++++++++   ++++++++++++++++++   +++++++++",
"   $$$$$$$$$$$$$$$@@@@@@            XXX++++++++++++++++++++++++   ++++++++++++++++++   +++++++++",
"   $$$$$$$$$$$$$$$@@@@@@            XXX++++++++++++++++++++++++   ++++++++++++++++++   +++++++++",
"   $$$$$$$$$$$$###@@@@@@            ...ooo++++++++++++++++++XXX   XXX++++++++++++XXX   XXX++++++",
"   $$$$$$$$$$$$###@@@@@@            ...ooo++++++++++++++++++XXX   XXX++++++++++++XXX   XXX++++++",
"   $$$$$$$$$$$$###@@@@@@            ...ooo++++++++++++++++++XXX   XXX++++++++++++XXX   XXX++++++",
"   ###$$$$$$###@@@@@@@@@                                                                        ",
"   ###$$$$$$###@@@@@@@@@                                                                        ",
"   ###$$$$$$###@@@@@@@@@                                                                        ",
"   @@@@@@@@@@@@@@@@@@OOO      ...XXXXXXXXX++++++XXX   XXX+++++++++++++++XXX   XXX++++++++++++XXX",
"   @@@@@@@@@@@@@@@@@@OOO      ...XXXXXXXXX++++++XXX   XXX+++++++++++++++XXX   XXX++++++++++++XXX",
"   @@@@@@@@@@@@@@@@@@OOO      ...XXXXXXXXX++++++XXX   XXX+++++++++++++++XXX   XXX++++++++++++XXX",
"                              XXXXXXXXXXXX+++++++++   +++++++++++++++++++++   ++++++++++++++++++",
"                              XXXXXXXXXXXX+++++++++   +++++++++++++++++++++   ++++++++++++++++++",
"                              XXXXXXXXXXXX+++++++++   +++++++++++++++++++++   ++++++++++++++++++",
"   @@@@@@@@@@@@@@@@@@OOO      ...XXXXXXXXX++++++XXX   XXX+++++++++++++++XXX   XXX++++++++++++XXX",
"   @@@@@@@@@@@@@@@@@@OOO      ...XXXXXXXXX++++++XXX   XXX+++++++++++++++XXX   XXX++++++++++++XXX",
"   @@@@@@@@@@@@@@@@@@OOO      ...XXXXXXXXX++++++XXX   XXX+++++++++++++++XXX   XXX++++++++++++XXX",
"   ###$$$$$$###@@@@@@@@@                                                                        ",
"   ###$$$$$$###@@@@@@@@@                                                                        ",
"   ###$$$$$$###@@@@@@@@@                                                                        ",
"   $$$$$$$$$$$$###@@@@@@            ...ooo++++++++++++ooo...      ...XXXXXXXXX...      ...XXXXXX",
"   $$$$$$$$$$$$###@@@@@@            ...ooo++++++++++++ooo...      ...XXXXXXXXX...      ...XXXXXX",
"   $$$$$$$$$$$$###@@@@@@            ...ooo++++++++++++ooo...      ...XXXXXXXXX...      ...XXXXXX",
"   %%%$$$$$$$$$$$$@@@@@@            XXX++++++++++++++++++XXX                                    ",
"   %%%$$$$$$$$$$$$@@@@@@            XXX++++++++++++++++++XXX                                    ",
"   %%%$$$$$$$$$$$$@@@@@@            XXX++++++++++++++++++XXX                                    ",
"   %%%$$$$$$$$$$$$@@@@@@            ...ooo++++++++++++ooo...                                    ",
"   %%%$$$$$$$$$$$$@@@@@@            ...ooo++++++++++++ooo...                                    ",
"   %%%$$$$$$$$$$$$@@@@@@            ...ooo++++++++++++ooo...                                    ",
"   $$$$$$$$$$$$$$$@@@@@@                                                OOO@@@@@@@@@@@@@@@OOO   ",
"   $$$$$$$$$$$$$$$@@@@@@                                                OOO@@@@@@@@@@@@@@@OOO   ",
"   $$$$$$$$$$$$$$$@@@@@@                                                OOO@@@@@@@@@@@@@@@OOO   ",
"   %%%$$$$$$$$$$$$@@@@@@      ...XXXXXXXXX+++XXX   oooXXXXXXXXX...      @@@@@@@@@@@@@@@@@@@@@   ",
"   %%%$$$$$$$$$$$$@@@@@@      ...XXXXXXXXX+++XXX   oooXXXXXXXXX...      @@@@@@@@@@@@@@@@@@@@@   ",
"   %%%$$$$$$$$$$$$@@@@@@      ...XXXXXXXXX+++XXX   oooXXXXXXXXX...      @@@@@@@@@@@@@@@@@@@@@   ",
"   &&&$$$$$$$$$$$$@@@@@@      XXXXXXXXXXXX++++++   +++XXXXXXXXXXXX      @@@@@@@@@###$$$$$$$$$   ",
"   &&&$$$$$$$$$$$$@@@@@@      XXXXXXXXXXXX++++++   +++XXXXXXXXXXXX      @@@@@@@@@###$$$$$$$$$   ",
"   &&&$$$$$$$$$$$$@@@@@@      XXXXXXXXXXXX++++++   +++XXXXXXXXXXXX      @@@@@@@@@###$$$$$$$$$   ",
"   %%%$$$$$$$$$$$$@@@@@@      ...XXXXXXXXX+++XXX   oooXXXXXXXXX...      @@@@@@###$$$$$$$$$$$$   ",
"   %%%$$$$$$$$$$$$@@@@@@      ...XXXXXXXXX+++XXX   oooXXXXXXXXX...      @@@@@@###$$$$$$$$$$$$   ",
"   %%%$$$$$$$$$$$$@@@@@@      ...XXXXXXXXX+++XXX   oooXXXXXXXXX...      @@@@@@###$$$$$$$$$$$$   ",
"   &&&$$$$$$$$$$$$@@@@@@                                                @@@@@@$$$$$$$$$$$$$$$   ",
"   &&&$$$$$$$$$$$$@@@@@@                                                @@@@@@$$$$$$$$$$$$$$$   ",
"   &&&$$$$$$$$$$$$@@@@@@                                                @@@@@@$$$$$$$$$$$$$$$   ",
"   &&&$$$$$$$$$$$$@@@@@@            ...ooo++++++++++++ooo...            @@@@@@$$$$$$$$$$$$$$$   ",
"   &&&$$$$$$$$$$$$@@@@@@            ...ooo++++++++++++ooo...            @@@@@@$$$$$$$$$$$$$$$   ",
"   &&&$$$$$$$$$$$$@@@@@@            ...ooo++++++++++++ooo...            @@@@@@$$$$$$$$$$$$$$$   ",
"   %%%$$$$$$$$$$$$@@@@@@            XXX++++++++++++++++++XXX            OOO@@@$$$$$$%%%&&&%%%   ",
"   %%%$$$$$$$$$$$$@@@@@@            XXX++++++++++++++++++XXX            OOO@@@$$$$$$%%%&&&%%%   ",
"   %%%$$$$$$$$$$$$@@@@@@            XXX++++++++++++++++++XXX            OOO@@@$$$$$$%%%&&&%%%   ",
"   $$$$$$$$$$$$$$$@@@@@@            ...ooo++++++++++++ooo...                                    ",
"   $$$$$$$$$$$$$$$@@@@@@            ...ooo++++++++++++ooo...                                    ",
"   $$$$$$$$$$$$$$$@@@@@@            ...ooo++++++++++++ooo...                                    "
};
