/* XPM */
static char *result[] = {
/* columns rows colors chars-per-pixel */
"96 96 11 1 ",
"  c #3F3851",
". c #89365C",
"X c #AE444E",
"o c #BF5753",
"O c #D25654",
"+ c #CD7363",
"@ c #E27F6D",
"# c #EDA27F",
"$ c #FBCA97",
"% c #FFEAB7",
"& c #FFFAD6",
/* pixels */
"   %%%$$$$$$$$$$$$@@@@@@                                                                        ",
"   %%%$$$$$$$$$$$$@@@@@@                                                                        ",
"   %%%$$$$$$$$$$$$@@@@@@                                                                        ",
"   $$$$$$$$$$$$$$$@@@@@@      ...XXXXXXXXXoooXXX   XXX+++++++++++++++XXX                        ",
"   $$$$$$$$$$$$$$$@@@@@@      ...XXXXXXXXXoooXXX   XXX+++++++++++++++XXX                        ",
"   $$$$$$$$$$$$$$$@@@@@@      ...XXXXXXXXXoooXXX   XXX+++++++++++++++XXX                        ",
"   $$$$$$$$$$$$###@@@@@@      XXXXXXXXXXXX++++++   +++++++++++++++++++++                        ",
"   $$$$$$$$$$$$###@@@@@@      XXXXXXXXXXXX++++++   +++++++++++++++++++++                        ",
"   $$$$$$$$$$$$###@@@@@@      XXXXXXXXXXXX++++++   +++++++++++++++++++++                        ",
"   ###$$$$$$###@@@@@@@@@      ...XXXXXXXXXoooXXX   XXX+++++++++++++++XXX                        ",
"   ###$$$$$$###@@@@@@@@@      ...XXXXXXXXXoooXXX   XXX+++++++++++++++XXX                        ",
"   ###$$$$$$###@@@@@@@@@      ...XXXXXXXXXoooXXX   XXX+++++++++++++++XXX                        ",
"   @@@@@@@@@@@@@@@@@@OOO                                                                        ",
"   @@@@@@@@@@@@@@@@@@OOO                                                                        ",
"   @@@@@@@@@@@@@@@@@@OOO                                                                        ",
"                                    ...ooo+++++++++++++++XXX                                    ",
"                                    ...ooo+++++++++++++++XXX                                    ",
"                                    ...ooo+++++++++++++++XXX                                    ",
"   @@@@@@@@@@@@@@@@@@OOO            XXX+++++++++++++++++++++                                    ",
"   @@@@@@@@@@@@@@@@@@OOO            XXX+++++++++++++++++++++                                    ",
"   @@@@@@@@@@@@@@@@@@OOO            XXX+++++++++++++++++++++                                    ",
"   ###$$$$$$###@@@@@@@@@            ...ooo+++++++++++++++XXX                                    ",
"   ###$$$$$$###@@@@@@@@@            ...ooo+++++++++++++++XXX                                    ",
"   ###$$$$$$###@@@@@@@@@            ...ooo+++++++++++++++XXX                                    ",
"   $$$$$$$$$$$$###@@@@@@                                                                        ",
"   $$$$$$$$$$$$###@@@@@@                                                                        ",
"   $$$$$$$$$$$$###@@@@@@                                                                        ",
"   $$$$$$$$$$$$$$$@@@@@@      ...XXXXXXXXXoooXXX   XXX+++++++++++++++XXX                        ",
"   $$$$$$$$$$$$$$$@@@@@@      ...XXXXXXXXXoooXXX   XXX+++++++++++++++XXX                        ",
"   $$$$$$$$$$$$$$$@@@@@@      ...XXXXXXXXXoooXXX   XXX+++++++++++++++XXX                        ",
"   %%%$$$$$$$$$$$$@@@@@@      XXXXXXXXXXXX++++++   +++++++++++++++++++++                        ",
"   %%%$$$$$$$$$$$$@@@@@@      XXXXXXXXXXXX++++++   +++++++++++++++++++++                        ",
"   %%%$$$$$$$$$$$$@@@@@@      XXXXXXXXXXXX++++++   +++++++++++++++++++++                        ",
"   &&&$$$$$$$$$$$$@@@@@@      ...XXXXXXXXXoooXXX   XXX+++++++++++++++XXX                        ",
"   &&&$$$$$$$$$$$$@@@@@@      ...XXXXXXXXXoooXXX   XXX+++++++++++++++XXX                        ",
"   &&&$$$$$$$$$$$$@@@@@@      ...XXXXXXXXXoooXXX   XXX+++++++++++++++XXX                        ",
"   %%%$$$$$$$$$$$$@@@@@@                                                                        ",
"   %%%$$$$$$$$$$$$@@@@@@                                                                        ",
"   %%%$$$$$$$$$$$$@@@@@@                                                                        ",
"   %%%$$$$$$$$$$$$@@@@@@            ...ooo+++++++++++++++XXX                           XXX++++++",
"   %%%$$$$$$$$$$$$@@@@@@            ...ooo+++++++++++++++XXX                           XXX++++++",
"   %%%$$$$$$$$$$$$@@@@@@            ...ooo+++++++++++++++XXX                           XXX++++++",
"   $$$$$$$$$$$$$$$@@@@@@            XXX+++++++++++++++++++++                           +++++++++",
"   $$$$$$$$$$$$$$$@@@@@@            XXX+++++++++++++++++++++                           +++++++++",
"   $$$$$$$$$$$$$$$@@@@@@            XXX+++++++++++++++++++++                           +++++++++",
"   $$$$$$$$$$$$###@@@@@@            ...ooo+++++++++++++++XXX                           XXX++++++",
"   $$$$$$$$$$$$###@@@@@@            ...ooo+++++++++++++++XXX                           XXX++++++",
"   $$$$$$$$$$$$###@@@@@@            ...ooo+++++++++++++++XXX                           XXX++++++",
"   ###$$$$$$###@@@@@@@@@                                                                        ",
"   ###$$$$$$###@@@@@@@@@                                                                        ",
"   ###$$$$$$###@@@@@@@@@                                                                        ",
"   @@@@@@@@@@@@@@@@@@OOO      ...XXXXXXXXXoooXXX   XXX++++++++++++++++++XXX                     ",
"   @@@@@@@@@@@@@@@@@@OOO      ...XXXXXXXXXoooXXX   XXX++++++++++++++++++XXX                     ",
"   @@@@@@@@@@@@@@@@@@OOO      ...XXXXXXXXXoooXXX   XXX++++++++++++++++++XXX                     ",
"                              XXXXXXXXXXXX++++++   +++++++++++++++++++++ooo   ooo++++++++++++ooo",
"                              XXXXXXXXXXXX++++++   +++++++++++++++++++++ooo   ooo++++++++++++ooo",
"                              XXXXXXXXXXXX++++++   +++++++++++++++++++++ooo   ooo++++++++++++ooo",
"   @@@@@@@@@@@@@@@@@@OOO      ...XXXXXXXXXoooXXX   XXXoooXXXXXXXXXXXXXXX...   ...XXXXXXXXXXXX...",
"   @@@@@@@@@@@@@@@@@@OOO      ...XXXXXXXXXoooXXX   XXXoooXXXXXXXXXXXXXXX...   ...XXXXXXXXXXXX...",
"   @@@@@@@@@@@@@@@@@@OOO      ...XXXXXXXXXoooXXX   XXXoooXXXXXXXXXXXXXXX...   ...XXXXXXXXXXXX...",
"   ###$$$$$$###@@@@@@@@@                                                                        ",
"   ###$$$$$$###@@@@@@@@@                                                                        ",
"   ###$$$$$$###@@@@@@@@@                                                                        ",
"   $$$$$$$$$$$$###@@@@@@            ...ooo++++++++++++ooo...      ...XXXXXXXXX...      ...XXXXXX",
"   $$$$$$$$$$$$###@@@@@@            ...ooo++++++++++++ooo...      ...XXXXXXXXX...      ...XXXXXX",
"   $$$$$$$$$$$$###@@@@@@            ...ooo++++++++++++ooo...      ...XXXXXXXXX...      ...XXXXXX",
"   %%%$$$$$$$$$$$$@@@@@@            XXX++++++++++++++++++XXX                                    ",
"   %%%$$$$$$$$$$$$@@@@@@            XXX++++++++++++++++++XXX                                    ",
"   %%%$$$$$$$$$$$$@@@@@@            XXX++++++++++++++++++XXX                                    ",
"   %%%$$$$$$$$$$$$@@@@@@            ...ooo++++++++++++ooo...                                    ",
"   %%%$$$$$$$$$$$$@@@@@@            ...ooo++++++++++++ooo...                                    ",
"   %%%$$$$$$$$$$$$@@@@@@            ...ooo++++++++++++ooo...                                    ",
"   $$$$$$$$$$$$$$$@@@@@@                                                OOO@@@@@@@@@@@@@@@OOO   ",
"   $$$$$$$$$$$$$$$@@@@@@                                                OOO@@@@@@@@@@@@@@@OOO   ",
"   $$$$$$$$$$$$$$$@@@@@@                                                OOO@@@@@@@@@@@@@@@OOO   ",
"   %%%$$$$$$$$$$$$@@@@@@      ...XXXXXXXXXoooXXX   XXXoooXXXXXX...      @@@@@@@@@@@@@@@@@@@@@   ",
"   %%%$$$$$$$$$$$$@@@@@@      ...XXXXXXXXXoooXXX   XXXoooXXXXXX...      @@@@@@@@@@@@@@@@@@@@@   ",
"   %%%$$$$$$$$$$$$@@@@@@      ...XXXXXXXXXoooXXX   XXXoooXXXXXX...      @@@@@@@@@@@@@@@@@@@@@   ",
"   &&&$$$$$$$$$$$$@@@@@@      XXXXXXXXXXXX++++++   ++++++XXXXXXXXX      @@@@@@@@@###$$$$$$$$$   ",
"   &&&$$$$$$$$$$$$@@@@@@      XXXXXXXXXXXX++++++   ++++++XXXXXXXXX      @@@@@@@@@###$$$$$$$$$   ",
"   &&&$$$$$$$$$$$$@@@@@@      XXXXXXXXXXXX++++++   ++++++XXXXXXXXX      @@@@@@@@@###$$$$$$$$$   ",
"   %%%$$$$$$$$$$$$@@@@@@      ...XXXXXXXXXoooXXX   XXXoooXXXXXX...      @@@@@@###$$$$$$$$$$$$   ",
"   %%%$$$$$$$$$$$$@@@@@@      ...XXXXXXXXXoooXXX   XXXoooXXXXXX...      @@@@@@###$$$$$$$$$$$$   ",
"   %%%$$$$$$$$$$$$@@@@@@      ...XXXXXXXXXoooXXX   XXXoooXXXXXX...      @@@@@@###$$$$$$$$$$$$   ",
"   &&&$$$$$$$$$$$$@@@@@@                                                @@@@@@$$$$$$$$$$$$$$$   ",
"   &&&$$$$$$$$$$$$@@@@@@                                                @@@@@@$$$$$$$$$$$$$$$   ",
"   &&&$$$$$$$$$$$$@@@@@@                                                @@@@@@$$$$$$$$$$$$$$$   ",
"   &&&$$$$$$$$$$$$@@@@@@            ...ooo++++++++++++ooo...            @@@@@@$$$$$$$$$$$$$$$   ",
"   &&&$$$$$$$$$$$$@@@@@@            ...ooo++++++++++++ooo...            @@@@@@$$$$$$$$$$$$$$$   ",
"   &&&$$$$$$$$$$$$@@@@@@            ...ooo++++++++++++ooo...            @@@@@@$$$$$$$$$$$$$$$   ",
"   %%%$$$$$$$$$$$$@@@@@@            XXX++++++++++++++++++XXX            OOO@@@$$$$$$%%%&&&%%%   ",
"   %%%$$$$$$$$$$$$@@@@@@            XXX++++++++++++++++++XXX            OOO@@@$$$$$$%%%&&&%%%   ",
"   %%%$$$$$$$$$$$$@@@@@@            XXX++++++++++++++++++XXX            OOO@@@$$$$$$%%%&&&%%%   ",
"   $$$$$$$$$$$$$$$@@@@@@            ...ooo++++++++++++ooo...                                    ",
"   $$$$$$$$$$$$$$$@@@@@@            ...ooo++++++++++++ooo...                                    ",
"   $$$$$$$$$$$$$$$@@@@@@            ...ooo++++++++++++ooo...                                    "
};
