/* XPM */
static char *result[] = {
/* columns rows colors chars-per-pixel */
"96 96 11 1 ",
"  c #3F3851",
". c #89365C",
"X c #9E3B57",
"o c #AE444E",
"O c #D25654",
"+ c #CD7363",
"@ c #E27F6D",
"# c #EDA27F",
"$ c #FBCA97",
"% c #FFEAB7",
"& c #FFFAD6",
/* pixels */
"                                                                                                ",
"                                                                                                ",
"                                                                                                ",
"%%%&&&%%%$$$$$$%%%&&&&&&%%%$$$$$$###@@@   @@@###$$$$$$%%%%%%&&&%%%$$$$$$###@@@   @@@###$$$$$$%%%",
"%%%&&&%%%$$$$$$%%%&&&&&&%%%$$$$$$###@@@   @@@###$$$$$$%%%%%%&&&%%%$$$$$$###@@@   @@@###$$$$$$%%%",
"%%%&&&%%%$$$$$$%%%&&&&&&%%%$$$$$$###@@@   @@@###$$$$$$%%%%%%&&&%%%$$$$$$###@@@   @@@###$$$$$$%%%",
"$$$$$$$$$$$$$$$$$$$$$$$$$$$$$$$$$$$$@@@   @@@$$$$$$$$$$$$$$$$$$$$$$$$$$$$$$@@@   @@@$$$$$$$$$$$$",
"$$$$$$$$$$$$$$$$$$$$$$$$$$$$$$$$$$$$@@@   @@@$$$$$$$$$$$$$$$$$$$$$$$$$$$$$$@@@   @@@$$$$$$$$$$$$",
"$$$$$$$$$$$$$$$$$$$$$$$$$$$$$$$$$$$$@@@   @@@$$$$$$$$$$$$$$$$$$$$$$$$$$$$$$@@@   @@@$$$$$$$$$$$$",
"$$$$$$$$$$$$$$$$$$$$$$$$$$$$$$$$$$$$@@@   @@@$$$$$$$$$$$$$$$$$$$$$$$$$$$$$$@@@   @@@$$$$$$$$$$$$",
"$$$$$$$$$$$$$$$$$$$$$$$$$$$$$$$$$$$$@@@   @@@$$$$$$$$$$$$$$$$$$$$$$$$$$$$$$@@@   @@@$$$$$$$$$$$$",
"$$$$$$$$$$$$$$$$$$$$$$$$$$$$$$$$$$$$@@@   @@@$$$$$$$$$$$$$$$$$$$$$$$$$$$$$$@@@   @@@$$$$$$$$$$$$",
"$$$$$$$$$$$$$$$$$$$$$$$$$$$$$$$$$###@@@   @@@###$$$$$$$$$$$$$$$$$$$$$$$$###@@@   @@@###$$$$$$$$$",
"$$$$$$$$$$$$$$$$$$$$$$$$$$$$$$$$$###@@@   @@@###$$$$$$$$$$$$$$$$$$$$$$$$###@@@   @@@###$$$$$$$$$",
"$$$$$$$$$$$$$$$$$$$$$$$$$$$$$$$$$###@@@   @@@###$$$$$$$$$$$$$$$$$$$$$$$$###@@@   @@@###$$$$$$$$$",
"$$$$$$$$$$$$$$$$$$$$$$$$$$$$$$###@@@@@@   @@@@@@###$$$$$$$$$$$$$$$$$$###@@@@@@   @@@@@@###$$$$$$",
"$$$$$$$$$$$$$$$$$$$$$$$$$$$$$$###@@@@@@   @@@@@@###$$$$$$$$$$$$$$$$$$###@@@@@@   @@@@@@###$$$$$$",
"$$$$$$$$$$$$$$$$$$$$$$$$$$$$$$###@@@@@@   @@@@@@###$$$$$$$$$$$$$$$$$$###@@@@@@   @@@@@@###$$$$$$",
"@@@@@@@@@@@@@@@@@@@@@@@@@@@@@@@@@@@@@@@   @@@@@@@@@@@@@@@@@@@@@@@@@@@@@@@@@@@@   @@@@@@@@@@@@@@@",
"@@@@@@@@@@@@@@@@@@@@@@@@@@@@@@@@@@@@@@@   @@@@@@@@@@@@@@@@@@@@@@@@@@@@@@@@@@@@   @@@@@@@@@@@@@@@",
"@@@@@@@@@@@@@@@@@@@@@@@@@@@@@@@@@@@@@@@   @@@@@@@@@@@@@@@@@@@@@@@@@@@@@@@@@@@@   @@@@@@@@@@@@@@@",
"@@@@@@@@@@@@@@@@@@@@@@@@@@@@@@@@@@@@OOO   OOO@@@@@@@@@@@@@@@@@@@@@@@@@@@@@@OOO   OOO@@@@@@@@@@@@",
"@@@@@@@@@@@@@@@@@@@@@@@@@@@@@@@@@@@@OOO   OOO@@@@@@@@@@@@@@@@@@@@@@@@@@@@@@OOO   OOO@@@@@@@@@@@@",
"@@@@@@@@@@@@@@@@@@@@@@@@@@@@@@@@@@@@OOO   OOO@@@@@@@@@@@@@@@@@@@@@@@@@@@@@@OOO   OOO@@@@@@@@@@@@",
"                                                                                                ",
"                                                                                                ",
"                                                                                                ",
"                                                                                                ",
"                                                                                                ",
"                                                                                                ",
"   ...XXXoooooooooXXX...                           ...XXXoooooooooXXX...   ...XXXoooooooooXXX...",
"   ...XXXoooooooooXXX...                           ...XXXoooooooooXXX...   ...XXXoooooooooXXX...",
"   ...XXXoooooooooXXX...                           ...XXXoooooooooXXX...   ...XXXoooooooooXXX...",
"   XXXoooooooooooooooXXX   ...ooooooooooooooo...   XXXoooooooooooooooXXX   XXXoooooooooooooooXXX",
"   XXXoooooooooooooooXXX   ...ooooooooooooooo...   XXXoooooooooooooooXXX   XXXoooooooooooooooXXX",
"   XXXoooooooooooooooXXX   ...ooooooooooooooo...   XXXoooooooooooooooXXX   XXXoooooooooooooooXXX",
"                                                                                                ",
"                                                                                                ",
"                                                                                                ",
"+++++++++ooo   ooo++++++++++++ooo   ooo++++++++++++++++++ooo   ooo++++++++++++ooo   ooo+++++++++",
"+++++++++ooo   ooo++++++++++++ooo   ooo++++++++++++++++++ooo   ooo++++++++++++ooo   ooo+++++++++",
"+++++++++ooo   ooo++++++++++++ooo   ooo++++++++++++++++++ooo   ooo++++++++++++ooo   ooo+++++++++",
"++++++++++++   ++++++++++++++++++   ++++++++++++++++++++++++   ++++++++++++++++++   ++++++++++++",
"++++++++++++   ++++++++++++++++++   ++++++++++++++++++++++++   ++++++++++++++++++   ++++++++++++",
"++++++++++++   ++++++++++++++++++   ++++++++++++++++++++++++   ++++++++++++++++++   ++++++++++++",
"+++++++++ooo   ooo++++++++++++ooo   ooo++++++++++++++++++ooo   ooo++++++++++++ooo   ooo+++++++++",
"+++++++++ooo   ooo++++++++++++ooo   ooo++++++++++++++++++ooo   ooo++++++++++++ooo   ooo+++++++++",
"+++++++++ooo   ooo++++++++++++ooo   ooo++++++++++++++++++ooo   ooo++++++++++++ooo   ooo+++++++++",
"                                                                                                ",
"                                                                                                ",
"                                                                                                ",
"   ooo+++++++++++++++ooo   ooo+++++++++++++++ooo   ooo+++++++++++++++ooo   ooo+++++++++++++++ooo",
"   ooo+++++++++++++++ooo   ooo+++++++++++++++ooo   ooo+++++++++++++++ooo   ooo+++++++++++++++ooo",
"   ooo+++++++++++++++ooo   ooo+++++++++++++++ooo   ooo+++++++++++++++ooo   ooo+++++++++++++++ooo",
"   +++++++++++++++++++++   +++++++++++++++++++++   +++++++++++++++++++++   +++++++++++++++++++++",
"   +++++++++++++++++++++   +++++++++++++++++++++   +++++++++++++++++++++   +++++++++++++++++++++",
"   +++++++++++++++++++++   +++++++++++++++++++++   +++++++++++++++++++++   +++++++++++++++++++++",
"   ooo+++++++++++++++ooo   ooo+++++++++++++++ooo   ooo+++++++++++++++ooo   ooo+++++++++++++++ooo",
"   ooo+++++++++++++++ooo   ooo+++++++++++++++ooo   ooo+++++++++++++++ooo   ooo+++++++++++++++ooo",
"   ooo+++++++++++++++ooo   ooo+++++++++++++++ooo   ooo+++++++++++++++ooo   ooo+++++++++++++++ooo",
"                                                                                                ",
"                                                                                                ",
"                                                                                                ",
"ooooooooo...   ...oooooooooooo...   ...oooooooooooooooooo...                        ...ooooooooo",
"ooooooooo...   ...oooooooooooo...   ...oooooooooooooooooo...                        ...ooooooooo",
"ooooooooo...   ...oooooooooooo...   ...oooooooooooooooooo...                        ...ooooooooo",
"                                                                                                ",
"                                                                                                ",
"                                                                                                ",
"                                                                                                ",
"                                                                                                ",
"                                                                                                ",
"@@@@@@@@@@@@OOO   OOO@@@@@@@@@@@@@@@@@@@@@@@@@@@@@@OOO   OOO@@@@@@@@@@@@@@@@@@@@@@@@@@@@@@@@@@@@",
"@@@@@@@@@@@@OOO   OOO@@@@@@@@@@@@@@@@@@@@@@@@@@@@@@OOO   OOO@@@@@@@@@@@@@@@@@@@@@@@@@@@@@@@@@@@@",
"@@@@@@@@@@@@OOO   OOO@@@@@@@@@@@@@@@@@@@@@@@@@@@@@@OOO   OOO@@@@@@@@@@@@@@@@@@@@@@@@@@@@@@@@@@@@",
"@@@@@@@@@@@@@@@   @@@@@@@@@@@@@@@@@@@@@@@@@@@@@@@@@@@@   @@@@@@@@@@@@@@@@@@@@@@@@@@@@@@@@@@@@@@@",
"@@@@@@@@@@@@@@@   @@@@@@@@@@@@@@@@@@@@@@@@@@@@@@@@@@@@   @@@@@@@@@@@@@@@@@@@@@@@@@@@@@@@@@@@@@@@",
"@@@@@@@@@@@@@@@   @@@@@@@@@@@@@@@@@@@@@@@@@@@@@@@@@@@@   @@@@@@@@@@@@@@@@@@@@@@@@@@@@@@@@@@@@@@@",
"$$$$$$###@@@@@@   @@@@@@###$$$$$$$$$$$$$$$$$$###@@@@@@   @@@@@@###$$$$$$$$$$$$$$$$$$$$$$$$$$$$$$",
"$$$$$$###@@@@@@   @@@@@@###$$$$$$$$$$$$$$$$$$###@@@@@@   @@@@@@###$$$$$$$$$$$$$$$$$$$$$$$$$$$$$$",
"$$$$$$###@@@@@@   @@@@@@###$$$$$$$$$$$$$$$$$$###@@@@@@   @@@@@@###$$$$$$$$$$$$$$$$$$$$$$$$$$$$$$",
"$$$$$$$$$###@@@   @@@###$$$$$$$$$$$$$$$$$$$$$$$$###@@@   @@@###$$$$$$$$$$$$$$$$$$$$$$$$$$$$$$$$$",
"$$$$$$$$$###@@@   @@@###$$$$$$$$$$$$$$$$$$$$$$$$###@@@   @@@###$$$$$$$$$$$$$$$$$$$$$$$$$$$$$$$$$",
"$$$$$$$$$###@@@   @@@###$$$$$$$$$$$$$$$$$$$$$$$$###@@@   @@@###$$$$$$$$$$$$$$$$$$$$$$$$$$$$$$$$$",
"$$$$$$$$$$$$@@@   @@@$$$$$$$$$$$$$$$$$$$$$$$$$$$$$$@@@   @@@$$$$$$$$$$$$$$$$$$$$$$$$$$$$$$$$$$$$",
"$$$$$$$$$$$$@@@   @@@$$$$$$$$$$$$$$$$$$$$$$$$$$$$$$@@@   @@@$$$$$$$$$$$$$$$$$$$$$$$$$$$$$$$$$$$$",
"$$$$$$$$$$$$@@@   @@@$$$$$$$$$$$$$$$$$$$$$$$$$$$$$$@@@   @@@$$$$$$$$$$$$$$$$$$$$$$$$$$$$$$$$$$$$",
"$$$$$$$$$$$$@@@   @@@$$$$$$$$$$$$$$$$$$$$$$$$$$$$$$@@@   @@@$$$$$$$$$$$$$$$$$$$$$$$$$$$$$$$$$$$$",
"$$$$$$$$$$$$@@@   @@@$$$$$$$$$$$$$$$$$$$$$$$$$$$$$$@@@   @@@$$$$$$$$$$$$$$$$$$$$$$$$$$$$$$$$$$$$",
"$$$$$$$$$$$$@@@   @@@$$$$$$$$$$$$$$$$$$$$$$$$$$$$$$@@@   @@@$$$$$$$$$$$$$$$$$$$$$$$$$$$$$$$$$$$$",
"%%%$$$$$$###@@@   @@@###$$$$$$%%%&&&%%%%%%$$$$$$###@@@   @@@###$$$$$$%%%&&&&&&%%%$$$$$$%%%&&&%%%",
"%%%$$$$$$###@@@   @@@###$$$$$$%%%&&&%%%%%%$$$$$$###@@@   @@@###$$$$$$%%%&&&&&&%%%$$$$$$%%%&&&%%%",
"%%%$$$$$$###@@@   @@@###$$$$$$%%%&&&%%%%%%$$$$$$###@@@   @@@###$$$$$$%%%&&&&&&%%%$$$$$$%%%&&&%%%",
"                                                                                                ",
"                                                                                                ",
"                                                                                                "
};
