/* XPM */
static char *result[] = {
/* columns rows colors chars-per-pixel */
"96 96 12 1 ",
"  c #3F3851",
". c #89365C",
"X c #9E3B57",
"o c #AE444E",
"O c #BF5753",
"+ c #D25654",
"@ c #CD7363",
"# c #E27F6D",
"$ c #EDA27F",
"% c #FBCA97",
"& c #FFEAB7",
"* c #FFFAD6",
/* pixels */
"                                                                        ######%%%%%%%%%%%%%%%   ",
"                                                                        ######%%%%%%%%%%%%%%%   ",
"                                                                        ######%%%%%%%%%%%%%%%   ",
"   &&&***&&&%%%%%%###+++      ...ooooooOOO@@@ooo   OOOooooooooo...      ######%%%%%%%%%%%%&&&   ",
"   &&&***&&&%%%%%%###+++      ...ooooooOOO@@@ooo   OOOooooooooo...      ######%%%%%%%%%%%%&&&   ",
"   &&&***&&&%%%%%%###+++      ...ooooooOOO@@@ooo   OOOooooooooo...      ######%%%%%%%%%%%%&&&   ",
"   %%%%%%%%%%%%%%%######      ooooooooo@@@@@@@@@   @@@oooooooooooo      ######%%%%%%%%%%%%***   ",
"   %%%%%%%%%%%%%%%######      ooooooooo@@@@@@@@@   @@@oooooooooooo      ######%%%%%%%%%%%%***   ",
"   %%%%%%%%%%%%%%%######      ooooooooo@@@@@@@@@   @@@oooooooooooo      ######%%%%%%%%%%%%***   ",
"   %%%%%%%%%%%%%%%######      ...ooooooOOO@@@ooo   OOOooooooooo...      ######%%%%%%%%%%%%***   ",
"   %%%%%%%%%%%%%%%######      ...ooooooOOO@@@ooo   OOOooooooooo...      ######%%%%%%%%%%%%***   ",
"   %%%%%%%%%%%%%%%######      ...ooooooOOO@@@ooo   OOOooooooooo...      ######%%%%%%%%%%%%***   ",
"   %%%%%%%%%%%%$$$######                                                ######%%%%%%%%%%%%&&&   ",
"   %%%%%%%%%%%%$$$######                                                ######%%%%%%%%%%%%&&&   ",
"   %%%%%%%%%%%%$$$######                                                ######%%%%%%%%%%%%&&&   ",
"   %%%%%%%%%$$$#########            ...OOO@@@@@@@@@@@@OOO...            ######%%%%%%%%%%%%***   ",
"   %%%%%%%%%$$$#########            ...OOO@@@@@@@@@@@@OOO...            ######%%%%%%%%%%%%***   ",
"   %%%%%%%%%$$$#########            ...OOO@@@@@@@@@@@@OOO...            ######%%%%%%%%%%%%***   ",
"   #####################            ooo@@@@@@@@@@@@@@@@@@ooo            ######%%%%%%%%%%%%&&&   ",
"   #####################            ooo@@@@@@@@@@@@@@@@@@ooo            ######%%%%%%%%%%%%&&&   ",
"   #####################            ooo@@@@@@@@@@@@@@@@@@ooo            ######%%%%%%%%%%%%&&&   ",
"   +++###############+++            ...OOO@@@@@@@@@@@@OOO...            ######%%%%%%%%%%%%%%%   ",
"   +++###############+++            ...OOO@@@@@@@@@@@@OOO...            ######%%%%%%%%%%%%%%%   ",
"   +++###############+++            ...OOO@@@@@@@@@@@@OOO...            ######%%%%%%%%%%%%%%%   ",
"                                                                        ######%%%%%%%%%%%%&&&   ",
"                                                                        ######%%%%%%%%%%%%&&&   ",
"                                                                        ######%%%%%%%%%%%%&&&   ",
"                              ...ooooooOOO@@@ooo   OOOooooooooo...      ######%%%%%%%%%%%%&&&   ",
"                              ...ooooooOOO@@@ooo   OOOooooooooo...      ######%%%%%%%%%%%%&&&   ",
"                              ...ooooooOOO@@@ooo   OOOooooooooo...      ######%%%%%%%%%%%%&&&   ",
"   ...XXXooooooooooooXXX...   ooooooooo@@@@@@@@@   @@@oooooooooooo      ######$$$%%%%%%%%%%%%   ",
"   ...XXXooooooooooooXXX...   ooooooooo@@@@@@@@@   @@@oooooooooooo      ######$$$%%%%%%%%%%%%   ",
"   ...XXXooooooooooooXXX...   ooooooooo@@@@@@@@@   @@@oooooooooooo      ######$$$%%%%%%%%%%%%   ",
"   XXXooooooooooooooooooXXX   ...ooooooOOO@@@ooo   OOOooooooooo...      #########$$$%%%%%%$$$   ",
"   XXXooooooooooooooooooXXX   ...ooooooOOO@@@ooo   OOOooooooooo...      #########$$$%%%%%%$$$   ",
"   XXXooooooooooooooooooXXX   ...ooooooOOO@@@ooo   OOOooooooooo...      #########$$$%%%%%%$$$   ",
"                                                                        +++##################   ",
"                                                                        +++##################   ",
"                                                                        +++##################   ",
"oooooooooooo...   ...oooooooooooo...   ooo@@@@@@@@@@@@OOO...                                    ",
"oooooooooooo...   ...oooooooooooo...   ooo@@@@@@@@@@@@OOO...                                    ",
"oooooooooooo...   ...oooooooooooo...   ooo@@@@@@@@@@@@OOO...                                    ",
"@@@@@@@@@@@@OOO   OOO@@@@@@@@@@@@OOO   @@@@@@@@@@@@@@@@@@ooo            +++##################   ",
"@@@@@@@@@@@@OOO   OOO@@@@@@@@@@@@OOO   @@@@@@@@@@@@@@@@@@ooo            +++##################   ",
"@@@@@@@@@@@@OOO   OOO@@@@@@@@@@@@OOO   @@@@@@@@@@@@@@@@@@ooo            +++##################   ",
"@@@@@@@@@@@@ooo   ooo@@@@@@@@@@@@ooo   ooo@@@@@@@@@@@@OOO...            #########$$$%%%%%%$$$   ",
"@@@@@@@@@@@@ooo   ooo@@@@@@@@@@@@ooo   ooo@@@@@@@@@@@@OOO...            #########$$$%%%%%%$$$   ",
"@@@@@@@@@@@@ooo   ooo@@@@@@@@@@@@ooo   ooo@@@@@@@@@@@@OOO...            #########$$$%%%%%%$$$   ",
"                                                                        ######$$$%%%%%%%%%%%%   ",
"                                                                        ######$$$%%%%%%%%%%%%   ",
"                                                                        ######$$$%%%%%%%%%%%%   ",
"                           ooo@@@@@@@@@@@@@@@ooo   OOOooooooooo...      ######%%%%%%%%%%%%%%%   ",
"                           ooo@@@@@@@@@@@@@@@ooo   OOOooooooooo...      ######%%%%%%%%%%%%%%%   ",
"                           ooo@@@@@@@@@@@@@@@ooo   OOOooooooooo...      ######%%%%%%%%%%%%%%%   ",
"                           @@@@@@@@@@@@@@@@@@@@@   @@@oooooooooooo      ######%%%%%%%%%%%%&&&   ",
"                           @@@@@@@@@@@@@@@@@@@@@   @@@oooooooooooo      ######%%%%%%%%%%%%&&&   ",
"                           @@@@@@@@@@@@@@@@@@@@@   @@@oooooooooooo      ######%%%%%%%%%%%%&&&   ",
"                           ooo@@@@@@@@@@@@@@@ooo   OOOooooooooo...      ######%%%%%%%%%%%%&&&   ",
"                           ooo@@@@@@@@@@@@@@@ooo   OOOooooooooo...      ######%%%%%%%%%%%%&&&   ",
"                           ooo@@@@@@@@@@@@@@@ooo   OOOooooooooo...      ######%%%%%%%%%%%%&&&   ",
"                                                                        ######%%%%%%%%%%%%***   ",
"                                                                        ######%%%%%%%%%%%%***   ",
"                                                                        ######%%%%%%%%%%%%***   ",
"@@@@@@ooo                           ooo@@@@@@@@@@@@@@@OOO...            ######%%%%%%%%%%%%&&&   ",
"@@@@@@ooo                           ooo@@@@@@@@@@@@@@@OOO...            ######%%%%%%%%%%%%&&&   ",
"@@@@@@ooo                           ooo@@@@@@@@@@@@@@@OOO...            ######%%%%%%%%%%%%&&&   ",
"@@@@@@@@@                           @@@@@@@@@@@@@@@@@@@@@ooo            ######%%%%%%%%%%%%%%%   ",
"@@@@@@@@@                           @@@@@@@@@@@@@@@@@@@@@ooo            ######%%%%%%%%%%%%%%%   ",
"@@@@@@@@@                           @@@@@@@@@@@@@@@@@@@@@ooo            ######%%%%%%%%%%%%%%%   ",
"@@@@@@ooo                           ooo@@@@@@@@@@@@@@@OOO...            ######$$$%%%%%%%%%%%%   ",
"@@@@@@ooo                           ooo@@@@@@@@@@@@@@@OOO...            ######$$$%%%%%%%%%%%%   ",
"@@@@@@ooo                           ooo@@@@@@@@@@@@@@@OOO...            ######$$$%%%%%%%%%%%%   ",
"                                                                        #########$$$%%%%%%$$$   ",
"                                                                        #########$$$%%%%%%$$$   ",
"                                                                        #########$$$%%%%%%$$$   ",
"                           ooo@@@@@@@@@@@@@@@ooo   OOOooooooooo...      +++##################   ",
"                           ooo@@@@@@@@@@@@@@@ooo   OOOooooooooo...      +++##################   ",
"                           ooo@@@@@@@@@@@@@@@ooo   OOOooooooooo...      +++##################   ",
"                           @@@@@@@@@@@@@@@@@@@@@   @@@oooooooooooo                              ",
"                           @@@@@@@@@@@@@@@@@@@@@   @@@oooooooooooo                              ",
"                           @@@@@@@@@@@@@@@@@@@@@   @@@oooooooooooo                              ",
"                           ooo@@@@@@@@@@@@@@@ooo   OOOooooooooo...      +++##################   ",
"                           ooo@@@@@@@@@@@@@@@ooo   OOOooooooooo...      +++##################   ",
"                           ooo@@@@@@@@@@@@@@@ooo   OOOooooooooo...      +++##################   ",
"                                                                        #########$$$%%%%%%$$$   ",
"                                                                        #########$$$%%%%%%$$$   ",
"                                                                        #########$$$%%%%%%$$$   ",
"                        OOO@@@ooo   ooo@@@@@@@@@@@@@@@OOO...            ######$$$%%%%%%%%%%%%   ",
"                        OOO@@@ooo   ooo@@@@@@@@@@@@@@@OOO...            ######$$$%%%%%%%%%%%%   ",
"                        OOO@@@ooo   ooo@@@@@@@@@@@@@@@OOO...            ######$$$%%%%%%%%%%%%   ",
"                        @@@@@@@@@   @@@@@@@@@@@@@@@@@@@@@ooo            ######%%%%%%%%%%%%%%%   ",
"                        @@@@@@@@@   @@@@@@@@@@@@@@@@@@@@@ooo            ######%%%%%%%%%%%%%%%   ",
"                        @@@@@@@@@   @@@@@@@@@@@@@@@@@@@@@ooo            ######%%%%%%%%%%%%%%%   ",
"                        ooo@@@OOO   ooo@@@@@@@@@@@@@@@OOO...            ######%%%%%%%%%%%%&&&   ",
"                        ooo@@@OOO   ooo@@@@@@@@@@@@@@@OOO...            ######%%%%%%%%%%%%&&&   ",
"                        ooo@@@OOO   ooo@@@@@@@@@@@@@@@OOO...            ######%%%%%%%%%%%%&&&   "
};
