/* XPM */
static char *result[] = {
/* columns rows colors chars-per-pixel */
"96 96 11 1 ",
"  c #3F3851",
". c #89365C",
"X c #AE444E",
"o c #BF5753",
"O c #D25654",
"+ c #CD7363",
"@ c #E27F6D",
"# c #EDA27F",
"$ c #FBCA97",
"% c #FFEAB7",
"& c #FFFAD6",
/* pixels */
"                                                                        @@@@@@$$$$$$$$$$$$$$$   ",
"                                                                        @@@@@@$$$$$$$$$$$$$$$   ",
"                                                                        @@@@@@$$$$$$$$$$$$$$$   ",
"                           XXX+++++++++++++++XXX   oooXXXXXXXXX...      @@@@@@$$$$$$$$$$$$%%%   ",
"                           XXX+++++++++++++++XXX   oooXXXXXXXXX...      @@@@@@$$$$$$$$$$$$%%%   ",
"                           XXX+++++++++++++++XXX   oooXXXXXXXXX...      @@@@@@$$$$$$$$$$$$%%%   ",
"                           +++++++++++++++++++++   +++XXXXXXXXXXXX      @@@@@@$$$$$$$$$$$$&&&   ",
"                           +++++++++++++++++++++   +++XXXXXXXXXXXX      @@@@@@$$$$$$$$$$$$&&&   ",
"                           +++++++++++++++++++++   +++XXXXXXXXXXXX      @@@@@@$$$$$$$$$$$$&&&   ",
"                           XXX+++++++++++++++XXX   oooXXXXXXXXX...      @@@@@@$$$$$$$$$$$$&&&   ",
"                           XXX+++++++++++++++XXX   oooXXXXXXXXX...      @@@@@@$$$$$$$$$$$$&&&   ",
"                           XXX+++++++++++++++XXX   oooXXXXXXXXX...      @@@@@@$$$$$$$$$$$$&&&   ",
"                                                                        @@@@@@$$$$$$$$$$$$%%%   ",
"                                                                        @@@@@@$$$$$$$$$$$$%%%   ",
"                                                                        @@@@@@$$$$$$$$$$$$%%%   ",
"                                    XXX+++++++++++++++ooo...            @@@@@@$$$$$$$$$$$$&&&   ",
"                                    XXX+++++++++++++++ooo...            @@@@@@$$$$$$$$$$$$&&&   ",
"                                    XXX+++++++++++++++ooo...            @@@@@@$$$$$$$$$$$$&&&   ",
"                                    +++++++++++++++++++++XXX            @@@@@@$$$$$$$$$$$$%%%   ",
"                                    +++++++++++++++++++++XXX            @@@@@@$$$$$$$$$$$$%%%   ",
"                                    +++++++++++++++++++++XXX            @@@@@@$$$$$$$$$$$$%%%   ",
"                                    XXX+++++++++++++++ooo...            @@@@@@$$$$$$$$$$$$$$$   ",
"                                    XXX+++++++++++++++ooo...            @@@@@@$$$$$$$$$$$$$$$   ",
"                                    XXX+++++++++++++++ooo...            @@@@@@$$$$$$$$$$$$$$$   ",
"                                                                        @@@@@@$$$$$$$$$$$$%%%   ",
"                                                                        @@@@@@$$$$$$$$$$$$%%%   ",
"                                                                        @@@@@@$$$$$$$$$$$$%%%   ",
"                                                   oooXXXXXXXXX...      @@@@@@$$$$$$$$$$$$%%%   ",
"                                                   oooXXXXXXXXX...      @@@@@@$$$$$$$$$$$$%%%   ",
"                                                   oooXXXXXXXXX...      @@@@@@$$$$$$$$$$$$%%%   ",
"                                                   +++XXXXXXXXXXXX      @@@@@@###$$$$$$$$$$$$   ",
"                                                   +++XXXXXXXXXXXX      @@@@@@###$$$$$$$$$$$$   ",
"                                                   +++XXXXXXXXXXXX      @@@@@@###$$$$$$$$$$$$   ",
"                                                   oooXXXXXXXXX...      @@@@@@@@@###$$$$$$###   ",
"                                                   oooXXXXXXXXX...      @@@@@@@@@###$$$$$$###   ",
"                                                   oooXXXXXXXXX...      @@@@@@@@@###$$$$$$###   ",
"                                                                        OOO@@@@@@@@@@@@@@@@@@   ",
"                                                                        OOO@@@@@@@@@@@@@@@@@@   ",
"                                                                        OOO@@@@@@@@@@@@@@@@@@   ",
"++++++XXX               ooo+++XXX   XXX+++++++++++++++ooo...                                    ",
"++++++XXX               ooo+++XXX   XXX+++++++++++++++ooo...                                    ",
"++++++XXX               ooo+++XXX   XXX+++++++++++++++ooo...                                    ",
"+++++++++               +++++++++   +++++++++++++++++++++XXX            OOO@@@@@@@@@@@@@@@@@@   ",
"+++++++++               +++++++++   +++++++++++++++++++++XXX            OOO@@@@@@@@@@@@@@@@@@   ",
"+++++++++               +++++++++   +++++++++++++++++++++XXX            OOO@@@@@@@@@@@@@@@@@@   ",
"++++++XXX               XXX+++ooo   XXX+++++++++++++++ooo...            @@@@@@@@@###$$$$$$###   ",
"++++++XXX               XXX+++ooo   XXX+++++++++++++++ooo...            @@@@@@@@@###$$$$$$###   ",
"++++++XXX               XXX+++ooo   XXX+++++++++++++++ooo...            @@@@@@@@@###$$$$$$###   ",
"                                                                        @@@@@@###$$$$$$$$$$$$   ",
"                                                                        @@@@@@###$$$$$$$$$$$$   ",
"                                                                        @@@@@@###$$$$$$$$$$$$   ",
"                           XXX+++++++++++++++XXX   oooXXXXXXXXX...      @@@@@@$$$$$$$$$$$$$$$   ",
"                           XXX+++++++++++++++XXX   oooXXXXXXXXX...      @@@@@@$$$$$$$$$$$$$$$   ",
"                           XXX+++++++++++++++XXX   oooXXXXXXXXX...      @@@@@@$$$$$$$$$$$$$$$   ",
"   ooo+++++++++++++++ooo   ooo++++++++++++++++++   +++XXXXXXXXXXXX      @@@@@@$$$$$$$$$$$$%%%   ",
"   ooo+++++++++++++++ooo   ooo++++++++++++++++++   +++XXXXXXXXXXXX      @@@@@@$$$$$$$$$$$$%%%   ",
"   ooo+++++++++++++++ooo   ooo++++++++++++++++++   +++XXXXXXXXXXXX      @@@@@@$$$$$$$$$$$$%%%   ",
"   ...XXXXXXXXXXXXXXX...   ...XXXXXXXXXooo+++XXX   oooXXXXXXXXX...      @@@@@@$$$$$$$$$$$$%%%   ",
"   ...XXXXXXXXXXXXXXX...   ...XXXXXXXXXooo+++XXX   oooXXXXXXXXX...      @@@@@@$$$$$$$$$$$$%%%   ",
"   ...XXXXXXXXXXXXXXX...   ...XXXXXXXXXooo+++XXX   oooXXXXXXXXX...      @@@@@@$$$$$$$$$$$$%%%   ",
"                                                                        @@@@@@$$$$$$$$$$$$&&&   ",
"                                                                        @@@@@@$$$$$$$$$$$$&&&   ",
"                                                                        @@@@@@$$$$$$$$$$$$&&&   ",
"XXXXXXXXX...                        ...ooo++++++++++++ooo...            @@@@@@$$$$$$$$$$$$%%%   ",
"XXXXXXXXX...                        ...ooo++++++++++++ooo...            @@@@@@$$$$$$$$$$$$%%%   ",
"XXXXXXXXX...                        ...ooo++++++++++++ooo...            @@@@@@$$$$$$$$$$$$%%%   ",
"                                    XXX++++++++++++++++++XXX            @@@@@@$$$$$$$$$$$$$$$   ",
"                                    XXX++++++++++++++++++XXX            @@@@@@$$$$$$$$$$$$$$$   ",
"                                    XXX++++++++++++++++++XXX            @@@@@@$$$$$$$$$$$$$$$   ",
"                                    ...ooo++++++++++++ooo...            @@@@@@###$$$$$$$$$$$$   ",
"                                    ...ooo++++++++++++ooo...            @@@@@@###$$$$$$$$$$$$   ",
"                                    ...ooo++++++++++++ooo...            @@@@@@###$$$$$$$$$$$$   ",
"   OOO@@@@@@@@@@@@@@@OOO                                                @@@@@@@@@###$$$$$$###   ",
"   OOO@@@@@@@@@@@@@@@OOO                                                @@@@@@@@@###$$$$$$###   ",
"   OOO@@@@@@@@@@@@@@@OOO                                                @@@@@@@@@###$$$$$$###   ",
"   @@@@@@@@@@@@@@@@@@@@@      ...XXXXXXooo+++XXX   oooXXXXXXXXX...      OOO@@@@@@@@@@@@@@@@@@   ",
"   @@@@@@@@@@@@@@@@@@@@@      ...XXXXXXooo+++XXX   oooXXXXXXXXX...      OOO@@@@@@@@@@@@@@@@@@   ",
"   @@@@@@@@@@@@@@@@@@@@@      ...XXXXXXooo+++XXX   oooXXXXXXXXX...      OOO@@@@@@@@@@@@@@@@@@   ",
"   $$$$$$$$$###@@@@@@@@@      XXXXXXXXX+++++++++   +++XXXXXXXXXXXX                              ",
"   $$$$$$$$$###@@@@@@@@@      XXXXXXXXX+++++++++   +++XXXXXXXXXXXX                              ",
"   $$$$$$$$$###@@@@@@@@@      XXXXXXXXX+++++++++   +++XXXXXXXXXXXX                              ",
"   $$$$$$$$$$$$###@@@@@@      ...XXXXXXooo+++XXX   oooXXXXXXXXX...      OOO@@@@@@@@@@@@@@@@@@   ",
"   $$$$$$$$$$$$###@@@@@@      ...XXXXXXooo+++XXX   oooXXXXXXXXX...      OOO@@@@@@@@@@@@@@@@@@   ",
"   $$$$$$$$$$$$###@@@@@@      ...XXXXXXooo+++XXX   oooXXXXXXXXX...      OOO@@@@@@@@@@@@@@@@@@   ",
"   $$$$$$$$$$$$$$$@@@@@@                                                @@@@@@@@@###$$$$$$###   ",
"   $$$$$$$$$$$$$$$@@@@@@                                                @@@@@@@@@###$$$$$$###   ",
"   $$$$$$$$$$$$$$$@@@@@@                                                @@@@@@@@@###$$$$$$###   ",
"   $$$$$$$$$$$$$$$@@@@@@            ...ooo++++++++++++ooo...            @@@@@@###$$$$$$$$$$$$   ",
"   $$$$$$$$$$$$$$$@@@@@@            ...ooo++++++++++++ooo...            @@@@@@###$$$$$$$$$$$$   ",
"   $$$$$$$$$$$$$$$@@@@@@            ...ooo++++++++++++ooo...            @@@@@@###$$$$$$$$$$$$   ",
"   %%%&&&%%%$$$$$$@@@OOO            XXX++++++++++++++++++XXX            @@@@@@$$$$$$$$$$$$$$$   ",
"   %%%&&&%%%$$$$$$@@@OOO            XXX++++++++++++++++++XXX            @@@@@@$$$$$$$$$$$$$$$   ",
"   %%%&&&%%%$$$$$$@@@OOO            XXX++++++++++++++++++XXX            @@@@@@$$$$$$$$$$$$$$$   ",
"                                    ...ooo++++++++++++ooo...            @@@@@@$$$$$$$$$$$$%%%   ",
"                                    ...ooo++++++++++++ooo...            @@@@@@$$$$$$$$$$$$%%%   ",
"                                    ...ooo++++++++++++ooo...            @@@@@@$$$$$$$$$$$$%%%   "
};
