/* XPM */
static char *result[] = {
/* columns rows colors chars-per-pixel */
"96 96 12 1 ",
"  c #3F3851",
". c #89365C",
"X c #9E3B57",
"o c #AE444E",
"O c #BF5753",
"+ c #D25654",
"@ c #CD7363",
"# c #E27F6D",
"$ c #EDA27F",
"% c #FBCA97",
"& c #FFEAB7",
"* c #FFFAD6",
/* pixels */
"                                                                                                ",
"                                                                                                ",
"                                                                                                ",
"   &&&***&&&%%%%%%###+++      ...ooooooOOO@@@ooo   oooOOOoooooo...      +++###%%%%%%&&&***&&&   ",
"   &&&***&&&%%%%%%###+++      ...ooooooOOO@@@ooo   oooOOOoooooo...      +++###%%%%%%&&&***&&&   ",
"   &&&***&&&%%%%%%###+++      ...ooooooOOO@@@ooo   oooOOOoooooo...      +++###%%%%%%&&&***&&&   ",
"   %%%%%%%%%%%%%%%######      ooooooooo@@@@@@@@@   @@@@@@ooooooooo      ######%%%%%%%%%%%%%%%   ",
"   %%%%%%%%%%%%%%%######      ooooooooo@@@@@@@@@   @@@@@@ooooooooo      ######%%%%%%%%%%%%%%%   ",
"   %%%%%%%%%%%%%%%######      ooooooooo@@@@@@@@@   @@@@@@ooooooooo      ######%%%%%%%%%%%%%%%   ",
"   %%%%%%%%%%%%%%%######      ...ooooooOOO@@@ooo   oooOOOoooooo...      ######%%%%%%%%%%%%%%%   ",
"   %%%%%%%%%%%%%%%######      ...ooooooOOO@@@ooo   oooOOOoooooo...      ######%%%%%%%%%%%%%%%   ",
"   %%%%%%%%%%%%%%%######      ...ooooooOOO@@@ooo   oooOOOoooooo...      ######%%%%%%%%%%%%%%%   ",
"   %%%%%%%%%%%%$$$######                                                ######$$$%%%%%%%%%%%%   ",
"   %%%%%%%%%%%%$$$######                                                ######$$$%%%%%%%%%%%%   ",
"   %%%%%%%%%%%%$$$######                                                ######$$$%%%%%%%%%%%%   ",
"   %%%%%%%%%$$$#########            ...OOO@@@@@@@@@@@@OOO...            #########$$$%%%%%%%%%   ",
"   %%%%%%%%%$$$#########            ...OOO@@@@@@@@@@@@OOO...            #########$$$%%%%%%%%%   ",
"   %%%%%%%%%$$$#########            ...OOO@@@@@@@@@@@@OOO...            #########$$$%%%%%%%%%   ",
"   #####################            ooo@@@@@@@@@@@@@@@@@@ooo            #####################   ",
"   #####################            ooo@@@@@@@@@@@@@@@@@@ooo            #####################   ",
"   #####################            ooo@@@@@@@@@@@@@@@@@@ooo            #####################   ",
"   +++###############+++            ...OOO@@@@@@@@@@@@OOO...            +++###############+++   ",
"   +++###############+++            ...OOO@@@@@@@@@@@@OOO...            +++###############+++   ",
"   +++###############+++            ...OOO@@@@@@@@@@@@OOO...            +++###############+++   ",
"                                                                                                ",
"                                                                                                ",
"                                                                                                ",
"                              ...ooooooOOO@@@ooo                                                ",
"                              ...ooooooOOO@@@ooo                                                ",
"                              ...ooooooOOO@@@ooo                                                ",
"   ...XXXooooooooooooXXX...   ooooooooo@@@@@@@@@                                                ",
"   ...XXXooooooooooooXXX...   ooooooooo@@@@@@@@@                                                ",
"   ...XXXooooooooooooXXX...   ooooooooo@@@@@@@@@                                                ",
"   XXXooooooooooooooooooXXX   ...ooooooOOO@@@ooo                              ...oooooooooooo...",
"   XXXooooooooooooooooooXXX   ...ooooooOOO@@@ooo                              ...oooooooooooo...",
"   XXXooooooooooooooooooXXX   ...ooooooOOO@@@ooo                              ...oooooooooooo...",
"                                                                                                ",
"                                                                                                ",
"                                                                                                ",
"oooooooooooo...   ...oooooooooooo...   ooo@@@@@@@@@@@@@@@@@@ooo   ...oooooooooooo...   ...oooooo",
"oooooooooooo...   ...oooooooooooo...   ooo@@@@@@@@@@@@@@@@@@ooo   ...oooooooooooo...   ...oooooo",
"oooooooooooo...   ...oooooooooooo...   ooo@@@@@@@@@@@@@@@@@@ooo   ...oooooooooooo...   ...oooooo",
"@@@@@@@@@@@@OOO   OOO@@@@@@@@@@@@OOO   @@@@@@@@@@@@@@@@@@@@@@@@   OOO@@@@@@@@@@@@OOO   OOO@@@@@@",
"@@@@@@@@@@@@OOO   OOO@@@@@@@@@@@@OOO   @@@@@@@@@@@@@@@@@@@@@@@@   OOO@@@@@@@@@@@@OOO   OOO@@@@@@",
"@@@@@@@@@@@@OOO   OOO@@@@@@@@@@@@OOO   @@@@@@@@@@@@@@@@@@@@@@@@   OOO@@@@@@@@@@@@OOO   OOO@@@@@@",
"@@@@@@@@@@@@ooo   ooo@@@@@@@@@@@@ooo   ooo@@@@@@@@@@@@@@@@@@ooo   ooo@@@@@@@@@@@@ooo   ooo@@@@@@",
"@@@@@@@@@@@@ooo   ooo@@@@@@@@@@@@ooo   ooo@@@@@@@@@@@@@@@@@@ooo   ooo@@@@@@@@@@@@ooo   ooo@@@@@@",
"@@@@@@@@@@@@ooo   ooo@@@@@@@@@@@@ooo   ooo@@@@@@@@@@@@@@@@@@ooo   ooo@@@@@@@@@@@@ooo   ooo@@@@@@",
"                                                                                                ",
"                                                                                                ",
"                                                                                                ",
"   ooo@@@@@@@@@@@@@@@@@@ooo   ooo@@@@@@@@@@@@@@@ooo   ooo@@@@@@@@@@@@@@@ooo   ooo@@@@@@@@@@@@@@@",
"   ooo@@@@@@@@@@@@@@@@@@ooo   ooo@@@@@@@@@@@@@@@ooo   ooo@@@@@@@@@@@@@@@ooo   ooo@@@@@@@@@@@@@@@",
"   ooo@@@@@@@@@@@@@@@@@@ooo   ooo@@@@@@@@@@@@@@@ooo   ooo@@@@@@@@@@@@@@@ooo   ooo@@@@@@@@@@@@@@@",
"   @@@@@@@@@@@@@@@@@@@@@@@@   @@@@@@@@@@@@@@@@@@@@@   @@@@@@@@@@@@@@@@@@@@@   @@@@@@@@@@@@@@@@@@",
"   @@@@@@@@@@@@@@@@@@@@@@@@   @@@@@@@@@@@@@@@@@@@@@   @@@@@@@@@@@@@@@@@@@@@   @@@@@@@@@@@@@@@@@@",
"   @@@@@@@@@@@@@@@@@@@@@@@@   @@@@@@@@@@@@@@@@@@@@@   @@@@@@@@@@@@@@@@@@@@@   @@@@@@@@@@@@@@@@@@",
"   ooo@@@@@@@@@@@@@@@@@@ooo   ooo@@@@@@@@@@@@@@@ooo   ooo@@@@@@@@@@@@@@@ooo   ooo@@@@@@@@@@@@@@@",
"   ooo@@@@@@@@@@@@@@@@@@ooo   ooo@@@@@@@@@@@@@@@ooo   ooo@@@@@@@@@@@@@@@ooo   ooo@@@@@@@@@@@@@@@",
"   ooo@@@@@@@@@@@@@@@@@@ooo   ooo@@@@@@@@@@@@@@@ooo   ooo@@@@@@@@@@@@@@@ooo   ooo@@@@@@@@@@@@@@@",
"                                                                                                ",
"                                                                                                ",
"                                                                                                ",
"@@@@@@@@@@@@ooo                        OOO@@@@@@@@@@@@OOO                              ooo@@@@@@",
"@@@@@@@@@@@@ooo                        OOO@@@@@@@@@@@@OOO                              ooo@@@@@@",
"@@@@@@@@@@@@ooo                        OOO@@@@@@@@@@@@OOO                              ooo@@@@@@",
"@@@@@@@@@@@@@@@                        oooOOO@@@@@@OOOooo                              @@@@@@@@@",
"@@@@@@@@@@@@@@@                        oooOOO@@@@@@OOOooo                              @@@@@@@@@",
"@@@@@@@@@@@@@@@                        oooOOO@@@@@@OOOooo                              @@@@@@@@@",
"@@@@@@@@@@@@ooo                                                                        ooo@@@@@@",
"@@@@@@@@@@@@ooo                                                                        ooo@@@@@@",
"@@@@@@@@@@@@ooo                                                                        ooo@@@@@@",
"                                                                                                ",
"                                                                                                ",
"                                                                                                ",
"                                                                                                ",
"                                                                                                ",
"                                                                                                ",
"                                                                                                ",
"                                                                                                ",
"                                                                                                ",
"                                                                                                ",
"                                                                                                ",
"                                                                                                ",
"                                                                                                ",
"                                                                                                ",
"                                                                                                ",
"                                                                                                ",
"                                                                                                ",
"                                                                                                ",
"                                                                                                ",
"                                                                                                ",
"                                                                                                ",
"                                                                                                ",
"                                                                                                ",
"                                                                                                "
};
