/* XPM */
static char *result[] = {
/* columns rows colors chars-per-pixel */
"96 96 11 1 ",
"  c #3F3851",
". c #89365C",
"X c #AE444E",
"o c #BF5753",
"O c #D25654",
"+ c #CD7363",
"@ c #E27F6D",
"# c #EDA27F",
"$ c #FBCA97",
"% c #FFEAB7",
"& c #FFFAD6",
/* pixels */
"   %%%$$$$$$$$$$$$@@@@@@                                                                        ",
"   %%%$$$$$$$$$$$$@@@@@@                                                                        ",
"   %%%$$$$$$$$$$$$@@@@@@                                                                        ",
"   $$$$$$$$$$$$$$$@@@@@@      ...XXXXXXXXXoooXXX   XXXoooXXXXXX...      OOO@@@$$$$$$%%%&&&%%%   ",
"   $$$$$$$$$$$$$$$@@@@@@      ...XXXXXXXXXoooXXX   XXXoooXXXXXX...      OOO@@@$$$$$$%%%&&&%%%   ",
"   $$$$$$$$$$$$$$$@@@@@@      ...XXXXXXXXXoooXXX   XXXoooXXXXXX...      OOO@@@$$$$$$%%%&&&%%%   ",
"   $$$$$$$$$$$$###@@@@@@      XXXXXXXXXXXX++++++   ++++++XXXXXXXXX      @@@@@@$$$$$$$$$$$$$$$   ",
"   $$$$$$$$$$$$###@@@@@@      XXXXXXXXXXXX++++++   ++++++XXXXXXXXX      @@@@@@$$$$$$$$$$$$$$$   ",
"   $$$$$$$$$$$$###@@@@@@      XXXXXXXXXXXX++++++   ++++++XXXXXXXXX      @@@@@@$$$$$$$$$$$$$$$   ",
"   ###$$$$$$###@@@@@@@@@      ...XXXXXXXXXoooXXX   XXXoooXXXXXX...      @@@@@@$$$$$$$$$$$$$$$   ",
"   ###$$$$$$###@@@@@@@@@      ...XXXXXXXXXoooXXX   XXXoooXXXXXX...      @@@@@@$$$$$$$$$$$$$$$   ",
"   ###$$$$$$###@@@@@@@@@      ...XXXXXXXXXoooXXX   XXXoooXXXXXX...      @@@@@@$$$$$$$$$$$$$$$   ",
"   +++@@@@@@@@@@@@@@@OOO                                                @@@@@@###$$$$$$$$$$$$   ",
"   +++@@@@@@@@@@@@@@@OOO                                                @@@@@@###$$$$$$$$$$$$   ",
"   +++@@@@@@@@@@@@@@@OOO                                                @@@@@@###$$$$$$$$$$$$   ",
"                                    ...ooo++++++++++++ooo...            @@@@@@@@@###$$$$$$$$$   ",
"                                    ...ooo++++++++++++ooo...            @@@@@@@@@###$$$$$$$$$   ",
"                                    ...ooo++++++++++++ooo...            @@@@@@@@@###$$$$$$$$$   ",
"   +++@@@@@@@@@@@@@@@OOO            XXX++++++++++++++++++XXX            @@@@@@@@@@@@@@@@@@@@@   ",
"   +++@@@@@@@@@@@@@@@OOO            XXX++++++++++++++++++XXX            @@@@@@@@@@@@@@@@@@@@@   ",
"   +++@@@@@@@@@@@@@@@OOO            XXX++++++++++++++++++XXX            @@@@@@@@@@@@@@@@@@@@@   ",
"   ###$$$$$$###@@@@@@@@@            ...ooo++++++++++++ooo...            OOO@@@@@@@@@@@@@@@OOO   ",
"   ###$$$$$$###@@@@@@@@@            ...ooo++++++++++++ooo...            OOO@@@@@@@@@@@@@@@OOO   ",
"   ###$$$$$$###@@@@@@@@@            ...ooo++++++++++++ooo...            OOO@@@@@@@@@@@@@@@OOO   ",
"   $$$$$$$$$$$$###@@@@@@                                                                        ",
"   $$$$$$$$$$$$###@@@@@@                                                                        ",
"   $$$$$$$$$$$$###@@@@@@                                                                        ",
"   $$$$$$$$$$$$$$$@@@@@@      ...XXXXXXXXXoooXXXXXX                                             ",
"   $$$$$$$$$$$$$$$@@@@@@      ...XXXXXXXXXoooXXXXXX                                             ",
"   $$$$$$$$$$$$$$$@@@@@@      ...XXXXXXXXXoooXXXXXX                                             ",
"   %%%$$$$$$$$$$$$@@@@@@      XXXXXXXXXXXX+++++++++                                             ",
"   %%%$$$$$$$$$$$$@@@@@@      XXXXXXXXXXXX+++++++++                                             ",
"   %%%$$$$$$$$$$$$@@@@@@      XXXXXXXXXXXX+++++++++                                             ",
"   &&&$$$$$$$$$$$$@@@@@@      ...XXXXXXXXXoooXXXXXX                           ...XXXXXXXXXXXX...",
"   &&&$$$$$$$$$$$$@@@@@@      ...XXXXXXXXXoooXXXXXX                           ...XXXXXXXXXXXX...",
"   &&&$$$$$$$$$$$$@@@@@@      ...XXXXXXXXXoooXXXXXX                           ...XXXXXXXXXXXX...",
"   %%%$$$$$$$$$$$$@@@@@@                                                                        ",
"   %%%$$$$$$$$$$$$@@@@@@                                                                        ",
"   %%%$$$$$$$$$$$$@@@@@@                                                                        ",
"   %%%$$$$$$$$$$$$@@@@@@            ...ooo++++++++++++++++++XXX   ...XXXXXXXXXXXX...   ...XXXXXX",
"   %%%$$$$$$$$$$$$@@@@@@            ...ooo++++++++++++++++++XXX   ...XXXXXXXXXXXX...   ...XXXXXX",
"   %%%$$$$$$$$$$$$@@@@@@            ...ooo++++++++++++++++++XXX   ...XXXXXXXXXXXX...   ...XXXXXX",
"   $$$$$$$$$$$$$$$@@@@@@            XXX++++++++++++++++++++++++   ooo++++++++++++ooo   ooo++++++",
"   $$$$$$$$$$$$$$$@@@@@@            XXX++++++++++++++++++++++++   ooo++++++++++++ooo   ooo++++++",
"   $$$$$$$$$$$$$$$@@@@@@            XXX++++++++++++++++++++++++   ooo++++++++++++ooo   ooo++++++",
"   $$$$$$$$$$$$###@@@@@@            ...ooo++++++++++++++++++XXX   XXX++++++++++++XXX   XXX++++++",
"   $$$$$$$$$$$$###@@@@@@            ...ooo++++++++++++++++++XXX   XXX++++++++++++XXX   XXX++++++",
"   $$$$$$$$$$$$###@@@@@@            ...ooo++++++++++++++++++XXX   XXX++++++++++++XXX   XXX++++++",
"   ###$$$$$$###@@@@@@@@@                                                                        ",
"   ###$$$$$$###@@@@@@@@@                                                                        ",
"   ###$$$$$$###@@@@@@@@@                                                                        ",
"   +++@@@@@@@@@@@@@@@OOO      ...XXXXXXXXXoooXXX   XXX+++++++++++++++XXX                        ",
"   +++@@@@@@@@@@@@@@@OOO      ...XXXXXXXXXoooXXX   XXX+++++++++++++++XXX                        ",
"   +++@@@@@@@@@@@@@@@OOO      ...XXXXXXXXXoooXXX   XXX+++++++++++++++XXX                        ",
"                              XXXXXXXXXXXX++++++   +++++++++++++++++++++                        ",
"                              XXXXXXXXXXXX++++++   +++++++++++++++++++++                        ",
"                              XXXXXXXXXXXX++++++   +++++++++++++++++++++                        ",
"   +++@@@@@@@@@@@@@@@OOO      ...XXXXXXXXXoooXXX   XXX+++++++++++++++XXX                        ",
"   +++@@@@@@@@@@@@@@@OOO      ...XXXXXXXXXoooXXX   XXX+++++++++++++++XXX                        ",
"   +++@@@@@@@@@@@@@@@OOO      ...XXXXXXXXXoooXXX   XXX+++++++++++++++XXX                        ",
"   ###$$$$$$###@@@@@@@@@                                                                        ",
"   ###$$$$$$###@@@@@@@@@                                                                        ",
"   ###$$$$$$###@@@@@@@@@                                                                        ",
"   $$$$$$$$$$$$###@@@@@@            ...ooo+++++++++++++++XXX   XXX++++++XXX            XXX++++++",
"   $$$$$$$$$$$$###@@@@@@            ...ooo+++++++++++++++XXX   XXX++++++XXX            XXX++++++",
"   $$$$$$$$$$$$###@@@@@@            ...ooo+++++++++++++++XXX   XXX++++++XXX            XXX++++++",
"   %%%$$$$$$$$$$$$@@@@@@            XXX+++++++++++++++++++++   ++++++++++++            +++++++++",
"   %%%$$$$$$$$$$$$@@@@@@            XXX+++++++++++++++++++++   ++++++++++++            +++++++++",
"   %%%$$$$$$$$$$$$@@@@@@            XXX+++++++++++++++++++++   ++++++++++++            +++++++++",
"   %%%$$$$$$$$$$$$@@@@@@            ...ooo+++++++++++++++XXX   XXX++++++XXX            XXX++++++",
"   %%%$$$$$$$$$$$$@@@@@@            ...ooo+++++++++++++++XXX   XXX++++++XXX            XXX++++++",
"   %%%$$$$$$$$$$$$@@@@@@            ...ooo+++++++++++++++XXX   XXX++++++XXX            XXX++++++",
"   $$$$$$$$$$$$$$$@@@@@@                                                                        ",
"   $$$$$$$$$$$$$$$@@@@@@                                                                        ",
"   $$$$$$$$$$$$$$$@@@@@@                                                                        ",
"   %%%$$$$$$$$$$$$@@@@@@      ...XXXXXXXXXoooXXX   XXX+++++++++++++++XXX                        ",
"   %%%$$$$$$$$$$$$@@@@@@      ...XXXXXXXXXoooXXX   XXX+++++++++++++++XXX                        ",
"   %%%$$$$$$$$$$$$@@@@@@      ...XXXXXXXXXoooXXX   XXX+++++++++++++++XXX                        ",
"   &&&$$$$$$$$$$$$@@@@@@      XXXXXXXXXXXX++++++   +++++++++++++++++++++                        ",
"   &&&$$$$$$$$$$$$@@@@@@      XXXXXXXXXXXX++++++   +++++++++++++++++++++                        ",
"   &&&$$$$$$$$$$$$@@@@@@      XXXXXXXXXXXX++++++   +++++++++++++++++++++                        ",
"   %%%$$$$$$$$$$$$@@@@@@      ...XXXXXXXXXoooXXX   XXX+++++++++++++++XXX                        ",
"   %%%$$$$$$$$$$$$@@@@@@      ...XXXXXXXXXoooXXX   XXX+++++++++++++++XXX                        ",
"   %%%$$$$$$$$$$$$@@@@@@      ...XXXXXXXXXoooXXX   XXX+++++++++++++++XXX                        ",
"   &&&$$$$$$$$$$$$@@@@@@                                                                        ",
"   &&&$$$$$$$$$$$$@@@@@@                                                                        ",
"   &&&$$$$$$$$$$$$@@@@@@                                                                        ",
"   &&&$$$$$$$$$$$$@@@@@@            ...ooo+++++++++++++++XXX   XXX++++++XXX                     ",
"   &&&$$$$$$$$$$$$@@@@@@            ...ooo+++++++++++++++XXX   XXX++++++XXX                     ",
"   &&&$$$$$$$$$$$$@@@@@@            ...ooo+++++++++++++++XXX   XXX++++++XXX                     ",
"   %%%$$$$$$$$$$$$@@@@@@            XXX+++++++++++++++++++++   ++++++++++++                     ",
"   %%%$$$$$$$$$$$$@@@@@@            XXX+++++++++++++++++++++   ++++++++++++                     ",
"   %%%$$$$$$$$$$$$@@@@@@            XXX+++++++++++++++++++++   ++++++++++++                     ",
"   $$$$$$$$$$$$$$$@@@@@@            ...ooo+++++++++++++++XXX   XXX++++++XXX                     ",
"   $$$$$$$$$$$$$$$@@@@@@            ...ooo+++++++++++++++XXX   XXX++++++XXX                     ",
"   $$$$$$$$$$$$$$$@@@@@@            ...ooo+++++++++++++++XXX   XXX++++++XXX                     "
};
