/* XPM */
static char *result[] = {
/* columns rows colors chars-per-pixel */
"96 96 12 1 ",
"  c #3F3851",
". c #584B57",
"X c #89365C",
"o c #AE444E",
"O c #BF5753",
"+ c #D25654",
"@ c #CD7363",
"# c #E27F6D",
"$ c #EDA27F",
"% c #FBCA97",
"& c #FFEAB7",
"* c #FFFAD6",
/* pixels */
"   %%%%%%%%%%%%%%%######                                                                        ",
"   %%%%%%%%%%%%%%%######                                                                        ",
"   %%%%%%%%%%%%%%%######                                                                        ",
"   &&&%%%%%%%%%%%%######      XXXooooooOOO@@@ooo   OOOoooooooooXXX      +++###%%%%%%&&&***&&&   ",
"   &&&%%%%%%%%%%%%######      XXXooooooOOO@@@ooo   OOOoooooooooXXX      +++###%%%%%%&&&***&&&   ",
"   &&&%%%%%%%%%%%%######      XXXooooooOOO@@@ooo   OOOoooooooooXXX      +++###%%%%%%&&&***&&&   ",
"   ***%%%%%%%%%%%%######      ooooooooo@@@@@@@@@   @@@oooooooooooo      ######%%%%%%%%%%%%%%%   ",
"   ***%%%%%%%%%%%%######      ooooooooo@@@@@@@@@   @@@oooooooooooo      ######%%%%%%%%%%%%%%%   ",
"   ***%%%%%%%%%%%%######      ooooooooo@@@@@@@@@   @@@oooooooooooo      ######%%%%%%%%%%%%%%%   ",
"   ***%%%%%%%%%%%%######      XXXooooooOOO@@@ooo   OOOoooooooooXXX      ######%%%%%%%%%%%%%%%   ",
"   ***%%%%%%%%%%%%######      XXXooooooOOO@@@ooo   OOOoooooooooXXX      ######%%%%%%%%%%%%%%%   ",
"   ***%%%%%%%%%%%%######      XXXooooooOOO@@@ooo   OOOoooooooooXXX      ######%%%%%%%%%%%%%%%   ",
"   &&&%%%%%%%%%%%%######                                                ######$$$%%%%%%%%%%%%   ",
"   &&&%%%%%%%%%%%%######                                                ######$$$%%%%%%%%%%%%   ",
"   &&&%%%%%%%%%%%%######                                                ######$$$%%%%%%%%%%%%   ",
"   %%%%%%%%%%%%$$$######         XXX   OOO@@@@@@@@@@@@OOOXXX            #########$$$%%%%%%%%%   ",
"   %%%%%%%%%%%%$$$######         XXX   OOO@@@@@@@@@@@@OOOXXX            #########$$$%%%%%%%%%   ",
"   %%%%%%%%%%%%$$$######         XXX   OOO@@@@@@@@@@@@OOOXXX            #########$$$%%%%%%%%%   ",
"   $$$%%%%%%$$$#########         ooo   @@@@@@@@@@@@@@@@@@ooo            #####################   ",
"   $$$%%%%%%$$$#########         ooo   @@@@@@@@@@@@@@@@@@ooo            #####################   ",
"   $$$%%%%%%$$$#########         ooo   @@@@@@@@@@@@@@@@@@ooo            #####################   ",
"   ##################+++         XXX   OOO@@@@@@@@@@@@OOOXXX            +++###############+++   ",
"   ##################+++         XXX   OOO@@@@@@@@@@@@OOOXXX            +++###############+++   ",
"   ##################+++         XXX   OOO@@@@@@@@@@@@OOOXXX            +++###############+++   ",
"                                                                                                ",
"                                                                                                ",
"                                                                                                ",
"   ##################+++      XXXooooooOOO@@@ooo                                                ",
"   ##################+++      XXXooooooOOO@@@ooo                                                ",
"   ##################+++      XXXooooooOOO@@@ooo                                                ",
"   $$$%%%%%%$$$#########      ooooooooo@@@@@@@@@                                                ",
"   $$$%%%%%%$$$#########      ooooooooo@@@@@@@@@                                                ",
"   $$$%%%%%%$$$#########      ooooooooo@@@@@@@@@                                                ",
"   %%%%%%%%%%%%$$$######      XXXooooooOOO@@@ooo                              XXXooooooooooooXXX",
"   %%%%%%%%%%%%$$$######      XXXooooooOOO@@@ooo                              XXXooooooooooooXXX",
"   %%%%%%%%%%%%$$$######      XXXooooooOOO@@@ooo                              XXXooooooooooooXXX",
"   %%%%%%%%%%%%%%%######                                                                        ",
"   %%%%%%%%%%%%%%%######                                                                        ",
"   %%%%%%%%%%%%%%%######                                                                        ",
"   &&&%%%%%%%%%%%%######            XXX   OOO@@@@@@@@@@@@@@@ooo   ooo@@@@@@@@@@@@ooo   ooo@@@@@@",
"   &&&%%%%%%%%%%%%######            XXX   OOO@@@@@@@@@@@@@@@ooo   ooo@@@@@@@@@@@@ooo   ooo@@@@@@",
"   &&&%%%%%%%%%%%%######            XXX   OOO@@@@@@@@@@@@@@@ooo   ooo@@@@@@@@@@@@ooo   ooo@@@@@@",
"   ***%%%%%%%%%%%%######            ooo   @@@@@@@@@@@@@@@@@@@@@   @@@@@@@@@@@@@@@@@@   @@@@@@@@@",
"   ***%%%%%%%%%%%%######            ooo   @@@@@@@@@@@@@@@@@@@@@   @@@@@@@@@@@@@@@@@@   @@@@@@@@@",
"   ***%%%%%%%%%%%%######            ooo   @@@@@@@@@@@@@@@@@@@@@   @@@@@@@@@@@@@@@@@@   @@@@@@@@@",
"   &&&%%%%%%%%%%%%######            XXX   OOO@@@@@@@@@@@@@@@ooo   ooo@@@@@@@@@@@@ooo   ooo@@@@@@",
"   &&&%%%%%%%%%%%%######            XXX   OOO@@@@@@@@@@@@@@@ooo   ooo@@@@@@@@@@@@ooo   ooo@@@@@@",
"   &&&%%%%%%%%%%%%######            XXX   OOO@@@@@@@@@@@@@@@ooo   ooo@@@@@@@@@@@@ooo   ooo@@@@@@",
"   %%%%%%%%%%%%%%%######                                                                        ",
"   %%%%%%%%%%%%%%%######                                                                        ",
"   %%%%%%%%%%%%%%%######                                                                        ",
"   &&&%%%%%%%%%%%%######      XXXooooooOOO@@@ooo   ooo@@@@@@@@@@@@@@@ooo   ooo@@@@@@@@@@@@@@@ooo",
"   &&&%%%%%%%%%%%%######      XXXooooooOOO@@@ooo   ooo@@@@@@@@@@@@@@@ooo   ooo@@@@@@@@@@@@@@@ooo",
"   &&&%%%%%%%%%%%%######      XXXooooooOOO@@@ooo   ooo@@@@@@@@@@@@@@@ooo   ooo@@@@@@@@@@@@@@@ooo",
"   &&&%%%%%%%%%%%%######      ooooooooo@@@@@@@@@   @@@@@@@@@@@@@@@@@@@@@   @@@@@@@@@@@@@@@@@@@@@",
"   &&&%%%%%%%%%%%%######      ooooooooo@@@@@@@@@   @@@@@@@@@@@@@@@@@@@@@   @@@@@@@@@@@@@@@@@@@@@",
"   &&&%%%%%%%%%%%%######      ooooooooo@@@@@@@@@   @@@@@@@@@@@@@@@@@@@@@   @@@@@@@@@@@@@@@@@@@@@",
"   %%%%%%%%%%%%$$$######      XXXooooooOOO@@@ooo   ooo@@@@@@@@@@@@@@@ooo   ooo@@@@@@@@@@@@@@@ooo",
"   %%%%%%%%%%%%$$$######      XXXooooooOOO@@@ooo   ooo@@@@@@@@@@@@@@@ooo   ooo@@@@@@@@@@@@@@@ooo",
"   %%%%%%%%%%%%$$$######      XXXooooooOOO@@@ooo   ooo@@@@@@@@@@@@@@@ooo   ooo@@@@@@@@@@@@@@@ooo",
"   $$$%%%%%%$$$#########                                                                        ",
"   $$$%%%%%%$$$#########                                                                        ",
"   $$$%%%%%%$$$#########                                                                        ",
"   ##################+++            XXXooooooooooooooooooXXX                        XXXooooooooo",
"   ##################+++            XXXooooooooooooooooooXXX                        XXXooooooooo",
"   ##################+++            XXXooooooooooooooooooXXX                        XXXooooooooo",
"                                                                                                ",
"                                                                                                ",
"                                                                                                ",
"   +++##################+++                                                                     ",
"   +++##################+++                                                                     ",
"   +++##################+++                                                                     ",
"   ########################   +++#################################+++   +++#####################",
"   ########################   +++#################################+++   +++#####################",
"   ########################   +++#################################+++   +++#####################",
"   ###$$$%%%%%%%%%%%%$$$###   #######################################   ########################",
"   ###$$$%%%%%%%%%%%%$$$###   #######################################   ########################",
"   ###$$$%%%%%%%%%%%%$$$###   #######################################   ########################",
"   $$$%%%%%%%%%%%%%%%%%%$$$   ######$$$%%%%%%%%%%%%%%%%%%%%%$$$######   ######$$$%%%%%%%%%%%%%%%",
"   $$$%%%%%%%%%%%%%%%%%%$$$   ######$$$%%%%%%%%%%%%%%%%%%%%%$$$######   ######$$$%%%%%%%%%%%%%%%",
"   $$$%%%%%%%%%%%%%%%%%%$$$   ######$$$%%%%%%%%%%%%%%%%%%%%%$$$######   ######$$$%%%%%%%%%%%%%%%",
"   %%%%%%%%%%%%%%%%%%%%%%%%   ###$$$%%%%%%%%%%%%%%%%%%%%%%%%%%%$$$###   ###$$$%%%%%%%%%%%%%%%%%%",
"   %%%%%%%%%%%%%%%%%%%%%%%%   ###$$$%%%%%%%%%%%%%%%%%%%%%%%%%%%$$$###   ###$$$%%%%%%%%%%%%%%%%%%",
"   %%%%%%%%%%%%%%%%%%%%%%%%   ###$$$%%%%%%%%%%%%%%%%%%%%%%%%%%%$$$###   ###$$$%%%%%%%%%%%%%%%%%%",
"   %%%%%%%%%%%%%%%%%%%%%%%%   ###%%%%%%%%%%%%%%%%%%%%%%%%%%%%%%%%%###   ###%%%%%%%%%%%%%%%%%%%%%",
"   %%%%%%%%%%%%%%%%%%%%%%%%   ###%%%%%%%%%%%%%%%%%%%%%%%%%%%%%%%%%###   ###%%%%%%%%%%%%%%%%%%%%%",
"   %%%%%%%%%%%%%%%%%%%%%%%%   ###%%%%%%%%%%%%%%%%%%%%%%%%%%%%%%%%%###   ###%%%%%%%%%%%%%%%%%%%%%",
"   %%%%%%%%%%%%%%%%%%%%%%%%   ###%%%%%%%%%%%%%%%%%%%%%%%%%%%%%%%%%###   ###%%%%%%%%%%%%%%%%%%%%%",
"   %%%%%%%%%%%%%%%%%%%%%%%%   ###%%%%%%%%%%%%%%%%%%%%%%%%%%%%%%%%%###   ###%%%%%%%%%%%%%%%%%%%%%",
"   %%%%%%%%%%%%%%%%%%%%%%%%   ###%%%%%%%%%%%%%%%%%%%%%%%%%%%%%%%%%###   ###%%%%%%%%%%%%%%%%%%%%%",
"   $$$%%%&&&***&&&&&&%%%$$$   ###$$$%%%%%%&&&%%%&&&***&&&%%%%%%$$$###   ###$$$%%%%%%&&&%%%&&&***",
"   $$$%%%&&&***&&&&&&%%%$$$   ###$$$%%%%%%&&&%%%&&&***&&&%%%%%%$$$###   ###$$$%%%%%%&&&%%%&&&***",
"   $$$%%%&&&***&&&&&&%%%$$$   ###$$$%%%%%%&&&%%%&&&***&&&%%%%%%$$$###   ###$$$%%%%%%&&&%%%&&&***",
"...                                                                                             ",
"...                                                                                             ",
"...                                                                                             "
};
