/* XPM */
static char *result[] = {
/* columns rows colors chars-per-pixel */
"96 96 11 1 ",
"  c #3F3851",
". c #89365C",
"X c #AE444E",
"o c #BF5753",
"O c #D25654",
"+ c #CD7363",
"@ c #E27F6D",
"# c #EDA27F",
"$ c #FBCA97",
"% c #FFEAB7",
"& c #FFFAD6",
/* pixels */
"                                                                                                ",
"                                                                                                ",
"                                                                                                ",
"                                                                                                ",
"                                                                                                ",
"                                                                                                ",
"                                                                                                ",
"                                                                                                ",
"                                                                                                ",
"                                                                                                ",
"                                                                                                ",
"                                                                                                ",
"                                                                                                ",
"                                                                                                ",
"                                                                                                ",
"                                                                                                ",
"                                                                                                ",
"                                                                                                ",
"                                                                                                ",
"                                                                                                ",
"                                                                                                ",
"                                                                                                ",
"                                                                                                ",
"                                                                                                ",
"                                                                                                ",
"                                                                                                ",
"                                                                                                ",
"                           XXX+++++++++++++++XXX                           XXX+++++++++++++++XXX",
"                           XXX+++++++++++++++XXX                           XXX+++++++++++++++XXX",
"                           XXX+++++++++++++++XXX                           XXX+++++++++++++++XXX",
"   XXXooo+++++++++oooXXX   +++++++++++++++++++++   XXXooo+++++++++oooXXX   +++++++++++++++++++++",
"   XXXooo+++++++++oooXXX   +++++++++++++++++++++   XXXooo+++++++++oooXXX   +++++++++++++++++++++",
"   XXXooo+++++++++oooXXX   +++++++++++++++++++++   XXXooo+++++++++oooXXX   +++++++++++++++++++++",
"   ooo+++++++++++++++ooo   XXX+++++++++++++++XXX   ooo+++++++++++++++ooo   XXX+++++++++++++++XXX",
"   ooo+++++++++++++++ooo   XXX+++++++++++++++XXX   ooo+++++++++++++++ooo   XXX+++++++++++++++XXX",
"   ooo+++++++++++++++ooo   XXX+++++++++++++++XXX   ooo+++++++++++++++ooo   XXX+++++++++++++++XXX",
"                                                                                                ",
"                                                                                                ",
"                                                                                                ",
"+++++++++XXX   XXX++++++++++++XXX   XXX++++++++++++++++++XXX   XXX++++++++++++XXX   XXX+++++++++",
"+++++++++XXX   XXX++++++++++++XXX   XXX++++++++++++++++++XXX   XXX++++++++++++XXX   XXX+++++++++",
"+++++++++XXX   XXX++++++++++++XXX   XXX++++++++++++++++++XXX   XXX++++++++++++XXX   XXX+++++++++",
"++++++++++++   ++++++++++++++++++   ++++++++++++++++++++++++   ++++++++++++++++++   ++++++++++++",
"++++++++++++   ++++++++++++++++++   ++++++++++++++++++++++++   ++++++++++++++++++   ++++++++++++",
"++++++++++++   ++++++++++++++++++   ++++++++++++++++++++++++   ++++++++++++++++++   ++++++++++++",
"+++++++++XXX   XXX++++++++++++XXX   XXX++++++++++++++++++XXX   XXX++++++++++++XXX   XXX+++++++++",
"+++++++++XXX   XXX++++++++++++XXX   XXX++++++++++++++++++XXX   XXX++++++++++++XXX   XXX+++++++++",
"+++++++++XXX   XXX++++++++++++XXX   XXX++++++++++++++++++XXX   XXX++++++++++++XXX   XXX+++++++++",
"                                                                                                ",
"                                                                                                ",
"                                                                                                ",
"   XXX+++++++++++++++XXX   XXX+++++++++++++++XXX   XXX+++++++++++++++XXX   XXX+++++++++++++++XXX",
"   XXX+++++++++++++++XXX   XXX+++++++++++++++XXX   XXX+++++++++++++++XXX   XXX+++++++++++++++XXX",
"   XXX+++++++++++++++XXX   XXX+++++++++++++++XXX   XXX+++++++++++++++XXX   XXX+++++++++++++++XXX",
"   ooo+++++++++++++++ooo   ooo+++++++++++++++ooo   ooo+++++++++++++++ooo   ooo+++++++++++++++ooo",
"   ooo+++++++++++++++ooo   ooo+++++++++++++++ooo   ooo+++++++++++++++ooo   ooo+++++++++++++++ooo",
"   ooo+++++++++++++++ooo   ooo+++++++++++++++ooo   ooo+++++++++++++++ooo   ooo+++++++++++++++ooo",
"   ...XXXXXXXXXXXXXXX...   ...XXXXXXXXXXXXXXX...   ...XXXXXXXXXXXXXXX...   ...XXXXXXXXXXXXXXX...",
"   ...XXXXXXXXXXXXXXX...   ...XXXXXXXXXXXXXXX...   ...XXXXXXXXXXXXXXX...   ...XXXXXXXXXXXXXXX...",
"   ...XXXXXXXXXXXXXXX...   ...XXXXXXXXXXXXXXX...   ...XXXXXXXXXXXXXXX...   ...XXXXXXXXXXXXXXX...",
"                                                                                                ",
"                                                                                                ",
"                                                                                                ",
"XXXXXXXXX...   ...XXXXXXXXXXXX...                              ...XXXXXXXXXXXX...   ...XXXXXXXXX",
"XXXXXXXXX...   ...XXXXXXXXXXXX...                              ...XXXXXXXXXXXX...   ...XXXXXXXXX",
"XXXXXXXXX...   ...XXXXXXXXXXXX...                              ...XXXXXXXXXXXX...   ...XXXXXXXXX",
"                                                                                                ",
"                                                                                                ",
"                                                                                                ",
"                                                                                                ",
"                                                                                                ",
"                                                                                                ",
"@@@@@@@@@@@@OOO   OOO@@@@@@@@@@@@@@@@@@@@@@@@@@@@@@OOO   OOO@@@@@@@@@@@@@@@@@@@@@@@@@@@@@@@@@@@@",
"@@@@@@@@@@@@OOO   OOO@@@@@@@@@@@@@@@@@@@@@@@@@@@@@@OOO   OOO@@@@@@@@@@@@@@@@@@@@@@@@@@@@@@@@@@@@",
"@@@@@@@@@@@@OOO   OOO@@@@@@@@@@@@@@@@@@@@@@@@@@@@@@OOO   OOO@@@@@@@@@@@@@@@@@@@@@@@@@@@@@@@@@@@@",
"@@@@@@@@@@@@@@@   @@@@@@@@@@@@@@@@@@@@@@@@@@@@@@@@@@@@   @@@@@@@@@@@@@@@@@@@@@@@@@@@@@@@@@@@@@@@",
"@@@@@@@@@@@@@@@   @@@@@@@@@@@@@@@@@@@@@@@@@@@@@@@@@@@@   @@@@@@@@@@@@@@@@@@@@@@@@@@@@@@@@@@@@@@@",
"@@@@@@@@@@@@@@@   @@@@@@@@@@@@@@@@@@@@@@@@@@@@@@@@@@@@   @@@@@@@@@@@@@@@@@@@@@@@@@@@@@@@@@@@@@@@",
"$$$$$$###@@@@@@   @@@@@@###$$$$$$$$$$$$$$$$$$###@@@@@@   @@@@@@###$$$$$$$$$$$$$$$$$$$$$$$$$$$$$$",
"$$$$$$###@@@@@@   @@@@@@###$$$$$$$$$$$$$$$$$$###@@@@@@   @@@@@@###$$$$$$$$$$$$$$$$$$$$$$$$$$$$$$",
"$$$$$$###@@@@@@   @@@@@@###$$$$$$$$$$$$$$$$$$###@@@@@@   @@@@@@###$$$$$$$$$$$$$$$$$$$$$$$$$$$$$$",
"$$$$$$$$$###@@@   @@@###$$$$$$$$$$$$$$$$$$$$$$$$###@@@   @@@###$$$$$$$$$$$$$$$$$$$$$$$$$$$$$$$$$",
"$$$$$$$$$###@@@   @@@###$$$$$$$$$$$$$$$$$$$$$$$$###@@@   @@@###$$$$$$$$$$$$$$$$$$$$$$$$$$$$$$$$$",
"$$$$$$$$$###@@@   @@@###$$$$$$$$$$$$$$$$$$$$$$$$###@@@   @@@###$$$$$$$$$$$$$$$$$$$$$$$$$$$$$$$$$",
"$$$$$$$$$$$$@@@   @@@$$$$$$$$$$$$$$$$$$$$$$$$$$$$$$@@@   @@@$$$$$$$$$$$$$$$$$$$$$$$$$$$$$$$$$$$$",
"$$$$$$$$$$$$@@@   @@@$$$$$$$$$$$$$$$$$$$$$$$$$$$$$$@@@   @@@$$$$$$$$$$$$$$$$$$$$$$$$$$$$$$$$$$$$",
"$$$$$$$$$$$$@@@   @@@$$$$$$$$$$$$$$$$$$$$$$$$$$$$$$@@@   @@@$$$$$$$$$$$$$$$$$$$$$$$$$$$$$$$$$$$$",
"$$$$$$$$$$$$@@@   @@@$$$$$$$$$$$$$$$$$$$$$$$$$$$$$$@@@   @@@$$$$$$$$$$$$$$$$$$$$$$$$$$$$$$$$$$$$",
"$$$$$$$$$$$$@@@   @@@$$$$$$$$$$$$$$$$$$$$$$$$$$$$$$@@@   @@@$$$$$$$$$$$$$$$$$$$$$$$$$$$$$$$$$$$$",
"$$$$$$$$$$$$@@@   @@@$$$$$$$$$$$$$$$$$$$$$$$$$$$$$$@@@   @@@$$$$$$$$$$$$$$$$$$$$$$$$$$$$$$$$$$$$",
"%%%$$$$$$###@@@   @@@###$$$$$$%%%&&&%%%%%%$$$$$$###@@@   @@@###$$$$$$%%%&&&&&&%%%$$$$$$%%%&&&%%%",
"%%%$$$$$$###@@@   @@@###$$$$$$%%%&&&%%%%%%$$$$$$###@@@   @@@###$$$$$$%%%&&&&&&%%%$$$$$$%%%&&&%%%",
"%%%$$$$$$###@@@   @@@###$$$$$$%%%&&&%%%%%%$$$$$$###@@@   @@@###$$$$$$%%%&&&&&&%%%$$$$$$%%%&&&%%%",
"                                                                                                ",
"                                                                                                ",
"                                                                                                "
};
