/* XPM */
static char *result[] = {
/* columns rows colors chars-per-pixel */
"96 96 12 1 ",
"  c #3F3851",
". c #584B57",
"X c #89365C",
"o c #AE444E",
"O c #BF5753",
"+ c #D25654",
"@ c #CD7363",
"# c #E27F6D",
"$ c #EDA27F",
"% c #FBCA97",
"& c #FFEAB7",
"* c #FFFAD6",
/* pixels */
"   %%%%%%%%%%%%%%%######                                                                        ",
"   %%%%%%%%%%%%%%%######                                                                        ",
"   %%%%%%%%%%%%%%%######                                                                        ",
"   &&&%%%%%%%%%%%%######      XXXoooooooooOOOooo   ooo@@@@@@@@@@@@@@@ooo                        ",
"   &&&%%%%%%%%%%%%######      XXXoooooooooOOOooo   ooo@@@@@@@@@@@@@@@ooo                        ",
"   &&&%%%%%%%%%%%%######      XXXoooooooooOOOooo   ooo@@@@@@@@@@@@@@@ooo                        ",
"   ***%%%%%%%%%%%%######      oooooooooooo@@@@@@   @@@@@@@@@@@@@@@@@@@@@                        ",
"   ***%%%%%%%%%%%%######      oooooooooooo@@@@@@   @@@@@@@@@@@@@@@@@@@@@                        ",
"   ***%%%%%%%%%%%%######      oooooooooooo@@@@@@   @@@@@@@@@@@@@@@@@@@@@                        ",
"   ***%%%%%%%%%%%%######      XXXoooooooooOOOooo   ooo@@@@@@@@@@@@@@@ooo                        ",
"   ***%%%%%%%%%%%%######      XXXoooooooooOOOooo   ooo@@@@@@@@@@@@@@@ooo                        ",
"   ***%%%%%%%%%%%%######      XXXoooooooooOOOooo   ooo@@@@@@@@@@@@@@@ooo                        ",
"   &&&%%%%%%%%%%%%######                                                                        ",
"   &&&%%%%%%%%%%%%######                                                                        ",
"   &&&%%%%%%%%%%%%######                                                                        ",
"   %%%%%%%%%%%%$$$######            XXXOOO@@@@@@@@@@@@@@@ooo                                    ",
"   %%%%%%%%%%%%$$$######            XXXOOO@@@@@@@@@@@@@@@ooo                                    ",
"   %%%%%%%%%%%%$$$######            XXXOOO@@@@@@@@@@@@@@@ooo                                    ",
"   $$$%%%%%%$$$#########            ooo@@@@@@@@@@@@@@@@@@@@@                                    ",
"   $$$%%%%%%$$$#########            ooo@@@@@@@@@@@@@@@@@@@@@                                    ",
"   $$$%%%%%%$$$#########            ooo@@@@@@@@@@@@@@@@@@@@@                                    ",
"   ##################+++            XXXOOO@@@@@@@@@@@@@@@ooo                                    ",
"   ##################+++            XXXOOO@@@@@@@@@@@@@@@ooo                                    ",
"   ##################+++            XXXOOO@@@@@@@@@@@@@@@ooo                                    ",
"                                                                                                ",
"                                                                                                ",
"                                                                                                ",
"   ##################+++      XXXoooooooooOOOooo                           ooo@@@@@@@@@@@@@@@ooo",
"   ##################+++      XXXoooooooooOOOooo                           ooo@@@@@@@@@@@@@@@ooo",
"   ##################+++      XXXoooooooooOOOooo                           ooo@@@@@@@@@@@@@@@ooo",
"   $$$%%%%%%$$$#########      oooooooooooo@@@@@@   oooOOO@@@@@@@@@OOOooo   @@@@@@@@@@@@@@@@@@@@@",
"   $$$%%%%%%$$$#########      oooooooooooo@@@@@@   oooOOO@@@@@@@@@OOOooo   @@@@@@@@@@@@@@@@@@@@@",
"   $$$%%%%%%$$$#########      oooooooooooo@@@@@@   oooOOO@@@@@@@@@OOOooo   @@@@@@@@@@@@@@@@@@@@@",
"   %%%%%%%%%%%%$$$######      XXXoooooooooOOOooo   OOO@@@@@@@@@@@@@@@OOO   ooo@@@@@@@@@@@@@@@ooo",
"   %%%%%%%%%%%%$$$######      XXXoooooooooOOOooo   OOO@@@@@@@@@@@@@@@OOO   ooo@@@@@@@@@@@@@@@ooo",
"   %%%%%%%%%%%%$$$######      XXXoooooooooOOOooo   OOO@@@@@@@@@@@@@@@OOO   ooo@@@@@@@@@@@@@@@ooo",
"   %%%%%%%%%%%%%%%######                                                                        ",
"   %%%%%%%%%%%%%%%######                                                                        ",
"   %%%%%%%%%%%%%%%######                                                                        ",
"   &&&%%%%%%%%%%%%######            XXXOOO@@@@@@@@@@@@@@@ooo   ooo@@@@@@@@@@@@ooo   ooo@@@@@@@@@",
"   &&&%%%%%%%%%%%%######            XXXOOO@@@@@@@@@@@@@@@ooo   ooo@@@@@@@@@@@@ooo   ooo@@@@@@@@@",
"   &&&%%%%%%%%%%%%######            XXXOOO@@@@@@@@@@@@@@@ooo   ooo@@@@@@@@@@@@ooo   ooo@@@@@@@@@",
"   ***%%%%%%%%%%%%######            ooo@@@@@@@@@@@@@@@@@@@@@   @@@@@@@@@@@@@@@@@@   @@@@@@@@@@@@",
"   ***%%%%%%%%%%%%######            ooo@@@@@@@@@@@@@@@@@@@@@   @@@@@@@@@@@@@@@@@@   @@@@@@@@@@@@",
"   ***%%%%%%%%%%%%######            ooo@@@@@@@@@@@@@@@@@@@@@   @@@@@@@@@@@@@@@@@@   @@@@@@@@@@@@",
"   &&&%%%%%%%%%%%%######            XXXOOO@@@@@@@@@@@@@@@ooo   ooo@@@@@@@@@@@@ooo   ooo@@@@@@@@@",
"   &&&%%%%%%%%%%%%######            XXXOOO@@@@@@@@@@@@@@@ooo   ooo@@@@@@@@@@@@ooo   ooo@@@@@@@@@",
"   &&&%%%%%%%%%%%%######            XXXOOO@@@@@@@@@@@@@@@ooo   ooo@@@@@@@@@@@@ooo   ooo@@@@@@@@@",
"   %%%%%%%%%%%%%%%######                                                                        ",
"   %%%%%%%%%%%%%%%######                                                                        ",
"   %%%%%%%%%%%%%%%######                                                                        ",
"   &&&%%%%%%%%%%%%######      XXXooooooooo@@@ooo   ooo@@@@@@@@@@@@@@@ooo   ooo@@@@@@@@@@@@@@@ooo",
"   &&&%%%%%%%%%%%%######      XXXooooooooo@@@ooo   ooo@@@@@@@@@@@@@@@ooo   ooo@@@@@@@@@@@@@@@ooo",
"   &&&%%%%%%%%%%%%######      XXXooooooooo@@@ooo   ooo@@@@@@@@@@@@@@@ooo   ooo@@@@@@@@@@@@@@@ooo",
"   &&&%%%%%%%%%%%%######      ooooooooooooOOO@@@   OOO@@@@@@@@@@@@@@@OOO   OOO@@@@@@@@@@@@@@@OOO",
"   &&&%%%%%%%%%%%%######      ooooooooooooOOO@@@   OOO@@@@@@@@@@@@@@@OOO   OOO@@@@@@@@@@@@@@@OOO",
"   &&&%%%%%%%%%%%%######      ooooooooooooOOO@@@   OOO@@@@@@@@@@@@@@@OOO   OOO@@@@@@@@@@@@@@@OOO",
"   %%%%%%%%%%%%$$$######      XXXooooooooooooXXX   XXXoooooooooooooooXXX   XXXoooooooooooooooXXX",
"   %%%%%%%%%%%%$$$######      XXXooooooooooooXXX   XXXoooooooooooooooXXX   XXXoooooooooooooooXXX",
"   %%%%%%%%%%%%$$$######      XXXooooooooooooXXX   XXXoooooooooooooooXXX   XXXoooooooooooooooXXX",
"   $$$%%%%%%$$$#########                                                                        ",
"   $$$%%%%%%$$$#########                                                                        ",
"   $$$%%%%%%$$$#########                                                                        ",
"   ##################+++            XXXooooooooooooooooooXXX                        XXXooooooooo",
"   ##################+++            XXXooooooooooooooooooXXX                        XXXooooooooo",
"   ##################+++            XXXooooooooooooooooooXXX                        XXXooooooooo",
"                                                                                                ",
"                                                                                                ",
"                                                                                                ",
"   +++##################+++                                                                     ",
"   +++##################+++                                                                     ",
"   +++##################+++                                                                     ",
"   ########################   +++#################################+++   +++#####################",
"   ########################   +++#################################+++   +++#####################",
"   ########################   +++#################################+++   +++#####################",
"   ###$$$%%%%%%%%%%%%$$$###   #######################################   ########################",
"   ###$$$%%%%%%%%%%%%$$$###   #######################################   ########################",
"   ###$$$%%%%%%%%%%%%$$$###   #######################################   ########################",
"   $$$%%%%%%%%%%%%%%%%%%$$$   ######$$$%%%%%%%%%%%%%%%%%%%%%$$$######   ######$$$%%%%%%%%%%%%%%%",
"   $$$%%%%%%%%%%%%%%%%%%$$$   ######$$$%%%%%%%%%%%%%%%%%%%%%$$$######   ######$$$%%%%%%%%%%%%%%%",
"   $$$%%%%%%%%%%%%%%%%%%$$$   ######$$$%%%%%%%%%%%%%%%%%%%%%$$$######   ######$$$%%%%%%%%%%%%%%%",
"   %%%%%%%%%%%%%%%%%%%%%%%%   ###$$$%%%%%%%%%%%%%%%%%%%%%%%%%%%$$$###   ###$$$%%%%%%%%%%%%%%%%%%",
"   %%%%%%%%%%%%%%%%%%%%%%%%   ###$$$%%%%%%%%%%%%%%%%%%%%%%%%%%%$$$###   ###$$$%%%%%%%%%%%%%%%%%%",
"   %%%%%%%%%%%%%%%%%%%%%%%%   ###$$$%%%%%%%%%%%%%%%%%%%%%%%%%%%$$$###   ###$$$%%%%%%%%%%%%%%%%%%",
"   %%%%%%%%%%%%%%%%%%%%%%%%   ###%%%%%%%%%%%%%%%%%%%%%%%%%%%%%%%%%###   ###%%%%%%%%%%%%%%%%%%%%%",
"   %%%%%%%%%%%%%%%%%%%%%%%%   ###%%%%%%%%%%%%%%%%%%%%%%%%%%%%%%%%%###   ###%%%%%%%%%%%%%%%%%%%%%",
"   %%%%%%%%%%%%%%%%%%%%%%%%   ###%%%%%%%%%%%%%%%%%%%%%%%%%%%%%%%%%###   ###%%%%%%%%%%%%%%%%%%%%%",
"   %%%%%%%%%%%%%%%%%%%%%%%%   ###%%%%%%%%%%%%%%%%%%%%%%%%%%%%%%%%%###   ###%%%%%%%%%%%%%%%%%%%%%",
"   %%%%%%%%%%%%%%%%%%%%%%%%   ###%%%%%%%%%%%%%%%%%%%%%%%%%%%%%%%%%###   ###%%%%%%%%%%%%%%%%%%%%%",
"   %%%%%%%%%%%%%%%%%%%%%%%%   ###%%%%%%%%%%%%%%%%%%%%%%%%%%%%%%%%%###   ###%%%%%%%%%%%%%%%%%%%%%",
"   $$$%%%&&&***&&&&&&%%%$$$   ###$$$%%%%%%&&&%%%&&&***&&&%%%%%%$$$###   ###$$$%%%%%%&&&%%%&&&***",
"   $$$%%%&&&***&&&&&&%%%$$$   ###$$$%%%%%%&&&%%%&&&***&&&%%%%%%$$$###   ###$$$%%%%%%&&&%%%&&&***",
"   $$$%%%&&&***&&&&&&%%%$$$   ###$$$%%%%%%&&&%%%&&&***&&&%%%%%%$$$###   ###$$$%%%%%%&&&%%%&&&***",
"...                                                                                             ",
"...                                                                                             ",
"...                                                                                             "
};
