/* XPM */
static char *result[] = {
/* columns rows colors chars-per-pixel */
"96 96 11 1 ",
"  c #3F3851",
". c #89365C",
"X c #AE444E",
"o c #BF5753",
"O c #D25654",
"+ c #CD7363",
"@ c #E27F6D",
"# c #EDA27F",
"$ c #FBCA97",
"% c #FFEAB7",
"& c #FFFAD6",
/* pixels */
"                                                                                                ",
"                                                                                                ",
"                                                                                                ",
"                           XXX+++++++++++++++XXX   oooXXXXXXXXX...      OOO@@@$$$$$$%%%&&&%%%   ",
"                           XXX+++++++++++++++XXX   oooXXXXXXXXX...      OOO@@@$$$$$$%%%&&&%%%   ",
"                           XXX+++++++++++++++XXX   oooXXXXXXXXX...      OOO@@@$$$$$$%%%&&&%%%   ",
"                           +++++++++++++++++++++   +++XXXXXXXXXXXX      @@@@@@$$$$$$$$$$$$$$$   ",
"                           +++++++++++++++++++++   +++XXXXXXXXXXXX      @@@@@@$$$$$$$$$$$$$$$   ",
"                           +++++++++++++++++++++   +++XXXXXXXXXXXX      @@@@@@$$$$$$$$$$$$$$$   ",
"                           XXX+++++++++++++++XXX   oooXXXXXXXXX...      @@@@@@$$$$$$$$$$$$$$$   ",
"                           XXX+++++++++++++++XXX   oooXXXXXXXXX...      @@@@@@$$$$$$$$$$$$$$$   ",
"                           XXX+++++++++++++++XXX   oooXXXXXXXXX...      @@@@@@$$$$$$$$$$$$$$$   ",
"                                                                        @@@@@@###$$$$$$$$$$$$   ",
"                                                                        @@@@@@###$$$$$$$$$$$$   ",
"                                                                        @@@@@@###$$$$$$$$$$$$   ",
"                        ooo+++XXX   XXX+++++++++++++++ooo...            @@@@@@@@@###$$$$$$$$$   ",
"                        ooo+++XXX   XXX+++++++++++++++ooo...            @@@@@@@@@###$$$$$$$$$   ",
"                        ooo+++XXX   XXX+++++++++++++++ooo...            @@@@@@@@@###$$$$$$$$$   ",
"                        +++++++++   +++++++++++++++++++++XXX            @@@@@@@@@@@@@@@@@@@@@   ",
"                        +++++++++   +++++++++++++++++++++XXX            @@@@@@@@@@@@@@@@@@@@@   ",
"                        +++++++++   +++++++++++++++++++++XXX            @@@@@@@@@@@@@@@@@@@@@   ",
"                        XXX+++ooo   XXX+++++++++++++++ooo...            OOO@@@@@@@@@@@@@@@OOO   ",
"                        XXX+++ooo   XXX+++++++++++++++ooo...            OOO@@@@@@@@@@@@@@@OOO   ",
"                        XXX+++ooo   XXX+++++++++++++++ooo...            OOO@@@@@@@@@@@@@@@OOO   ",
"                                                                                                ",
"                                                                                                ",
"                                                                                                ",
"                           XXX++++++++++++++++++XXX                                             ",
"                           XXX++++++++++++++++++XXX                                             ",
"                           XXX++++++++++++++++++XXX                                             ",
"   XXXooo+++++++++oooXXX   ++++++++++++++++++++++++                                             ",
"   XXXooo+++++++++oooXXX   ++++++++++++++++++++++++                                             ",
"   XXXooo+++++++++oooXXX   ++++++++++++++++++++++++                                             ",
"   ooo+++++++++++++++ooo   XXX++++++++++++++++++XXX                           ...XXXXXXXXXXXX...",
"   ooo+++++++++++++++ooo   XXX++++++++++++++++++XXX                           ...XXXXXXXXXXXX...",
"   ooo+++++++++++++++ooo   XXX++++++++++++++++++XXX                           ...XXXXXXXXXXXX...",
"                                                                                                ",
"                                                                                                ",
"                                                                                                ",
"++++++++++++XXX   XXX+++++++++++++++XXX   XXX+++++++++++++++XXX   ...XXXXXXXXXXXX...   ...XXXXXX",
"++++++++++++XXX   XXX+++++++++++++++XXX   XXX+++++++++++++++XXX   ...XXXXXXXXXXXX...   ...XXXXXX",
"++++++++++++XXX   XXX+++++++++++++++XXX   XXX+++++++++++++++XXX   ...XXXXXXXXXXXX...   ...XXXXXX",
"+++++++++++++++   +++++++++++++++++++++   +++++++++++++++++++++   ooo++++++++++++ooo   ooo++++++",
"+++++++++++++++   +++++++++++++++++++++   +++++++++++++++++++++   ooo++++++++++++ooo   ooo++++++",
"+++++++++++++++   +++++++++++++++++++++   +++++++++++++++++++++   ooo++++++++++++ooo   ooo++++++",
"++++++++++++XXX   XXX+++++++++++++++XXX   XXX+++++++++++++++XXX   XXX++++++++++++XXX   XXX++++++",
"++++++++++++XXX   XXX+++++++++++++++XXX   XXX+++++++++++++++XXX   XXX++++++++++++XXX   XXX++++++",
"++++++++++++XXX   XXX+++++++++++++++XXX   XXX+++++++++++++++XXX   XXX++++++++++++XXX   XXX++++++",
"                                                                                                ",
"                                                                                                ",
"                                                                                                ",
"   XXX+++++++++++++++XXX   XXX+++++++++++++++XXX   XXX++++++++++++++++++XXX   XXX+++++++++++++++",
"   XXX+++++++++++++++XXX   XXX+++++++++++++++XXX   XXX++++++++++++++++++XXX   XXX+++++++++++++++",
"   XXX+++++++++++++++XXX   XXX+++++++++++++++XXX   XXX++++++++++++++++++XXX   XXX+++++++++++++++",
"   ooo+++++++++++++++ooo   ooo+++++++++++++++ooo   ++++++++++++++++++++++++   ++++++++++++++++++",
"   ooo+++++++++++++++ooo   ooo+++++++++++++++ooo   ++++++++++++++++++++++++   ++++++++++++++++++",
"   ooo+++++++++++++++ooo   ooo+++++++++++++++ooo   ++++++++++++++++++++++++   ++++++++++++++++++",
"   ...XXXXXXXXXXXXXXX...   ...XXXXXXXXXooo+++XXX   XXX++++++++++++++++++XXX   XXX+++++++++++++++",
"   ...XXXXXXXXXXXXXXX...   ...XXXXXXXXXooo+++XXX   XXX++++++++++++++++++XXX   XXX+++++++++++++++",
"   ...XXXXXXXXXXXXXXX...   ...XXXXXXXXXooo+++XXX   XXX++++++++++++++++++XXX   XXX+++++++++++++++",
"                                                                                                ",
"                                                                                                ",
"                                                                                                ",
"XXXXXXXXX...                        ...ooo+++++++++++++++XXX   XXX+++++++++XXX         XXX++++++",
"XXXXXXXXX...                        ...ooo+++++++++++++++XXX   XXX+++++++++XXX         XXX++++++",
"XXXXXXXXX...                        ...ooo+++++++++++++++XXX   XXX+++++++++XXX         XXX++++++",
"                                    XXX+++++++++++++++++++++   +++++++++++++++         +++++++++",
"                                    XXX+++++++++++++++++++++   +++++++++++++++         +++++++++",
"                                    XXX+++++++++++++++++++++   +++++++++++++++         +++++++++",
"                                    ...ooo+++++++++++++++XXX   XXX+++++++++XXX         XXX++++++",
"                                    ...ooo+++++++++++++++XXX   XXX+++++++++XXX         XXX++++++",
"                                    ...ooo+++++++++++++++XXX   XXX+++++++++XXX         XXX++++++",
"   OOO@@@@@@@@@@@@@@@OOO                                                                        ",
"   OOO@@@@@@@@@@@@@@@OOO                                                                        ",
"   OOO@@@@@@@@@@@@@@@OOO                                                                        ",
"   @@@@@@@@@@@@@@@@@@@@@      ...XXXXXXXXXoooXXX   XXX+++++++++++++++XXX                        ",
"   @@@@@@@@@@@@@@@@@@@@@      ...XXXXXXXXXoooXXX   XXX+++++++++++++++XXX                        ",
"   @@@@@@@@@@@@@@@@@@@@@      ...XXXXXXXXXoooXXX   XXX+++++++++++++++XXX                        ",
"   $$$$$$$$$###@@@@@@@@@      XXXXXXXXXXXX++++++   +++++++++++++++++++++                        ",
"   $$$$$$$$$###@@@@@@@@@      XXXXXXXXXXXX++++++   +++++++++++++++++++++                        ",
"   $$$$$$$$$###@@@@@@@@@      XXXXXXXXXXXX++++++   +++++++++++++++++++++                        ",
"   $$$$$$$$$$$$###@@@@@@      ...XXXXXXXXXoooXXX   XXX+++++++++++++++XXX                        ",
"   $$$$$$$$$$$$###@@@@@@      ...XXXXXXXXXoooXXX   XXX+++++++++++++++XXX                        ",
"   $$$$$$$$$$$$###@@@@@@      ...XXXXXXXXXoooXXX   XXX+++++++++++++++XXX                        ",
"   $$$$$$$$$$$$$$$@@@@@@                                                                        ",
"   $$$$$$$$$$$$$$$@@@@@@                                                                        ",
"   $$$$$$$$$$$$$$$@@@@@@                                                                        ",
"   $$$$$$$$$$$$$$$@@@@@@            ...ooo+++++++++++++++XXX                                    ",
"   $$$$$$$$$$$$$$$@@@@@@            ...ooo+++++++++++++++XXX                                    ",
"   $$$$$$$$$$$$$$$@@@@@@            ...ooo+++++++++++++++XXX                                    ",
"   %%%&&&%%%$$$$$$@@@OOO            XXX+++++++++++++++++++++                                    ",
"   %%%&&&%%%$$$$$$@@@OOO            XXX+++++++++++++++++++++                                    ",
"   %%%&&&%%%$$$$$$@@@OOO            XXX+++++++++++++++++++++                                    ",
"                                    ...ooo+++++++++++++++XXX                                    ",
"                                    ...ooo+++++++++++++++XXX                                    ",
"                                    ...ooo+++++++++++++++XXX                                    "
};
