/* XPM */
static char *result[] = {
/* columns rows colors chars-per-pixel */
"96 96 11 1 ",
"  c #3F3851",
". c #89365C",
"X c #AE444E",
"o c #BF5753",
"O c #D25654",
"+ c #CD7363",
"@ c #E27F6D",
"# c #EDA27F",
"$ c #FBCA97",
"% c #FFEAB7",
"& c #FFFAD6",
/* pixels */
"   %%%$$$$$$$$$$$$@@@@@@                                                                        ",
"   %%%$$$$$$$$$$$$@@@@@@                                                                        ",
"   %%%$$$$$$$$$$$$@@@@@@                                                                        ",
"   $$$$$$$$$$$$$$$@@@@@@      ...XXXXXXXXXoooXXX   XXX+++++++++++++++XXX                        ",
"   $$$$$$$$$$$$$$$@@@@@@      ...XXXXXXXXXoooXXX   XXX+++++++++++++++XXX                        ",
"   $$$$$$$$$$$$$$$@@@@@@      ...XXXXXXXXXoooXXX   XXX+++++++++++++++XXX                        ",
"   $$$$$$$$$$$$###@@@@@@      XXXXXXXXXXXX++++++   +++++++++++++++++++++                        ",
"   $$$$$$$$$$$$###@@@@@@      XXXXXXXXXXXX++++++   +++++++++++++++++++++                        ",
"   $$$$$$$$$$$$###@@@@@@      XXXXXXXXXXXX++++++   +++++++++++++++++++++                        ",
"   ###$$$$$$###@@@@@@@@@      ...XXXXXXXXXoooXXX   XXX+++++++++++++++XXX                        ",
"   ###$$$$$$###@@@@@@@@@      ...XXXXXXXXXoooXXX   XXX+++++++++++++++XXX                        ",
"   ###$$$$$$###@@@@@@@@@      ...XXXXXXXXXoooXXX   XXX+++++++++++++++XXX                        ",
"   @@@@@@@@@@@@@@@@@@OOO                                                                        ",
"   @@@@@@@@@@@@@@@@@@OOO                                                                        ",
"   @@@@@@@@@@@@@@@@@@OOO                                                                        ",
"                                    ...ooo+++++++++++++++XXX   XXX++++++XXX                     ",
"                                    ...ooo+++++++++++++++XXX   XXX++++++XXX                     ",
"                                    ...ooo+++++++++++++++XXX   XXX++++++XXX                     ",
"   @@@@@@@@@@@@@@@@@@OOO            XXX+++++++++++++++++++++   ++++++++++++                     ",
"   @@@@@@@@@@@@@@@@@@OOO            XXX+++++++++++++++++++++   ++++++++++++                     ",
"   @@@@@@@@@@@@@@@@@@OOO            XXX+++++++++++++++++++++   ++++++++++++                     ",
"   ###$$$$$$###@@@@@@@@@            ...ooo+++++++++++++++XXX   XXX++++++XXX                     ",
"   ###$$$$$$###@@@@@@@@@            ...ooo+++++++++++++++XXX   XXX++++++XXX                     ",
"   ###$$$$$$###@@@@@@@@@            ...ooo+++++++++++++++XXX   XXX++++++XXX                     ",
"   $$$$$$$$$$$$###@@@@@@                                                                        ",
"   $$$$$$$$$$$$###@@@@@@                                                                        ",
"   $$$$$$$$$$$$###@@@@@@                                                                        ",
"   $$$$$$$$$$$$$$$@@@@@@      ...XXXXXXXXXoooXXX   XXX+++++++++++++++XXX                        ",
"   $$$$$$$$$$$$$$$@@@@@@      ...XXXXXXXXXoooXXX   XXX+++++++++++++++XXX                        ",
"   $$$$$$$$$$$$$$$@@@@@@      ...XXXXXXXXXoooXXX   XXX+++++++++++++++XXX                        ",
"   %%%$$$$$$$$$$$$@@@@@@      XXXXXXXXXXXX++++++   +++++++++++++++++++++                        ",
"   %%%$$$$$$$$$$$$@@@@@@      XXXXXXXXXXXX++++++   +++++++++++++++++++++                        ",
"   %%%$$$$$$$$$$$$@@@@@@      XXXXXXXXXXXX++++++   +++++++++++++++++++++                        ",
"   &&&$$$$$$$$$$$$@@@@@@      ...XXXXXXXXXoooXXX   XXX+++++++++++++++XXX                        ",
"   &&&$$$$$$$$$$$$@@@@@@      ...XXXXXXXXXoooXXX   XXX+++++++++++++++XXX                        ",
"   &&&$$$$$$$$$$$$@@@@@@      ...XXXXXXXXXoooXXX   XXX+++++++++++++++XXX                        ",
"   %%%$$$$$$$$$$$$@@@@@@                                                                        ",
"   %%%$$$$$$$$$$$$@@@@@@                                                                        ",
"   %%%$$$$$$$$$$$$@@@@@@                                                                        ",
"   %%%$$$$$$$$$$$$@@@@@@            ...ooo+++++++++++++++XXX   XXX++++++XXX                     ",
"   %%%$$$$$$$$$$$$@@@@@@            ...ooo+++++++++++++++XXX   XXX++++++XXX                     ",
"   %%%$$$$$$$$$$$$@@@@@@            ...ooo+++++++++++++++XXX   XXX++++++XXX                     ",
"   $$$$$$$$$$$$$$$@@@@@@            XXX+++++++++++++++++++++   ++++++++++++                     ",
"   $$$$$$$$$$$$$$$@@@@@@            XXX+++++++++++++++++++++   ++++++++++++                     ",
"   $$$$$$$$$$$$$$$@@@@@@            XXX+++++++++++++++++++++   ++++++++++++                     ",
"   $$$$$$$$$$$$###@@@@@@            ...ooo+++++++++++++++XXX   XXX++++++XXX                     ",
"   $$$$$$$$$$$$###@@@@@@            ...ooo+++++++++++++++XXX   XXX++++++XXX                     ",
"   $$$$$$$$$$$$###@@@@@@            ...ooo+++++++++++++++XXX   XXX++++++XXX                     ",
"   ###$$$$$$###@@@@@@@@@                                                                        ",
"   ###$$$$$$###@@@@@@@@@                                                                        ",
"   ###$$$$$$###@@@@@@@@@                                                                        ",
"   @@@@@@@@@@@@@@@@@@OOO      ...XXXXXXXXXoooXXX   XXX+++++++++++++++XXX                        ",
"   @@@@@@@@@@@@@@@@@@OOO      ...XXXXXXXXXoooXXX   XXX+++++++++++++++XXX                        ",
"   @@@@@@@@@@@@@@@@@@OOO      ...XXXXXXXXXoooXXX   XXX+++++++++++++++XXX                        ",
"                              XXXXXXXXXXXX++++++   +++++++++++++++++++++                        ",
"                              XXXXXXXXXXXX++++++   +++++++++++++++++++++                        ",
"                              XXXXXXXXXXXX++++++   +++++++++++++++++++++                        ",
"   @@@@@@@@@@@@@@@@@@OOO      ...XXXXXXXXXoooXXX   XXX+++++++++++++++XXX                        ",
"   @@@@@@@@@@@@@@@@@@OOO      ...XXXXXXXXXoooXXX   XXX+++++++++++++++XXX                        ",
"   @@@@@@@@@@@@@@@@@@OOO      ...XXXXXXXXXoooXXX   XXX+++++++++++++++XXX                        ",
"   ###$$$$$$###@@@@@@@@@                                                                        ",
"   ###$$$$$$###@@@@@@@@@                                                                        ",
"   ###$$$$$$###@@@@@@@@@                                                                        ",
"   $$$$$$$$$$$$###@@@@@@            ...ooo+++++++++++++++XXX   XXX++++++XXX                     ",
"   $$$$$$$$$$$$###@@@@@@            ...ooo+++++++++++++++XXX   XXX++++++XXX                     ",
"   $$$$$$$$$$$$###@@@@@@            ...ooo+++++++++++++++XXX   XXX++++++XXX                     ",
"   %%%$$$$$$$$$$$$@@@@@@            XXX+++++++++++++++++++++   ++++++++++++                     ",
"   %%%$$$$$$$$$$$$@@@@@@            XXX+++++++++++++++++++++   ++++++++++++                     ",
"   %%%$$$$$$$$$$$$@@@@@@            XXX+++++++++++++++++++++   ++++++++++++                     ",
"   %%%$$$$$$$$$$$$@@@@@@            ...ooo+++++++++++++++XXX   XXX++++++XXX                     ",
"   %%%$$$$$$$$$$$$@@@@@@            ...ooo+++++++++++++++XXX   XXX++++++XXX                     ",
"   %%%$$$$$$$$$$$$@@@@@@            ...ooo+++++++++++++++XXX   XXX++++++XXX                     ",
"   $$$$$$$$$$$$$$$@@@@@@                                                                        ",
"   $$$$$$$$$$$$$$$@@@@@@                                                                        ",
"   $$$$$$$$$$$$$$$@@@@@@                                                                        ",
"   %%%$$$$$$$$$$$$@@@@@@      ...XXXXXXXXXoooXXX   XXX+++++++++++++++XXX                        ",
"   %%%$$$$$$$$$$$$@@@@@@      ...XXXXXXXXXoooXXX   XXX+++++++++++++++XXX                        ",
"   %%%$$$$$$$$$$$$@@@@@@      ...XXXXXXXXXoooXXX   XXX+++++++++++++++XXX                        ",
"   &&&$$$$$$$$$$$$@@@@@@      XXXXXXXXXXXX++++++   +++++++++++++++++++++                        ",
"   &&&$$$$$$$$$$$$@@@@@@      XXXXXXXXXXXX++++++   +++++++++++++++++++++                        ",
"   &&&$$$$$$$$$$$$@@@@@@      XXXXXXXXXXXX++++++   +++++++++++++++++++++                        ",
"   %%%$$$$$$$$$$$$@@@@@@      ...XXXXXXXXXoooXXX   XXX+++++++++++++++XXX                        ",
"   %%%$$$$$$$$$$$$@@@@@@      ...XXXXXXXXXoooXXX   XXX+++++++++++++++XXX                        ",
"   %%%$$$$$$$$$$$$@@@@@@      ...XXXXXXXXXoooXXX   XXX+++++++++++++++XXX                        ",
"   &&&$$$$$$$$$$$$@@@@@@                                                                        ",
"   &&&$$$$$$$$$$$$@@@@@@                                                                        ",
"   &&&$$$$$$$$$$$$@@@@@@                                                                        ",
"   &&&$$$$$$$$$$$$@@@@@@            ...ooo+++++++++++++++XXX   XXX++++++XXX                     ",
"   &&&$$$$$$$$$$$$@@@@@@            ...ooo+++++++++++++++XXX   XXX++++++XXX                     ",
"   &&&$$$$$$$$$$$$@@@@@@            ...ooo+++++++++++++++XXX   XXX++++++XXX                     ",
"   %%%$$$$$$$$$$$$@@@@@@            XXX+++++++++++++++++++++   ++++++++++++                     ",
"   %%%$$$$$$$$$$$$@@@@@@            XXX+++++++++++++++++++++   ++++++++++++                     ",
"   %%%$$$$$$$$$$$$@@@@@@            XXX+++++++++++++++++++++   ++++++++++++                     ",
"   $$$$$$$$$$$$$$$@@@@@@            ...ooo+++++++++++++++XXX   XXX++++++XXX                     ",
"   $$$$$$$$$$$$$$$@@@@@@            ...ooo+++++++++++++++XXX   XXX++++++XXX                     ",
"   $$$$$$$$$$$$$$$@@@@@@            ...ooo+++++++++++++++XXX   XXX++++++XXX                     "
};
