/* XPM */
static char *result[] = {
/* columns rows colors chars-per-pixel */
"96 96 13 1 ",
"  c #3F3851",
". c #584B57",
"X c #89365C",
"o c #9E3B57",
"O c #AE444E",
"+ c #BF5753",
"@ c #D25654",
"# c #CD7363",
"$ c #E27F6D",
"% c #EDA27F",
"& c #FBCA97",
"* c #FFEAB7",
"= c #FFFAD6",
/* pixels */
"                                                                                             ...",
"                                                                                             ...",
"                                                                                             ...",
"===***&&&***&&&&&&%%%$$$   $$$%%%&&&&&&***======******&&&&&&%%%$$$   %%%&&&******===***&&&%%%   ",
"===***&&&***&&&&&&%%%$$$   $$$%%%&&&&&&***======******&&&&&&%%%$$$   %%%&&&******===***&&&%%%   ",
"===***&&&***&&&&&&%%%$$$   $$$%%%&&&&&&***======******&&&&&&%%%$$$   %%%&&&******===***&&&%%%   ",
"&&&&&&&&&&&&&&&&&&&&&$$$   $$$&&&&&&&&&&&&&&&&&&&&&&&&&&&&&&&&&$$$   &&&&&&&&&&&&&&&&&&&&&&&&   ",
"&&&&&&&&&&&&&&&&&&&&&$$$   $$$&&&&&&&&&&&&&&&&&&&&&&&&&&&&&&&&&$$$   &&&&&&&&&&&&&&&&&&&&&&&&   ",
"&&&&&&&&&&&&&&&&&&&&&$$$   $$$&&&&&&&&&&&&&&&&&&&&&&&&&&&&&&&&&$$$   &&&&&&&&&&&&&&&&&&&&&&&&   ",
"&&&&&&&&&&&&&&&&&&&&&$$$   $$$&&&&&&&&&&&&&&&&&&&&&&&&&&&&&&&&&$$$   &&&&&&&&&&&&&&&&&&&&&&&&   ",
"&&&&&&&&&&&&&&&&&&&&&$$$   $$$&&&&&&&&&&&&&&&&&&&&&&&&&&&&&&&&&$$$   &&&&&&&&&&&&&&&&&&&&&&&&   ",
"&&&&&&&&&&&&&&&&&&&&&$$$   $$$&&&&&&&&&&&&&&&&&&&&&&&&&&&&&&&&&$$$   &&&&&&&&&&&&&&&&&&&&&&&&   ",
"&&&&&&&&&&&&&&&&&&%%%$$$   $$$%%%&&&&&&&&&&&&&&&&&&&&&&&&&&&%%%$$$   &&&&&&&&&&&&&&&&&&&&&&&&   ",
"&&&&&&&&&&&&&&&&&&%%%$$$   $$$%%%&&&&&&&&&&&&&&&&&&&&&&&&&&&%%%$$$   &&&&&&&&&&&&&&&&&&&&&&&&   ",
"&&&&&&&&&&&&&&&&&&%%%$$$   $$$%%%&&&&&&&&&&&&&&&&&&&&&&&&&&&%%%$$$   &&&&&&&&&&&&&&&&&&&&&&&&   ",
"&&&&&&&&&&&&&&&%%%$$$$$$   $$$$$$%%%&&&&&&&&&&&&&&&&&&&&&%%%$$$$$$   %%%&&&&&&&&&&&&&&&&&&%%%   ",
"&&&&&&&&&&&&&&&%%%$$$$$$   $$$$$$%%%&&&&&&&&&&&&&&&&&&&&&%%%$$$$$$   %%%&&&&&&&&&&&&&&&&&&%%%   ",
"&&&&&&&&&&&&&&&%%%$$$$$$   $$$$$$%%%&&&&&&&&&&&&&&&&&&&&&%%%$$$$$$   %%%&&&&&&&&&&&&&&&&&&%%%   ",
"$$$$$$$$$$$$$$$$$$$$$$$$   $$$$$$$$$$$$$$$$$$$$$$$$$$$$$$$$$$$$$$$   $$$%%%&&&&&&&&&&&&%%%$$$   ",
"$$$$$$$$$$$$$$$$$$$$$$$$   $$$$$$$$$$$$$$$$$$$$$$$$$$$$$$$$$$$$$$$   $$$%%%&&&&&&&&&&&&%%%$$$   ",
"$$$$$$$$$$$$$$$$$$$$$$$$   $$$$$$$$$$$$$$$$$$$$$$$$$$$$$$$$$$$$$$$   $$$%%%&&&&&&&&&&&&%%%$$$   ",
"$$$$$$$$$$$$$$$$$$$$$@@@   @@@$$$$$$$$$$$$$$$$$$$$$$$$$$$$$$$$$@@@   $$$$$$$$$$$$$$$$$$$$$$$$   ",
"$$$$$$$$$$$$$$$$$$$$$@@@   @@@$$$$$$$$$$$$$$$$$$$$$$$$$$$$$$$$$@@@   $$$$$$$$$$$$$$$$$$$$$$$$   ",
"$$$$$$$$$$$$$$$$$$$$$@@@   @@@$$$$$$$$$$$$$$$$$$$$$$$$$$$$$$$$$@@@   $$$$$$$$$$$$$$$$$$$$$$$$   ",
"                                                                     @@@$$$$$$$$$$$$$$$$$$@@@   ",
"                                                                     @@@$$$$$$$$$$$$$$$$$$@@@   ",
"                                                                     @@@$$$$$$$$$$$$$$$$$$@@@   ",
"                                                                                                ",
"                                                                                                ",
"                                                                                                ",
"   XXXoooOOOOOOOOOoooXXX                           XXXoooOOOoooXXX      @@@$$$$$$$$$$$$$$$###   ",
"   XXXoooOOOOOOOOOoooXXX                           XXXoooOOOoooXXX      @@@$$$$$$$$$$$$$$$###   ",
"   XXXoooOOOOOOOOOoooXXX                           XXXoooOOOoooXXX      @@@$$$$$$$$$$$$$$$###   ",
"   oooOOOOOOOOOOOOOOOooo   XXXOOOOOOOOOOOOOOOXXX   oooOOOOOOOOOooo      $$$$$$$$$%%%&&&&&&%%%   ",
"   oooOOOOOOOOOOOOOOOooo   XXXOOOOOOOOOOOOOOOXXX   oooOOOOOOOOOooo      $$$$$$$$$%%%&&&&&&%%%   ",
"   oooOOOOOOOOOOOOOOOooo   XXXOOOOOOOOOOOOOOOXXX   oooOOOOOOOOOooo      $$$$$$$$$%%%&&&&&&%%%   ",
"                                                                        $$$$$$%%%&&&&&&&&&&&&   ",
"                                                                        $$$$$$%%%&&&&&&&&&&&&   ",
"                                                                        $$$$$$%%%&&&&&&&&&&&&   ",
"#########OOO   OOO############OOO   OOO############+++OOOXXX            $$$$$$%%%&&&&&&&&&&&&   ",
"#########OOO   OOO############OOO   OOO############+++OOOXXX            $$$$$$%%%&&&&&&&&&&&&   ",
"#########OOO   OOO############OOO   OOO############+++OOOXXX            $$$$$$%%%&&&&&&&&&&&&   ",
"############   ##################   ##################OOOOOO            $$$$$$&&&&&&&&&&&&===   ",
"############   ##################   ##################OOOOOO            $$$$$$&&&&&&&&&&&&===   ",
"############   ##################   ##################OOOOOO            $$$$$$&&&&&&&&&&&&===   ",
"#########OOO   OOO############OOO   OOO############+++OOOXXX            $$$$$$&&&&&&&&&&&&***   ",
"#########OOO   OOO############OOO   OOO############+++OOOXXX            $$$$$$&&&&&&&&&&&&***   ",
"#########OOO   OOO############OOO   OOO############+++OOOXXX            $$$$$$&&&&&&&&&&&&***   ",
"                                                                        $$$$$$&&&&&&&&&&&&&&&   ",
"                                                                        $$$$$$&&&&&&&&&&&&&&&   ",
"                                                                        $$$$$$&&&&&&&&&&&&&&&   ",
"   OOO###############OOO   OOO###############OOO   +++OOOOOOOOOXXX      $$$$$$&&&&&&&&&&&&***   ",
"   OOO###############OOO   OOO###############OOO   +++OOOOOOOOOXXX      $$$$$$&&&&&&&&&&&&***   ",
"   OOO###############OOO   OOO###############OOO   +++OOOOOOOOOXXX      $$$$$$&&&&&&&&&&&&***   ",
"   #####################   #####################   ###OOOOOOOOOOOO      $$$$$$%%%&&&&&&&&&&&&   ",
"   #####################   #####################   ###OOOOOOOOOOOO      $$$$$$%%%&&&&&&&&&&&&   ",
"   #####################   #####################   ###OOOOOOOOOOOO      $$$$$$%%%&&&&&&&&&&&&   ",
"   OOO###############OOO   OOO###############OOO   +++OOOOOOOOOXXX      $$$$$$%%%&&&&&&&&&&&&   ",
"   OOO###############OOO   OOO###############OOO   +++OOOOOOOOOXXX      $$$$$$%%%&&&&&&&&&&&&   ",
"   OOO###############OOO   OOO###############OOO   +++OOOOOOOOOXXX      $$$$$$%%%&&&&&&&&&&&&   ",
"                                                                        $$$$$$$$$%%%&&&&&&%%%   ",
"                                                                        $$$$$$$$$%%%&&&&&&%%%   ",
"                                                                        $$$$$$$$$%%%&&&&&&%%%   ",
"OOOOOOOOOXXX   XXXOOOOOOOOOOOOXXX   XXXOOOOOOOOOOOOOOOOOOXXX            @@@$$$$$$$$$$$$$$$###   ",
"OOOOOOOOOXXX   XXXOOOOOOOOOOOOXXX   XXXOOOOOOOOOOOOOOOOOOXXX            @@@$$$$$$$$$$$$$$$###   ",
"OOOOOOOOOXXX   XXXOOOOOOOOOOOOXXX   XXXOOOOOOOOOOOOOOOOOOXXX            @@@$$$$$$$$$$$$$$$###   ",
"                                                                                                ",
"                                                                                                ",
"                                                                                                ",
"                                                                     @@@$$$$$$$$$$$$$$$$$$@@@   ",
"                                                                     @@@$$$$$$$$$$$$$$$$$$@@@   ",
"                                                                     @@@$$$$$$$$$$$$$$$$$$@@@   ",
"$$$$$$@@@   @@@$$$$$$$$$$$$$$$$$$$$$$$$$$$$$$$$$$$$$$$$$$$$$$$$@@@   $$$$$$$$$$$$$$$$$$$$$$$$   ",
"$$$$$$@@@   @@@$$$$$$$$$$$$$$$$$$$$$$$$$$$$$$$$$$$$$$$$$$$$$$$$@@@   $$$$$$$$$$$$$$$$$$$$$$$$   ",
"$$$$$$@@@   @@@$$$$$$$$$$$$$$$$$$$$$$$$$$$$$$$$$$$$$$$$$$$$$$$$@@@   $$$$$$$$$$$$$$$$$$$$$$$$   ",
"$$$$$$$$$   $$$$$$$$$$$$$$$$$$$$$$$$$$$$$$$$$$$$$$$$$$$$$$$$$$$$$$   $$$%%%&&&&&&&&&&&&%%%$$$   ",
"$$$$$$$$$   $$$$$$$$$$$$$$$$$$$$$$$$$$$$$$$$$$$$$$$$$$$$$$$$$$$$$$   $$$%%%&&&&&&&&&&&&%%%$$$   ",
"$$$$$$$$$   $$$$$$$$$$$$$$$$$$$$$$$$$$$$$$$$$$$$$$$$$$$$$$$$$$$$$$   $$$%%%&&&&&&&&&&&&%%%$$$   ",
"%%%$$$$$$   $$$$$$%%%&&&&&&&&&&&&&&&&&&&&&&&&&&&&&&&&&&&&%%%$$$$$$   %%%&&&&&&&&&&&&&&&&&&%%%   ",
"%%%$$$$$$   $$$$$$%%%&&&&&&&&&&&&&&&&&&&&&&&&&&&&&&&&&&&&%%%$$$$$$   %%%&&&&&&&&&&&&&&&&&&%%%   ",
"%%%$$$$$$   $$$$$$%%%&&&&&&&&&&&&&&&&&&&&&&&&&&&&&&&&&&&&%%%$$$$$$   %%%&&&&&&&&&&&&&&&&&&%%%   ",
"&&&%%%$$$   $$$%%%&&&&&&&&&&&&&&&&&&&&&&&&&&&&&&&&&&&&&&&&&&%%%$$$   &&&&&&&&&&&&&&&&&&&&&&&&   ",
"&&&%%%$$$   $$$%%%&&&&&&&&&&&&&&&&&&&&&&&&&&&&&&&&&&&&&&&&&&%%%$$$   &&&&&&&&&&&&&&&&&&&&&&&&   ",
"&&&%%%$$$   $$$%%%&&&&&&&&&&&&&&&&&&&&&&&&&&&&&&&&&&&&&&&&&&%%%$$$   &&&&&&&&&&&&&&&&&&&&&&&&   ",
"&&&&&&$$$   $$$&&&&&&&&&&&&&&&&&&&&&&&&&&&&&&&&&&&&&&&&&&&&&&&&$$$   &&&&&&&&&&&&&&&&&&&&&&&&   ",
"&&&&&&$$$   $$$&&&&&&&&&&&&&&&&&&&&&&&&&&&&&&&&&&&&&&&&&&&&&&&&$$$   &&&&&&&&&&&&&&&&&&&&&&&&   ",
"&&&&&&$$$   $$$&&&&&&&&&&&&&&&&&&&&&&&&&&&&&&&&&&&&&&&&&&&&&&&&$$$   &&&&&&&&&&&&&&&&&&&&&&&&   ",
"&&&&&&$$$   $$$&&&&&&&&&&&&&&&&&&&&&&&&&&&&&&&&&&&&&&&&&&&&&&&&$$$   &&&&&&&&&&&&&&&&&&&&&&&&   ",
"&&&&&&$$$   $$$&&&&&&&&&&&&&&&&&&&&&&&&&&&&&&&&&&&&&&&&&&&&&&&&$$$   &&&&&&&&&&&&&&&&&&&&&&&&   ",
"&&&&&&$$$   $$$&&&&&&&&&&&&&&&&&&&&&&&&&&&&&&&&&&&&&&&&&&&&&&&&$$$   &&&&&&&&&&&&&&&&&&&&&&&&   ",
"&&&%%%$$$   $$$%%%&&&&&&***&&&***===***&&&******===******&&&%%%$$$   %%%&&&******===***&&&%%%   ",
"&&&%%%$$$   $$$%%%&&&&&&***&&&***===***&&&******===******&&&%%%$$$   %%%&&&******===***&&&%%%   ",
"&&&%%%$$$   $$$%%%&&&&&&***&&&***===***&&&******===******&&&%%%$$$   %%%&&&******===***&&&%%%   ",
"                                                                                             ...",
"                                                                                             ...",
"                                                                                             ..."
};
