/* XPM */
static char *result[] = {
/* columns rows colors chars-per-pixel */
"96 96 11 1 ",
"  c #3F3851",
". c #89365C",
"X c #AE444E",
"o c #BF5753",
"O c #D25654",
"+ c #CD7363",
"@ c #E27F6D",
"# c #EDA27F",
"$ c #FBCA97",
"% c #FFEAB7",
"& c #FFFAD6",
/* pixels */
"   %%%$$$$$$$$$$$$@@@@@@                                                @@@@@@$$$$$$$$$$$$$$$   ",
"   %%%$$$$$$$$$$$$@@@@@@                                                @@@@@@$$$$$$$$$$$$$$$   ",
"   %%%$$$$$$$$$$$$@@@@@@                                                @@@@@@$$$$$$$$$$$$$$$   ",
"   $$$$$$$$$$$$$$$@@@@@@      ...XXXXXXooo+++XXX   XXXoooXXXXXX...      @@@@@@$$$$$$$$$$$$%%%   ",
"   $$$$$$$$$$$$$$$@@@@@@      ...XXXXXXooo+++XXX   XXXoooXXXXXX...      @@@@@@$$$$$$$$$$$$%%%   ",
"   $$$$$$$$$$$$$$$@@@@@@      ...XXXXXXooo+++XXX   XXXoooXXXXXX...      @@@@@@$$$$$$$$$$$$%%%   ",
"   $$$$$$$$$$$$###@@@@@@      XXXXXXXXX+++++++++   ++++++XXXXXXXXX      @@@@@@$$$$$$$$$$$$&&&   ",
"   $$$$$$$$$$$$###@@@@@@      XXXXXXXXX+++++++++   ++++++XXXXXXXXX      @@@@@@$$$$$$$$$$$$&&&   ",
"   $$$$$$$$$$$$###@@@@@@      XXXXXXXXX+++++++++   ++++++XXXXXXXXX      @@@@@@$$$$$$$$$$$$&&&   ",
"   ###$$$$$$###@@@@@@@@@      ...XXXXXXooo+++XXX   XXXoooXXXXXX...      @@@@@@$$$$$$$$$$$$&&&   ",
"   ###$$$$$$###@@@@@@@@@      ...XXXXXXooo+++XXX   XXXoooXXXXXX...      @@@@@@$$$$$$$$$$$$&&&   ",
"   ###$$$$$$###@@@@@@@@@      ...XXXXXXooo+++XXX   XXXoooXXXXXX...      @@@@@@$$$$$$$$$$$$&&&   ",
"   @@@@@@@@@@@@@@@@@@OOO                                                @@@@@@$$$$$$$$$$$$%%%   ",
"   @@@@@@@@@@@@@@@@@@OOO                                                @@@@@@$$$$$$$$$$$$%%%   ",
"   @@@@@@@@@@@@@@@@@@OOO                                                @@@@@@$$$$$$$$$$$$%%%   ",
"                                 ...   XXX++++++++++++XXX   ...         @@@@@@$$$$$$$$$$$$&&&   ",
"                                 ...   XXX++++++++++++XXX   ...         @@@@@@$$$$$$$$$$$$&&&   ",
"                                 ...   XXX++++++++++++XXX   ...         @@@@@@$$$$$$$$$$$$&&&   ",
"   @@@@@@@@@@@@@@@@@@OOO         XXX   ++++++++++++++++++   XXX         @@@@@@$$$$$$$$$$$$%%%   ",
"   @@@@@@@@@@@@@@@@@@OOO         XXX   ++++++++++++++++++   XXX         @@@@@@$$$$$$$$$$$$%%%   ",
"   @@@@@@@@@@@@@@@@@@OOO         XXX   ++++++++++++++++++   XXX         @@@@@@$$$$$$$$$$$$%%%   ",
"   ###$$$$$$###@@@@@@@@@         ...   XXX++++++++++++XXX   ...         @@@@@@$$$$$$$$$$$$$$$   ",
"   ###$$$$$$###@@@@@@@@@         ...   XXX++++++++++++XXX   ...         @@@@@@$$$$$$$$$$$$$$$   ",
"   ###$$$$$$###@@@@@@@@@         ...   XXX++++++++++++XXX   ...         @@@@@@$$$$$$$$$$$$$$$   ",
"   $$$$$$$$$$$$###@@@@@@                                                @@@@@@$$$$$$$$$$$$%%%   ",
"   $$$$$$$$$$$$###@@@@@@                                                @@@@@@$$$$$$$$$$$$%%%   ",
"   $$$$$$$$$$$$###@@@@@@                                                @@@@@@$$$$$$$$$$$$%%%   ",
"   $$$$$$$$$$$$$$$@@@@@@            ...ooo+++XXX   XXXoooXXXXXX...      @@@@@@$$$$$$$$$$$$%%%   ",
"   $$$$$$$$$$$$$$$@@@@@@            ...ooo+++XXX   XXXoooXXXXXX...      @@@@@@$$$$$$$$$$$$%%%   ",
"   $$$$$$$$$$$$$$$@@@@@@            ...ooo+++XXX   XXXoooXXXXXX...      @@@@@@$$$$$$$$$$$$%%%   ",
"   %%%$$$$$$$$$$$$@@@@@@            XXX+++++++++   ++++++XXXXXXXXX      @@@@@@###$$$$$$$$$$$$   ",
"   %%%$$$$$$$$$$$$@@@@@@            XXX+++++++++   ++++++XXXXXXXXX      @@@@@@###$$$$$$$$$$$$   ",
"   %%%$$$$$$$$$$$$@@@@@@            XXX+++++++++   ++++++XXXXXXXXX      @@@@@@###$$$$$$$$$$$$   ",
"   &&&$$$$$$$$$$$$@@@@@@            ...ooo+++XXX   XXXoooXXXXXX...      @@@@@@@@@###$$$$$$###   ",
"   &&&$$$$$$$$$$$$@@@@@@            ...ooo+++XXX   XXXoooXXXXXX...      @@@@@@@@@###$$$$$$###   ",
"   &&&$$$$$$$$$$$$@@@@@@            ...ooo+++XXX   XXXoooXXXXXX...      @@@@@@@@@###$$$$$$###   ",
"   %%%$$$$$$$$$$$$@@@@@@                                                OOO@@@@@@@@@@@@@@@@@@   ",
"   %%%$$$$$$$$$$$$@@@@@@                                                OOO@@@@@@@@@@@@@@@@@@   ",
"   %%%$$$$$$$$$$$$@@@@@@                                                OOO@@@@@@@@@@@@@@@@@@   ",
"   %%%$$$$$$$$$$$$@@@@@@         ...   XXX++++++++++++XXX   ...                                 ",
"   %%%$$$$$$$$$$$$@@@@@@         ...   XXX++++++++++++XXX   ...                                 ",
"   %%%$$$$$$$$$$$$@@@@@@         ...   XXX++++++++++++XXX   ...                                 ",
"   $$$$$$$$$$$$$$$@@@@@@         XXX   ++++++++++++++++++   XXX         OOO@@@@@@@@@@@@@@@@@@   ",
"   $$$$$$$$$$$$$$$@@@@@@         XXX   ++++++++++++++++++   XXX         OOO@@@@@@@@@@@@@@@@@@   ",
"   $$$$$$$$$$$$$$$@@@@@@         XXX   ++++++++++++++++++   XXX         OOO@@@@@@@@@@@@@@@@@@   ",
"   $$$$$$$$$$$$###@@@@@@         ...   XXX++++++++++++XXX   ...         @@@@@@@@@###$$$$$$###   ",
"   $$$$$$$$$$$$###@@@@@@         ...   XXX++++++++++++XXX   ...         @@@@@@@@@###$$$$$$###   ",
"   $$$$$$$$$$$$###@@@@@@         ...   XXX++++++++++++XXX   ...         @@@@@@@@@###$$$$$$###   ",
"   ###$$$$$$###@@@@@@@@@                                                @@@@@@###$$$$$$$$$$$$   ",
"   ###$$$$$$###@@@@@@@@@                                                @@@@@@###$$$$$$$$$$$$   ",
"   ###$$$$$$###@@@@@@@@@                                                @@@@@@###$$$$$$$$$$$$   ",
"   @@@@@@@@@@@@@@@@@@OOO      ...XXXXXXooo+++XXX   XXXoooXXXXXX...      @@@@@@$$$$$$$$$$$$$$$   ",
"   @@@@@@@@@@@@@@@@@@OOO      ...XXXXXXooo+++XXX   XXXoooXXXXXX...      @@@@@@$$$$$$$$$$$$$$$   ",
"   @@@@@@@@@@@@@@@@@@OOO      ...XXXXXXooo+++XXX   XXXoooXXXXXX...      @@@@@@$$$$$$$$$$$$$$$   ",
"                              XXXXXXXXX+++++++++   ++++++XXXXXXXXX      @@@@@@$$$$$$$$$$$$%%%   ",
"                              XXXXXXXXX+++++++++   ++++++XXXXXXXXX      @@@@@@$$$$$$$$$$$$%%%   ",
"                              XXXXXXXXX+++++++++   ++++++XXXXXXXXX      @@@@@@$$$$$$$$$$$$%%%   ",
"   @@@@@@@@@@@@@@@@@@OOO      ...XXXXXXooo+++XXX   XXXoooXXXXXX...      @@@@@@$$$$$$$$$$$$%%%   ",
"   @@@@@@@@@@@@@@@@@@OOO      ...XXXXXXooo+++XXX   XXXoooXXXXXX...      @@@@@@$$$$$$$$$$$$%%%   ",
"   @@@@@@@@@@@@@@@@@@OOO      ...XXXXXXooo+++XXX   XXXoooXXXXXX...      @@@@@@$$$$$$$$$$$$%%%   ",
"   ###$$$$$$###@@@@@@@@@                                                @@@@@@$$$$$$$$$$$$&&&   ",
"   ###$$$$$$###@@@@@@@@@                                                @@@@@@$$$$$$$$$$$$&&&   ",
"   ###$$$$$$###@@@@@@@@@                                                @@@@@@$$$$$$$$$$$$&&&   ",
"   $$$$$$$$$$$$###@@@@@@         ...   XXX++++++++++++XXX   ...         @@@@@@$$$$$$$$$$$$%%%   ",
"   $$$$$$$$$$$$###@@@@@@         ...   XXX++++++++++++XXX   ...         @@@@@@$$$$$$$$$$$$%%%   ",
"   $$$$$$$$$$$$###@@@@@@         ...   XXX++++++++++++XXX   ...         @@@@@@$$$$$$$$$$$$%%%   ",
"   %%%$$$$$$$$$$$$@@@@@@         XXX   ++++++++++++++++++   XXX         @@@@@@$$$$$$$$$$$$$$$   ",
"   %%%$$$$$$$$$$$$@@@@@@         XXX   ++++++++++++++++++   XXX         @@@@@@$$$$$$$$$$$$$$$   ",
"   %%%$$$$$$$$$$$$@@@@@@         XXX   ++++++++++++++++++   XXX         @@@@@@$$$$$$$$$$$$$$$   ",
"   %%%$$$$$$$$$$$$@@@@@@         ...   XXX++++++++++++XXX   ...         @@@@@@###$$$$$$$$$$$$   ",
"   %%%$$$$$$$$$$$$@@@@@@         ...   XXX++++++++++++XXX   ...         @@@@@@###$$$$$$$$$$$$   ",
"   %%%$$$$$$$$$$$$@@@@@@         ...   XXX++++++++++++XXX   ...         @@@@@@###$$$$$$$$$$$$   ",
"   $$$$$$$$$$$$$$$@@@@@@                                                @@@@@@@@@###$$$$$$###   ",
"   $$$$$$$$$$$$$$$@@@@@@                                                @@@@@@@@@###$$$$$$###   ",
"   $$$$$$$$$$$$$$$@@@@@@                                                @@@@@@@@@###$$$$$$###   ",
"   %%%$$$$$$$$$$$$@@@@@@      ...XXXXXXooo+++XXX   XXXoooXXX...         OOO@@@@@@@@@@@@@@@@@@   ",
"   %%%$$$$$$$$$$$$@@@@@@      ...XXXXXXooo+++XXX   XXXoooXXX...         OOO@@@@@@@@@@@@@@@@@@   ",
"   %%%$$$$$$$$$$$$@@@@@@      ...XXXXXXooo+++XXX   XXXoooXXX...         OOO@@@@@@@@@@@@@@@@@@   ",
"   &&&$$$$$$$$$$$$@@@@@@      XXXXXXXXX+++++++++   ++++++XXXXXX                                 ",
"   &&&$$$$$$$$$$$$@@@@@@      XXXXXXXXX+++++++++   ++++++XXXXXX                                 ",
"   &&&$$$$$$$$$$$$@@@@@@      XXXXXXXXX+++++++++   ++++++XXXXXX                                 ",
"   %%%$$$$$$$$$$$$@@@@@@      ...XXXXXXooo+++XXX   XXXoooXXX...         OOO@@@@@@@@@@@@@@@@@@   ",
"   %%%$$$$$$$$$$$$@@@@@@      ...XXXXXXooo+++XXX   XXXoooXXX...         OOO@@@@@@@@@@@@@@@@@@   ",
"   %%%$$$$$$$$$$$$@@@@@@      ...XXXXXXooo+++XXX   XXXoooXXX...         OOO@@@@@@@@@@@@@@@@@@   ",
"   &&&$$$$$$$$$$$$@@@@@@                                                @@@@@@@@@###$$$$$$###   ",
"   &&&$$$$$$$$$$$$@@@@@@                                                @@@@@@@@@###$$$$$$###   ",
"   &&&$$$$$$$$$$$$@@@@@@                                                @@@@@@@@@###$$$$$$###   ",
"   &&&$$$$$$$$$$$$@@@@@@         ...   XXX++++++++++++XXX   ...         @@@@@@###$$$$$$$$$$$$   ",
"   &&&$$$$$$$$$$$$@@@@@@         ...   XXX++++++++++++XXX   ...         @@@@@@###$$$$$$$$$$$$   ",
"   &&&$$$$$$$$$$$$@@@@@@         ...   XXX++++++++++++XXX   ...         @@@@@@###$$$$$$$$$$$$   ",
"   %%%$$$$$$$$$$$$@@@@@@         XXX   ++++++++++++++++++   XXX         @@@@@@$$$$$$$$$$$$$$$   ",
"   %%%$$$$$$$$$$$$@@@@@@         XXX   ++++++++++++++++++   XXX         @@@@@@$$$$$$$$$$$$$$$   ",
"   %%%$$$$$$$$$$$$@@@@@@         XXX   ++++++++++++++++++   XXX         @@@@@@$$$$$$$$$$$$$$$   ",
"   $$$$$$$$$$$$$$$@@@@@@         ...   XXX++++++++++++XXX   ...         @@@@@@$$$$$$$$$$$$%%%   ",
"   $$$$$$$$$$$$$$$@@@@@@         ...   XXX++++++++++++XXX   ...         @@@@@@$$$$$$$$$$$$%%%   ",
"   $$$$$$$$$$$$$$$@@@@@@         ...   XXX++++++++++++XXX   ...         @@@@@@$$$$$$$$$$$$%%%   "
};
