/* XPM */
static char *result[] = {
/* columns rows colors chars-per-pixel */
"96 96 12 1 ",
"  c #3F3851",
". c #89365C",
"X c #9E3B57",
"o c #AE444E",
"O c #BF5753",
"+ c #D25654",
"@ c #CD7363",
"# c #E27F6D",
"$ c #EDA27F",
"% c #FBCA97",
"& c #FFEAB7",
"* c #FFFAD6",
/* pixels */
"                                                                                                ",
"                                                                                                ",
"                                                                                                ",
"   &&&***&&&%%%%%%###+++      ...ooooooooo@@@ooo   OOOooooooooo...      +++###%%%%%%&&&***&&&   ",
"   &&&***&&&%%%%%%###+++      ...ooooooooo@@@ooo   OOOooooooooo...      +++###%%%%%%&&&***&&&   ",
"   &&&***&&&%%%%%%###+++      ...ooooooooo@@@ooo   OOOooooooooo...      +++###%%%%%%&&&***&&&   ",
"   %%%%%%%%%%%%%%%######      oooooooooooo@@@@@@   @@@oooooooooooo      ######%%%%%%%%%%%%%%%   ",
"   %%%%%%%%%%%%%%%######      oooooooooooo@@@@@@   @@@oooooooooooo      ######%%%%%%%%%%%%%%%   ",
"   %%%%%%%%%%%%%%%######      oooooooooooo@@@@@@   @@@oooooooooooo      ######%%%%%%%%%%%%%%%   ",
"   %%%%%%%%%%%%%%%######      ...ooooooooo@@@ooo   OOOooooooooo...      ######%%%%%%%%%%%%%%%   ",
"   %%%%%%%%%%%%%%%######      ...ooooooooo@@@ooo   OOOooooooooo...      ######%%%%%%%%%%%%%%%   ",
"   %%%%%%%%%%%%%%%######      ...ooooooooo@@@ooo   OOOooooooooo...      ######%%%%%%%%%%%%%%%   ",
"   %%%%%%%%%%%%$$$######                                                ######$$$%%%%%%%%%%%%   ",
"   %%%%%%%%%%%%$$$######                                                ######$$$%%%%%%%%%%%%   ",
"   %%%%%%%%%%%%$$$######                                                ######$$$%%%%%%%%%%%%   ",
"   %%%%%%%%%$$$#########            ...OOO@@@@@@@@@@@@OOO...            #########$$$%%%%%%%%%   ",
"   %%%%%%%%%$$$#########            ...OOO@@@@@@@@@@@@OOO...            #########$$$%%%%%%%%%   ",
"   %%%%%%%%%$$$#########            ...OOO@@@@@@@@@@@@OOO...            #########$$$%%%%%%%%%   ",
"   #####################            ooo@@@@@@@@@@@@@@@@@@ooo            #####################   ",
"   #####################            ooo@@@@@@@@@@@@@@@@@@ooo            #####################   ",
"   #####################            ooo@@@@@@@@@@@@@@@@@@ooo            #####################   ",
"   +++###############+++            ...OOO@@@@@@@@@@@@OOO...            +++###############+++   ",
"   +++###############+++            ...OOO@@@@@@@@@@@@OOO...            +++###############+++   ",
"   +++###############+++            ...OOO@@@@@@@@@@@@OOO...            +++###############+++   ",
"                                                                                                ",
"                                                                                                ",
"                                                                                                ",
"                              ...ooooooooo@@@@@@ooo                                             ",
"                              ...ooooooooo@@@@@@ooo                                             ",
"                              ...ooooooooo@@@@@@ooo                                             ",
"   ...XXXooooooooooooXXX...   oooooooooooo@@@@@@@@@                                             ",
"   ...XXXooooooooooooXXX...   oooooooooooo@@@@@@@@@                                             ",
"   ...XXXooooooooooooXXX...   oooooooooooo@@@@@@@@@                                             ",
"   XXXooooooooooooooooooXXX   ...ooooooooo@@@@@@ooo                           ...oooooooooooo...",
"   XXXooooooooooooooooooXXX   ...ooooooooo@@@@@@ooo                           ...oooooooooooo...",
"   XXXooooooooooooooooooXXX   ...ooooooooo@@@@@@ooo                           ...oooooooooooo...",
"                                                                                                ",
"                                                                                                ",
"                                                                                                ",
"oooooooooooo...   ...oooooooooooo...   ooo@@@@@@@@@@@@@@@@@@ooo   ooo@@@@@@@@@@@@ooo   ooo@@@@@@",
"oooooooooooo...   ...oooooooooooo...   ooo@@@@@@@@@@@@@@@@@@ooo   ooo@@@@@@@@@@@@ooo   ooo@@@@@@",
"oooooooooooo...   ...oooooooooooo...   ooo@@@@@@@@@@@@@@@@@@ooo   ooo@@@@@@@@@@@@ooo   ooo@@@@@@",
"@@@@@@@@@@@@OOO   OOO@@@@@@@@@@@@OOO   @@@@@@@@@@@@@@@@@@@@@@@@   @@@@@@@@@@@@@@@@@@   @@@@@@@@@",
"@@@@@@@@@@@@OOO   OOO@@@@@@@@@@@@OOO   @@@@@@@@@@@@@@@@@@@@@@@@   @@@@@@@@@@@@@@@@@@   @@@@@@@@@",
"@@@@@@@@@@@@OOO   OOO@@@@@@@@@@@@OOO   @@@@@@@@@@@@@@@@@@@@@@@@   @@@@@@@@@@@@@@@@@@   @@@@@@@@@",
"@@@@@@@@@@@@ooo                        ooo@@@@@@@@@@@@@@@@@@ooo   ooo@@@@@@@@@@@@ooo   ooo@@@@@@",
"@@@@@@@@@@@@ooo                        ooo@@@@@@@@@@@@@@@@@@ooo   ooo@@@@@@@@@@@@ooo   ooo@@@@@@",
"@@@@@@@@@@@@ooo                        ooo@@@@@@@@@@@@@@@@@@ooo   ooo@@@@@@@@@@@@ooo   ooo@@@@@@",
"                                                                                                ",
"                                                                                                ",
"                                                                                                ",
"                                                      ooo@@@@@@@@@@@@@@@ooo   ooo@@@@@@@@@@@@ooo",
"                                                      ooo@@@@@@@@@@@@@@@ooo   ooo@@@@@@@@@@@@ooo",
"                                                      ooo@@@@@@@@@@@@@@@ooo   ooo@@@@@@@@@@@@ooo",
"                                                      @@@@@@@@@@@@@@@@@@@@@   @@@@@@@@@@@@@@@@@@",
"                                                      @@@@@@@@@@@@@@@@@@@@@   @@@@@@@@@@@@@@@@@@",
"                                                      @@@@@@@@@@@@@@@@@@@@@   @@@@@@@@@@@@@@@@@@",
"                                                      ooo@@@@@@@@@@@@@@@ooo   ooo@@@@@@@@@@@@ooo",
"                                                      ooo@@@@@@@@@@@@@@@ooo   ooo@@@@@@@@@@@@ooo",
"                                                      ooo@@@@@@@@@@@@@@@ooo   ooo@@@@@@@@@@@@ooo",
"                                                                                                ",
"                                                                                                ",
"                                                                                                ",
"@@@@@@@@@@@@ooo                     ooo@@@@@@@@@@@@@@@OOO...      ...ooooooooo...      ...oooooo",
"@@@@@@@@@@@@ooo                     ooo@@@@@@@@@@@@@@@OOO...      ...ooooooooo...      ...oooooo",
"@@@@@@@@@@@@ooo                     ooo@@@@@@@@@@@@@@@OOO...      ...ooooooooo...      ...oooooo",
"@@@@@@@@@@@@@@@                     @@@@@@@@@@@@@@@@@@@@@ooo                                    ",
"@@@@@@@@@@@@@@@                     @@@@@@@@@@@@@@@@@@@@@ooo                                    ",
"@@@@@@@@@@@@@@@                     @@@@@@@@@@@@@@@@@@@@@ooo                                    ",
"@@@@@@@@@@@@ooo                     ooo@@@@@@@@@@@@@@@OOO...                                    ",
"@@@@@@@@@@@@ooo                     ooo@@@@@@@@@@@@@@@OOO...                                    ",
"@@@@@@@@@@@@ooo                     ooo@@@@@@@@@@@@@@@OOO...                                    ",
"                                                                        +++###############+++   ",
"                                                                        +++###############+++   ",
"                                                                        +++###############+++   ",
"                           ooo@@@@@@@@@@@@@@@ooo   OOOooooooooo...      #####################   ",
"                           ooo@@@@@@@@@@@@@@@ooo   OOOooooooooo...      #####################   ",
"                           ooo@@@@@@@@@@@@@@@ooo   OOOooooooooo...      #####################   ",
"                           @@@@@@@@@@@@@@@@@@@@@   @@@oooooooooooo      #########$$$%%%%%%%%%   ",
"                           @@@@@@@@@@@@@@@@@@@@@   @@@oooooooooooo      #########$$$%%%%%%%%%   ",
"                           @@@@@@@@@@@@@@@@@@@@@   @@@oooooooooooo      #########$$$%%%%%%%%%   ",
"                           ooo@@@@@@@@@@@@@@@ooo   OOOooooooooo...      ######$$$%%%%%%%%%%%%   ",
"                           ooo@@@@@@@@@@@@@@@ooo   OOOooooooooo...      ######$$$%%%%%%%%%%%%   ",
"                           ooo@@@@@@@@@@@@@@@ooo   OOOooooooooo...      ######$$$%%%%%%%%%%%%   ",
"                                                                        ######%%%%%%%%%%%%%%%   ",
"                                                                        ######%%%%%%%%%%%%%%%   ",
"                                                                        ######%%%%%%%%%%%%%%%   ",
"                                    ooo@@@@@@@@@@@@@@@OOO...            ######%%%%%%%%%%%%%%%   ",
"                                    ooo@@@@@@@@@@@@@@@OOO...            ######%%%%%%%%%%%%%%%   ",
"                                    ooo@@@@@@@@@@@@@@@OOO...            ######%%%%%%%%%%%%%%%   ",
"                                    @@@@@@@@@@@@@@@@@@@@@ooo            +++###%%%%%%&&&***&&&   ",
"                                    @@@@@@@@@@@@@@@@@@@@@ooo            +++###%%%%%%&&&***&&&   ",
"                                    @@@@@@@@@@@@@@@@@@@@@ooo            +++###%%%%%%&&&***&&&   ",
"                                    ooo@@@@@@@@@@@@@@@OOO...                                    ",
"                                    ooo@@@@@@@@@@@@@@@OOO...                                    ",
"                                    ooo@@@@@@@@@@@@@@@OOO...                                    "
};
