/* XPM */
static char *result[] = {
/* columns rows colors chars-per-pixel */
"96 96 12 1 ",
"  c #3F3851",
". c #584B57",
"X c #89365C",
"o c #AE444E",
"O c #BF5753",
"+ c #D25654",
"@ c #CD7363",
"# c #E27F6D",
"$ c #EDA27F",
"% c #FBCA97",
"& c #FFEAB7",
"* c #FFFAD6",
/* pixels */
"                                                                        ######%%%%%%%%%%%%&&&   ",
"                                                                        ######%%%%%%%%%%%%&&&   ",
"                                                                        ######%%%%%%%%%%%%&&&   ",
"   &&&***&&&%%%%%%###+++      XXXooooooOOO@@@ooo   oooOOOooooooXXX      ######%%%%%%%%%%%%&&&   ",
"   &&&***&&&%%%%%%###+++      XXXooooooOOO@@@ooo   oooOOOooooooXXX      ######%%%%%%%%%%%%&&&   ",
"   &&&***&&&%%%%%%###+++      XXXooooooOOO@@@ooo   oooOOOooooooXXX      ######%%%%%%%%%%%%&&&   ",
"   %%%%%%%%%%%%%%%######      ooooooooo@@@@@@@@@   @@@@@@ooooooooo      ######%%%%%%%%%%%%%%%   ",
"   %%%%%%%%%%%%%%%######      ooooooooo@@@@@@@@@   @@@@@@ooooooooo      ######%%%%%%%%%%%%%%%   ",
"   %%%%%%%%%%%%%%%######      ooooooooo@@@@@@@@@   @@@@@@ooooooooo      ######%%%%%%%%%%%%%%%   ",
"   %%%%%%%%%%%%%%%######      XXXooooooOOO@@@ooo   oooOOOooooooXXX      ######%%%%%%%%%%%%&&&   ",
"   %%%%%%%%%%%%%%%######      XXXooooooOOO@@@ooo   oooOOOooooooXXX      ######%%%%%%%%%%%%&&&   ",
"   %%%%%%%%%%%%%%%######      XXXooooooOOO@@@ooo   oooOOOooooooXXX      ######%%%%%%%%%%%%&&&   ",
"   %%%%%%%%%%%%$$$######                                                ######%%%%%%%%%%%%%%%   ",
"   %%%%%%%%%%%%$$$######                                                ######%%%%%%%%%%%%%%%   ",
"   %%%%%%%%%%%%$$$######                                                ######%%%%%%%%%%%%%%%   ",
"   %%%%%%%%%$$$#########            XXXOOO@@@@@@@@@@@@OOOXXX            ######$$$%%%%%%%%%%%%   ",
"   %%%%%%%%%$$$#########            XXXOOO@@@@@@@@@@@@OOOXXX            ######$$$%%%%%%%%%%%%   ",
"   %%%%%%%%%$$$#########            XXXOOO@@@@@@@@@@@@OOOXXX            ######$$$%%%%%%%%%%%%   ",
"   #####################            ooo@@@@@@@@@@@@@@@@@@ooo            #########$$$%%%%%%$$$   ",
"   #####################            ooo@@@@@@@@@@@@@@@@@@ooo            #########$$$%%%%%%$$$   ",
"   #####################            ooo@@@@@@@@@@@@@@@@@@ooo            #########$$$%%%%%%$$$   ",
"   +++###############+++            XXXOOO@@@@@@@@@@@@OOOXXX            +++##################   ",
"   +++###############+++            XXXOOO@@@@@@@@@@@@OOOXXX            +++##################   ",
"   +++###############+++            XXXOOO@@@@@@@@@@@@OOOXXX            +++##################   ",
"                                                                                                ",
"                                                                                                ",
"                                                                                                ",
"                              XXXooooooOOO@@@ooo   oooOOOooooooXXX      +++##################   ",
"                              XXXooooooOOO@@@ooo   oooOOOooooooXXX      +++##################   ",
"                              XXXooooooOOO@@@ooo   oooOOOooooooXXX      +++##################   ",
"                              ooooooooo@@@@@@@@@   @@@@@@ooooooooo      #########$$$%%%%%%$$$   ",
"                              ooooooooo@@@@@@@@@   @@@@@@ooooooooo      #########$$$%%%%%%$$$   ",
"                              ooooooooo@@@@@@@@@   @@@@@@ooooooooo      #########$$$%%%%%%$$$   ",
"   XXXooooooooooooooooooXXX   XXXooooooOOO@@@ooo   oooOOOooooooXXX      ######$$$%%%%%%%%%%%%   ",
"   XXXooooooooooooooooooXXX   XXXooooooOOO@@@ooo   oooOOOooooooXXX      ######$$$%%%%%%%%%%%%   ",
"   XXXooooooooooooooooooXXX   XXXooooooOOO@@@ooo   oooOOOooooooXXX      ######$$$%%%%%%%%%%%%   ",
"                                                                        ######%%%%%%%%%%%%%%%   ",
"                                                                        ######%%%%%%%%%%%%%%%   ",
"                                                                        ######%%%%%%%%%%%%%%%   ",
"@@@@@@@@@@@@ooo   ooo@@@@@@@@@@@@ooo   ooo@@@@@@@@@@@@OOOXXX            ######%%%%%%%%%%%%&&&   ",
"@@@@@@@@@@@@ooo   ooo@@@@@@@@@@@@ooo   ooo@@@@@@@@@@@@OOOXXX            ######%%%%%%%%%%%%&&&   ",
"@@@@@@@@@@@@ooo   ooo@@@@@@@@@@@@ooo   ooo@@@@@@@@@@@@OOOXXX            ######%%%%%%%%%%%%&&&   ",
"@@@@@@@@@@@@@@@   @@@@@@@@@@@@@@@@@@   @@@@@@@@@@@@@@@@@@ooo            ######%%%%%%%%%%%%***   ",
"@@@@@@@@@@@@@@@   @@@@@@@@@@@@@@@@@@   @@@@@@@@@@@@@@@@@@ooo            ######%%%%%%%%%%%%***   ",
"@@@@@@@@@@@@@@@   @@@@@@@@@@@@@@@@@@   @@@@@@@@@@@@@@@@@@ooo            ######%%%%%%%%%%%%***   ",
"@@@@@@@@@@@@ooo   ooo@@@@@@@@@@@@ooo   ooo@@@@@@@@@@@@OOOXXX            ######%%%%%%%%%%%%&&&   ",
"@@@@@@@@@@@@ooo   ooo@@@@@@@@@@@@ooo   ooo@@@@@@@@@@@@OOOXXX            ######%%%%%%%%%%%%&&&   ",
"@@@@@@@@@@@@ooo   ooo@@@@@@@@@@@@ooo   ooo@@@@@@@@@@@@OOOXXX            ######%%%%%%%%%%%%&&&   ",
"                                                                        ######%%%%%%%%%%%%%%%   ",
"                                                                        ######%%%%%%%%%%%%%%%   ",
"                                                                        ######%%%%%%%%%%%%%%%   ",
"   ooo@@@@@@@@@@@@@@@ooo   ooo@@@@@@@@@@@@@@@ooo   oooOOOooooooXXX      ######%%%%%%%%%%%%&&&   ",
"   ooo@@@@@@@@@@@@@@@ooo   ooo@@@@@@@@@@@@@@@ooo   oooOOOooooooXXX      ######%%%%%%%%%%%%&&&   ",
"   ooo@@@@@@@@@@@@@@@ooo   ooo@@@@@@@@@@@@@@@ooo   oooOOOooooooXXX      ######%%%%%%%%%%%%&&&   ",
"   @@@@@@@@@@@@@@@@@@@@@   @@@@@@@@@@@@@@@@@@@@@   @@@@@@ooooooooo      ######%%%%%%%%%%%%%%%   ",
"   @@@@@@@@@@@@@@@@@@@@@   @@@@@@@@@@@@@@@@@@@@@   @@@@@@ooooooooo      ######%%%%%%%%%%%%%%%   ",
"   @@@@@@@@@@@@@@@@@@@@@   @@@@@@@@@@@@@@@@@@@@@   @@@@@@ooooooooo      ######%%%%%%%%%%%%%%%   ",
"   ooo@@@@@@@@@@@@@@@ooo   ooo@@@@@@@@@@@@@@@ooo   oooOOOooooooXXX      ######$$$%%%%%%%%%%%%   ",
"   ooo@@@@@@@@@@@@@@@ooo   ooo@@@@@@@@@@@@@@@ooo   oooOOOooooooXXX      ######$$$%%%%%%%%%%%%   ",
"   ooo@@@@@@@@@@@@@@@ooo   ooo@@@@@@@@@@@@@@@ooo   oooOOOooooooXXX      ######$$$%%%%%%%%%%%%   ",
"                                                                        #########$$$%%%%%%$$$   ",
"                                                                        #########$$$%%%%%%$$$   ",
"                                                                        #########$$$%%%%%%$$$   ",
"oooooooooXXX                        XXXooooooooooooooooooXXX            +++##################   ",
"oooooooooXXX                        XXXooooooooooooooooooXXX            +++##################   ",
"oooooooooXXX                        XXXooooooooooooooooooXXX            +++##################   ",
"                                                                                                ",
"                                                                                                ",
"                                                                                                ",
"                                                                     +++##################+++   ",
"                                                                     +++##################+++   ",
"                                                                     +++##################+++   ",
"######+++   +++################################################+++   ########################   ",
"######+++   +++################################################+++   ########################   ",
"######+++   +++################################################+++   ########################   ",
"#########   ######################################################   ###$$$%%%%%%%%%%%%$$$###   ",
"#########   ######################################################   ###$$$%%%%%%%%%%%%$$$###   ",
"#########   ######################################################   ###$$$%%%%%%%%%%%%$$$###   ",
"$$$######   ######$$$%%%%%%%%%%%%%%%%%%%%%%%%%%%%%%%%%%%%$$$######   $$$%%%%%%%%%%%%%%%%%%$$$   ",
"$$$######   ######$$$%%%%%%%%%%%%%%%%%%%%%%%%%%%%%%%%%%%%$$$######   $$$%%%%%%%%%%%%%%%%%%$$$   ",
"$$$######   ######$$$%%%%%%%%%%%%%%%%%%%%%%%%%%%%%%%%%%%%$$$######   $$$%%%%%%%%%%%%%%%%%%$$$   ",
"%%%$$$###   ###$$$%%%%%%%%%%%%%%%%%%%%%%%%%%%%%%%%%%%%%%%%%%$$$###   %%%%%%%%%%%%%%%%%%%%%%%%   ",
"%%%$$$###   ###$$$%%%%%%%%%%%%%%%%%%%%%%%%%%%%%%%%%%%%%%%%%%$$$###   %%%%%%%%%%%%%%%%%%%%%%%%   ",
"%%%$$$###   ###$$$%%%%%%%%%%%%%%%%%%%%%%%%%%%%%%%%%%%%%%%%%%$$$###   %%%%%%%%%%%%%%%%%%%%%%%%   ",
"%%%%%%###   ###%%%%%%%%%%%%%%%%%%%%%%%%%%%%%%%%%%%%%%%%%%%%%%%%###   %%%%%%%%%%%%%%%%%%%%%%%%   ",
"%%%%%%###   ###%%%%%%%%%%%%%%%%%%%%%%%%%%%%%%%%%%%%%%%%%%%%%%%%###   %%%%%%%%%%%%%%%%%%%%%%%%   ",
"%%%%%%###   ###%%%%%%%%%%%%%%%%%%%%%%%%%%%%%%%%%%%%%%%%%%%%%%%%###   %%%%%%%%%%%%%%%%%%%%%%%%   ",
"%%%%%%###   ###%%%%%%%%%%%%%%%%%%%%%%%%%%%%%%%%%%%%%%%%%%%%%%%%###   %%%%%%%%%%%%%%%%%%%%%%%%   ",
"%%%%%%###   ###%%%%%%%%%%%%%%%%%%%%%%%%%%%%%%%%%%%%%%%%%%%%%%%%###   %%%%%%%%%%%%%%%%%%%%%%%%   ",
"%%%%%%###   ###%%%%%%%%%%%%%%%%%%%%%%%%%%%%%%%%%%%%%%%%%%%%%%%%###   %%%%%%%%%%%%%%%%%%%%%%%%   ",
"%%%$$$###   ###$$$%%%%%%&&&%%%&&&***&&&%%%&&&&&&***&&&%%%%%%$$$###   $$$%%%&&&&&&***&&&%%%$$$   ",
"%%%$$$###   ###$$$%%%%%%&&&%%%&&&***&&&%%%&&&&&&***&&&%%%%%%$$$###   $$$%%%&&&&&&***&&&%%%$$$   ",
"%%%$$$###   ###$$$%%%%%%&&&%%%&&&***&&&%%%&&&&&&***&&&%%%%%%$$$###   $$$%%%&&&&&&***&&&%%%$$$   ",
"                                                                                             ...",
"                                                                                             ...",
"                                                                                             ..."
};
