/* XPM */
static char *result[] = {
/* columns rows colors chars-per-pixel */
"96 96 13 1 ",
"  c #3F3851",
". c #584B57",
"X c #89365C",
"o c #9E3B57",
"O c #AE444E",
"+ c #BF5753",
"@ c #D25654",
"# c #CD7363",
"$ c #E27F6D",
"% c #EDA27F",
"& c #FBCA97",
"* c #FFEAB7",
"= c #FFFAD6",
/* pixels */
"...                                                                                             ",
"...                                                                                             ",
"...                                                                                             ",
"   %%%&&&***===******&&&%%%   $$$%%%&&&&&&******======***&&&&&&%%%$$$   $$$%%%&&&&&&***&&&***===",
"   %%%&&&***===******&&&%%%   $$$%%%&&&&&&******======***&&&&&&%%%$$$   $$$%%%&&&&&&***&&&***===",
"   %%%&&&***===******&&&%%%   $$$%%%&&&&&&******======***&&&&&&%%%$$$   $$$%%%&&&&&&***&&&***===",
"   &&&&&&&&&&&&&&&&&&&&&&&&   $$$&&&&&&&&&&&&&&&&&&&&&&&&&&&&&&&&&$$$   $$$&&&&&&&&&&&&&&&&&&&&&",
"   &&&&&&&&&&&&&&&&&&&&&&&&   $$$&&&&&&&&&&&&&&&&&&&&&&&&&&&&&&&&&$$$   $$$&&&&&&&&&&&&&&&&&&&&&",
"   &&&&&&&&&&&&&&&&&&&&&&&&   $$$&&&&&&&&&&&&&&&&&&&&&&&&&&&&&&&&&$$$   $$$&&&&&&&&&&&&&&&&&&&&&",
"   &&&&&&&&&&&&&&&&&&&&&&&&   $$$&&&&&&&&&&&&&&&&&&&&&&&&&&&&&&&&&$$$   $$$&&&&&&&&&&&&&&&&&&&&&",
"   &&&&&&&&&&&&&&&&&&&&&&&&   $$$&&&&&&&&&&&&&&&&&&&&&&&&&&&&&&&&&$$$   $$$&&&&&&&&&&&&&&&&&&&&&",
"   &&&&&&&&&&&&&&&&&&&&&&&&   $$$&&&&&&&&&&&&&&&&&&&&&&&&&&&&&&&&&$$$   $$$&&&&&&&&&&&&&&&&&&&&&",
"   &&&&&&&&&&&&&&&&&&&&&&&&   $$$%%%&&&&&&&&&&&&&&&&&&&&&&&&&&&%%%$$$   $$$%%%&&&&&&&&&&&&&&&&&&",
"   &&&&&&&&&&&&&&&&&&&&&&&&   $$$%%%&&&&&&&&&&&&&&&&&&&&&&&&&&&%%%$$$   $$$%%%&&&&&&&&&&&&&&&&&&",
"   &&&&&&&&&&&&&&&&&&&&&&&&   $$$%%%&&&&&&&&&&&&&&&&&&&&&&&&&&&%%%$$$   $$$%%%&&&&&&&&&&&&&&&&&&",
"   %%%&&&&&&&&&&&&&&&&&&%%%   $$$$$$%%%&&&&&&&&&&&&&&&&&&&&&%%%$$$$$$   $$$$$$%%%&&&&&&&&&&&&&&&",
"   %%%&&&&&&&&&&&&&&&&&&%%%   $$$$$$%%%&&&&&&&&&&&&&&&&&&&&&%%%$$$$$$   $$$$$$%%%&&&&&&&&&&&&&&&",
"   %%%&&&&&&&&&&&&&&&&&&%%%   $$$$$$%%%&&&&&&&&&&&&&&&&&&&&&%%%$$$$$$   $$$$$$%%%&&&&&&&&&&&&&&&",
"   $$$%%%&&&&&&&&&&&&%%%$$$   $$$$$$$$$$$$$$$$$$$$$$$$$$$$$$$$$$$$$$$   $$$$$$$$$$$$$$$$$$$$$$$$",
"   $$$%%%&&&&&&&&&&&&%%%$$$   $$$$$$$$$$$$$$$$$$$$$$$$$$$$$$$$$$$$$$$   $$$$$$$$$$$$$$$$$$$$$$$$",
"   $$$%%%&&&&&&&&&&&&%%%$$$   $$$$$$$$$$$$$$$$$$$$$$$$$$$$$$$$$$$$$$$   $$$$$$$$$$$$$$$$$$$$$$$$",
"   $$$$$$$$$$$$$$$$$$$$$$$$   @@@$$$$$$$$$$$$$$$$$$$$$$$$$$$$$$$$$@@@   @@@$$$$$$$$$$$$$$$$$$$$$",
"   $$$$$$$$$$$$$$$$$$$$$$$$   @@@$$$$$$$$$$$$$$$$$$$$$$$$$$$$$$$$$@@@   @@@$$$$$$$$$$$$$$$$$$$$$",
"   $$$$$$$$$$$$$$$$$$$$$$$$   @@@$$$$$$$$$$$$$$$$$$$$$$$$$$$$$$$$$@@@   @@@$$$$$$$$$$$$$$$$$$$$$",
"   @@@$$$$$$$$$$$$$$$$$$@@@                                                                     ",
"   @@@$$$$$$$$$$$$$$$$$$@@@                                                                     ",
"   @@@$$$$$$$$$$$$$$$$$$@@@                                                                     ",
"                                                                                                ",
"                                                                                                ",
"                                                                                                ",
"   ###$$$$$$$$$$$$$$$@@@      XXXoooOOOoooXXX                           XXXoooOOOOOOOOOoooXXX   ",
"   ###$$$$$$$$$$$$$$$@@@      XXXoooOOOoooXXX                           XXXoooOOOOOOOOOoooXXX   ",
"   ###$$$$$$$$$$$$$$$@@@      XXXoooOOOoooXXX                           XXXoooOOOOOOOOOoooXXX   ",
"   %%%&&&&&&%%%$$$$$$$$$      oooOOOOOOOOOooo   XXXOOOOOOOOOOOOOOOXXX   oooOOOOOOOOOOOOOOOooo   ",
"   %%%&&&&&&%%%$$$$$$$$$      oooOOOOOOOOOooo   XXXOOOOOOOOOOOOOOOXXX   oooOOOOOOOOOOOOOOOooo   ",
"   %%%&&&&&&%%%$$$$$$$$$      oooOOOOOOOOOooo   XXXOOOOOOOOOOOOOOOXXX   oooOOOOOOOOOOOOOOOooo   ",
"   &&&&&&&&&&&&%%%$$$$$$                                                                        ",
"   &&&&&&&&&&&&%%%$$$$$$                                                                        ",
"   &&&&&&&&&&&&%%%$$$$$$                                                                        ",
"   &&&&&&&&&&&&%%%$$$$$$            XXXOOO+++############OOO   OOO############OOO   OOO#########",
"   &&&&&&&&&&&&%%%$$$$$$            XXXOOO+++############OOO   OOO############OOO   OOO#########",
"   &&&&&&&&&&&&%%%$$$$$$            XXXOOO+++############OOO   OOO############OOO   OOO#########",
"   ===&&&&&&&&&&&&$$$$$$            OOOOOO##################   ##################   ############",
"   ===&&&&&&&&&&&&$$$$$$            OOOOOO##################   ##################   ############",
"   ===&&&&&&&&&&&&$$$$$$            OOOOOO##################   ##################   ############",
"   ***&&&&&&&&&&&&$$$$$$            XXXOOO+++############OOO   OOO############OOO   OOO#########",
"   ***&&&&&&&&&&&&$$$$$$            XXXOOO+++############OOO   OOO############OOO   OOO#########",
"   ***&&&&&&&&&&&&$$$$$$            XXXOOO+++############OOO   OOO############OOO   OOO#########",
"   &&&&&&&&&&&&&&&$$$$$$                                                                        ",
"   &&&&&&&&&&&&&&&$$$$$$                                                                        ",
"   &&&&&&&&&&&&&&&$$$$$$                                                                        ",
"   ***&&&&&&&&&&&&$$$$$$      XXXOOOOOOOOO+++   OOO###############OOO   OOO###############OOO   ",
"   ***&&&&&&&&&&&&$$$$$$      XXXOOOOOOOOO+++   OOO###############OOO   OOO###############OOO   ",
"   ***&&&&&&&&&&&&$$$$$$      XXXOOOOOOOOO+++   OOO###############OOO   OOO###############OOO   ",
"   &&&&&&&&&&&&%%%$$$$$$      OOOOOOOOOOOO###   #####################   #####################   ",
"   &&&&&&&&&&&&%%%$$$$$$      OOOOOOOOOOOO###   #####################   #####################   ",
"   &&&&&&&&&&&&%%%$$$$$$      OOOOOOOOOOOO###   #####################   #####################   ",
"   &&&&&&&&&&&&%%%$$$$$$      XXXOOOOOOOOO+++   OOO###############OOO   OOO###############OOO   ",
"   &&&&&&&&&&&&%%%$$$$$$      XXXOOOOOOOOO+++   OOO###############OOO   OOO###############OOO   ",
"   &&&&&&&&&&&&%%%$$$$$$      XXXOOOOOOOOO+++   OOO###############OOO   OOO###############OOO   ",
"   %%%&&&&&&%%%$$$$$$$$$                                                                        ",
"   %%%&&&&&&%%%$$$$$$$$$                                                                        ",
"   %%%&&&&&&%%%$$$$$$$$$                                                                        ",
"   ###$$$$$$$$$$$$$$$@@@            XXXOOOOOOOOOOOOOOOOOOXXX   XXXOOOOOOOOOOOOXXX   XXXOOOOOOOOO",
"   ###$$$$$$$$$$$$$$$@@@            XXXOOOOOOOOOOOOOOOOOOXXX   XXXOOOOOOOOOOOOXXX   XXXOOOOOOOOO",
"   ###$$$$$$$$$$$$$$$@@@            XXXOOOOOOOOOOOOOOOOOOXXX   XXXOOOOOOOOOOOOXXX   XXXOOOOOOOOO",
"                                                                                                ",
"                                                                                                ",
"                                                                                                ",
"   @@@$$$$$$$$$$$$$$$$$$@@@                                                                     ",
"   @@@$$$$$$$$$$$$$$$$$$@@@                                                                     ",
"   @@@$$$$$$$$$$$$$$$$$$@@@                                                                     ",
"   $$$$$$$$$$$$$$$$$$$$$$$$   @@@$$$$$$$$$$$$$$$$$$$$$$$$$$$$$$$$$$$$$$$$$$$$$$$$@@@   @@@$$$$$$",
"   $$$$$$$$$$$$$$$$$$$$$$$$   @@@$$$$$$$$$$$$$$$$$$$$$$$$$$$$$$$$$$$$$$$$$$$$$$$$@@@   @@@$$$$$$",
"   $$$$$$$$$$$$$$$$$$$$$$$$   @@@$$$$$$$$$$$$$$$$$$$$$$$$$$$$$$$$$$$$$$$$$$$$$$$$@@@   @@@$$$$$$",
"   $$$%%%&&&&&&&&&&&&%%%$$$   $$$$$$$$$$$$$$$$$$$$$$$$$$$$$$$$$$$$$$$$$$$$$$$$$$$$$$   $$$$$$$$$",
"   $$$%%%&&&&&&&&&&&&%%%$$$   $$$$$$$$$$$$$$$$$$$$$$$$$$$$$$$$$$$$$$$$$$$$$$$$$$$$$$   $$$$$$$$$",
"   $$$%%%&&&&&&&&&&&&%%%$$$   $$$$$$$$$$$$$$$$$$$$$$$$$$$$$$$$$$$$$$$$$$$$$$$$$$$$$$   $$$$$$$$$",
"   %%%&&&&&&&&&&&&&&&&&&%%%   $$$$$$%%%&&&&&&&&&&&&&&&&&&&&&&&&&&&&&&&&&&&&%%%$$$$$$   $$$$$$%%%",
"   %%%&&&&&&&&&&&&&&&&&&%%%   $$$$$$%%%&&&&&&&&&&&&&&&&&&&&&&&&&&&&&&&&&&&&%%%$$$$$$   $$$$$$%%%",
"   %%%&&&&&&&&&&&&&&&&&&%%%   $$$$$$%%%&&&&&&&&&&&&&&&&&&&&&&&&&&&&&&&&&&&&%%%$$$$$$   $$$$$$%%%",
"   &&&&&&&&&&&&&&&&&&&&&&&&   $$$%%%&&&&&&&&&&&&&&&&&&&&&&&&&&&&&&&&&&&&&&&&&&%%%$$$   $$$%%%&&&",
"   &&&&&&&&&&&&&&&&&&&&&&&&   $$$%%%&&&&&&&&&&&&&&&&&&&&&&&&&&&&&&&&&&&&&&&&&&%%%$$$   $$$%%%&&&",
"   &&&&&&&&&&&&&&&&&&&&&&&&   $$$%%%&&&&&&&&&&&&&&&&&&&&&&&&&&&&&&&&&&&&&&&&&&%%%$$$   $$$%%%&&&",
"   &&&&&&&&&&&&&&&&&&&&&&&&   $$$&&&&&&&&&&&&&&&&&&&&&&&&&&&&&&&&&&&&&&&&&&&&&&&&$$$   $$$&&&&&&",
"   &&&&&&&&&&&&&&&&&&&&&&&&   $$$&&&&&&&&&&&&&&&&&&&&&&&&&&&&&&&&&&&&&&&&&&&&&&&&$$$   $$$&&&&&&",
"   &&&&&&&&&&&&&&&&&&&&&&&&   $$$&&&&&&&&&&&&&&&&&&&&&&&&&&&&&&&&&&&&&&&&&&&&&&&&$$$   $$$&&&&&&",
"   &&&&&&&&&&&&&&&&&&&&&&&&   $$$&&&&&&&&&&&&&&&&&&&&&&&&&&&&&&&&&&&&&&&&&&&&&&&&$$$   $$$&&&&&&",
"   &&&&&&&&&&&&&&&&&&&&&&&&   $$$&&&&&&&&&&&&&&&&&&&&&&&&&&&&&&&&&&&&&&&&&&&&&&&&$$$   $$$&&&&&&",
"   &&&&&&&&&&&&&&&&&&&&&&&&   $$$&&&&&&&&&&&&&&&&&&&&&&&&&&&&&&&&&&&&&&&&&&&&&&&&$$$   $$$&&&&&&",
"   %%%&&&***===******&&&%%%   $$$%%%&&&******===******&&&***===***&&&***&&&&&&%%%$$$   $$$%%%&&&",
"   %%%&&&***===******&&&%%%   $$$%%%&&&******===******&&&***===***&&&***&&&&&&%%%$$$   $$$%%%&&&",
"   %%%&&&***===******&&&%%%   $$$%%%&&&******===******&&&***===***&&&***&&&&&&%%%$$$   $$$%%%&&&",
"...                                                                                             ",
"...                                                                                             ",
"...                                                                                             "
};
