/* XPM */
static char *result[] = {
/* columns rows colors chars-per-pixel */
"96 96 12 1 ",
"  c #3F3851",
". c #89365C",
"X c #9E3B57",
"o c #AE444E",
"O c #BF5753",
"+ c #D25654",
"@ c #CD7363",
"# c #E27F6D",
"$ c #EDA27F",
"% c #FBCA97",
"& c #FFEAB7",
"* c #FFFAD6",
/* pixels */
"                                                                                                ",
"                                                                                                ",
"                                                                                                ",
"   &&&***&&&%%%%%%###+++      ...oooooooooOOOooo   ooo@@@@@@@@@@@@ooo                           ",
"   &&&***&&&%%%%%%###+++      ...oooooooooOOOooo   ooo@@@@@@@@@@@@ooo                           ",
"   &&&***&&&%%%%%%###+++      ...oooooooooOOOooo   ooo@@@@@@@@@@@@ooo                           ",
"   %%%%%%%%%%%%%%%######      oooooooooooo@@@@@@   @@@@@@@@@@@@@@@@@@                           ",
"   %%%%%%%%%%%%%%%######      oooooooooooo@@@@@@   @@@@@@@@@@@@@@@@@@                           ",
"   %%%%%%%%%%%%%%%######      oooooooooooo@@@@@@   @@@@@@@@@@@@@@@@@@                           ",
"   %%%%%%%%%%%%%%%######      ...oooooooooOOOooo   ooo@@@@@@@@@@@@ooo                           ",
"   %%%%%%%%%%%%%%%######      ...oooooooooOOOooo   ooo@@@@@@@@@@@@ooo                           ",
"   %%%%%%%%%%%%%%%######      ...oooooooooOOOooo   ooo@@@@@@@@@@@@ooo                           ",
"   %%%%%%%%%%%%$$$######                                                                        ",
"   %%%%%%%%%%%%$$$######                                                                        ",
"   %%%%%%%%%%%%$$$######                                                                        ",
"   %%%%%%%%%$$$#########            ...OOO@@@@@@@@@@@@@@@ooo                                    ",
"   %%%%%%%%%$$$#########            ...OOO@@@@@@@@@@@@@@@ooo                                    ",
"   %%%%%%%%%$$$#########            ...OOO@@@@@@@@@@@@@@@ooo                                    ",
"   #####################            ooo@@@@@@@@@@@@@@@@@@@@@                                    ",
"   #####################            ooo@@@@@@@@@@@@@@@@@@@@@                                    ",
"   #####################            ooo@@@@@@@@@@@@@@@@@@@@@                                    ",
"   +++###############+++            ...OOO@@@@@@@@@@@@@@@ooo                                    ",
"   +++###############+++            ...OOO@@@@@@@@@@@@@@@ooo                                    ",
"   +++###############+++            ...OOO@@@@@@@@@@@@@@@ooo                                    ",
"                                                                                                ",
"                                                                                                ",
"                                                                                                ",
"                              ...ooooooooo@@@ooo                              ooo@@@@@@@@@@@@ooo",
"                              ...ooooooooo@@@ooo                              ooo@@@@@@@@@@@@ooo",
"                              ...ooooooooo@@@ooo                              ooo@@@@@@@@@@@@ooo",
"   ...XXXooooooooooooXXX...   oooooooooooo@@@@@@                              @@@@@@@@@@@@@@@@@@",
"   ...XXXooooooooooooXXX...   oooooooooooo@@@@@@                              @@@@@@@@@@@@@@@@@@",
"   ...XXXooooooooooooXXX...   oooooooooooo@@@@@@                              @@@@@@@@@@@@@@@@@@",
"   XXXooooooooooooooooooXXX   ...ooooooooo@@@ooo                              ooo@@@@@@@@@@@@ooo",
"   XXXooooooooooooooooooXXX   ...ooooooooo@@@ooo                              ooo@@@@@@@@@@@@ooo",
"   XXXooooooooooooooooooXXX   ...ooooooooo@@@ooo                              ooo@@@@@@@@@@@@ooo",
"                                                                                                ",
"                                                                                                ",
"                                                                                                ",
"oooooooooooo...   ...oooooooooooo...   ooo@@@@@@@@@@@@@@@@@@ooo   ooo@@@@@@@@@@@@ooo   ooo@@@@@@",
"oooooooooooo...   ...oooooooooooo...   ooo@@@@@@@@@@@@@@@@@@ooo   ooo@@@@@@@@@@@@ooo   ooo@@@@@@",
"oooooooooooo...   ...oooooooooooo...   ooo@@@@@@@@@@@@@@@@@@ooo   ooo@@@@@@@@@@@@ooo   ooo@@@@@@",
"@@@@@@@@@@@@OOO   OOO@@@@@@@@@@@@OOO   @@@@@@@@@@@@@@@@@@@@@@@@   @@@@@@@@@@@@@@@@@@   @@@@@@@@@",
"@@@@@@@@@@@@OOO   OOO@@@@@@@@@@@@OOO   @@@@@@@@@@@@@@@@@@@@@@@@   @@@@@@@@@@@@@@@@@@   @@@@@@@@@",
"@@@@@@@@@@@@OOO   OOO@@@@@@@@@@@@OOO   @@@@@@@@@@@@@@@@@@@@@@@@   @@@@@@@@@@@@@@@@@@   @@@@@@@@@",
"@@@@@@@@@@@@ooo   ooo@@@@@@@@@@@@ooo   ooo@@@@@@@@@@@@@@@@@@ooo   ooo@@@@@@@@@@@@ooo   ooo@@@@@@",
"@@@@@@@@@@@@ooo   ooo@@@@@@@@@@@@ooo   ooo@@@@@@@@@@@@@@@@@@ooo   ooo@@@@@@@@@@@@ooo   ooo@@@@@@",
"@@@@@@@@@@@@ooo   ooo@@@@@@@@@@@@ooo   ooo@@@@@@@@@@@@@@@@@@ooo   ooo@@@@@@@@@@@@ooo   ooo@@@@@@",
"                                                                                                ",
"                                                                                                ",
"                                                                                                ",
"   ooo@@@@@@@@@@@@@@@@@@ooo   ooo@@@@@@@@@@@@@@@ooo   ooo@@@@@@@@@@@@@@@ooo   ooo@@@@@@@@@@@@ooo",
"   ooo@@@@@@@@@@@@@@@@@@ooo   ooo@@@@@@@@@@@@@@@ooo   ooo@@@@@@@@@@@@@@@ooo   ooo@@@@@@@@@@@@ooo",
"   ooo@@@@@@@@@@@@@@@@@@ooo   ooo@@@@@@@@@@@@@@@ooo   ooo@@@@@@@@@@@@@@@ooo   ooo@@@@@@@@@@@@ooo",
"   @@@@@@@@@@@@@@@@@@@@@@@@   @@@@@@@@@@@@@@@@@@@@@   @@@@@@@@@@@@@@@@@@OOO   OOO@@@@@@@@@@@@OOO",
"   @@@@@@@@@@@@@@@@@@@@@@@@   @@@@@@@@@@@@@@@@@@@@@   @@@@@@@@@@@@@@@@@@OOO   OOO@@@@@@@@@@@@OOO",
"   @@@@@@@@@@@@@@@@@@@@@@@@   @@@@@@@@@@@@@@@@@@@@@   @@@@@@@@@@@@@@@@@@OOO   OOO@@@@@@@@@@@@OOO",
"   ooo@@@@@@@@@@@@@@@@@@ooo   ooo@@@@@@@@@@@@@@@ooo   OOOooooooooooooooo...   ...oooooooooooo...",
"   ooo@@@@@@@@@@@@@@@@@@ooo   ooo@@@@@@@@@@@@@@@ooo   OOOooooooooooooooo...   ...oooooooooooo...",
"   ooo@@@@@@@@@@@@@@@@@@ooo   ooo@@@@@@@@@@@@@@@ooo   OOOooooooooooooooo...   ...oooooooooooo...",
"                                                                                                ",
"                                                                                                ",
"                                                                                                ",
"@@@@@@@@@@@@ooo                     ooo@@@@@@@@@@@@@@@OOO...      ...ooooooooo...      ...oooooo",
"@@@@@@@@@@@@ooo                     ooo@@@@@@@@@@@@@@@OOO...      ...ooooooooo...      ...oooooo",
"@@@@@@@@@@@@ooo                     ooo@@@@@@@@@@@@@@@OOO...      ...ooooooooo...      ...oooooo",
"@@@@@@@@@@@@@@@                     @@@@@@@@@@@@@@@@@@@@@ooo                                    ",
"@@@@@@@@@@@@@@@                     @@@@@@@@@@@@@@@@@@@@@ooo                                    ",
"@@@@@@@@@@@@@@@                     @@@@@@@@@@@@@@@@@@@@@ooo                                    ",
"@@@@@@@@@@@@ooo                     ooo@@@@@@@@@@@@@@@OOO...                                    ",
"@@@@@@@@@@@@ooo                     ooo@@@@@@@@@@@@@@@OOO...                                    ",
"@@@@@@@@@@@@ooo                     ooo@@@@@@@@@@@@@@@OOO...                                    ",
"                                                                        +++###############+++   ",
"                                                                        +++###############+++   ",
"                                                                        +++###############+++   ",
"                           ooo@@@@@@@@@@@@@@@ooo   OOOooooooooo...      #####################   ",
"                           ooo@@@@@@@@@@@@@@@ooo   OOOooooooooo...      #####################   ",
"                           ooo@@@@@@@@@@@@@@@ooo   OOOooooooooo...      #####################   ",
"                           @@@@@@@@@@@@@@@@@@@@@   @@@oooooooooooo      #########$$$%%%%%%%%%   ",
"                           @@@@@@@@@@@@@@@@@@@@@   @@@oooooooooooo      #########$$$%%%%%%%%%   ",
"                           @@@@@@@@@@@@@@@@@@@@@   @@@oooooooooooo      #########$$$%%%%%%%%%   ",
"                           ooo@@@@@@@@@@@@@@@ooo   OOOooooooooo...      ######$$$%%%%%%%%%%%%   ",
"                           ooo@@@@@@@@@@@@@@@ooo   OOOooooooooo...      ######$$$%%%%%%%%%%%%   ",
"                           ooo@@@@@@@@@@@@@@@ooo   OOOooooooooo...      ######$$$%%%%%%%%%%%%   ",
"                                                                        ######%%%%%%%%%%%%%%%   ",
"                                                                        ######%%%%%%%%%%%%%%%   ",
"                                                                        ######%%%%%%%%%%%%%%%   ",
"                                    ooo@@@@@@@@@@@@@@@OOO...            ######%%%%%%%%%%%%%%%   ",
"                                    ooo@@@@@@@@@@@@@@@OOO...            ######%%%%%%%%%%%%%%%   ",
"                                    ooo@@@@@@@@@@@@@@@OOO...            ######%%%%%%%%%%%%%%%   ",
"                                    @@@@@@@@@@@@@@@@@@@@@ooo            +++###%%%%%%&&&***&&&   ",
"                                    @@@@@@@@@@@@@@@@@@@@@ooo            +++###%%%%%%&&&***&&&   ",
"                                    @@@@@@@@@@@@@@@@@@@@@ooo            +++###%%%%%%&&&***&&&   ",
"                                    ooo@@@@@@@@@@@@@@@OOO...                                    ",
"                                    ooo@@@@@@@@@@@@@@@OOO...                                    ",
"                                    ooo@@@@@@@@@@@@@@@OOO...                                    "
};
