/* XPM */
static char *result[] = {
/* columns rows colors chars-per-pixel */
"96 96 20 1 ",
"  c #373049",
". c #50434F",
"X c #DF5914",
"o c #E35D18",
"O c #C56B5B",
"+ c #E79E30",
"@ c #E7A230",
"# c #E7A234",
"$ c #EBA234",
"% c #EBA634",
"& c #EBA639",
"* c #E7E728",
"= c #E7E72C",
"- c #EBEB30",
"; c #E59A77",
": c #F3C28F",
"> c #EFEFC7",
", c #F3F3CF",
"< c #F7F2CE",
"1 c None",
/* pixels */
"111111111111111111111111111111111111111111111111111111111111111111111111111111111111111111111111",
"111111111111111111111111111111111111111111111111111111111111111111111111111111111111111111111111",
"111111111111111111111111111111111111111111111111111111111111111111111111111111111111111111111111",
"111111111111111111111111111111111111111111111111111111111111111111111111111111111111111111111111",
"111111111111111111111111111111111111111XXXXXXXXXXXXXXXXXX111111111111111111111111111111111111111",
"111111111111111111111111111111111111111XXXXXXXXXXXXXXXXXX111111111111111111111111111111111111111",
"111111111111111111111111111111111111111XXXXXXXXXXXXXXXXXX111111111111111111111111111111111111111",
"111111111111111111111111111111111111XXX@@@************@@@XXX111111111111111111111111111111111111",
"111111111111111111111111111111111111XXX@@@************@@@XXX111111111111111111111111111111111111",
"111111111111111111111111111111111111XXX@@@************@@@XXX111111111111111111111111111111111111",
"1111111111111111111111111111111111XX*************>>>>>>>>@@@XXX111111111111111111111111111111111",
"1111111111111111111111111111111111XX*************>>>>>>>>@@@XXX111111111111111111111111111111111",
"1111111111111111111111111111111XXX@@******************>>>>>>@@@XXX111111111111111111111111111111",
"1111111111111111111111111111111XXX@@******************>>>>>>@@@XXX111111111111111111111111111111",
"1111111111111111111111111111111XXX@@******************>>>>>>@@@XXX111111111111111111111111111111",
"1111111111111111111111111111111XXX********@@@####@@@@@***>>>***XXX111111111111111111111111111111",
"1111111111111111111111111111111XXX********@@@####@@@@@***>>>***XXX111111111111111111111111111111",
"1111111111111111111111111111111XXX********@@@####@@@@@***>>>***XXX111111111111111111111111111111",
"1111111111111111111111111111111XXX**@@@@@@*******===**@@@@@@***XXX111111111111111111111111111111",
"1111111111111111111111111111111XXX**@@@@@@*******===**@@@@@@***XXX111111111111111111111111111111",
"1111111111111111111111111111   XXX**@@@@@@*******===**@@@@@@***XXX  1111111111111111111111111111",
"1111111111111111111111111111   XXX@@***>>>>>>>>>>>>>>>>>>***@@@XXX  1111111111111111111111111111",
"1111111111111111111111111111   XXX@@***>>>>>>>>>>>>>>>>>>***@@@XXX  1111111111111111111111111111",
"1111111111111111111111111   ...XXX@@***>>>>>>>>>>>>>>>>>>***@@@XXX..   1111111111111111111111111",
"1111111111111111111111111   ...XXX@@>>>***@@@#######@@>>>>>>@@@XXX..   1111111111111111111111111",
"1111111111111111111111111   ...XXX@@>>>***@@@#######@@>>>>>>@@@XXX..   1111111111111111111111111",
"1111111111111111111111111   ;;;ooo%%---&&&&&&,,,,,,,&&$$$---$$$XXX;;   1111111111111111111111111",
"1111111111111111111111111   ;;;ooo%%---&&&&&&,,,,,,,&&$$$---$$$XXX;;   1111111111111111111111111",
"1111111111111111111111111   ;;;ooo%%---&&&&&&,,,,,,,&&$$$---$$$XXX;;   1111111111111111111111111",
"1111111111111111111111111   ;;;:::XX+++******************###XXX:::;;   1111111111111111111111111",
"1111111111111111111111111   ;;;:::XX+++******************###XXX:::;;   1111111111111111111111111",
"1111111111111111111111111   ;;;:::XX+++******************###XXX:::;;   1111111111111111111111111",
"1111111111111111111111111   ...;;;::;;;@@@@@@+++++++@@@@@;;;:::;;;..   1111111111111111111111111",
"1111111111111111111111111   ...;;;::;;;@@@@@@+++++++@@@@@;;;:::;;;..   1111111111111111111111111",
"1111111111111111111111111   ...;;;::;;;@@@@@@+++++++@@@@@;;;:::;;;..   1111111111111111111111111",
"1111111111111111111111111      ...;;::::::::::::::::::::::::;;;...     1111111111111111111111111",
"1111111111111111111111111      ...;;::::::::::::::::::::::::;;;...     1111111111111111111111111",
"1111111111111111111111111   ...     ...;;;;;;;;;;;;;;;;;;...      ..   1111111111111111111111111",
"1111111111111111111111111   ...     ...;;;;;;;;;;;;;;;;;;...      ..   1111111111111111111111111",
"1111111111111111111111111   ...     ...;;;;;;;;;;;;;;;;;;...      ..   1111111111111111111111111",
"1111111111111111111111111   ;;;;;;..;;;..................;;;...;;;;;   1111111111111111111111111",
"1111111111111111111111111   ;;;;;;..;;;..................;;;...;;;;;   1111111111111111111111111",
"1111111111111111111111111   ;;;;;;..;;;..................;;;...;;;;;   1111111111111111111111111",
"1111111111111111111111111111   ;;;OO;;;;;;            ;;;;;;OOO;;;  1111111111111111111111111111",
"1111111111111111111111111111   ;;;OO;;;;;;            ;;;;;;OOO;;;  1111111111111111111111111111",
"1111111111111111111111111111   ;;;OO;;;;;;            ;;;;;;OOO;;;  1111111111111111111111111111",
"1111111111111111111111111111111     OOO;;;            ;;;OOO      111111111111111111111111111111",
"1111111111111111111111111111111     OOO;;;            ;;;OOO      111111111111111111111111111111",
"1111111111111111111111111111111     OOO;;;            ;;;OOO      111111111111111111111111111111",
"1111111111111111111111111111111           OOOOOOOOOOOO      ...   111111111111111111111111111111",
"1111111111111111111111111111111           OOOOOOOOOOOO      ...   111111111111111111111111111111",
"1111111111111111111111111111   ...OOOOO...            ...OOOOOO...  1111111111111111111111111111",
"1111111111111111111111111111   ...OOOOO...            ...OOOOOO...  1111111111111111111111111111",
"1111111111111111111111111111   ...OOOOO...            ...OOOOOO...  1111111111111111111111111111",
"1111111111111111111111111111   OOO;;;;;;;;...OOOOOOO..;;;;;;;;;OOO  1111111111111111111111111111",
"1111111111111111111111111111   OOO;;;;;;;;...OOOOOOO..;;;;;;;;;OOO  1111111111111111111111111111",
"1111111111111111111111111111   OOO;;;;;;;;...OOOOOOO..;;;;;;;;;OOO  1111111111111111111111111111",
"1111111111111111111111111   ...;;;::::::::...       ..:::::::::;;;..   1111111111111111111111111",
"1111111111111111111111111   ...;;;::::::::...       ..:::::::::;;;..   1111111111111111111111111",
"1111111111111111111111111   ...;;;::::::::...       ..:::::::::;;;..   1111111111111111111111111",
"1111111111111111111111111      ...;;::::::...;;;;;;;..::::::;;;...     1111111111111111111111111",
"1111111111111111111111111      ...;;::::::...;;;;;;;..::::::;;;...     1111111111111111111111111",
"1111111111111111111111111      ...;;::::::...;;;;;;;..::::::;;;...     1111111111111111111111111",
"1111111111111111111111111      :::OOOOO......       .....OOOOOO:::     1111111111111111111111111",
"1111111111111111111111111      :::OOOOO......       .....OOOOOO:::     1111111111111111111111111",
"1111111111111111111111111   :::;;;:::::;;;...<<<<<<<..;;;::::::;;;::   1111111111111111111111111",
"1111111111111111111111111   :::;;;:::::;;;...<<<<<<<..;;;::::::;;;::   1111111111111111111111111",
"1111111111111111111111111   :::;;;:::::;;;...<<<<<<<..;;;::::::;;;::   1111111111111111111111111",
"1111111111111111111111111   ::::::;;;;;::::::::::::::::::;;;;;;:::::   1111111111111111111111111",
"1111111111111111111111111   ::::::;;;;;::::::::::::::::::;;;;;;:::::   1111111111111111111111111",
"1111111111111111111111111   ::::::;;;;;::::::::::::::::::;;;;;;:::::   1111111111111111111111111",
"1111111111111111111111111   <<<:::::;;;OOO::::::::::::OOO;;;::::::<<   1111111111111111111111111",
"1111111111111111111111111   <<<:::::;;;OOO::::::::::::OOO;;;::::::<<   1111111111111111111111111",
"1111111111111111111111111   <<<:::::;;;OOO::::::::::::OOO;;;::::::<<   1111111111111111111111111",
"1111111111111111111111111   <<<:::::;;;OOO:::;;;;;;;::OOO;;;::::::<<   1111111111111111111111111",
"1111111111111111111111111   <<<:::::;;;OOO:::;;;;;;;::OOO;;;::::::<<   1111111111111111111111111",
"1111111111111111111111111   <<<:::::;;;OOO:::;;;;;;;::OOO;;;::::::<<   1111111111111111111111111",
"1111111111111111111111111   ;;;:::::;;;OOO;;;;;;;;;;;;OOO;;;::::::;;   1111111111111111111111111",
"1111111111111111111111111   ;;;:::::;;;OOO;;;;;;;;;;;;OOO;;;::::::;;   1111111111111111111111111",
"1111111111111111111111111   ;;;:::::;;;OOO;;;;;;;;;;;;OOO;;;::::::;;   1111111111111111111111111",
"1111111111111111111111111111   ...;;;;;...;;;OOOOOOO;;...;;;;;;...  1111111111111111111111111111",
"1111111111111111111111111111   ...;;;;;...;;;OOOOOOO;;...;;;;;;...  1111111111111111111111111111",
"1111111111111111111111111111111     ......OOO.......OO......      111111111111111111111111111111",
"1111111111111111111111111111111     ......OOO.......OO......      111111111111111111111111111111",
"1111111111111111111111111111111     ......OOO.......OO......      111111111111111111111111111111",
"111111111111111111111111111111111111                        111111111111111111111111111111111111",
"111111111111111111111111111111111111                        111111111111111111111111111111111111",
"111111111111111111111111111111111111                        111111111111111111111111111111111111",
"111111111111111111111111111111111111111111111111111111111111111111111111111111111111111111111111",
"111111111111111111111111111111111111111111111111111111111111111111111111111111111111111111111111",
"111111111111111111111111111111111111111111111111111111111111111111111111111111111111111111111111",
"111111111111111111111111111111111111111111111111111111111111111111111111111111111111111111111111",
"111111111111111111111111111111111111111111111111111111111111111111111111111111111111111111111111",
"111111111111111111111111111111111111111111111111111111111111111111111111111111111111111111111111",
"111111111111111111111111111111111111111111111111111111111111111111111111111111111111111111111111",
"111111111111111111111111111111111111111111111111111111111111111111111111111111111111111111111111"
};
