/* XPM */
static char *result[] = {
/* columns rows colors chars-per-pixel */
"16 16 18 1 ",
"  c black",
". c gray1",
"X c #040404",
"o c gray3",
"O c #111111",
"+ c gray9",
"@ c #181818",
"# c gray10",
"$ c #202020",
"% c gray18",
"& c #373737",
"* c #3C3C3C",
"= c gray28",
"- c #555555",
"; c #A0A0A0",
": c gray94",
"> c white",
", c None",
/* pixels */
",,,,,,,,,,,,,,,,",
",,,,,,,,,,,,,,,,",
",,,          ,,,",
",, X@#######O ,,",
",, +:>>>>>>>; ,,",
",, +:>>..$>>; ,,",
",, +:>>%%=>>; ,,",
",, +:>>>>>>>; ,,",
",, +:>>>>>>>; ,,",
",,,      $>>; ,,",
",, o&****->>; ,,",
",, +:>>>>>>>; ,,",
",,            ,,",
",,,          ,,,",
",,,,,,,,,,,,,,,,",
",,,,,,,,,,,,,,,,"
};
