/* XPM */
static char *result[] = {
/* columns rows colors chars-per-pixel */
"16 16 22 1 ",
"  c black",
". c #010101",
"X c gray1",
"o c #040404",
"O c #070707",
"+ c gray6",
"@ c #101010",
"# c gray9",
"$ c gray10",
"% c #202020",
"& c gray15",
"* c #3C3C3C",
"= c #555555",
"- c #A0A0A0",
"; c gray76",
": c #C3C3C3",
"> c gray77",
", c gray89",
"< c gray96",
"1 c gray97",
"2 c white",
"3 c None",
/* pixels */
"3333333333333333",
"3333333333333333",
"333          333",
"33.@$$$$$$$$o 33",
"33 -22222222# 33",
"33 -221>::::@ 33",
"33 -22,X     333",
"33 -22<>:;;;+ 33",
"33 -22222222# 33",
"333     %222# 33",
"33 &****=222# 33",
"33 -22222222# 33",
"33 &********O 33",
"333          333",
"3333333333333333",
"3333333333333333"
};
