/* XPM */
static char *result[] = {
/* columns rows colors chars-per-pixel */
"16 16 21 1 ",
"  c black",
". c #020202",
"X c gray1",
"o c gray5",
"O c #131313",
"+ c gray9",
"@ c #202020",
"# c gray18",
"$ c #464646",
"% c #505050",
"& c #5F5F5F",
"* c #808080",
"= c #898989",
"- c gray56",
"; c #989898",
": c gray60",
"> c #A0A0A0",
", c gray89",
"< c #EAEAEA",
"1 c white",
"2 c None",
/* pixels */
"2222222222222222",
"2222222222222222",
"22     2     222",
"22 &;;=.O:::o 22",
"22 >11,X@111+ 22",
"22 >11,X@111+ 22",
"22 >11<#$111+ 22",
"22 >11111111+ 22",
"22 %****-111+ 22",
"22      @111+ 22",
"222     @111+ 22",
"2222222 @111+ 22",
"2222222       22",
"22222222     222",
"2222222222222222",
"2222222222222222"
};
