/* XPM */
static char *result[] = {
/* columns rows colors chars-per-pixel */
"16 16 7 1 ",
"  c black",
". c #232323",
"X c #3E3E3E",
"o c gray59",
"O c gray69",
"+ c white",
"@ c None",
/* pixels */
"@@@@@@@@@@@@@@@@",
"@@@@@@@@@@ @@@@@",
"@@@@@@@@@   @@@@",
"@@@@@@@@ .o  @@@",
"@@@@@@@ .++o  @@",
"@@@@@@ .+++O  @@",
"@@@@@ .+++O  @@@",
"@@@@ .+++O  @@@@",
"@@@ .+++O  @@@@@",
"@@  X++O  @@@@@@",
"@@   XO  @@@@@@@",
"@@@     @@@@@@@@",
"@@@@   @@@@@@@@@",
"@@@@@ @@@@@@@@@@",
"@@@@@@@@@@@@@@@@",
"@@@@@@@@@@@@@@@@"
};
