/* XPM */
static char *result[] = {
/* columns rows colors chars-per-pixel */
"16 16 11 1 ",
"  c black",
". c #0B0B0B",
"X c #131313",
"o c #232323",
"O c #282828",
"+ c #3E3E3E",
"@ c #6A6A6A",
"# c gray59",
"$ c gray69",
"% c white",
"& c None",
/* pixels */
"&&&&&&&&&&&&&&&&",
"&&&&&&&&&&&&&&&&",
"&&&&&      &&&&&",
"&&&&& X##@ &&&&&",
"&&&&& o%%$ &&&&&",
"&&&&& o%%$ &&&&&",
"&&&&& o%%$ &&&&&",
"&&&&& o%%$ &&&&&",
"&&&&& o%%$ &&&&&",
"&&&&& o%%$ &&&&&",
"&&&&& o%%$ &&&&&",
"&&&&& .++O &&&&&",
"&&&&&      &&&&&",
"&&&&&      &&&&&",
"&&&&&&&&&&&&&&&&",
"&&&&&&&&&&&&&&&&"
};
