/* XPM */
static char *result[] = {
/* columns rows colors chars-per-pixel */
"16 16 17 1 ",
"  c black",
". c gray1",
"X c gray5",
"o c gray9",
"O c #202020",
"+ c #3E3E3E",
"@ c #555555",
"# c #5F5F5F",
"$ c #989898",
"% c #A0A0A0",
"& c gray77",
"* c #CACACA",
"= c gray89",
"- c gray93",
"; c gray97",
": c white",
"> c None",
/* pixels */
">>>>>>>>>>>>>>>>",
">>>>>>>>>>>>>>>>",
">>>          >>>",
">> #$$$$$$$$X >>",
">> %::::::::o >>",
">> %::;&*:::o >>",
">> %::=.O:::o >>",
">> %::=.O:::o >>",
">> %::=.O:::o >>",
">> %::-+@:::o >>",
">> %::::::::o >>",
">> %::::::::o >>",
">>            >>",
">>>          >>>",
">>>>>>>>>>>>>>>>",
">>>>>>>>>>>>>>>>"
};
