/* XPM */
static char *result[] = {
/* columns rows colors chars-per-pixel */
"16 16 20 1 ",
"  c black",
". c gray1",
"X c #040404",
"o c #070707",
"O c #111111",
"+ c gray9",
"@ c gray10",
"# c #202020",
"$ c gray13",
"% c gray15",
"& c #3C3C3C",
"* c #3E3E3E",
"= c #555555",
"- c gray48",
"; c #A0A0A0",
": c gray76",
"> c #C3C3C3",
", c #CACACA",
"< c white",
"1 c None",
/* pixels */
"1111111111111111",
"1111111111111111",
"111          111",
"11 X@@@@@@@@O 11",
"11 +<<<<<<<<; 11",
"11 +<<<,>>>>- 11",
"11 +<<<#     111",
"11 +<<<,>:::- 11",
"11 +<<<<<<<<; 11",
"11 +<<<$.<<<; 11",
"11 +<<<=*<<<; 11",
"11 +<<<<<<<<; 11",
"11 o&&&&&&&&% 11",
"111          111",
"1111111111111111",
"1111111111111111"
};
