/* XPM */
static char *result[] = {
/* columns rows colors chars-per-pixel */
"16 16 17 1 ",
"  c black",
". c #070707",
"X c #101010",
"o c #181818",
"O c gray10",
"+ c #202020",
"@ c gray22",
"# c #3C3C3C",
"$ c gray48",
"% c #9A9A9A",
"& c #C3C3C3",
"* c #CACACA",
"= c gray91",
"- c gray94",
"; c #F6F6F6",
": c white",
"> c None",
/* pixels */
">>>>>>>>>>>>>>>>",
">>>>>>>>>>>>>>>>",
">>>          >>>",
">> XOOOOOOOOo >>",
">> %;;;;;;;;= >>",
">> $&&&&&*::- >>",
">>>      +::- >>",
">>>>>>>> +::- >>",
">>>>>>>> +::- >>",
">>>>>>>> +::- >>",
">>>>>>>> +::- >>",
">>>>>>>> +::- >>",
">>>>>>>> .##@ >>",
">>>>>>>>>    >>>",
">>>>>>>>>>>>>>>>",
">>>>>>>>>>>>>>>>"
};
