/* XPM */
static char *result[] = {
/* columns rows colors chars-per-pixel */
"16 16 18 1 ",
"  c black",
". c #060606",
"X c #0C0C0C",
"o c gray5",
"O c gray9",
"+ c #202020",
"@ c #272727",
"# c gray17",
"$ c #464646",
"% c gray47",
"& c #80807F",
"* c #909090",
"= c #989898",
"- c gray89",
"; c gray94",
": c #F1F1F1",
"> c white",
", c None",
/* pixels */
",,,,,,,,,,,,,,,,",
",,,,,,,,,,,,,,,,",
",,,          ,,,",
",,o*=======*o ,,",
",,O;>>>>>>>;O ,,",
",,,     +>>;O ,,",
",,.@####$>>;O ,,",
",,O;>>>>>>>;O ,,",
",,O;>>:&&&&%X ,,",
",,O;>>-      ,,,",
",,O;>>>>>>>;O ,,",
",,O;>>>>>>>;O ,,",
",,            ,,",
",,,          ,,,",
",,,,,,,,,,,,,,,,",
",,,,,,,,,,,,,,,,"
};
