/* XPM */
static char *result[] = {
/* columns rows colors chars-per-pixel */
"16 16 13 1 ",
"  c black",
". c gray1",
"X c gray15",
"o c #3C3C3C",
"O c #5F5F5F",
"+ c #989898",
"@ c #A0A0A0",
"# c gray89",
"$ c gray90",
"% c #E6E6E6",
"& c #ECECEC",
"* c white",
"= c None",
/* pixels */
"================",
"================",
"==            ==",
"== O++++++++O ==",
"== @********@ ==",
"==      .#**@ ==",
"====    .#**@ ==",
"==== $******@ ==",
"==== %******@ ==",
"==      .#**@ ==",
"== O+++++&**@ ==",
"== @********@ ==",
"== XooooooooX ==",
"==            ==",
"================",
"================"
};
