/* XPM */
static char *result[] = {
/* columns rows colors chars-per-pixel */
"32 32 9 1 ",
"  c black",
". c #6A384E",
"X c #7C7C7C",
"o c #89365C",
"O c #B73743",
"+ c #AE444E",
"@ c #959395",
"# c white",
"$ c None",
/* pixels */
"$$$$$$$$$$$$$$$$$$$$$$$$$$$$$$$$",
"$$$$$$$$$$$$$#####$$$$$$$$$$$$$$",
"$$$$$$$$$$$##ooooo####$$$$$$$$$$",
"$$$$$$$$$##@@@@@@@@..o#$$$$$$$$$",
"$$$$$$$$#oo@@@@####@..o#$$$$$$$$",
"$$$$$$$#o@@@@##$$$$#@..o#$$$$$$$",
"$$$$$$#o@@@@#$$$$$$$#...o#$$$$$$",
"$$$$$#o@@@@#$$$$$$$$#...o#$$$$$$",
"$$$$$#o@@@@#$$$$$$$$$#...o#$$$$$",
"$$$$#o@@@##$$$$$$$$$$#...o#$$$$$",
"$$$$#o@@@#$$$$$$$$$$$#...o#$$$$$",
"$$$$#@@@#$$$$$$$$$$$$$#...o#$$$$",
"$$$$#@@#$$$$$$$$$$$$$$#...o#$$$$",
"$$$$#@@#$$$$$$$$$$$$$$#...o#$$$$",
"$$$$#@@#$$$$$$$$$$$$$$#...o#$$$$",
"$$$$#@@#$$$$$$$$$$$$$$#...o#$$$$",
"$$$$#@@#$$$$$$$$$$$$$$#...o#$$$$",
"$$$$#@@#$$$$$$$$$$$$$#.....#$$$$",
"$$$$#@@####$$$$$$$####.....#$$$$",
"$$$$#@@@@@@##$$$##@@@@....#$$$$$",
"$$$$#@X@@@@@@#$#@@XXX.....#$$$$$",
"$$$$# X@@@@X@@#@@XXX .....#$$$$$",
"$$$$# X@@@@XX@@@XXX ......#$$$$$",
"$$$$# XX@@@XX@@XXX ..OOO..#$$$$$",
"$$$$# XX@@@XX@XXX ..OOOOO.#$$$$$",
"$$$$#o X@@@XX@XX ..OO+++OO#$$$$$",
"$$$$#o XX@@@X@XX .OO++++OO#$$$$$",
"$$$$#oo XXX@@@XX .OO++++OO#$$$$$",
"$$$$$#o  XX@@@XX .OO+++OO#$$$$$$",
"$$$$$$##o   X#### .OOOO##$$$$$$$",
"$$$$$$$$#####$$$$##.O##$$$$$$$$$",
"$$$$$$$$$$$$$$$$$$$##$$$$$$$$$$$"
};
