/* XPM */
static char *result[] = {
/* columns rows colors chars-per-pixel */
"16 16 24 1 ",
"  c black",
". c gray1",
"X c #040404",
"o c #070707",
"O c #101010",
"+ c gray9",
"@ c #181818",
"# c gray10",
"$ c #202020",
"% c gray15",
"& c gray22",
"* c #3C3C3C",
"= c #3E3E3E",
"- c #555555",
"; c #A0A0A0",
": c gray77",
"> c #CACACA",
", c gray89",
"< c gray93",
"1 c gray94",
"2 c gray96",
"3 c gray97",
"4 c white",
"5 c None",
/* pixels */
"5555555555555555",
"5555555555555555",
"555          555",
"55 O#######@X 55",
"55 ;44444441+ 55",
"55 ;443:>441+ 55",
"55 ;44,.$441+ 55",
"55 ;442:>441+ 55",
"55 ;44444441+ 55",
"55 ;44,.$441+ 55",
"55 ;44<=-441+ 55",
"55 ;44444441+ 55",
"55 %*******&o 55",
"555          555",
"5555555555555555",
"5555555555555555"
};
