/* XPM */
static char *result[] = {
/* columns rows colors chars-per-pixel */
"96 96 8 1 ",
"  c #000001",
". c #6A384E",
"X c #7C7C7C",
"o c #89365C",
"O c #B73743",
"+ c #AE444E",
"@ c #959395",
"# c None",
/* pixels */
"################################################################################################",
"################################################################################################",
"################################################################################################",
"################################################################################################",
"################################################################################################",
"################################################################################################",
"################################################################################################",
"################################################################################################",
"################################################################################################",
"################################################################################################",
"################################################################################################",
"##########################################oooooooooo############################################",
"##########################################oooooooooo############################################",
"######################################oooo@@@@@@@@@@oooo########################################",
"######################################oooo@@@@@@@@@@oooo########################################",
"####################################oo@@@@@@@@@@@@@@@@....ooo###################################",
"####################################oo@@@@@@@@@@@@@@@@....ooo###################################",
"#################################ooo@@@@@@@@@@########@@.....oo#################################",
"#################################ooo@@@@@@@@@@########@@.....oo#################################",
"###############################oo@@@@@@@@@##############@@.....oo###############################",
"###############################oo@@@@@@@@@##############@@.....oo###############################",
"#############################oo@@@@@@@@@##################.......oo#############################",
"#############################oo@@@@@@@@@##################.......oo#############################",
"#############################oo@@@@@@@@@##################.......oo#############################",
"###########################oo@@@@@@@@@####################.......oo#############################",
"###########################oo@@@@@@@@@####################.......oo#############################",
"###########################oo@@@@@@@#########################......oo###########################",
"###########################oo@@@@@@@#########################......oo###########################",
"#########################oo@@@@@@############################......oo###########################",
"#########################oo@@@@@@############################......oo###########################",
"#########################oo@@@@@@############################......oo###########################",
"#########################oo@@@@@@############################......oo###########################",
"#########################@@@@@@################################......oo#########################",
"#########################@@@@@@################################......oo#########################",
"#########################@@@@@@################################......oo#########################",
"#########################@@@@@@################################......oo#########################",
"#########################@@@@##################################......oo#########################",
"#########################@@@@##################################......oo#########################",
"#######################@@@@@@##################################......oo#########################",
"#######################@@@@@@##################################......oo#########################",
"#######################@@@@@@##################################......oo#########################",
"#######################@@@@@@##################################......oo#########################",
"#######################@@@@@@##################################......oo#########################",
"#######################@@@@@@##################################......oo#########################",
"#######################@@@@@@##################################......oo#########################",
"#######################@@@@@@##################################......oo#########################",
"#######################@@@@@@##################################......oo#########################",
"#######################@@@@@@################################..........#########################",
"#######################@@@@@@################################..........#########################",
"#########################@@@@################################..........#########################",
"#########################@@@@################################..........#########################",
"#########################@@@@@@@@@@@@@##############@@@@@@@@@........###########################",
"#########################@@@@@@@@@@@@@##############@@@@@@@@@........###########################",
"#########################@@@@XX@@@@@@@@@##########@@@@XXXXXXX........###########################",
"#########################@@@@XX@@@@@@@@@##########@@@@XXXXXXX........###########################",
"#########################@@XX@@@@@@@@@@@@@######@@@@XXXXXX...........###########################",
"#########################@@XX@@@@@@@@@@@@@######@@@@XXXXXX...........###########################",
"#########################  XX@@@@@@@XXXX@@@@##@@@@XXXXXX  ...........###########################",
"#########################  XX@@@@@@@XXXX@@@@##@@@@XXXXXX  ...........###########################",
"#########################  XX@@@@@@@XXXXXX@@@@@@XXXXXX  .............###########################",
"#########################  XX@@@@@@@XXXXXX@@@@@@XXXXXX  .............###########################",
"#######################oo  XXXX@@@@@XXXXXX@@@@XXXXXX  ....OOOOOOO....###########################",
"#######################oo  XXXX@@@@@XXXXXX@@@@XXXXXX  ....OOOOOOO....###########################",
"#######################oo  XXXX@@@@@@@XXXX@@XXXXXX  ....OOOOOOOOOOO..###########################",
"#######################oo  XXXX@@@@@@@XXXX@@XXXXXX  ....OOOOOOOOOOO..###########################",
"#######################oooo  XX@@@@@@@XXXX@@XXXX  ....OOOO+++++++OOOO###########################",
"#######################oooo  XX@@@@@@@XXXX@@XXXX  ....OOOO+++++++OOOO###########################",
"#########################oo  XXXX@@@@@@@XX@@XXXX  ..OOOO+++++++++OOOO###########################",
"#########################oo  XXXX@@@@@@@XX@@XXXX  ..OOOO+++++++++OOOO###########################",
"#########################oo  XXXX@@@@@@@XX@@XXXX  ..OOOO+++++++++OOOO###########################",
"#########################oooo  XXXXX@@@@@@@@XXXX  ..OOOO+++++++++OOOO###########################",
"#########################oooo  XXXXX@@@@@@@@XXXX  ..OOOO+++++++++OOOO###########################",
"###########################oo    XXXXX@@@@@@XXXX  ..OOOO+++++++OOOO#############################",
"###########################oo    XXXXX@@@@@@XXXX  ..OOOO+++++++OOOO#############################",
"#############################oo     XXXX@@@@##XX  ..OOOOOOOOOOOOO###############################",
"#############################oo     XXXX@@@@##XX  ..OOOOOOOOOOOOO###############################",
"###############################oo       XX########  ..OOOOOOOOO#################################",
"###############################oo       XX########  ..OOOOOOOOO#################################",
"######################################################..OO######################################",
"######################################################..OO######################################",
"################################################################################################",
"################################################################################################",
"################################################################################################",
"################################################################################################",
"################################################################################################",
"################################################################################################",
"################################################################################################",
"################################################################################################",
"################################################################################################",
"################################################################################################",
"################################################################################################",
"################################################################################################",
"################################################################################################",
"################################################################################################",
"################################################################################################",
"################################################################################################"
};
