/* XPM */
static char *result[] = {
/* columns rows colors chars-per-pixel */
"96 96 5 1 ",
"  c #0D1626",
". c #202D54",
"X c #2F498F",
"o c #355AA5",
"O c #4F78BD",
/* pixels */
"..       ....   .   OOOOOOOOO  ...       ....   .   OOOOOOOOO  ...       ....   .   OOOOOOOOO  .",
"         ....  ..  OOOOOOOOOOO           ....  ..  OOOOOOOOOOO           ....  ..  OOOOOOOOOOO  ",
" ooXXXXoXXooXXXX.  OOOXXoooooX   ooXXXXoXXooXXXX.  OOOXXoooooX   ooXXXXoXXooXXXX.  OOOXXoooooX  ",
"OOooooooooooooXXX. OOXXoooooXX  OOooooooooooooXXX. OOXXoooooXX  OOooooooooooooXXX. OOXXoooooXX  ",
"OOooooooooooooXoX..OOXXoooooXX  OOooooooooooooXoX..OOXXoooooXX  OOooooooooooooXoX..OOXXoooooXX  ",
"OOooooooooooooooo..OOoooooooXX  OOooooooooooooooo..OOoooooooXX  OOooooooooooooooo..OOoooooooXX  ",
"OOooooooooooooooo..OOoooXoooXX  OOooooooooooooooo..OOoooXoooXX  OOooooooooooooooo..OOoooXoooXX  ",
"OOooooooooooooXoo..OOooXXXooXX  OOooooooooooooXoo..OOooXXXooXX  OOooooooooooooXoo..OOooXXXooXX  ",
"OOooXoooooooooooo...OoooooooXX  OOooXoooooooooooo...OoooooooXX  OOooXoooooooooooo...OoooooooXX  ",
"OOooXXoooooXXoooo  .XooOoooooX..OOooXXoooooXXoooo  .XooOoooooX..OOooXXoooooXXoooo  .XooOoooooX..",
"OOooXXoooooooooo.. ...ooooooo...OOooXXoooooooooo.. ...ooooooo...OOooXXoooooooooo.. ...ooooooo...",
"OOooXXoooooooooo...   ......... OOooXXoooooooooo...   ......... OOooXXoooooooooo...   ......... ",
"OOooXXooooooooo....     .....   OOooXXooooooooo....     .....   OOooXXooooooooo....     .....   ",
"OOooXXooooooooo...XX..          OOooXXooooooooo...XX..          OOooXXooooooooo...XX..          ",
"OOooooooooooooo   OOXX          OOooooooooooooo   OOXX          OOooooooooooooo   OOXX          ",
"OOooooooooooooo  OOOOOOOOOOOO...OOooooooooooooo  OOOOOOOOOOOO...OOooooooooooooo  OOOOOOOOOOOO...",
"OOOoooooooooooX  OOOooOOOOOOOo..OOOoooooooooooX  OOOooOOOOOOOo..OOOoooooooooooX  OOOooOOOOOOOo..",
"OOOooXoooXooooX  OOooooooooooX  OOOooXoooXooooX  OOooooooooooX  OOOooXoooXooooX  OOooooooooooX  ",
"OOOooooooXooXXX OOooooXoooooXX  OOOooooooXooXXX OOooooXoooooXX  OOOooooooXooXXX OOooooXoooooXX  ",
"   ..ooooooo.. OOOooooooooooXX     ..ooooooo.. OOOooooooooooXX     ..ooooooo.. OOOooooooooooXX  ",
"   ....ooo....OOOoooooooooooXX     ....ooo....OOOoooooooooooXX     ....ooo....OOOoooooooooooXX  ",
" XX....   ....OOOoooooooooooXX   XX....   ....OOOoooooooooooXX   XX....   ....OOOoooooooooooXX  ",
"XOOOX..   ... OOooooooooooooXX  XOOOX..   ... OOooooooooooooXX  XOOOX..   ... OOooooooooooooXX  ",
"XoOoXXXXXXO...XOoooooooooooXXX  XoOoXXXXXXO...XOoooooooooooXXX  XoOoXXXXXXO...XOoooooooooooXXX  ",
"XXXXXoooooOO..XXooooXXoooooXXX  XXXXXoooooOO..XXooooXXoooooXXX  XXXXXoooooOO..XXooooXXoooooXXX  ",
"XXXooooooXOOO..XooooXoooooXXXX  XXXooooooXOOO..XooooXoooooXXXX  XXXooooooXOOO..XooooXoooooXXXX  ",
"XXXoooooooOOO...oooooXoooXXXXX  XXXoooooooOOO...oooooXoooXXXXX  XXXoooooooOOO...oooooXoooXXXXX  ",
"XXoooooooooOOO...XoooooXXXXXX.  XXoooooooooOOO...XoooooXXXXXX.  XXoooooooooOOO...XoooooXXXXXX.  ",
"XXoooooooooooO....XXXXXXXX..... XXoooooooooooO....XXXXXXXX..... XXoooooooooooO....XXXXXXXX..... ",
"XXXoooooXXXXoo.   ..XXX...... . XXXoooooXXXXoo.   ..XXX...... . XXXoooooXXXXoo.   ..XXX...... . ",
"XXXXXXXXXXXXX..     . ....... ..XXXXXXXXXXXXX..     . ....... ..XXXXXXXXXXXXX..     . ....... ..",
".XXXXXXXXXX....        .....  ...XXXXXXXXXX....        .....  ...XXXXXXXXXX....        .....  ..",
"..       ....   .   OOOOOOOOO  ...       ....   .   OOOOOOOOO  ...       ....   .   OOOOOOOOO  .",
"         ....  ..  OOOOOOOOOOO           ....  ..  OOOOOOOOOOO           ....  ..  OOOOOOOOOOO  ",
" ooXXXXoXXooXXXX.  OOOXXoooooX   ooXXXXoXXooXXXX.  OOOXXoooooX   ooXXXXoXXooXXXX.  OOOXXoooooX  ",
"OOooooooooooooXXX. OOXXoooooXX  OOooooooooooooXXX. OOXXoooooXX  OOooooooooooooXXX. OOXXoooooXX  ",
"OOooooooooooooXoX..OOXXoooooXX  OOooooooooooooXoX..OOXXoooooXX  OOooooooooooooXoX..OOXXoooooXX  ",
"OOooooooooooooooo..OOoooooooXX  OOooooooooooooooo..OOoooooooXX  OOooooooooooooooo..OOoooooooXX  ",
"OOooooooooooooooo..OOoooXoooXX  OOooooooooooooooo..OOoooXoooXX  OOooooooooooooooo..OOoooXoooXX  ",
"OOooooooooooooXoo..OOooXXXooXX  OOooooooooooooXoo..OOooXXXooXX  OOooooooooooooXoo..OOooXXXooXX  ",
"OOooXoooooooooooo...OoooooooXX  OOooXoooooooooooo...OoooooooXX  OOooXoooooooooooo...OoooooooXX  ",
"OOooXXoooooXXoooo  .XooOoooooX..OOooXXoooooXXoooo  .XooOoooooX..OOooXXoooooXXoooo  .XooOoooooX..",
"OOooXXoooooooooo.. ...ooooooo...OOooXXoooooooooo.. ...ooooooo...OOooXXoooooooooo.. ...ooooooo...",
"OOooXXoooooooooo...   ......... OOooXXoooooooooo...   ......... OOooXXoooooooooo...   ......... ",
"OOooXXooooooooo....     .....   OOooXXooooooooo....     .....   OOooXXooooooooo....     .....   ",
"OOooXXooooooooo...XX..          OOooXXooooooooo...XX..          OOooXXooooooooo...XX..          ",
"OOooooooooooooo   OOXX          OOooooooooooooo   OOXX          OOooooooooooooo   OOXX          ",
"OOooooooooooooo  OOOOOOOOOOOO...OOooooooooooooo  OOOOOOOOOOOO...OOooooooooooooo  OOOOOOOOOOOO...",
"OOOoooooooooooX  OOOooOOOOOOOo..OOOoooooooooooX  OOOooOOOOOOOo..OOOoooooooooooX  OOOooOOOOOOOo..",
"OOOooXoooXooooX  OOooooooooooX  OOOooXoooXooooX  OOooooooooooX  OOOooXoooXooooX  OOooooooooooX  ",
"OOOooooooXooXXX OOooooXoooooXX  OOOooooooXooXXX OOooooXoooooXX  OOOooooooXooXXX OOooooXoooooXX  ",
"   ..ooooooo.. OOOooooooooooXX     ..ooooooo.. OOOooooooooooXX     ..ooooooo.. OOOooooooooooXX  ",
"   ....ooo....OOOoooooooooooXX     ....ooo....OOOoooooooooooXX     ....ooo....OOOoooooooooooXX  ",
" XX....   ....OOOoooooooooooXX   XX....   ....OOOoooooooooooXX   XX....   ....OOOoooooooooooXX  ",
"XOOOX..   ... OOooooooooooooXX  XOOOX..   ... OOooooooooooooXX  XOOOX..   ... OOooooooooooooXX  ",
"XoOoXXXXXXO...XOoooooooooooXXX  XoOoXXXXXXO...XOoooooooooooXXX  XoOoXXXXXXO...XOoooooooooooXXX  ",
"XXXXXoooooOO..XXooooXXoooooXXX  XXXXXoooooOO..XXooooXXoooooXXX  XXXXXoooooOO..XXooooXXoooooXXX  ",
"XXXooooooXOOO..XooooXoooooXXXX  XXXooooooXOOO..XooooXoooooXXXX  XXXooooooXOOO..XooooXoooooXXXX  ",
"XXXoooooooOOO...oooooXoooXXXXX  XXXoooooooOOO...oooooXoooXXXXX  XXXoooooooOOO...oooooXoooXXXXX  ",
"XXoooooooooOOO...XoooooXXXXXX.  XXoooooooooOOO...XoooooXXXXXX.  XXoooooooooOOO...XoooooXXXXXX.  ",
"XXoooooooooooO....XXXXXXXX..... XXoooooooooooO....XXXXXXXX..... XXoooooooooooO....XXXXXXXX..... ",
"XXXoooooXXXXoo.   ..XXX...... . XXXoooooXXXXoo.   ..XXX...... . XXXoooooXXXXoo.   ..XXX...... . ",
"XXXXXXXXXXXXX..     . ....... ..XXXXXXXXXXXXX..     . ....... ..XXXXXXXXXXXXX..     . ....... ..",
".XXXXXXXXXX....        .....  ...XXXXXXXXXX....        .....  ...XXXXXXXXXX....        .....  ..",
"..       ....   .   OOOOOOOOO  ...       ....   .   OOOOOOOOO  ...       ....   .   OOOOOOOOO  .",
"         ....  ..  OOOOOOOOOOO           ....  ..  OOOOOOOOOOO           ....  ..  OOOOOOOOOOO  ",
" ooXXXXoXXooXXXX.  OOOXXoooooX   ooXXXXoXXooXXXX.  OOOXXoooooX   ooXXXXoXXooXXXX.  OOOXXoooooX  ",
"OOooooooooooooXXX. OOXXoooooXX  OOooooooooooooXXX. OOXXoooooXX  OOooooooooooooXXX. OOXXoooooXX  ",
"OOooooooooooooXoX..OOXXoooooXX  OOooooooooooooXoX..OOXXoooooXX  OOooooooooooooXoX..OOXXoooooXX  ",
"OOooooooooooooooo..OOoooooooXX  OOooooooooooooooo..OOoooooooXX  OOooooooooooooooo..OOoooooooXX  ",
"OOooooooooooooooo..OOoooXoooXX  OOooooooooooooooo..OOoooXoooXX  OOooooooooooooooo..OOoooXoooXX  ",
"OOooooooooooooXoo..OOooXXXooXX  OOooooooooooooXoo..OOooXXXooXX  OOooooooooooooXoo..OOooXXXooXX  ",
"OOooXoooooooooooo...OoooooooXX  OOooXoooooooooooo...OoooooooXX  OOooXoooooooooooo...OoooooooXX  ",
"OOooXXoooooXXoooo  .XooOoooooX..OOooXXoooooXXoooo  .XooOoooooX..OOooXXoooooXXoooo  .XooOoooooX..",
"OOooXXoooooooooo.. ...ooooooo...OOooXXoooooooooo.. ...ooooooo...OOooXXoooooooooo.. ...ooooooo...",
"OOooXXoooooooooo...   ......... OOooXXoooooooooo...   ......... OOooXXoooooooooo...   ......... ",
"OOooXXooooooooo....     .....   OOooXXooooooooo....     .....   OOooXXooooooooo....     .....   ",
"OOooXXooooooooo...XX..          OOooXXooooooooo...XX..          OOooXXooooooooo...XX..          ",
"OOooooooooooooo   OOXX          OOooooooooooooo   OOXX          OOooooooooooooo   OOXX          ",
"OOooooooooooooo  OOOOOOOOOOOO...OOooooooooooooo  OOOOOOOOOOOO...OOooooooooooooo  OOOOOOOOOOOO...",
"OOOoooooooooooX  OOOooOOOOOOOo..OOOoooooooooooX  OOOooOOOOOOOo..OOOoooooooooooX  OOOooOOOOOOOo..",
"OOOooXoooXooooX  OOooooooooooX  OOOooXoooXooooX  OOooooooooooX  OOOooXoooXooooX  OOooooooooooX  ",
"OOOooooooXooXXX OOooooXoooooXX  OOOooooooXooXXX OOooooXoooooXX  OOOooooooXooXXX OOooooXoooooXX  ",
"   ..ooooooo.. OOOooooooooooXX     ..ooooooo.. OOOooooooooooXX     ..ooooooo.. OOOooooooooooXX  ",
"   ....ooo....OOOoooooooooooXX     ....ooo....OOOoooooooooooXX     ....ooo....OOOoooooooooooXX  ",
" XX....   ....OOOoooooooooooXX   XX....   ....OOOoooooooooooXX   XX....   ....OOOoooooooooooXX  ",
"XOOOX..   ... OOooooooooooooXX  XOOOX..   ... OOooooooooooooXX  XOOOX..   ... OOooooooooooooXX  ",
"XoOoXXXXXXO...XOoooooooooooXXX  XoOoXXXXXXO...XOoooooooooooXXX  XoOoXXXXXXO...XOoooooooooooXXX  ",
"XXXXXoooooOO..XXooooXXoooooXXX  XXXXXoooooOO..XXooooXXoooooXXX  XXXXXoooooOO..XXooooXXoooooXXX  ",
"XXXooooooXOOO..XooooXoooooXXXX  XXXooooooXOOO..XooooXoooooXXXX  XXXooooooXOOO..XooooXoooooXXXX  ",
"XXXoooooooOOO...oooooXoooXXXXX  XXXoooooooOOO...oooooXoooXXXXX  XXXoooooooOOO...oooooXoooXXXXX  ",
"XXoooooooooOOO...XoooooXXXXXX.  XXoooooooooOOO...XoooooXXXXXX.  XXoooooooooOOO...XoooooXXXXXX.  ",
"XXoooooooooooO....XXXXXXXX..... XXoooooooooooO....XXXXXXXX..... XXoooooooooooO....XXXXXXXX..... ",
"XXXoooooXXXXoo.   ..XXX...... . XXXoooooXXXXoo.   ..XXX...... . XXXoooooXXXXoo.   ..XXX...... . ",
"XXXXXXXXXXXXX..     . ....... ..XXXXXXXXXXXXX..     . ....... ..XXXXXXXXXXXXX..     . ....... ..",
".XXXXXXXXXX....        .....  ...XXXXXXXXXX....        .....  ...XXXXXXXXXX....        .....  .."
};
